<svg width="71" height="71" viewBox="0 0 71 71" fill="none" xmlns="http://www.w3.org/2000/svg">
<rect x="12.8644" y="12.8644" width="58.1356" height="58.1356" rx="10" fill="#00803E"/>
<path d="M45.0689 28.5847H38.7956C37.4074 28.5847 36.2729 29.7059 36.2729 31.094V32.3487C36.2729 33.7368 37.3941 34.858 38.7822 34.858H45.0689C46.457 34.858 47.5782 33.7368 47.5782 32.3487V31.094C47.5915 29.7059 46.457 28.5847 45.0689 28.5847Z" fill="white"/>
<path d="M48.9263 32.3487C48.9263 34.4709 47.1911 36.2061 45.0689 36.2061H38.7956C36.6733 36.2061 34.9381 34.4709 34.9381 32.3487C34.9381 31.6012 34.1373 31.1341 33.4699 31.4811C32.5139 31.9902 31.7145 32.7498 31.1572 33.6786C30.5999 34.6074 30.3059 35.6703 30.3066 36.7534V49.3133C30.3066 52.5968 32.9894 55.2796 36.2729 55.2796H47.5915C50.875 55.2796 53.5579 52.5968 53.5579 49.3133V36.7534C53.5579 34.4709 52.2765 32.4822 50.3945 31.4811C49.7271 31.1341 48.9263 31.6012 48.9263 32.3487V32.3487ZM46.9375 48.6059C46.9375 49.1532 46.4837 49.607 45.9365 49.607H41.9322C41.385 49.607 40.9312 49.1532 40.9312 48.6059C40.9312 48.0587 41.385 47.6048 41.9322 47.6048H43.5206L37.2206 41.3048C37.0344 41.1165 36.93 40.8623 36.93 40.5974C36.93 40.3326 37.0344 40.0784 37.2206 39.89C37.6076 39.5029 38.2483 39.5029 38.6354 39.89L44.9354 46.19V44.6017C44.9354 44.0544 45.3892 43.6006 45.9365 43.6006C46.4837 43.6006 46.9375 44.0544 46.9375 44.6017V48.6059Z" fill="white"/>
<rect width="21" height="21" rx="5" fill="url(#paint0_linear_100_699)"/>
<path d="M10.0562 10.2515V11.3281C10.0562 11.8203 10.0063 12.2407 9.90674 12.5894C9.80713 12.938 9.66357 13.2236 9.47607 13.4463C9.28857 13.666 9.06445 13.8286 8.80371 13.9341C8.54297 14.0366 8.25293 14.0879 7.93359 14.0879C7.67871 14.0879 7.44141 14.0557 7.22168 13.9912C7.00195 13.9238 6.8042 13.8213 6.62842 13.6836C6.45557 13.543 6.30615 13.3643 6.18018 13.1475C6.05713 12.9307 5.96191 12.6714 5.89453 12.3696C5.83008 12.0679 5.79785 11.7207 5.79785 11.3281V10.2515C5.79785 9.75928 5.84766 9.34033 5.94727 8.99463C6.0498 8.64893 6.19482 8.36621 6.38232 8.14648C6.56982 7.92676 6.79395 7.76709 7.05469 7.66748C7.31543 7.56494 7.60547 7.51367 7.9248 7.51367C8.18262 7.51367 8.41992 7.5459 8.63672 7.61035C8.85645 7.6748 9.05273 7.77588 9.22559 7.91357C9.40137 8.04834 9.55078 8.22412 9.67383 8.44092C9.79688 8.65479 9.89062 8.9126 9.95508 9.21436C10.0225 9.51318 10.0562 9.85889 10.0562 10.2515ZM8.896 11.4863V10.0889C8.896 9.84277 8.88135 9.62891 8.85205 9.44727C8.82568 9.2627 8.78613 9.10596 8.7334 8.97705C8.68066 8.84814 8.61475 8.74414 8.53564 8.66504C8.45654 8.58301 8.36572 8.52295 8.26318 8.48486C8.16064 8.44678 8.04785 8.42773 7.9248 8.42773C7.77246 8.42773 7.63623 8.4585 7.51611 8.52002C7.396 8.57861 7.29492 8.67236 7.21289 8.80127C7.13086 8.93018 7.06787 9.10156 7.02393 9.31543C6.98291 9.52637 6.9624 9.78418 6.9624 10.0889V11.4863C6.9624 11.7324 6.97559 11.9478 7.00195 12.1323C7.03125 12.3169 7.07227 12.4751 7.125 12.6069C7.18066 12.7388 7.24658 12.8472 7.32275 12.9321C7.40186 13.0142 7.49268 13.0757 7.59521 13.1167C7.69775 13.1548 7.81055 13.1738 7.93359 13.1738C8.08887 13.1738 8.2251 13.1431 8.34229 13.0815C8.4624 13.02 8.56348 12.9233 8.64551 12.7915C8.72754 12.6567 8.78906 12.4824 8.83008 12.2686C8.87402 12.0518 8.896 11.791 8.896 11.4863ZM13.9497 7.58398V14H12.7852V8.94189L11.2427 9.45166V8.51123L13.8179 7.58398H13.9497Z" fill="white"/>
<defs>
<linearGradient id="paint0_linear_100_699" x1="0" y1="10.5" x2="21" y2="10.5" gradientUnits="userSpaceOnUse">
<stop stop-color="#1E2431"/>
<stop offset="1" stop-color="#1E3954"/>
</linearGradient>
</defs>
</svg>
