<svg width="71" height="71" viewBox="0 0 71 71" fill="none" xmlns="http://www.w3.org/2000/svg">
<rect x="12.8644" y="12.8644" width="58.1356" height="58.1356" rx="10" fill="#00803E"/>
<path d="M45.0689 28.5847H38.7956C37.4074 28.5847 36.2729 29.7059 36.2729 31.094V32.3487C36.2729 33.7368 37.3941 34.858 38.7822 34.858H45.0689C46.457 34.858 47.5782 33.7368 47.5782 32.3487V31.094C47.5915 29.7059 46.457 28.5847 45.0689 28.5847Z" fill="white"/>
<path d="M48.9263 32.3487C48.9263 34.4709 47.1911 36.2061 45.0689 36.2061H38.7956C36.6733 36.2061 34.9381 34.4709 34.9381 32.3487C34.9381 31.6012 34.1373 31.1341 33.4699 31.4811C32.5139 31.9902 31.7145 32.7498 31.1572 33.6786C30.5999 34.6074 30.3059 35.6703 30.3066 36.7534V49.3133C30.3066 52.5968 32.9894 55.2796 36.2729 55.2796H47.5915C50.875 55.2796 53.5578 52.5968 53.5578 49.3133V36.7534C53.5578 34.4709 52.2765 32.4822 50.3945 31.4811C49.7271 31.1341 48.9263 31.6012 48.9263 32.3487V32.3487ZM42.4394 48.5392H36.5932C36.046 48.5392 35.5922 48.0854 35.5922 47.5381C35.5922 46.9909 36.046 46.5371 36.5932 46.5371H42.4394C42.9867 46.5371 43.4405 46.9909 43.4405 47.5381C43.4405 48.0854 42.9867 48.5392 42.4394 48.5392ZM45.9365 43.2002H36.5932C36.046 43.2002 35.5922 42.7464 35.5922 42.1991C35.5922 41.6519 36.046 41.1981 36.5932 41.1981H45.9365C46.4837 41.1981 46.9375 41.6519 46.9375 42.1991C46.9375 42.7464 46.4837 43.2002 45.9365 43.2002Z" fill="white"/>
<rect width="21" height="21" rx="5" fill="url(#paint0_linear_100_681)"/>
<path d="M10.0562 10.2515V11.3281C10.0562 11.8203 10.0063 12.2407 9.90674 12.5894C9.80713 12.938 9.66357 13.2236 9.47607 13.4463C9.28857 13.666 9.06445 13.8286 8.80371 13.9341C8.54297 14.0366 8.25293 14.0879 7.93359 14.0879C7.67871 14.0879 7.44141 14.0557 7.22168 13.9912C7.00195 13.9238 6.8042 13.8213 6.62842 13.6836C6.45557 13.543 6.30615 13.3643 6.18018 13.1475C6.05713 12.9307 5.96191 12.6714 5.89453 12.3696C5.83008 12.0679 5.79785 11.7207 5.79785 11.3281V10.2515C5.79785 9.75928 5.84766 9.34033 5.94727 8.99463C6.0498 8.64893 6.19482 8.36621 6.38232 8.14648C6.56982 7.92676 6.79395 7.76709 7.05469 7.66748C7.31543 7.56494 7.60547 7.51367 7.9248 7.51367C8.18262 7.51367 8.41992 7.5459 8.63672 7.61035C8.85645 7.6748 9.05273 7.77588 9.22559 7.91357C9.40137 8.04834 9.55078 8.22412 9.67383 8.44092C9.79688 8.65479 9.89062 8.9126 9.95508 9.21436C10.0225 9.51318 10.0562 9.85889 10.0562 10.2515ZM8.896 11.4863V10.0889C8.896 9.84277 8.88135 9.62891 8.85205 9.44727C8.82568 9.2627 8.78613 9.10596 8.7334 8.97705C8.68066 8.84814 8.61475 8.74414 8.53564 8.66504C8.45654 8.58301 8.36572 8.52295 8.26318 8.48486C8.16064 8.44678 8.04785 8.42773 7.9248 8.42773C7.77246 8.42773 7.63623 8.4585 7.51611 8.52002C7.396 8.57861 7.29492 8.67236 7.21289 8.80127C7.13086 8.93018 7.06787 9.10156 7.02393 9.31543C6.98291 9.52637 6.9624 9.78418 6.9624 10.0889V11.4863C6.9624 11.7324 6.97559 11.9478 7.00195 12.1323C7.03125 12.3169 7.07227 12.4751 7.125 12.6069C7.18066 12.7388 7.24658 12.8472 7.32275 12.9321C7.40186 13.0142 7.49268 13.0757 7.59521 13.1167C7.69775 13.1548 7.81055 13.1738 7.93359 13.1738C8.08887 13.1738 8.2251 13.1431 8.34229 13.0815C8.4624 13.02 8.56348 12.9233 8.64551 12.7915C8.72754 12.6567 8.78906 12.4824 8.83008 12.2686C8.87402 12.0518 8.896 11.791 8.896 11.4863ZM15.2944 13.0859V14H10.9614V13.2178L13.04 10.9722C13.2568 10.7261 13.4282 10.5122 13.5542 10.3306C13.6802 10.1489 13.7695 9.98486 13.8223 9.83838C13.8779 9.68896 13.9058 9.54688 13.9058 9.41211C13.9058 9.21582 13.8706 9.04443 13.8003 8.89795C13.73 8.74854 13.6274 8.63281 13.4927 8.55078C13.3608 8.46875 13.1982 8.42773 13.0049 8.42773C12.791 8.42773 12.6079 8.47754 12.4556 8.57715C12.3062 8.67383 12.1919 8.80859 12.1128 8.98145C12.0366 9.1543 11.9985 9.35205 11.9985 9.57471H10.834C10.834 9.19678 10.9219 8.85254 11.0977 8.54199C11.2734 8.22852 11.5254 7.97803 11.8535 7.79053C12.1816 7.60303 12.5713 7.50928 13.0225 7.50928C13.4619 7.50928 13.834 7.58252 14.1387 7.729C14.4434 7.87256 14.6748 8.07764 14.833 8.34424C14.9912 8.61084 15.0703 8.92871 15.0703 9.29785C15.0703 9.50293 15.0366 9.70508 14.9692 9.9043C14.9019 10.1035 14.8066 10.3013 14.6836 10.4976C14.5635 10.6909 14.4199 10.8872 14.2529 11.0864C14.0859 11.2856 13.8999 11.4893 13.6948 11.6973L12.4468 13.0859H15.2944Z" fill="white"/>
<defs>
<linearGradient id="paint0_linear_100_681" x1="0" y1="10.5" x2="21" y2="10.5" gradientUnits="userSpaceOnUse">
<stop stop-color="#1E2431"/>
<stop offset="1" stop-color="#1E3954"/>
</linearGradient>
</defs>
</svg>
