<svg width="72" height="72" viewBox="0 0 72 72" fill="none" xmlns="http://www.w3.org/2000/svg">
<rect x="13.8644" y="13.8644" width="58.1356" height="58.1356" rx="10" fill="#00803E"/>
<path d="M46.0689 29.5847H39.7956C38.4074 29.5847 37.2729 30.7059 37.2729 32.0941V33.3487C37.2729 34.7369 38.3941 35.8581 39.7822 35.8581H46.0689C47.457 35.8581 48.5782 34.7369 48.5782 33.3487V32.0941C48.5915 30.7059 47.457 29.5847 46.0689 29.5847Z" fill="white"/>
<path d="M49.9263 33.3487C49.9263 35.471 48.1911 37.2061 46.0689 37.2061H39.7956C37.6733 37.2061 35.9381 35.471 35.9381 33.3487C35.9381 32.6013 35.1373 32.1341 34.4699 32.4811C33.5139 32.9902 32.7145 33.7499 32.1572 34.6786C31.5999 35.6074 31.3059 36.6703 31.3066 37.7534V50.3134C31.3066 53.5968 33.9894 56.2797 37.2729 56.2797H48.5915C51.875 56.2797 54.5578 53.5968 54.5578 50.3134V37.7534C54.5578 35.471 53.2765 33.4822 51.3945 32.4811C50.7271 32.1341 49.9263 32.6013 49.9263 33.3487V33.3487ZM47.3903 43.9066L42.0513 49.2456C41.8511 49.4458 41.5975 49.5392 41.3439 49.5392C41.0903 49.5392 40.8367 49.4458 40.6365 49.2456L38.6343 47.2434C38.4482 47.0551 38.3438 46.8009 38.3438 46.536C38.3438 46.2712 38.4482 46.017 38.6343 45.8286C39.0214 45.4415 39.6621 45.4415 40.0492 45.8286L41.3439 47.1233L45.9754 42.4917C46.3625 42.1047 47.0032 42.1047 47.3903 42.4917C47.7773 42.8788 47.7773 43.5195 47.3903 43.9066V43.9066Z" fill="white"/>
<rect x="0.813568" y="0.813568" width="24.9153" height="24.9153" rx="5" fill="url(#paint0_linear_100_690)"/>
<path d="M12.8274 13.0227V14.0993C12.8274 14.5915 12.7776 15.0119 12.6779 15.3606C12.5783 15.7092 12.4348 15.9948 12.2473 16.2175C12.0598 16.4372 11.8357 16.5998 11.5749 16.7053C11.3142 16.8078 11.0241 16.8591 10.7048 16.8591C10.4499 16.8591 10.2126 16.8269 9.99289 16.7624C9.77316 16.695 9.57541 16.5925 9.39963 16.4548C9.22678 16.3142 9.07736 16.1355 8.95139 15.9187C8.82834 15.7019 8.73312 15.4426 8.66574 15.1408C8.60129 14.8391 8.56906 14.4919 8.56906 14.0993V13.0227C8.56906 12.5305 8.61887 12.1115 8.71848 11.7658C8.82101 11.4201 8.96603 11.1374 9.15353 10.9177C9.34103 10.698 9.56516 10.5383 9.8259 10.4387C10.0866 10.3362 10.3767 10.2849 10.696 10.2849C10.9538 10.2849 11.1911 10.3171 11.4079 10.3816C11.6277 10.446 11.8239 10.5471 11.9968 10.6848C12.1726 10.8195 12.322 10.9953 12.445 11.2121C12.5681 11.426 12.6618 11.6838 12.7263 11.9856C12.7937 12.2844 12.8274 12.6301 12.8274 13.0227ZM11.6672 14.2575V12.8601C11.6672 12.614 11.6526 12.4001 11.6233 12.2185C11.5969 12.0339 11.5573 11.8772 11.5046 11.7483C11.4519 11.6194 11.386 11.5154 11.3069 11.4362C11.2278 11.3542 11.1369 11.2942 11.0344 11.2561C10.9319 11.218 10.8191 11.1989 10.696 11.1989C10.5437 11.1989 10.4074 11.2297 10.2873 11.2912C10.1672 11.3498 10.0661 11.4436 9.9841 11.5725C9.90207 11.7014 9.83908 11.8728 9.79514 12.0866C9.75412 12.2976 9.73361 12.5554 9.73361 12.8601V14.2575C9.73361 14.5036 9.7468 14.719 9.77316 14.9035C9.80246 15.0881 9.84348 15.2463 9.89621 15.3781C9.95187 15.51 10.0178 15.6184 10.094 15.7033C10.1731 15.7854 10.2639 15.8469 10.3664 15.8879C10.469 15.926 10.5818 15.945 10.7048 15.945C10.8601 15.945 10.9963 15.9143 11.1135 15.8528C11.2336 15.7912 11.3347 15.6945 11.4167 15.5627C11.4987 15.4279 11.5603 15.2536 11.6013 15.0398C11.6452 14.823 11.6672 14.5622 11.6672 14.2575ZM15.0027 13.0578H15.6574C15.8889 13.0578 16.0793 13.0183 16.2287 12.9392C16.3811 12.8571 16.4939 12.7458 16.5671 12.6052C16.6433 12.4616 16.6814 12.2961 16.6814 12.1086C16.6814 11.924 16.6477 11.7644 16.5803 11.6296C16.5129 11.4919 16.4104 11.3864 16.2727 11.3132C16.1379 11.237 15.9651 11.1989 15.7541 11.1989C15.5842 11.1989 15.4275 11.2326 15.2839 11.3C15.1433 11.3674 15.0305 11.4641 14.9455 11.5901C14.8635 11.7131 14.8225 11.8611 14.8225 12.0339H13.6579C13.6579 11.6882 13.7487 11.385 13.9304 11.1242C14.115 10.8606 14.364 10.654 14.6775 10.5046C14.9909 10.3552 15.341 10.2805 15.7278 10.2805C16.1496 10.2805 16.5188 10.3508 16.8352 10.4914C17.1545 10.6291 17.4021 10.8327 17.5779 11.1023C17.7566 11.3718 17.8459 11.7058 17.8459 12.1042C17.8459 12.2946 17.8005 12.4851 17.7097 12.6755C17.6218 12.863 17.4914 13.0329 17.3186 13.1853C17.1487 13.3347 16.9392 13.4563 16.6902 13.55C16.4441 13.6408 16.1613 13.6862 15.842 13.6862H15.0027V13.0578ZM15.0027 13.9543V13.3347H15.842C16.2024 13.3347 16.5144 13.3772 16.778 13.4621C17.0446 13.5442 17.2644 13.6613 17.4372 13.8137C17.6101 13.9631 17.7375 14.1374 17.8195 14.3366C17.9045 14.5359 17.947 14.7497 17.947 14.9782C17.947 15.2771 17.8913 15.5437 17.78 15.778C17.6687 16.0095 17.5119 16.2058 17.3098 16.3669C17.1106 16.528 16.8762 16.6511 16.6067 16.7361C16.3371 16.8181 16.0456 16.8591 15.7321 16.8591C15.4597 16.8591 15.1945 16.8225 14.9367 16.7492C14.6819 16.6731 14.4519 16.5603 14.2468 16.4109C14.0417 16.2585 13.8791 16.0681 13.759 15.8396C13.6389 15.6081 13.5788 15.3401 13.5788 15.0354H14.7434C14.7434 15.2112 14.7859 15.3679 14.8708 15.5056C14.9587 15.6433 15.0788 15.7517 15.2312 15.8308C15.3864 15.907 15.5608 15.945 15.7541 15.945C15.968 15.945 16.1511 15.907 16.3034 15.8308C16.4587 15.7517 16.5774 15.6404 16.6594 15.4968C16.7414 15.3503 16.7824 15.176 16.7824 14.9738C16.7824 14.7336 16.737 14.5388 16.6462 14.3894C16.5554 14.24 16.425 14.1301 16.2551 14.0598C16.0881 13.9895 15.8889 13.9543 15.6574 13.9543H15.0027Z" fill="white"/>
<defs>
<linearGradient id="paint0_linear_100_690" x1="0.813568" y1="13.2712" x2="25.7288" y2="13.2712" gradientUnits="userSpaceOnUse">
<stop stop-color="#1E2431"/>
<stop offset="1" stop-color="#1E3954"/>
</linearGradient>
</defs>
</svg>
