<svg width="16" height="12" viewBox="0 0 16 12" fill="none" xmlns="http://www.w3.org/2000/svg">
<path d="M15 5.14347H3.14L6.77 1.40666C6.93974 1.23163 7.0214 1.00599 6.99702 0.779355C6.97264 0.552724 6.84422 0.343676 6.64 0.198198C6.43578 0.0527213 6.1725 -0.0172684 5.90808 0.00362668C5.64365 0.0245217 5.39974 0.13459 5.23 0.309617L0.23 5.45201C0.196361 5.49292 0.166279 5.53589 0.14 5.58057C0.14 5.62343 0.14 5.64914 0.0700002 5.69199C0.0246737 5.79026 0.000941121 5.89487 0 6.00054C0.000941121 6.1062 0.0246737 6.21081 0.0700002 6.30908C0.0700002 6.35193 0.0699999 6.37764 0.14 6.4205C0.166279 6.46519 0.196361 6.50816 0.23 6.54906L5.23 11.6915C5.32402 11.7882 5.44176 11.866 5.57485 11.9193C5.70793 11.9727 5.85309 12.0002 6 12C6.23365 12.0004 6.46009 11.9306 6.64 11.8029C6.74126 11.7309 6.82496 11.6426 6.88631 11.5428C6.94766 11.4431 6.98546 11.334 6.99754 11.2218C7.00961 11.1095 6.99573 10.9963 6.95669 10.8887C6.91764 10.781 6.8542 10.681 6.77 10.5944L3.14 6.8576H15C15.2652 6.8576 15.5196 6.7673 15.7071 6.60657C15.8946 6.44584 16 6.22784 16 6.00054C16 5.77323 15.8946 5.55523 15.7071 5.3945C15.5196 5.23377 15.2652 5.14347 15 5.14347Z" fill="url(#paint0_linear_369_245)"/>
<defs>
<linearGradient id="paint0_linear_369_245" x1="0" y1="6" x2="16" y2="6" gradientUnits="userSpaceOnUse">
<stop stop-color="#1E2431"/>
<stop offset="1" stop-color="#1E3954"/>
</linearGradient>
</defs>
</svg>
