<svg width="277" height="68" viewBox="0 0 277 68" fill="none" xmlns="http://www.w3.org/2000/svg">
<rect opacity="0.3" x="53" y="18" width="206" height="10" rx="2" fill="#4EA539"/>
<rect opacity="0.3" x="73" y="46" width="161" height="10" rx="2" fill="#4EA539"/>
<g filter="url(#filter0_d_111_239)">
<path d="M51.5008 23C51.2768 22.344 51.0448 21.696 50.8047 21.056C50.5648 20.416 50.3328 19.76 50.1088 19.088H43.1008C42.8768 19.76 42.6448 20.424 42.4048 21.08C42.1808 21.72 41.9568 22.36 41.7328 23H38.5888C39.2128 21.224 39.8048 19.584 40.3648 18.08C40.9248 16.576 41.4688 15.152 41.9967 13.808C42.5408 12.464 43.0768 11.184 43.6048 9.968C44.1328 8.752 44.6768 7.552 45.2368 6.368H48.0928C48.6528 7.552 49.1968 8.752 49.7248 9.968C50.2528 11.184 50.7808 12.464 51.3088 13.808C51.8528 15.152 52.4048 16.576 52.9648 18.08C53.5408 19.584 54.1408 21.224 54.7648 23H51.5008ZM46.6048 9.584C46.2368 10.432 45.8128 11.464 45.3328 12.68C44.8688 13.896 44.3808 15.216 43.8688 16.64H49.3408C48.8288 15.216 48.3328 13.888 47.8528 12.656C47.3728 11.424 46.9568 10.4 46.6048 9.584ZM56.4618 7.136L59.3658 6.656V10.448H63.8298V12.872H59.3658V17.984C59.3658 18.992 59.5258 19.712 59.8458 20.144C60.1658 20.576 60.7098 20.792 61.4778 20.792C62.0058 20.792 62.4698 20.736 62.8698 20.624C63.2858 20.512 63.6138 20.408 63.8538 20.312L64.3338 22.616C63.9978 22.76 63.5578 22.904 63.0138 23.048C62.4698 23.208 61.8298 23.288 61.0938 23.288C60.1978 23.288 59.4458 23.168 58.8378 22.928C58.2458 22.688 57.7738 22.344 57.4218 21.896C57.0698 21.432 56.8218 20.88 56.6778 20.24C56.5338 19.584 56.4618 18.84 56.4618 18.008V7.136ZM65.7301 16.784C65.7301 15.68 65.8901 14.712 66.2101 13.88C66.5461 13.048 66.9861 12.36 67.5301 11.816C68.0741 11.256 68.6981 10.84 69.4021 10.568C70.1061 10.28 70.8261 10.136 71.5621 10.136C73.2901 10.136 74.6341 10.672 75.5941 11.744C76.5701 12.816 77.0581 14.416 77.0581 16.544C77.0581 16.704 77.0501 16.888 77.0341 17.096C77.0341 17.288 77.0261 17.464 77.0101 17.624H68.7301C68.8101 18.632 69.1621 19.416 69.7861 19.976C70.4261 20.52 71.3461 20.792 72.5461 20.792C73.2501 20.792 73.8901 20.728 74.4661 20.6C75.0581 20.472 75.5221 20.336 75.8581 20.192L76.2421 22.568C76.0821 22.648 75.8581 22.736 75.5701 22.832C75.2981 22.912 74.9781 22.984 74.6101 23.048C74.2581 23.128 73.8741 23.192 73.4581 23.24C73.0421 23.288 72.6181 23.312 72.1861 23.312C71.0821 23.312 70.1221 23.152 69.3061 22.832C68.4901 22.496 67.8181 22.04 67.2901 21.464C66.7621 20.872 66.3701 20.184 66.1141 19.4C65.8581 18.6 65.7301 17.728 65.7301 16.784ZM74.1541 15.488C74.1541 15.088 74.0981 14.712 73.9861 14.36C73.8741 13.992 73.7061 13.68 73.4821 13.424C73.2741 13.152 73.0101 12.944 72.6901 12.8C72.3861 12.64 72.0181 12.56 71.5861 12.56C71.1381 12.56 70.7461 12.648 70.4101 12.824C70.0741 12.984 69.7861 13.2 69.5461 13.472C69.3221 13.744 69.1461 14.056 69.0181 14.408C68.8901 14.76 68.8021 15.12 68.7541 15.488H74.1541ZM80.1371 10.856C80.6971 10.696 81.4251 10.544 82.3211 10.4C83.2171 10.256 84.2091 10.184 85.2971 10.184C86.3211 10.184 87.1771 10.328 87.8651 10.616C88.5531 10.888 89.0971 11.28 89.4971 11.792C89.9131 12.288 90.2011 12.896 90.3611 13.616C90.5371 14.32 90.6251 15.096 90.6251 15.944V23H87.7211V16.4C87.7211 15.728 87.6731 15.16 87.5771 14.696C87.4971 14.216 87.3531 13.832 87.1451 13.544C86.9531 13.24 86.6811 13.024 86.3291 12.896C85.9931 12.752 85.5771 12.68 85.0811 12.68C84.7131 12.68 84.3291 12.704 83.9291 12.752C83.5291 12.8 83.2331 12.84 83.0411 12.872V23H80.1371V10.856ZM93.4801 16.736C93.4801 15.808 93.6241 14.944 93.9121 14.144C94.2001 13.328 94.6081 12.624 95.1361 12.032C95.6801 11.44 96.3361 10.976 97.1041 10.64C97.8721 10.304 98.7361 10.136 99.6961 10.136C100.88 10.136 102 10.352 103.056 10.784L102.432 13.16C102.096 13.016 101.712 12.896 101.28 12.8C100.864 12.704 100.416 12.656 99.9361 12.656C98.8001 12.656 97.9361 13.016 97.3441 13.736C96.7521 14.44 96.4561 15.44 96.4561 16.736C96.4561 17.984 96.7361 18.976 97.2961 19.712C97.8561 20.432 98.8001 20.792 100.128 20.792C100.624 20.792 101.112 20.744 101.592 20.648C102.072 20.552 102.488 20.432 102.84 20.288L103.248 22.688C102.928 22.848 102.44 22.992 101.784 23.12C101.144 23.248 100.48 23.312 99.7921 23.312C98.7201 23.312 97.7841 23.152 96.9841 22.832C96.2001 22.496 95.5441 22.04 95.0161 21.464C94.5041 20.872 94.1201 20.176 93.8641 19.376C93.6081 18.56 93.4801 17.68 93.4801 16.736ZM108.424 23H105.52V10.448H108.424V23ZM108.736 6.776C108.736 7.32 108.56 7.752 108.208 8.072C107.856 8.392 107.44 8.552 106.96 8.552C106.464 8.552 106.04 8.392 105.688 8.072C105.336 7.752 105.16 7.32 105.16 6.776C105.16 6.216 105.336 5.776 105.688 5.456C106.04 5.136 106.464 4.976 106.96 4.976C107.44 4.976 107.856 5.136 108.208 5.456C108.56 5.776 108.736 6.216 108.736 6.776ZM123.481 16.712C123.481 17.704 123.337 18.608 123.049 19.424C122.761 20.24 122.353 20.936 121.825 21.512C121.297 22.088 120.657 22.536 119.905 22.856C119.169 23.176 118.353 23.336 117.457 23.336C116.561 23.336 115.745 23.176 115.009 22.856C114.273 22.536 113.641 22.088 113.113 21.512C112.585 20.936 112.169 20.24 111.865 19.424C111.577 18.608 111.433 17.704 111.433 16.712C111.433 15.72 111.577 14.824 111.865 14.024C112.169 13.208 112.585 12.512 113.113 11.936C113.657 11.36 114.297 10.92 115.033 10.616C115.769 10.296 116.577 10.136 117.457 10.136C118.337 10.136 119.145 10.296 119.881 10.616C120.633 10.92 121.273 11.36 121.801 11.936C122.329 12.512 122.737 13.208 123.025 14.024C123.329 14.824 123.481 15.72 123.481 16.712ZM120.505 16.712C120.505 15.464 120.233 14.48 119.689 13.76C119.161 13.024 118.417 12.656 117.457 12.656C116.497 12.656 115.745 13.024 115.201 13.76C114.673 14.48 114.409 15.464 114.409 16.712C114.409 17.976 114.673 18.976 115.201 19.712C115.745 20.448 116.497 20.816 117.457 20.816C118.417 20.816 119.161 20.448 119.689 19.712C120.233 18.976 120.505 17.976 120.505 16.712ZM120.601 5.312L116.689 9.104L115.249 7.808L118.777 3.608L120.601 5.312ZM126.473 10.856C127.033 10.696 127.761 10.544 128.657 10.4C129.553 10.256 130.545 10.184 131.633 10.184C132.657 10.184 133.513 10.328 134.201 10.616C134.889 10.888 135.433 11.28 135.833 11.792C136.249 12.288 136.537 12.896 136.697 13.616C136.873 14.32 136.961 15.096 136.961 15.944V23H134.057V16.4C134.057 15.728 134.009 15.16 133.913 14.696C133.833 14.216 133.689 13.832 133.481 13.544C133.289 13.24 133.017 13.024 132.665 12.896C132.329 12.752 131.913 12.68 131.417 12.68C131.049 12.68 130.665 12.704 130.265 12.752C129.865 12.8 129.569 12.84 129.377 12.872V23H126.473V10.856ZM150.842 6.2C153.242 6.2 155.074 6.64 156.338 7.52C157.618 8.4 158.258 9.744 158.258 11.552C158.258 13.808 157.146 15.336 154.922 16.136C155.226 16.504 155.57 16.952 155.954 17.48C156.338 18.008 156.73 18.584 157.13 19.208C157.53 19.816 157.914 20.448 158.282 21.104C158.65 21.744 158.978 22.376 159.266 23H155.882C155.578 22.424 155.25 21.848 154.898 21.272C154.546 20.68 154.186 20.112 153.818 19.568C153.466 19.008 153.114 18.488 152.762 18.008C152.41 17.512 152.082 17.072 151.778 16.688C151.554 16.704 151.362 16.712 151.202 16.712C151.042 16.712 150.89 16.712 150.746 16.712H149.282V23H146.258V6.608C146.994 6.448 147.778 6.344 148.61 6.296C149.442 6.232 150.186 6.2 150.842 6.2ZM151.058 8.816C150.418 8.816 149.826 8.84 149.282 8.888V14.264H150.602C151.338 14.264 151.986 14.224 152.546 14.144C153.106 14.064 153.57 13.92 153.938 13.712C154.322 13.504 154.61 13.224 154.802 12.872C154.994 12.52 155.09 12.072 155.09 11.528C155.09 11.016 154.994 10.584 154.802 10.232C154.61 9.88 154.33 9.6 153.962 9.392C153.61 9.184 153.186 9.04 152.69 8.96C152.194 8.864 151.65 8.816 151.058 8.816ZM165.881 20.96C166.777 20.96 167.457 20.912 167.921 20.816V17.6C167.761 17.552 167.529 17.504 167.225 17.456C166.921 17.408 166.585 17.384 166.217 17.384C165.897 17.384 165.569 17.408 165.233 17.456C164.913 17.504 164.617 17.592 164.345 17.72C164.089 17.848 163.881 18.032 163.721 18.272C163.561 18.496 163.481 18.784 163.481 19.136C163.481 19.824 163.697 20.304 164.129 20.576C164.561 20.832 165.145 20.96 165.881 20.96ZM165.641 10.136C166.601 10.136 167.409 10.256 168.065 10.496C168.721 10.736 169.241 11.072 169.625 11.504C170.025 11.936 170.305 12.464 170.465 13.088C170.641 13.696 170.729 14.368 170.729 15.104V22.712C170.281 22.808 169.601 22.92 168.689 23.048C167.793 23.192 166.777 23.264 165.641 23.264C164.889 23.264 164.201 23.192 163.577 23.048C162.953 22.904 162.417 22.672 161.969 22.352C161.537 22.032 161.193 21.616 160.937 21.104C160.697 20.592 160.577 19.96 160.577 19.208C160.577 18.488 160.713 17.88 160.985 17.384C161.273 16.888 161.657 16.488 162.137 16.184C162.617 15.864 163.169 15.64 163.793 15.512C164.433 15.368 165.097 15.296 165.785 15.296C166.105 15.296 166.441 15.32 166.793 15.368C167.145 15.4 167.521 15.464 167.921 15.56V15.08C167.921 14.744 167.881 14.424 167.801 14.12C167.721 13.816 167.577 13.552 167.369 13.328C167.177 13.088 166.913 12.904 166.577 12.776C166.257 12.648 165.849 12.584 165.353 12.584C164.681 12.584 164.065 12.632 163.505 12.728C162.945 12.824 162.489 12.936 162.137 13.064L161.777 10.712C162.145 10.584 162.681 10.456 163.385 10.328C164.089 10.2 164.841 10.136 165.641 10.136ZM169.265 5.312L165.353 9.104L163.913 7.808L167.441 3.608L169.265 5.312ZM182.614 16.784C182.614 15.488 182.318 14.48 181.726 13.76C181.15 13.04 180.214 12.68 178.918 12.68C178.646 12.68 178.358 12.696 178.054 12.728C177.766 12.744 177.478 12.792 177.19 12.872V20.048C177.446 20.224 177.782 20.392 178.198 20.552C178.63 20.696 179.086 20.768 179.566 20.768C180.622 20.768 181.39 20.408 181.87 19.688C182.366 18.968 182.614 18 182.614 16.784ZM185.59 16.736C185.59 17.696 185.462 18.576 185.206 19.376C184.966 20.176 184.614 20.864 184.15 21.44C183.686 22.016 183.102 22.464 182.398 22.784C181.71 23.104 180.926 23.264 180.046 23.264C179.454 23.264 178.91 23.192 178.414 23.048C177.918 22.904 177.51 22.744 177.19 22.568V27.44H174.286V10.856C174.878 10.696 175.606 10.544 176.47 10.4C177.334 10.256 178.246 10.184 179.206 10.184C180.198 10.184 181.086 10.336 181.87 10.64C182.654 10.944 183.318 11.384 183.862 11.96C184.422 12.52 184.846 13.208 185.134 14.024C185.438 14.824 185.59 15.728 185.59 16.736ZM191.51 23H188.606V10.448H191.51V23ZM191.822 6.776C191.822 7.32 191.646 7.752 191.294 8.072C190.942 8.392 190.526 8.552 190.046 8.552C189.55 8.552 189.126 8.392 188.774 8.072C188.422 7.752 188.246 7.32 188.246 6.776C188.246 6.216 188.422 5.776 188.774 5.456C189.126 5.136 189.55 4.976 190.046 4.976C190.526 4.976 190.942 5.136 191.294 5.456C191.646 5.776 191.822 6.216 191.822 6.776ZM197.495 16.688C197.495 17.968 197.799 18.976 198.407 19.712C199.015 20.432 199.855 20.792 200.927 20.792C201.391 20.792 201.783 20.776 202.103 20.744C202.439 20.696 202.711 20.648 202.919 20.6V13.4C202.663 13.224 202.319 13.064 201.887 12.92C201.471 12.76 201.023 12.68 200.543 12.68C199.487 12.68 198.711 13.04 198.215 13.76C197.735 14.48 197.495 15.456 197.495 16.688ZM205.823 22.616C205.247 22.792 204.519 22.952 203.639 23.096C202.775 23.24 201.863 23.312 200.903 23.312C199.911 23.312 199.023 23.16 198.239 22.856C197.455 22.552 196.783 22.12 196.223 21.56C195.679 20.984 195.255 20.296 194.951 19.496C194.663 18.68 194.519 17.768 194.519 16.76C194.519 15.768 194.639 14.872 194.879 14.072C195.135 13.256 195.503 12.56 195.983 11.984C196.463 11.408 197.047 10.968 197.735 10.664C198.423 10.344 199.215 10.184 200.111 10.184C200.719 10.184 201.255 10.256 201.719 10.4C202.183 10.544 202.583 10.704 202.919 10.88V4.856L205.823 4.376V22.616ZM213.928 20.96C214.824 20.96 215.504 20.912 215.968 20.816V17.6C215.808 17.552 215.576 17.504 215.272 17.456C214.968 17.408 214.632 17.384 214.264 17.384C213.944 17.384 213.616 17.408 213.28 17.456C212.96 17.504 212.664 17.592 212.392 17.72C212.136 17.848 211.928 18.032 211.768 18.272C211.608 18.496 211.528 18.784 211.528 19.136C211.528 19.824 211.744 20.304 212.176 20.576C212.608 20.832 213.192 20.96 213.928 20.96ZM213.688 10.136C214.648 10.136 215.456 10.256 216.112 10.496C216.768 10.736 217.288 11.072 217.672 11.504C218.072 11.936 218.352 12.464 218.512 13.088C218.688 13.696 218.776 14.368 218.776 15.104V22.712C218.328 22.808 217.648 22.92 216.736 23.048C215.84 23.192 214.824 23.264 213.688 23.264C212.936 23.264 212.248 23.192 211.624 23.048C211 22.904 210.464 22.672 210.016 22.352C209.584 22.032 209.24 21.616 208.984 21.104C208.744 20.592 208.624 19.96 208.624 19.208C208.624 18.488 208.76 17.88 209.032 17.384C209.32 16.888 209.704 16.488 210.184 16.184C210.664 15.864 211.216 15.64 211.84 15.512C212.48 15.368 213.144 15.296 213.832 15.296C214.152 15.296 214.488 15.32 214.84 15.368C215.192 15.4 215.568 15.464 215.968 15.56V15.08C215.968 14.744 215.928 14.424 215.848 14.12C215.768 13.816 215.624 13.552 215.416 13.328C215.224 13.088 214.96 12.904 214.624 12.776C214.304 12.648 213.896 12.584 213.4 12.584C212.728 12.584 212.112 12.632 211.552 12.728C210.992 12.824 210.536 12.936 210.184 13.064L209.824 10.712C210.192 10.584 210.728 10.456 211.432 10.328C212.136 10.2 212.888 10.136 213.688 10.136ZM238.182 10.448C236.886 15.216 235.382 19.536 233.67 23.408C233.35 24.128 233.022 24.744 232.686 25.256C232.35 25.768 231.974 26.192 231.558 26.528C231.142 26.864 230.678 27.104 230.166 27.248C229.654 27.408 229.062 27.488 228.39 27.488C227.942 27.488 227.494 27.44 227.046 27.344C226.614 27.248 226.286 27.144 226.062 27.032L226.59 24.704C227.166 24.928 227.734 25.04 228.294 25.04C229.046 25.04 229.63 24.856 230.046 24.488C230.478 24.136 230.854 23.584 231.174 22.832C230.262 21.072 229.382 19.152 228.534 17.072C227.702 14.992 226.958 12.784 226.302 10.448H229.398C229.558 11.12 229.75 11.848 229.974 12.632C230.214 13.416 230.47 14.216 230.742 15.032C231.014 15.832 231.302 16.632 231.606 17.432C231.91 18.232 232.214 18.976 232.518 19.664C233.03 18.24 233.51 16.728 233.958 15.128C234.406 13.512 234.814 11.952 235.182 10.448H238.182ZM64.4304 34.2C66.8464 34.2 68.6944 34.64 69.9744 35.52C71.2704 36.4 71.9184 37.776 71.9184 39.648C71.9184 40.624 71.7424 41.464 71.3904 42.168C71.0544 42.856 70.5584 43.424 69.9024 43.872C69.2464 44.304 68.4464 44.624 67.5024 44.832C66.5584 45.04 65.4784 45.144 64.2624 45.144H62.7504V51H59.7264V34.608C60.4304 34.448 61.2064 34.344 62.0544 34.296C62.9184 34.232 63.7104 34.2 64.4304 34.2ZM64.6464 36.816C63.8784 36.816 63.2464 36.84 62.7504 36.888V42.552H64.2144C65.6704 42.552 66.7904 42.352 67.5744 41.952C68.3584 41.536 68.7504 40.76 68.7504 39.624C68.7504 39.08 68.6464 38.624 68.4384 38.256C68.2304 37.888 67.9424 37.6 67.5744 37.392C67.2064 37.184 66.7664 37.04 66.2544 36.96C65.7584 36.864 65.2224 36.816 64.6464 36.816ZM73.1598 44.784C73.1598 43.68 73.3198 42.712 73.6398 41.88C73.9758 41.048 74.4158 40.36 74.9598 39.816C75.5038 39.256 76.1278 38.84 76.8318 38.568C77.5358 38.28 78.2558 38.136 78.9918 38.136C80.7198 38.136 82.0638 38.672 83.0238 39.744C83.9998 40.816 84.4878 42.416 84.4878 44.544C84.4878 44.704 84.4798 44.888 84.4638 45.096C84.4638 45.288 84.4558 45.464 84.4398 45.624H76.1598C76.2398 46.632 76.5918 47.416 77.2158 47.976C77.8558 48.52 78.7758 48.792 79.9758 48.792C80.6798 48.792 81.3198 48.728 81.8958 48.6C82.4878 48.472 82.9518 48.336 83.2878 48.192L83.6718 50.568C83.5118 50.648 83.2878 50.736 82.9998 50.832C82.7278 50.912 82.4078 50.984 82.0398 51.048C81.6878 51.128 81.3038 51.192 80.8878 51.24C80.4718 51.288 80.0478 51.312 79.6158 51.312C78.5118 51.312 77.5518 51.152 76.7358 50.832C75.9198 50.496 75.2478 50.04 74.7198 49.464C74.1918 48.872 73.7998 48.184 73.5438 47.4C73.2878 46.6 73.1598 45.728 73.1598 44.784ZM81.5838 43.488C81.5838 43.088 81.5278 42.712 81.4158 42.36C81.3038 41.992 81.1358 41.68 80.9118 41.424C80.7038 41.152 80.4398 40.944 80.1198 40.8C79.8158 40.64 79.4478 40.56 79.0158 40.56C78.5678 40.56 78.1758 40.648 77.8398 40.824C77.5038 40.984 77.2158 41.2 76.9758 41.472C76.7518 41.744 76.5758 42.056 76.4478 42.408C76.3198 42.76 76.2318 43.12 76.1838 43.488H81.5838ZM94.7188 41.064C94.4788 40.984 94.1428 40.904 93.7108 40.824C93.2948 40.728 92.8068 40.68 92.2468 40.68C91.9268 40.68 91.5828 40.712 91.2148 40.776C90.8628 40.84 90.6148 40.896 90.4708 40.944V51H87.5668V39.048C88.1268 38.84 88.8228 38.648 89.6548 38.472C90.5028 38.28 91.4388 38.184 92.4628 38.184C92.6548 38.184 92.8788 38.2 93.1348 38.232C93.3908 38.248 93.6468 38.28 93.9028 38.328C94.1588 38.36 94.4068 38.408 94.6468 38.472C94.8868 38.52 95.0788 38.568 95.2228 38.616L94.7188 41.064ZM100.39 48.912C101.158 48.912 101.718 48.824 102.07 48.648C102.422 48.456 102.598 48.136 102.598 47.688C102.598 47.272 102.406 46.928 102.022 46.656C101.654 46.384 101.038 46.088 100.174 45.768C99.6464 45.576 99.1584 45.376 98.7104 45.168C98.2784 44.944 97.9024 44.688 97.5824 44.4C97.2624 44.112 97.0064 43.768 96.8144 43.368C96.6384 42.952 96.5504 42.448 96.5504 41.856C96.5504 40.704 96.9744 39.8 97.8224 39.144C98.6704 38.472 99.8224 38.136 101.278 38.136C102.014 38.136 102.718 38.208 103.39 38.352C104.062 38.48 104.566 38.608 104.902 38.736L104.374 41.088C104.054 40.944 103.646 40.816 103.15 40.704C102.654 40.576 102.078 40.512 101.422 40.512C100.83 40.512 100.35 40.616 99.9824 40.824C99.6144 41.016 99.4304 41.32 99.4304 41.736C99.4304 41.944 99.4624 42.128 99.5264 42.288C99.6064 42.448 99.7344 42.6 99.9104 42.744C100.086 42.872 100.318 43.008 100.606 43.152C100.894 43.28 101.246 43.416 101.662 43.56C102.35 43.816 102.934 44.072 103.414 44.328C103.894 44.568 104.286 44.848 104.59 45.168C104.91 45.472 105.142 45.824 105.286 46.224C105.43 46.624 105.502 47.104 105.502 47.664C105.502 48.864 105.054 49.776 104.158 50.4C103.278 51.008 102.014 51.312 100.366 51.312C99.2624 51.312 98.3744 51.216 97.7024 51.024C97.0304 50.848 96.5584 50.704 96.2864 50.592L96.7904 48.168C97.2224 48.344 97.7344 48.512 98.3264 48.672C98.9344 48.832 99.6224 48.912 100.39 48.912ZM119.567 44.712C119.567 45.704 119.423 46.608 119.135 47.424C118.847 48.24 118.439 48.936 117.911 49.512C117.383 50.088 116.743 50.536 115.991 50.856C115.255 51.176 114.439 51.336 113.543 51.336C112.647 51.336 111.831 51.176 111.095 50.856C110.359 50.536 109.727 50.088 109.199 49.512C108.671 48.936 108.255 48.24 107.951 47.424C107.663 46.608 107.519 45.704 107.519 44.712C107.519 43.72 107.663 42.824 107.951 42.024C108.255 41.208 108.671 40.512 109.199 39.936C109.743 39.36 110.383 38.92 111.119 38.616C111.855 38.296 112.663 38.136 113.543 38.136C114.423 38.136 115.231 38.296 115.967 38.616C116.719 38.92 117.359 39.36 117.887 39.936C118.415 40.512 118.823 41.208 119.111 42.024C119.415 42.824 119.567 43.72 119.567 44.712ZM116.591 44.712C116.591 43.464 116.319 42.48 115.775 41.76C115.247 41.024 114.503 40.656 113.543 40.656C112.583 40.656 111.831 41.024 111.287 41.76C110.759 42.48 110.495 43.464 110.495 44.712C110.495 45.976 110.759 46.976 111.287 47.712C111.831 48.448 112.583 48.816 113.543 48.816C114.503 48.816 115.247 48.448 115.775 47.712C116.319 46.976 116.591 45.976 116.591 44.712ZM122.559 38.856C123.119 38.696 123.847 38.544 124.743 38.4C125.639 38.256 126.631 38.184 127.719 38.184C128.743 38.184 129.599 38.328 130.287 38.616C130.975 38.888 131.519 39.28 131.919 39.792C132.335 40.288 132.623 40.896 132.783 41.616C132.959 42.32 133.047 43.096 133.047 43.944V51H130.143V44.4C130.143 43.728 130.095 43.16 129.999 42.696C129.919 42.216 129.775 41.832 129.567 41.544C129.375 41.24 129.103 41.024 128.751 40.896C128.415 40.752 127.999 40.68 127.503 40.68C127.135 40.68 126.751 40.704 126.351 40.752C125.951 40.8 125.655 40.84 125.463 40.872V51H122.559V38.856ZM141.014 48.96C141.91 48.96 142.59 48.912 143.054 48.816V45.6C142.894 45.552 142.662 45.504 142.358 45.456C142.054 45.408 141.718 45.384 141.35 45.384C141.03 45.384 140.702 45.408 140.366 45.456C140.046 45.504 139.75 45.592 139.478 45.72C139.222 45.848 139.014 46.032 138.854 46.272C138.694 46.496 138.614 46.784 138.614 47.136C138.614 47.824 138.83 48.304 139.262 48.576C139.694 48.832 140.278 48.96 141.014 48.96ZM140.774 38.136C141.734 38.136 142.542 38.256 143.198 38.496C143.854 38.736 144.374 39.072 144.758 39.504C145.158 39.936 145.438 40.464 145.598 41.088C145.774 41.696 145.862 42.368 145.862 43.104V50.712C145.414 50.808 144.734 50.92 143.822 51.048C142.926 51.192 141.91 51.264 140.774 51.264C140.022 51.264 139.334 51.192 138.71 51.048C138.086 50.904 137.55 50.672 137.102 50.352C136.67 50.032 136.326 49.616 136.07 49.104C135.83 48.592 135.71 47.96 135.71 47.208C135.71 46.488 135.846 45.88 136.118 45.384C136.406 44.888 136.79 44.488 137.27 44.184C137.75 43.864 138.302 43.64 138.926 43.512C139.566 43.368 140.23 43.296 140.918 43.296C141.238 43.296 141.574 43.32 141.926 43.368C142.278 43.4 142.654 43.464 143.054 43.56V43.08C143.054 42.744 143.014 42.424 142.934 42.12C142.854 41.816 142.71 41.552 142.502 41.328C142.31 41.088 142.046 40.904 141.71 40.776C141.39 40.648 140.982 40.584 140.486 40.584C139.814 40.584 139.198 40.632 138.638 40.728C138.078 40.824 137.622 40.936 137.27 41.064L136.91 38.712C137.278 38.584 137.814 38.456 138.518 38.328C139.222 38.2 139.974 38.136 140.774 38.136ZM153.786 51.24C152.922 51.224 152.202 51.128 151.626 50.952C151.066 50.776 150.618 50.528 150.282 50.208C149.946 49.872 149.706 49.464 149.562 48.984C149.434 48.488 149.37 47.928 149.37 47.304V32.856L152.274 32.376V46.752C152.274 47.104 152.298 47.4 152.346 47.64C152.41 47.88 152.514 48.088 152.658 48.264C152.802 48.424 152.994 48.552 153.234 48.648C153.49 48.728 153.81 48.792 154.194 48.84L153.786 51.24ZM159.471 51H156.567V38.448H159.471V51ZM159.783 34.776C159.783 35.32 159.607 35.752 159.255 36.072C158.903 36.392 158.487 36.552 158.007 36.552C157.511 36.552 157.087 36.392 156.735 36.072C156.383 35.752 156.207 35.32 156.207 34.776C156.207 34.216 156.383 33.776 156.735 33.456C157.087 33.136 157.511 32.976 158.007 32.976C158.487 32.976 158.903 33.136 159.255 33.456C159.607 33.776 159.783 34.216 159.783 34.776ZM171.96 40.488C171.64 40.824 171.216 41.296 170.688 41.904C170.176 42.512 169.624 43.192 169.032 43.944C168.44 44.68 167.84 45.456 167.232 46.272C166.64 47.072 166.104 47.84 165.624 48.576H172.104V51H162.12V49.2C162.472 48.56 162.912 47.864 163.44 47.112C163.968 46.36 164.512 45.608 165.072 44.856C165.632 44.088 166.184 43.36 166.728 42.672C167.288 41.984 167.784 41.384 168.216 40.872H162.432V38.448H171.96V40.488ZM179.217 48.96C180.113 48.96 180.793 48.912 181.257 48.816V45.6C181.097 45.552 180.865 45.504 180.561 45.456C180.257 45.408 179.921 45.384 179.553 45.384C179.233 45.384 178.905 45.408 178.569 45.456C178.249 45.504 177.953 45.592 177.681 45.72C177.425 45.848 177.217 46.032 177.057 46.272C176.897 46.496 176.817 46.784 176.817 47.136C176.817 47.824 177.033 48.304 177.465 48.576C177.897 48.832 178.481 48.96 179.217 48.96ZM178.977 38.136C179.937 38.136 180.745 38.256 181.401 38.496C182.057 38.736 182.577 39.072 182.961 39.504C183.361 39.936 183.641 40.464 183.801 41.088C183.977 41.696 184.065 42.368 184.065 43.104V50.712C183.617 50.808 182.937 50.92 182.025 51.048C181.129 51.192 180.113 51.264 178.977 51.264C178.225 51.264 177.537 51.192 176.913 51.048C176.289 50.904 175.753 50.672 175.305 50.352C174.873 50.032 174.529 49.616 174.273 49.104C174.033 48.592 173.913 47.96 173.913 47.208C173.913 46.488 174.049 45.88 174.321 45.384C174.609 44.888 174.993 44.488 175.473 44.184C175.953 43.864 176.505 43.64 177.129 43.512C177.769 43.368 178.433 43.296 179.121 43.296C179.441 43.296 179.777 43.32 180.129 43.368C180.481 43.4 180.857 43.464 181.257 43.56V43.08C181.257 42.744 181.217 42.424 181.137 42.12C181.057 41.816 180.913 41.552 180.705 41.328C180.513 41.088 180.249 40.904 179.913 40.776C179.593 40.648 179.185 40.584 178.689 40.584C178.017 40.584 177.401 40.632 176.841 40.728C176.281 40.824 175.825 40.936 175.473 41.064L175.113 38.712C175.481 38.584 176.017 38.456 176.721 38.328C177.425 38.2 178.177 38.136 178.977 38.136ZM189.901 44.688C189.901 45.968 190.205 46.976 190.813 47.712C191.421 48.432 192.261 48.792 193.333 48.792C193.797 48.792 194.189 48.776 194.509 48.744C194.845 48.696 195.117 48.648 195.325 48.6V41.4C195.069 41.224 194.725 41.064 194.293 40.92C193.877 40.76 193.429 40.68 192.949 40.68C191.893 40.68 191.117 41.04 190.621 41.76C190.141 42.48 189.901 43.456 189.901 44.688ZM198.229 50.616C197.653 50.792 196.925 50.952 196.045 51.096C195.181 51.24 194.269 51.312 193.309 51.312C192.317 51.312 191.429 51.16 190.645 50.856C189.861 50.552 189.189 50.12 188.629 49.56C188.085 48.984 187.661 48.296 187.357 47.496C187.069 46.68 186.925 45.768 186.925 44.76C186.925 43.768 187.045 42.872 187.285 42.072C187.541 41.256 187.909 40.56 188.389 39.984C188.869 39.408 189.453 38.968 190.141 38.664C190.829 38.344 191.621 38.184 192.517 38.184C193.125 38.184 193.661 38.256 194.125 38.4C194.589 38.544 194.989 38.704 195.325 38.88V32.856L198.229 32.376V50.616ZM206.334 48.96C207.23 48.96 207.91 48.912 208.374 48.816V45.6C208.214 45.552 207.982 45.504 207.678 45.456C207.374 45.408 207.038 45.384 206.67 45.384C206.35 45.384 206.022 45.408 205.686 45.456C205.366 45.504 205.07 45.592 204.798 45.72C204.542 45.848 204.334 46.032 204.174 46.272C204.014 46.496 203.934 46.784 203.934 47.136C203.934 47.824 204.15 48.304 204.582 48.576C205.014 48.832 205.598 48.96 206.334 48.96ZM206.094 38.136C207.054 38.136 207.862 38.256 208.518 38.496C209.174 38.736 209.694 39.072 210.078 39.504C210.478 39.936 210.758 40.464 210.918 41.088C211.094 41.696 211.182 42.368 211.182 43.104V50.712C210.734 50.808 210.054 50.92 209.142 51.048C208.246 51.192 207.23 51.264 206.094 51.264C205.342 51.264 204.654 51.192 204.03 51.048C203.406 50.904 202.87 50.672 202.422 50.352C201.99 50.032 201.646 49.616 201.39 49.104C201.15 48.592 201.03 47.96 201.03 47.208C201.03 46.488 201.166 45.88 201.438 45.384C201.726 44.888 202.11 44.488 202.59 44.184C203.07 43.864 203.622 43.64 204.246 43.512C204.886 43.368 205.55 43.296 206.238 43.296C206.558 43.296 206.894 43.32 207.246 43.368C207.598 43.4 207.974 43.464 208.374 43.56V43.08C208.374 42.744 208.334 42.424 208.254 42.12C208.174 41.816 208.03 41.552 207.822 41.328C207.63 41.088 207.366 40.904 207.03 40.776C206.71 40.648 206.302 40.584 205.806 40.584C205.134 40.584 204.518 40.632 203.958 40.728C203.398 40.824 202.942 40.936 202.59 41.064L202.23 38.712C202.598 38.584 203.134 38.456 203.838 38.328C204.542 38.2 205.294 38.136 206.094 38.136ZM218.003 49.416C218.003 49.976 217.811 50.432 217.427 50.784C217.059 51.136 216.611 51.312 216.083 51.312C215.539 51.312 215.083 51.136 214.715 50.784C214.347 50.432 214.163 49.976 214.163 49.416C214.163 48.856 214.347 48.4 214.715 48.048C215.083 47.68 215.539 47.496 216.083 47.496C216.611 47.496 217.059 47.68 217.427 48.048C217.811 48.4 218.003 48.856 218.003 49.416Z" fill="#1E2431"/>
</g>
<defs>
<filter id="filter0_d_111_239" x="34.5887" y="1.60797" width="211.593" height="59.728" filterUnits="userSpaceOnUse" color-interpolation-filters="sRGB">
<feFlood flood-opacity="0" result="BackgroundImageFix"/>
<feColorMatrix in="SourceAlpha" type="matrix" values="0 0 0 0 0 0 0 0 0 0 0 0 0 0 0 0 0 0 127 0" result="hardAlpha"/>
<feOffset dx="2" dy="4"/>
<feGaussianBlur stdDeviation="3"/>
<feComposite in2="hardAlpha" operator="out"/>
<feColorMatrix type="matrix" values="0 0 0 0 0 0 0 0 0 0 0 0 0 0 0 0 0 0 0.18 0"/>
<feBlend mode="normal" in2="BackgroundImageFix" result="effect1_dropShadow_111_239"/>
<feBlend mode="normal" in="SourceGraphic" in2="effect1_dropShadow_111_239" result="shape"/>
</filter>
</defs>
</svg>
