<svg width="89" height="28" viewBox="0 0 89 28" fill="none" xmlns="http://www.w3.org/2000/svg">
<path opacity="0.3" d="M10 20C10 18.8954 10.8954 18 12 18H87C88.1046 18 89 18.8954 89 20V26C89 27.1046 88.1046 28 87 28H12C10.8954 28 10 27.1046 10 26V20Z" fill="#4EA539"/>
<path d="M9.384 23.36C8.136 23.36 7.016 23.168 6.024 22.784C5.032 22.4 4.192 21.84 3.504 21.104C2.816 20.352 2.288 19.44 1.92 18.368C1.552 17.296 1.368 16.064 1.368 14.672C1.368 13.28 1.576 12.048 1.992 10.976C2.424 9.904 3.008 9 3.744 8.264C4.48 7.512 5.344 6.944 6.336 6.56C7.328 6.176 8.392 5.984 9.528 5.984C10.216 5.984 10.84 6.04 11.4 6.152C11.96 6.248 12.448 6.36 12.864 6.488C13.28 6.616 13.624 6.752 13.896 6.896C14.168 7.04 14.36 7.144 14.472 7.208L13.584 9.68C13.2 9.44 12.648 9.216 11.928 9.008C11.224 8.784 10.456 8.672 9.624 8.672C8.904 8.672 8.232 8.8 7.608 9.056C6.984 9.296 6.44 9.664 5.976 10.16C5.528 10.656 5.176 11.28 4.92 12.032C4.664 12.784 4.536 13.656 4.536 14.648C4.536 15.528 4.632 16.336 4.824 17.072C5.032 17.808 5.344 18.448 5.76 18.992C6.176 19.52 6.704 19.936 7.344 20.24C7.984 20.528 8.752 20.672 9.648 20.672C10.72 20.672 11.592 20.568 12.264 20.36C12.936 20.136 13.456 19.928 13.824 19.736L14.64 22.208C14.448 22.336 14.184 22.464 13.848 22.592C13.528 22.72 13.144 22.848 12.696 22.976C12.248 23.088 11.744 23.176 11.184 23.24C10.624 23.32 10.024 23.36 9.384 23.36ZM28.2 16.712C28.2 17.704 28.056 18.608 27.768 19.424C27.48 20.24 27.072 20.936 26.544 21.512C26.016 22.088 25.376 22.536 24.624 22.856C23.888 23.176 23.072 23.336 22.176 23.336C21.28 23.336 20.464 23.176 19.728 22.856C18.992 22.536 18.36 22.088 17.832 21.512C17.304 20.936 16.888 20.24 16.584 19.424C16.296 18.608 16.152 17.704 16.152 16.712C16.152 15.72 16.296 14.824 16.584 14.024C16.888 13.208 17.304 12.512 17.832 11.936C18.376 11.36 19.016 10.92 19.752 10.616C20.488 10.296 21.296 10.136 22.176 10.136C23.056 10.136 23.864 10.296 24.6 10.616C25.352 10.92 25.992 11.36 26.52 11.936C27.048 12.512 27.456 13.208 27.744 14.024C28.048 14.824 28.2 15.72 28.2 16.712ZM25.224 16.712C25.224 15.464 24.952 14.48 24.408 13.76C23.88 13.024 23.136 12.656 22.176 12.656C21.216 12.656 20.464 13.024 19.92 13.76C19.392 14.48 19.128 15.464 19.128 16.712C19.128 17.976 19.392 18.976 19.92 19.712C20.464 20.448 21.216 20.816 22.176 20.816C23.136 20.816 23.88 20.448 24.408 19.712C24.952 18.976 25.224 17.976 25.224 16.712ZM31.0478 7.136L33.9518 6.656V10.448H38.4158V12.872H33.9518V17.984C33.9518 18.992 34.1118 19.712 34.4318 20.144C34.7518 20.576 35.2958 20.792 36.0638 20.792C36.5918 20.792 37.0558 20.736 37.4558 20.624C37.8718 20.512 38.1998 20.408 38.4398 20.312L38.9198 22.616C38.5838 22.76 38.1438 22.904 37.5998 23.048C37.0558 23.208 36.4158 23.288 35.6797 23.288C34.7838 23.288 34.0318 23.168 33.4238 22.928C32.8318 22.688 32.3598 22.344 32.0078 21.896C31.6558 21.432 31.4078 20.88 31.2638 20.24C31.1198 19.584 31.0478 18.84 31.0478 18.008V7.136ZM44.151 23H41.247V10.448H44.151V23ZM44.463 6.776C44.463 7.32 44.287 7.752 43.935 8.072C43.583 8.392 43.167 8.552 42.687 8.552C42.191 8.552 41.767 8.392 41.415 8.072C41.063 7.752 40.887 7.32 40.887 6.776C40.887 6.216 41.063 5.776 41.415 5.456C41.767 5.136 42.191 4.976 42.687 4.976C43.167 4.976 43.583 5.136 43.935 5.456C44.287 5.776 44.463 6.216 44.463 6.776ZM56.6398 12.488C56.3198 12.824 55.8958 13.296 55.3678 13.904C54.8558 14.512 54.3038 15.192 53.7118 15.944C53.1198 16.68 52.5198 17.456 51.9118 18.272C51.3198 19.072 50.7838 19.84 50.3038 20.576H56.7838V23H46.7998V21.2C47.1518 20.56 47.5918 19.864 48.1198 19.112C48.6478 18.36 49.1918 17.608 49.7518 16.856C50.3118 16.088 50.8638 15.36 51.4078 14.672C51.9678 13.984 52.4638 13.384 52.8958 12.872H47.1118V10.448H56.6398V12.488ZM63.8968 20.96C64.7928 20.96 65.4728 20.912 65.9368 20.816V17.6C65.7768 17.552 65.5448 17.504 65.2408 17.456C64.9368 17.408 64.6008 17.384 64.2328 17.384C63.9128 17.384 63.5848 17.408 63.2488 17.456C62.9288 17.504 62.6328 17.592 62.3608 17.72C62.1048 17.848 61.8968 18.032 61.7368 18.272C61.5768 18.496 61.4968 18.784 61.4968 19.136C61.4968 19.824 61.7128 20.304 62.1448 20.576C62.5768 20.832 63.1608 20.96 63.8968 20.96ZM63.6568 10.136C64.6168 10.136 65.4248 10.256 66.0808 10.496C66.7368 10.736 67.2568 11.072 67.6408 11.504C68.0408 11.936 68.3208 12.464 68.4808 13.088C68.6568 13.696 68.7448 14.368 68.7448 15.104V22.712C68.2968 22.808 67.6168 22.92 66.7048 23.048C65.8088 23.192 64.7928 23.264 63.6568 23.264C62.9048 23.264 62.2168 23.192 61.5928 23.048C60.9688 22.904 60.4328 22.672 59.9848 22.352C59.5528 22.032 59.2088 21.616 58.9528 21.104C58.7128 20.592 58.5928 19.96 58.5928 19.208C58.5928 18.488 58.7288 17.88 59.0008 17.384C59.2888 16.888 59.6728 16.488 60.1528 16.184C60.6328 15.864 61.1848 15.64 61.8088 15.512C62.4488 15.368 63.1128 15.296 63.8008 15.296C64.1208 15.296 64.4568 15.32 64.8088 15.368C65.1608 15.4 65.5368 15.464 65.9368 15.56V15.08C65.9368 14.744 65.8968 14.424 65.8168 14.12C65.7368 13.816 65.5928 13.552 65.3848 13.328C65.1928 13.088 64.9288 12.904 64.5928 12.776C64.2728 12.648 63.8648 12.584 63.3688 12.584C62.6968 12.584 62.0808 12.632 61.5208 12.728C60.9608 12.824 60.5048 12.936 60.1528 13.064L59.7928 10.712C60.1608 10.584 60.6968 10.456 61.4008 10.328C62.1048 10.2 62.8568 10.136 63.6568 10.136ZM79.4531 13.064C79.2131 12.984 78.8771 12.904 78.4451 12.824C78.0291 12.728 77.5411 12.68 76.9811 12.68C76.6611 12.68 76.3171 12.712 75.9491 12.776C75.5971 12.84 75.3491 12.896 75.2051 12.944V23H72.3011V11.048C72.8611 10.84 73.5571 10.648 74.3891 10.472C75.2371 10.28 76.1731 10.184 77.1971 10.184C77.3891 10.184 77.6131 10.2 77.8691 10.232C78.1251 10.248 78.3811 10.28 78.6371 10.328C78.8931 10.36 79.1411 10.408 79.3811 10.472C79.6211 10.52 79.8131 10.568 79.9571 10.616L79.4531 13.064Z" fill="white"/>
</svg>
