<svg width="213" height="44" viewBox="0 0 213 44" fill="none" xmlns="http://www.w3.org/2000/svg">
<path d="M54.2988 19H52.5176L52.5293 18.0801H54.2988C54.9082 18.0801 55.416 17.9531 55.8223 17.6992C56.2285 17.4414 56.5332 17.082 56.7363 16.6211C56.9434 16.1562 57.0469 15.6133 57.0469 14.9922V14.4707C57.0469 13.9824 56.9883 13.5488 56.8711 13.1699C56.7539 12.7871 56.582 12.4648 56.3555 12.2031C56.1289 11.9375 55.8516 11.7363 55.5234 11.5996C55.1992 11.4629 54.8262 11.3945 54.4043 11.3945H52.4824V10.4688H54.4043C54.9629 10.4688 55.4727 10.5625 55.9336 10.75C56.3945 10.9336 56.791 11.2012 57.123 11.5527C57.459 11.9004 57.7168 12.3223 57.8965 12.8184C58.0762 13.3105 58.166 13.8652 58.166 14.4824V14.9922C58.166 15.6094 58.0762 16.166 57.8965 16.6621C57.7168 17.1543 57.457 17.5742 57.1172 17.9219C56.7812 18.2695 56.375 18.5371 55.8984 18.7246C55.4258 18.9082 54.8926 19 54.2988 19ZM53.1211 10.4688V19H51.9902V10.4688H53.1211ZM60.8789 12.6602V19H59.7891V12.6602H60.8789ZM59.707 10.9785C59.707 10.8027 59.7598 10.6543 59.8652 10.5332C59.9746 10.4121 60.1348 10.3516 60.3457 10.3516C60.5527 10.3516 60.7109 10.4121 60.8203 10.5332C60.9336 10.6543 60.9902 10.8027 60.9902 10.9785C60.9902 11.1465 60.9336 11.291 60.8203 11.4121C60.7109 11.5293 60.5527 11.5879 60.3457 11.5879C60.1348 11.5879 59.9746 11.5293 59.8652 11.4121C59.7598 11.291 59.707 11.1465 59.707 10.9785ZM66.3105 17.3184C66.3105 17.1621 66.2754 17.0176 66.2051 16.8848C66.1387 16.748 66 16.625 65.7891 16.5156C65.582 16.4023 65.2695 16.3047 64.8516 16.2227C64.5 16.1484 64.1816 16.0605 63.8965 15.959C63.6152 15.8574 63.375 15.7344 63.1758 15.5898C62.9805 15.4453 62.8301 15.2754 62.7246 15.0801C62.6191 14.8848 62.5664 14.6562 62.5664 14.3945C62.5664 14.1445 62.6211 13.9082 62.7305 13.6855C62.8438 13.4629 63.002 13.2656 63.2051 13.0938C63.4121 12.9219 63.6602 12.7871 63.9492 12.6895C64.2383 12.5918 64.5605 12.543 64.916 12.543C65.4238 12.543 65.8574 12.6328 66.2168 12.8125C66.5762 12.9922 66.8516 13.2324 67.043 13.5332C67.2344 13.8301 67.3301 14.1602 67.3301 14.5234H66.2461C66.2461 14.3477 66.1934 14.1777 66.0879 14.0137C65.9863 13.8457 65.8359 13.707 65.6367 13.5977C65.4414 13.4883 65.2012 13.4336 64.916 13.4336C64.6152 13.4336 64.3711 13.4805 64.1836 13.5742C64 13.6641 63.8652 13.7793 63.7793 13.9199C63.6973 14.0605 63.6562 14.209 63.6562 14.3652C63.6562 14.4824 63.6758 14.5879 63.7148 14.6816C63.7578 14.7715 63.832 14.8555 63.9375 14.9336C64.043 15.0078 64.1914 15.0781 64.3828 15.1445C64.5742 15.2109 64.8184 15.2773 65.1152 15.3438C65.6348 15.4609 66.0625 15.6016 66.3984 15.7656C66.7344 15.9297 66.9844 16.1309 67.1484 16.3691C67.3125 16.6074 67.3945 16.8965 67.3945 17.2363C67.3945 17.5137 67.3359 17.7676 67.2188 17.998C67.1055 18.2285 66.9395 18.4277 66.7207 18.5957C66.5059 18.7598 66.248 18.8887 65.9473 18.9824C65.6504 19.0723 65.3164 19.1172 64.9453 19.1172C64.3867 19.1172 63.9141 19.0176 63.5273 18.8184C63.1406 18.6191 62.8477 18.3613 62.6484 18.0449C62.4492 17.7285 62.3496 17.3945 62.3496 17.043H63.4395C63.4551 17.3398 63.541 17.5762 63.6973 17.752C63.8535 17.9238 64.0449 18.0469 64.2715 18.1211C64.498 18.1914 64.7227 18.2266 64.9453 18.2266C65.2422 18.2266 65.4902 18.1875 65.6895 18.1094C65.8926 18.0312 66.0469 17.9238 66.1523 17.7871C66.2578 17.6504 66.3105 17.4941 66.3105 17.3184ZM71.4492 19.1172C71.0078 19.1172 70.6074 19.043 70.248 18.8945C69.8926 18.7422 69.5859 18.5293 69.3281 18.2559C69.0742 17.9824 68.8789 17.6582 68.7422 17.2832C68.6055 16.9082 68.5371 16.498 68.5371 16.0527V15.8066C68.5371 15.291 68.6133 14.832 68.7656 14.4297C68.918 14.0234 69.125 13.6797 69.3867 13.3984C69.6484 13.1172 69.9453 12.9043 70.2773 12.7598C70.6094 12.6152 70.9531 12.543 71.3086 12.543C71.7617 12.543 72.1523 12.6211 72.4805 12.7773C72.8125 12.9336 73.084 13.1523 73.2949 13.4336C73.5059 13.7109 73.6621 14.0391 73.7637 14.418C73.8652 14.793 73.916 15.2031 73.916 15.6484V16.1348H69.1816V15.25H72.832V15.168C72.8164 14.8867 72.7578 14.6133 72.6562 14.3477C72.5586 14.082 72.4023 13.8633 72.1875 13.6914C71.9727 13.5195 71.6797 13.4336 71.3086 13.4336C71.0625 13.4336 70.8359 13.4863 70.6289 13.5918C70.4219 13.6934 70.2441 13.8457 70.0957 14.0488C69.9473 14.252 69.832 14.5 69.75 14.793C69.668 15.0859 69.627 15.4238 69.627 15.8066V16.0527C69.627 16.3535 69.668 16.6367 69.75 16.9023C69.8359 17.1641 69.959 17.3945 70.1191 17.5938C70.2832 17.793 70.4805 17.9492 70.7109 18.0625C70.9453 18.1758 71.2109 18.2324 71.5078 18.2324C71.8906 18.2324 72.2148 18.1543 72.4805 17.998C72.7461 17.8418 72.9785 17.6328 73.1777 17.3711L73.834 17.8926C73.6973 18.0996 73.5234 18.2969 73.3125 18.4844C73.1016 18.6719 72.8418 18.8242 72.5332 18.9414C72.2285 19.0586 71.8672 19.1172 71.4492 19.1172ZM76.2656 14.0137V19H75.1816V12.6602H76.207L76.2656 14.0137ZM76.0078 15.5898L75.5566 15.5723C75.5605 15.1387 75.625 14.7383 75.75 14.3711C75.875 14 76.0508 13.6777 76.2773 13.4043C76.5039 13.1309 76.7734 12.9199 77.0859 12.7715C77.4023 12.6191 77.752 12.543 78.1348 12.543C78.4473 12.543 78.7285 12.5859 78.9785 12.6719C79.2285 12.7539 79.4414 12.8867 79.6172 13.0703C79.7969 13.2539 79.9336 13.4922 80.0273 13.7852C80.1211 14.0742 80.168 14.4277 80.168 14.8457V19H79.0781V14.834C79.0781 14.502 79.0293 14.2363 78.9316 14.0371C78.834 13.834 78.6914 13.6875 78.5039 13.5977C78.3164 13.5039 78.0859 13.457 77.8125 13.457C77.543 13.457 77.2969 13.5137 77.0742 13.627C76.8555 13.7402 76.666 13.8965 76.5059 14.0957C76.3496 14.2949 76.2266 14.5234 76.1367 14.7812C76.0508 15.0352 76.0078 15.3047 76.0078 15.5898ZM79.0605 10.1172L79.793 10.1816C79.793 10.4668 79.7363 10.7168 79.623 10.9316C79.5098 11.1465 79.3574 11.3125 79.166 11.4297C78.9785 11.5469 78.7656 11.6055 78.5273 11.6055C78.3281 11.6055 78.1641 11.5781 78.0352 11.5234C77.9062 11.4648 77.791 11.4004 77.6895 11.3301C77.5879 11.2559 77.4805 11.1914 77.3672 11.1367C77.2578 11.0781 77.1211 11.0488 76.957 11.0488C76.793 11.0488 76.6543 11.1113 76.541 11.2363C76.4316 11.3613 76.377 11.5156 76.377 11.6992L75.6445 11.6641C75.6445 11.3789 75.6992 11.1289 75.8086 10.9141C75.9219 10.6953 76.0742 10.5254 76.2656 10.4043C76.457 10.2793 76.6699 10.2168 76.9043 10.2168C77.0723 10.2168 77.2188 10.2461 77.3438 10.3047C77.4727 10.3594 77.5938 10.4238 77.707 10.498C77.8203 10.5684 77.9375 10.6328 78.0586 10.6914C78.1797 10.7461 78.3184 10.7734 78.4746 10.7734C78.6387 10.7734 78.7773 10.7109 78.8906 10.5859C79.0039 10.457 79.0605 10.3008 79.0605 10.1172ZM81.5273 15.9004V15.7656C81.5273 15.3086 81.5938 14.8848 81.7266 14.4941C81.8594 14.0996 82.0508 13.7578 82.3008 13.4688C82.5508 13.1758 82.8535 12.9492 83.209 12.7891C83.5645 12.625 83.9629 12.543 84.4043 12.543C84.8496 12.543 85.25 12.625 85.6055 12.7891C85.9648 12.9492 86.2695 13.1758 86.5195 13.4688C86.7734 13.7578 86.9668 14.0996 87.0996 14.4941C87.2324 14.8848 87.2988 15.3086 87.2988 15.7656V15.9004C87.2988 16.3574 87.2324 16.7812 87.0996 17.1719C86.9668 17.5625 86.7734 17.9043 86.5195 18.1973C86.2695 18.4863 85.9668 18.7129 85.6113 18.877C85.2598 19.0371 84.8613 19.1172 84.416 19.1172C83.9707 19.1172 83.5703 19.0371 83.2148 18.877C82.8594 18.7129 82.5547 18.4863 82.3008 18.1973C82.0508 17.9043 81.8594 17.5625 81.7266 17.1719C81.5938 16.7812 81.5273 16.3574 81.5273 15.9004ZM82.6113 15.7656V15.9004C82.6113 16.2168 82.6484 16.5156 82.7227 16.7969C82.7969 17.0742 82.9082 17.3203 83.0566 17.5352C83.209 17.75 83.3984 17.9199 83.625 18.0449C83.8516 18.166 84.1152 18.2266 84.416 18.2266C84.7129 18.2266 84.9727 18.166 85.1953 18.0449C85.4219 17.9199 85.6094 17.75 85.7578 17.5352C85.9062 17.3203 86.0176 17.0742 86.0918 16.7969C86.1699 16.5156 86.209 16.2168 86.209 15.9004V15.7656C86.209 15.4531 86.1699 15.1582 86.0918 14.8809C86.0176 14.5996 85.9043 14.3516 85.752 14.1367C85.6035 13.918 85.416 13.7461 85.1895 13.6211C84.9668 13.4961 84.7051 13.4336 84.4043 13.4336C84.1074 13.4336 83.8457 13.4961 83.6191 13.6211C83.3965 13.7461 83.209 13.918 83.0566 14.1367C82.9082 14.3516 82.7969 14.5996 82.7227 14.8809C82.6484 15.1582 82.6113 15.4531 82.6113 15.7656ZM95.6309 17.7695V10H96.7207V19H95.7246L95.6309 17.7695ZM91.3652 15.9004V15.7773C91.3652 15.293 91.4238 14.8535 91.541 14.459C91.6621 14.0605 91.832 13.7188 92.0508 13.4336C92.2734 13.1484 92.5371 12.9297 92.8418 12.7773C93.1504 12.6211 93.4941 12.543 93.873 12.543C94.2715 12.543 94.6191 12.6133 94.916 12.7539C95.2168 12.8906 95.4707 13.0918 95.6777 13.3574C95.8887 13.6191 96.0547 13.9355 96.1758 14.3066C96.2969 14.6777 96.3809 15.0977 96.4277 15.5664V16.1055C96.3848 16.5703 96.3008 16.9883 96.1758 17.3594C96.0547 17.7305 95.8887 18.0469 95.6777 18.3086C95.4707 18.5703 95.2168 18.7715 94.916 18.9121C94.6152 19.0488 94.2637 19.1172 93.8613 19.1172C93.4902 19.1172 93.1504 19.0371 92.8418 18.877C92.5371 18.7168 92.2734 18.4922 92.0508 18.2031C91.832 17.9141 91.6621 17.5742 91.541 17.1836C91.4238 16.7891 91.3652 16.3613 91.3652 15.9004ZM92.4551 15.7773V15.9004C92.4551 16.2168 92.4863 16.5137 92.5488 16.791C92.6152 17.0684 92.7168 17.3125 92.8535 17.5234C92.9902 17.7344 93.1641 17.9004 93.375 18.0215C93.5859 18.1387 93.8379 18.1973 94.1309 18.1973C94.4902 18.1973 94.7852 18.1211 95.0156 17.9688C95.25 17.8164 95.4375 17.6152 95.5781 17.3652C95.7188 17.1152 95.8281 16.8438 95.9062 16.5508V15.1387C95.8594 14.9238 95.791 14.7168 95.7012 14.5176C95.6152 14.3145 95.502 14.1348 95.3613 13.9785C95.2246 13.8184 95.0547 13.6914 94.8516 13.5977C94.6523 13.5039 94.416 13.457 94.1426 13.457C93.8457 13.457 93.5898 13.5195 93.375 13.6445C93.1641 13.7656 92.9902 13.9336 92.8535 14.1484C92.7168 14.3594 92.6152 14.6055 92.5488 14.8867C92.4863 15.1641 92.4551 15.4609 92.4551 15.7773ZM101.039 19.1172C100.598 19.1172 100.197 19.043 99.8379 18.8945C99.4824 18.7422 99.1758 18.5293 98.918 18.2559C98.6641 17.9824 98.4688 17.6582 98.332 17.2832C98.1953 16.9082 98.127 16.498 98.127 16.0527V15.8066C98.127 15.291 98.2031 14.832 98.3555 14.4297C98.5078 14.0234 98.7148 13.6797 98.9766 13.3984C99.2383 13.1172 99.5352 12.9043 99.8672 12.7598C100.199 12.6152 100.543 12.543 100.898 12.543C101.352 12.543 101.742 12.6211 102.07 12.7773C102.402 12.9336 102.674 13.1523 102.885 13.4336C103.096 13.7109 103.252 14.0391 103.354 14.418C103.455 14.793 103.506 15.2031 103.506 15.6484V16.1348H98.7715V15.25H102.422V15.168C102.406 14.8867 102.348 14.6133 102.246 14.3477C102.148 14.082 101.992 13.8633 101.777 13.6914C101.562 13.5195 101.27 13.4336 100.898 13.4336C100.652 13.4336 100.426 13.4863 100.219 13.5918C100.012 13.6934 99.834 13.8457 99.6855 14.0488C99.5371 14.252 99.4219 14.5 99.3398 14.793C99.2578 15.0859 99.2168 15.4238 99.2168 15.8066V16.0527C99.2168 16.3535 99.2578 16.6367 99.3398 16.9023C99.4258 17.1641 99.5488 17.3945 99.709 17.5938C99.873 17.793 100.07 17.9492 100.301 18.0625C100.535 18.1758 100.801 18.2324 101.098 18.2324C101.48 18.2324 101.805 18.1543 102.07 17.998C102.336 17.8418 102.568 17.6328 102.768 17.3711L103.424 17.8926C103.287 18.0996 103.113 18.2969 102.902 18.4844C102.691 18.6719 102.432 18.8242 102.123 18.9414C101.818 19.0586 101.457 19.1172 101.039 19.1172ZM112.459 16.8438C112.459 16.6445 112.428 16.4688 112.365 16.3164C112.307 16.1602 112.201 16.0195 112.049 15.8945C111.9 15.7695 111.693 15.6504 111.428 15.5371C111.166 15.4238 110.834 15.3086 110.432 15.1914C110.01 15.0664 109.629 14.9277 109.289 14.7754C108.949 14.6191 108.658 14.4414 108.416 14.2422C108.174 14.043 107.988 13.8145 107.859 13.5566C107.73 13.2988 107.666 13.0039 107.666 12.6719C107.666 12.3398 107.734 12.0332 107.871 11.752C108.008 11.4707 108.203 11.2266 108.457 11.0195C108.715 10.8086 109.021 10.6445 109.377 10.5273C109.732 10.4102 110.129 10.3516 110.566 10.3516C111.207 10.3516 111.75 10.4746 112.195 10.7207C112.645 10.9629 112.986 11.2812 113.221 11.6758C113.455 12.0664 113.572 12.4844 113.572 12.9297H112.447C112.447 12.6094 112.379 12.3262 112.242 12.0801C112.105 11.8301 111.898 11.6348 111.621 11.4941C111.344 11.3496 110.992 11.2773 110.566 11.2773C110.164 11.2773 109.832 11.3379 109.57 11.459C109.309 11.5801 109.113 11.7441 108.984 11.9512C108.859 12.1582 108.797 12.3945 108.797 12.6602C108.797 12.8398 108.834 13.0039 108.908 13.1523C108.986 13.2969 109.105 13.4316 109.266 13.5566C109.43 13.6816 109.637 13.7969 109.887 13.9023C110.141 14.0078 110.443 14.1094 110.795 14.207C111.279 14.3438 111.697 14.4961 112.049 14.6641C112.4 14.832 112.689 15.0215 112.916 15.2324C113.146 15.4395 113.316 15.6758 113.426 15.9414C113.539 16.2031 113.596 16.5 113.596 16.832C113.596 17.1797 113.525 17.4941 113.385 17.7754C113.244 18.0566 113.043 18.2969 112.781 18.4961C112.52 18.6953 112.205 18.8496 111.838 18.959C111.475 19.0645 111.068 19.1172 110.619 19.1172C110.225 19.1172 109.836 19.0625 109.453 18.9531C109.074 18.8438 108.729 18.6797 108.416 18.4609C108.107 18.2422 107.859 17.9727 107.672 17.6523C107.488 17.3281 107.396 16.9531 107.396 16.5273H108.521C108.521 16.8203 108.578 17.0723 108.691 17.2832C108.805 17.4902 108.959 17.6621 109.154 17.7988C109.354 17.9355 109.578 18.0371 109.828 18.1035C110.082 18.166 110.346 18.1973 110.619 18.1973C111.014 18.1973 111.348 18.1426 111.621 18.0332C111.895 17.9238 112.102 17.7676 112.242 17.5645C112.387 17.3613 112.459 17.1211 112.459 16.8438ZM116.051 12.6602V19H114.961V12.6602H116.051ZM114.879 10.9785C114.879 10.8027 114.932 10.6543 115.037 10.5332C115.146 10.4121 115.307 10.3516 115.518 10.3516C115.725 10.3516 115.883 10.4121 115.992 10.5332C116.105 10.6543 116.162 10.8027 116.162 10.9785C116.162 11.1465 116.105 11.291 115.992 11.4121C115.883 11.5293 115.725 11.5879 115.518 11.5879C115.307 11.5879 115.146 11.5293 115.037 11.4121C114.932 11.291 114.879 11.1465 114.879 10.9785ZM121.482 17.3184C121.482 17.1621 121.447 17.0176 121.377 16.8848C121.311 16.748 121.172 16.625 120.961 16.5156C120.754 16.4023 120.441 16.3047 120.023 16.2227C119.672 16.1484 119.354 16.0605 119.068 15.959C118.787 15.8574 118.547 15.7344 118.348 15.5898C118.152 15.4453 118.002 15.2754 117.896 15.0801C117.791 14.8848 117.738 14.6562 117.738 14.3945C117.738 14.1445 117.793 13.9082 117.902 13.6855C118.016 13.4629 118.174 13.2656 118.377 13.0938C118.584 12.9219 118.832 12.7871 119.121 12.6895C119.41 12.5918 119.732 12.543 120.088 12.543C120.596 12.543 121.029 12.6328 121.389 12.8125C121.748 12.9922 122.023 13.2324 122.215 13.5332C122.406 13.8301 122.502 14.1602 122.502 14.5234H121.418C121.418 14.3477 121.365 14.1777 121.26 14.0137C121.158 13.8457 121.008 13.707 120.809 13.5977C120.613 13.4883 120.373 13.4336 120.088 13.4336C119.787 13.4336 119.543 13.4805 119.355 13.5742C119.172 13.6641 119.037 13.7793 118.951 13.9199C118.869 14.0605 118.828 14.209 118.828 14.3652C118.828 14.4824 118.848 14.5879 118.887 14.6816C118.93 14.7715 119.004 14.8555 119.109 14.9336C119.215 15.0078 119.363 15.0781 119.555 15.1445C119.746 15.2109 119.99 15.2773 120.287 15.3438C120.807 15.4609 121.234 15.6016 121.57 15.7656C121.906 15.9297 122.156 16.1309 122.32 16.3691C122.484 16.6074 122.566 16.8965 122.566 17.2363C122.566 17.5137 122.508 17.7676 122.391 17.998C122.277 18.2285 122.111 18.4277 121.893 18.5957C121.678 18.7598 121.42 18.8887 121.119 18.9824C120.822 19.0723 120.488 19.1172 120.117 19.1172C119.559 19.1172 119.086 19.0176 118.699 18.8184C118.312 18.6191 118.02 18.3613 117.82 18.0449C117.621 17.7285 117.521 17.3945 117.521 17.043H118.611C118.627 17.3398 118.713 17.5762 118.869 17.752C119.025 17.9238 119.217 18.0469 119.443 18.1211C119.67 18.1914 119.895 18.2266 120.117 18.2266C120.414 18.2266 120.662 18.1875 120.861 18.1094C121.064 18.0312 121.219 17.9238 121.324 17.7871C121.43 17.6504 121.482 17.4941 121.482 17.3184ZM126.645 12.6602V13.4922H123.217V12.6602H126.645ZM124.377 11.1191H125.461V17.4297C125.461 17.6445 125.494 17.8066 125.561 17.916C125.627 18.0254 125.713 18.0977 125.818 18.1328C125.924 18.168 126.037 18.1855 126.158 18.1855C126.248 18.1855 126.342 18.1777 126.439 18.1621C126.541 18.1426 126.617 18.127 126.668 18.1152L126.674 19C126.588 19.0273 126.475 19.0527 126.334 19.0762C126.197 19.1035 126.031 19.1172 125.836 19.1172C125.57 19.1172 125.326 19.0645 125.104 18.959C124.881 18.8535 124.703 18.6777 124.57 18.4316C124.441 18.1816 124.377 17.8457 124.377 17.4238V11.1191ZM130.547 19.1172C130.105 19.1172 129.705 19.043 129.346 18.8945C128.99 18.7422 128.684 18.5293 128.426 18.2559C128.172 17.9824 127.977 17.6582 127.84 17.2832C127.703 16.9082 127.635 16.498 127.635 16.0527V15.8066C127.635 15.291 127.711 14.832 127.863 14.4297C128.016 14.0234 128.223 13.6797 128.484 13.3984C128.746 13.1172 129.043 12.9043 129.375 12.7598C129.707 12.6152 130.051 12.543 130.406 12.543C130.859 12.543 131.25 12.6211 131.578 12.7773C131.91 12.9336 132.182 13.1523 132.393 13.4336C132.604 13.7109 132.76 14.0391 132.861 14.418C132.963 14.793 133.014 15.2031 133.014 15.6484V16.1348H128.279V15.25H131.93V15.168C131.914 14.8867 131.855 14.6133 131.754 14.3477C131.656 14.082 131.5 13.8633 131.285 13.6914C131.07 13.5195 130.777 13.4336 130.406 13.4336C130.16 13.4336 129.934 13.4863 129.727 13.5918C129.52 13.6934 129.342 13.8457 129.193 14.0488C129.045 14.252 128.93 14.5 128.848 14.793C128.766 15.0859 128.725 15.4238 128.725 15.8066V16.0527C128.725 16.3535 128.766 16.6367 128.848 16.9023C128.934 17.1641 129.057 17.3945 129.217 17.5938C129.381 17.793 129.578 17.9492 129.809 18.0625C130.043 18.1758 130.309 18.2324 130.605 18.2324C130.988 18.2324 131.312 18.1543 131.578 17.998C131.844 17.8418 132.076 17.6328 132.275 17.3711L132.932 17.8926C132.795 18.0996 132.621 18.2969 132.41 18.4844C132.199 18.6719 131.939 18.8242 131.631 18.9414C131.326 19.0586 130.965 19.1172 130.547 19.1172ZM135.357 13.9199V19H134.268V12.6602H135.299L135.357 13.9199ZM135.135 15.5898L134.631 15.5723C134.635 15.1387 134.691 14.7383 134.801 14.3711C134.91 14 135.072 13.6777 135.287 13.4043C135.502 13.1309 135.77 12.9199 136.09 12.7715C136.41 12.6191 136.781 12.543 137.203 12.543C137.5 12.543 137.773 12.5859 138.023 12.6719C138.273 12.7539 138.49 12.8848 138.674 13.0645C138.857 13.2441 139 13.4746 139.102 13.7559C139.203 14.0371 139.254 14.377 139.254 14.7754V19H138.17V14.8281C138.17 14.4961 138.113 14.2305 138 14.0312C137.891 13.832 137.734 13.6875 137.531 13.5977C137.328 13.5039 137.09 13.457 136.816 13.457C136.496 13.457 136.229 13.5137 136.014 13.627C135.799 13.7402 135.627 13.8965 135.498 14.0957C135.369 14.2949 135.275 14.5234 135.217 14.7812C135.162 15.0352 135.135 15.3047 135.135 15.5898ZM139.242 14.9922L138.516 15.2148C138.52 14.8672 138.576 14.5332 138.686 14.2129C138.799 13.8926 138.961 13.6074 139.172 13.3574C139.387 13.1074 139.65 12.9102 139.963 12.7656C140.275 12.6172 140.633 12.543 141.035 12.543C141.375 12.543 141.676 12.5879 141.938 12.6777C142.203 12.7676 142.426 12.9062 142.605 13.0938C142.789 13.2773 142.928 13.5137 143.021 13.8027C143.115 14.0918 143.162 14.4355 143.162 14.834V19H142.072V14.8223C142.072 14.4668 142.016 14.1914 141.902 13.9961C141.793 13.7969 141.637 13.6582 141.434 13.5801C141.234 13.498 140.996 13.457 140.719 13.457C140.48 13.457 140.27 13.498 140.086 13.5801C139.902 13.6621 139.748 13.7754 139.623 13.9199C139.498 14.0605 139.402 14.2227 139.336 14.4062C139.273 14.5898 139.242 14.7852 139.242 14.9922ZM148.541 17.916V14.6523C148.541 14.4023 148.49 14.1855 148.389 14.002C148.291 13.8145 148.143 13.6699 147.943 13.5684C147.744 13.4668 147.498 13.416 147.205 13.416C146.932 13.416 146.691 13.4629 146.484 13.5566C146.281 13.6504 146.121 13.7734 146.004 13.9258C145.891 14.0781 145.834 14.2422 145.834 14.418H144.75C144.75 14.1914 144.809 13.9668 144.926 13.7441C145.043 13.5215 145.211 13.3203 145.43 13.1406C145.652 12.957 145.918 12.8125 146.227 12.707C146.539 12.5977 146.887 12.543 147.27 12.543C147.73 12.543 148.137 12.6211 148.488 12.7773C148.844 12.9336 149.121 13.1699 149.32 13.4863C149.523 13.7988 149.625 14.1914 149.625 14.6641V17.6172C149.625 17.8281 149.643 18.0527 149.678 18.291C149.717 18.5293 149.773 18.7344 149.848 18.9062V19H148.717C148.662 18.875 148.619 18.709 148.588 18.502C148.557 18.291 148.541 18.0957 148.541 17.916ZM148.729 15.1562L148.74 15.918H147.645C147.336 15.918 147.061 15.9434 146.818 15.9941C146.576 16.041 146.373 16.1133 146.209 16.2109C146.045 16.3086 145.92 16.4316 145.834 16.5801C145.748 16.7246 145.705 16.8945 145.705 17.0898C145.705 17.2891 145.75 17.4707 145.84 17.6348C145.93 17.7988 146.064 17.9297 146.244 18.0273C146.428 18.1211 146.652 18.168 146.918 18.168C147.25 18.168 147.543 18.0977 147.797 17.957C148.051 17.8164 148.252 17.6445 148.4 17.4414C148.553 17.2383 148.635 17.041 148.646 16.8496L149.109 17.3711C149.082 17.5352 149.008 17.7168 148.887 17.916C148.766 18.1152 148.604 18.3066 148.4 18.4902C148.201 18.6699 147.963 18.8203 147.686 18.9414C147.412 19.0586 147.104 19.1172 146.76 19.1172C146.33 19.1172 145.953 19.0332 145.629 18.8652C145.309 18.6973 145.059 18.4727 144.879 18.1914C144.703 17.9062 144.615 17.5879 144.615 17.2363C144.615 16.8965 144.682 16.5977 144.814 16.3398C144.947 16.0781 145.139 15.8613 145.389 15.6895C145.639 15.5137 145.939 15.3809 146.291 15.291C146.643 15.2012 147.035 15.1562 147.469 15.1562H148.729ZM155.021 17.3184C155.021 17.1621 154.986 17.0176 154.916 16.8848C154.85 16.748 154.711 16.625 154.5 16.5156C154.293 16.4023 153.98 16.3047 153.562 16.2227C153.211 16.1484 152.893 16.0605 152.607 15.959C152.326 15.8574 152.086 15.7344 151.887 15.5898C151.691 15.4453 151.541 15.2754 151.436 15.0801C151.33 14.8848 151.277 14.6562 151.277 14.3945C151.277 14.1445 151.332 13.9082 151.441 13.6855C151.555 13.4629 151.713 13.2656 151.916 13.0938C152.123 12.9219 152.371 12.7871 152.66 12.6895C152.949 12.5918 153.271 12.543 153.627 12.543C154.135 12.543 154.568 12.6328 154.928 12.8125C155.287 12.9922 155.562 13.2324 155.754 13.5332C155.945 13.8301 156.041 14.1602 156.041 14.5234H154.957C154.957 14.3477 154.904 14.1777 154.799 14.0137C154.697 13.8457 154.547 13.707 154.348 13.5977C154.152 13.4883 153.912 13.4336 153.627 13.4336C153.326 13.4336 153.082 13.4805 152.895 13.5742C152.711 13.6641 152.576 13.7793 152.49 13.9199C152.408 14.0605 152.367 14.209 152.367 14.3652C152.367 14.4824 152.387 14.5879 152.426 14.6816C152.469 14.7715 152.543 14.8555 152.648 14.9336C152.754 15.0078 152.902 15.0781 153.094 15.1445C153.285 15.2109 153.529 15.2773 153.826 15.3438C154.346 15.4609 154.773 15.6016 155.109 15.7656C155.445 15.9297 155.695 16.1309 155.859 16.3691C156.023 16.6074 156.105 16.8965 156.105 17.2363C156.105 17.5137 156.047 17.7676 155.93 17.998C155.816 18.2285 155.65 18.4277 155.432 18.5957C155.217 18.7598 154.959 18.8887 154.658 18.9824C154.361 19.0723 154.027 19.1172 153.656 19.1172C153.098 19.1172 152.625 19.0176 152.238 18.8184C151.852 18.6191 151.559 18.3613 151.359 18.0449C151.16 17.7285 151.061 17.3945 151.061 17.043H152.15C152.166 17.3398 152.252 17.5762 152.408 17.752C152.564 17.9238 152.756 18.0469 152.982 18.1211C153.209 18.1914 153.434 18.2266 153.656 18.2266C153.953 18.2266 154.201 18.1875 154.4 18.1094C154.604 18.0312 154.758 17.9238 154.863 17.7871C154.969 17.6504 155.021 17.4941 155.021 17.3184ZM165.217 16.8438C165.217 16.6445 165.186 16.4688 165.123 16.3164C165.064 16.1602 164.959 16.0195 164.807 15.8945C164.658 15.7695 164.451 15.6504 164.186 15.5371C163.924 15.4238 163.592 15.3086 163.189 15.1914C162.768 15.0664 162.387 14.9277 162.047 14.7754C161.707 14.6191 161.416 14.4414 161.174 14.2422C160.932 14.043 160.746 13.8145 160.617 13.5566C160.488 13.2988 160.424 13.0039 160.424 12.6719C160.424 12.3398 160.492 12.0332 160.629 11.752C160.766 11.4707 160.961 11.2266 161.215 11.0195C161.473 10.8086 161.779 10.6445 162.135 10.5273C162.49 10.4102 162.887 10.3516 163.324 10.3516C163.965 10.3516 164.508 10.4746 164.953 10.7207C165.402 10.9629 165.744 11.2812 165.979 11.6758C166.213 12.0664 166.33 12.4844 166.33 12.9297H165.205C165.205 12.6094 165.137 12.3262 165 12.0801C164.863 11.8301 164.656 11.6348 164.379 11.4941C164.102 11.3496 163.75 11.2773 163.324 11.2773C162.922 11.2773 162.59 11.3379 162.328 11.459C162.066 11.5801 161.871 11.7441 161.742 11.9512C161.617 12.1582 161.555 12.3945 161.555 12.6602C161.555 12.8398 161.592 13.0039 161.666 13.1523C161.744 13.2969 161.863 13.4316 162.023 13.5566C162.188 13.6816 162.395 13.7969 162.645 13.9023C162.898 14.0078 163.201 14.1094 163.553 14.207C164.037 14.3438 164.455 14.4961 164.807 14.6641C165.158 14.832 165.447 15.0215 165.674 15.2324C165.904 15.4395 166.074 15.6758 166.184 15.9414C166.297 16.2031 166.354 16.5 166.354 16.832C166.354 17.1797 166.283 17.4941 166.143 17.7754C166.002 18.0566 165.801 18.2969 165.539 18.4961C165.277 18.6953 164.963 18.8496 164.596 18.959C164.232 19.0645 163.826 19.1172 163.377 19.1172C162.982 19.1172 162.594 19.0625 162.211 18.9531C161.832 18.8438 161.486 18.6797 161.174 18.4609C160.865 18.2422 160.617 17.9727 160.43 17.6523C160.246 17.3281 160.154 16.9531 160.154 16.5273H161.279C161.279 16.8203 161.336 17.0723 161.449 17.2832C161.562 17.4902 161.717 17.6621 161.912 17.7988C162.111 17.9355 162.336 18.0371 162.586 18.1035C162.84 18.166 163.104 18.1973 163.377 18.1973C163.771 18.1973 164.105 18.1426 164.379 18.0332C164.652 17.9238 164.859 17.7676 165 17.5645C165.145 17.3613 165.217 17.1211 165.217 16.8438ZM167.344 15.9004V15.7656C167.344 15.3086 167.41 14.8848 167.543 14.4941C167.676 14.0996 167.867 13.7578 168.117 13.4688C168.367 13.1758 168.67 12.9492 169.025 12.7891C169.381 12.625 169.779 12.543 170.221 12.543C170.666 12.543 171.066 12.625 171.422 12.7891C171.781 12.9492 172.086 13.1758 172.336 13.4688C172.59 13.7578 172.783 14.0996 172.916 14.4941C173.049 14.8848 173.115 15.3086 173.115 15.7656V15.9004C173.115 16.3574 173.049 16.7812 172.916 17.1719C172.783 17.5625 172.59 17.9043 172.336 18.1973C172.086 18.4863 171.783 18.7129 171.428 18.877C171.076 19.0371 170.678 19.1172 170.232 19.1172C169.787 19.1172 169.387 19.0371 169.031 18.877C168.676 18.7129 168.371 18.4863 168.117 18.1973C167.867 17.9043 167.676 17.5625 167.543 17.1719C167.41 16.7812 167.344 16.3574 167.344 15.9004ZM168.428 15.7656V15.9004C168.428 16.2168 168.465 16.5156 168.539 16.7969C168.613 17.0742 168.725 17.3203 168.873 17.5352C169.025 17.75 169.215 17.9199 169.441 18.0449C169.668 18.166 169.932 18.2266 170.232 18.2266C170.529 18.2266 170.789 18.166 171.012 18.0449C171.238 17.9199 171.426 17.75 171.574 17.5352C171.723 17.3203 171.834 17.0742 171.908 16.7969C171.986 16.5156 172.025 16.2168 172.025 15.9004V15.7656C172.025 15.4531 171.986 15.1582 171.908 14.8809C171.834 14.5996 171.721 14.3516 171.568 14.1367C171.42 13.918 171.232 13.7461 171.006 13.6211C170.783 13.4961 170.521 13.4336 170.221 13.4336C169.924 13.4336 169.662 13.4961 169.436 13.6211C169.213 13.7461 169.025 13.918 168.873 14.1367C168.725 14.3516 168.613 14.5996 168.539 14.8809C168.465 15.1582 168.428 15.4531 168.428 15.7656ZM175.652 10V19H174.562V10H175.652ZM181.131 17.916V14.6523C181.131 14.4023 181.08 14.1855 180.979 14.002C180.881 13.8145 180.732 13.6699 180.533 13.5684C180.334 13.4668 180.088 13.416 179.795 13.416C179.521 13.416 179.281 13.4629 179.074 13.5566C178.871 13.6504 178.711 13.7734 178.594 13.9258C178.48 14.0781 178.424 14.2422 178.424 14.418H177.34C177.34 14.1914 177.398 13.9668 177.516 13.7441C177.633 13.5215 177.801 13.3203 178.02 13.1406C178.242 12.957 178.508 12.8125 178.816 12.707C179.129 12.5977 179.477 12.543 179.859 12.543C180.32 12.543 180.727 12.6211 181.078 12.7773C181.434 12.9336 181.711 13.1699 181.91 13.4863C182.113 13.7988 182.215 14.1914 182.215 14.6641V17.6172C182.215 17.8281 182.232 18.0527 182.268 18.291C182.307 18.5293 182.363 18.7344 182.438 18.9062V19H181.307C181.252 18.875 181.209 18.709 181.178 18.502C181.146 18.291 181.131 18.0957 181.131 17.916ZM181.318 15.1562L181.33 15.918H180.234C179.926 15.918 179.65 15.9434 179.408 15.9941C179.166 16.041 178.963 16.1133 178.799 16.2109C178.635 16.3086 178.51 16.4316 178.424 16.5801C178.338 16.7246 178.295 16.8945 178.295 17.0898C178.295 17.2891 178.34 17.4707 178.43 17.6348C178.52 17.7988 178.654 17.9297 178.834 18.0273C179.018 18.1211 179.242 18.168 179.508 18.168C179.84 18.168 180.133 18.0977 180.387 17.957C180.641 17.8164 180.842 17.6445 180.99 17.4414C181.143 17.2383 181.225 17.041 181.236 16.8496L181.699 17.3711C181.672 17.5352 181.598 17.7168 181.477 17.916C181.355 18.1152 181.193 18.3066 180.99 18.4902C180.791 18.6699 180.553 18.8203 180.275 18.9414C180.002 19.0586 179.693 19.1172 179.35 19.1172C178.92 19.1172 178.543 19.0332 178.219 18.8652C177.898 18.6973 177.648 18.4727 177.469 18.1914C177.293 17.9062 177.205 17.5879 177.205 17.2363C177.205 16.8965 177.271 16.5977 177.404 16.3398C177.537 16.0781 177.729 15.8613 177.979 15.6895C178.229 15.5137 178.529 15.3809 178.881 15.291C179.232 15.2012 179.625 15.1562 180.059 15.1562H181.318ZM185.004 13.6562V19H183.92V12.6602H184.975L185.004 13.6562ZM186.984 12.625L186.979 13.6328C186.889 13.6133 186.803 13.6016 186.721 13.5977C186.643 13.5898 186.553 13.5859 186.451 13.5859C186.201 13.5859 185.98 13.625 185.789 13.7031C185.598 13.7812 185.436 13.8906 185.303 14.0312C185.17 14.1719 185.064 14.3398 184.986 14.5352C184.912 14.7266 184.863 14.9375 184.84 15.168L184.535 15.3438C184.535 14.9609 184.572 14.6016 184.646 14.2656C184.725 13.9297 184.844 13.6328 185.004 13.375C185.164 13.1133 185.367 12.9102 185.613 12.7656C185.863 12.6172 186.16 12.543 186.504 12.543C186.582 12.543 186.672 12.5527 186.773 12.5723C186.875 12.5879 186.945 12.6055 186.984 12.625ZM190.5 19.1172C190.059 19.1172 189.658 19.043 189.299 18.8945C188.943 18.7422 188.637 18.5293 188.379 18.2559C188.125 17.9824 187.93 17.6582 187.793 17.2832C187.656 16.9082 187.588 16.498 187.588 16.0527V15.8066C187.588 15.291 187.664 14.832 187.816 14.4297C187.969 14.0234 188.176 13.6797 188.438 13.3984C188.699 13.1172 188.996 12.9043 189.328 12.7598C189.66 12.6152 190.004 12.543 190.359 12.543C190.812 12.543 191.203 12.6211 191.531 12.7773C191.863 12.9336 192.135 13.1523 192.346 13.4336C192.557 13.7109 192.713 14.0391 192.814 14.418C192.916 14.793 192.967 15.2031 192.967 15.6484V16.1348H188.232V15.25H191.883V15.168C191.867 14.8867 191.809 14.6133 191.707 14.3477C191.609 14.082 191.453 13.8633 191.238 13.6914C191.023 13.5195 190.73 13.4336 190.359 13.4336C190.113 13.4336 189.887 13.4863 189.68 13.5918C189.473 13.6934 189.295 13.8457 189.146 14.0488C188.998 14.252 188.883 14.5 188.801 14.793C188.719 15.0859 188.678 15.4238 188.678 15.8066V16.0527C188.678 16.3535 188.719 16.6367 188.801 16.9023C188.887 17.1641 189.01 17.3945 189.17 17.5938C189.334 17.793 189.531 17.9492 189.762 18.0625C189.996 18.1758 190.262 18.2324 190.559 18.2324C190.941 18.2324 191.266 18.1543 191.531 17.998C191.797 17.8418 192.029 17.6328 192.229 17.3711L192.885 17.8926C192.748 18.0996 192.574 18.2969 192.363 18.4844C192.152 18.6719 191.893 18.8242 191.584 18.9414C191.279 19.0586 190.918 19.1172 190.5 19.1172ZM197.924 17.3184C197.924 17.1621 197.889 17.0176 197.818 16.8848C197.752 16.748 197.613 16.625 197.402 16.5156C197.195 16.4023 196.883 16.3047 196.465 16.2227C196.113 16.1484 195.795 16.0605 195.51 15.959C195.229 15.8574 194.988 15.7344 194.789 15.5898C194.594 15.4453 194.443 15.2754 194.338 15.0801C194.232 14.8848 194.18 14.6562 194.18 14.3945C194.18 14.1445 194.234 13.9082 194.344 13.6855C194.457 13.4629 194.615 13.2656 194.818 13.0938C195.025 12.9219 195.273 12.7871 195.562 12.6895C195.852 12.5918 196.174 12.543 196.529 12.543C197.037 12.543 197.471 12.6328 197.83 12.8125C198.189 12.9922 198.465 13.2324 198.656 13.5332C198.848 13.8301 198.943 14.1602 198.943 14.5234H197.859C197.859 14.3477 197.807 14.1777 197.701 14.0137C197.6 13.8457 197.449 13.707 197.25 13.5977C197.055 13.4883 196.814 13.4336 196.529 13.4336C196.229 13.4336 195.984 13.4805 195.797 13.5742C195.613 13.6641 195.479 13.7793 195.393 13.9199C195.311 14.0605 195.27 14.209 195.27 14.3652C195.27 14.4824 195.289 14.5879 195.328 14.6816C195.371 14.7715 195.445 14.8555 195.551 14.9336C195.656 15.0078 195.805 15.0781 195.996 15.1445C196.188 15.2109 196.432 15.2773 196.729 15.3438C197.248 15.4609 197.676 15.6016 198.012 15.7656C198.348 15.9297 198.598 16.1309 198.762 16.3691C198.926 16.6074 199.008 16.8965 199.008 17.2363C199.008 17.5137 198.949 17.7676 198.832 17.998C198.719 18.2285 198.553 18.4277 198.334 18.5957C198.119 18.7598 197.861 18.8887 197.561 18.9824C197.264 19.0723 196.93 19.1172 196.559 19.1172C196 19.1172 195.527 19.0176 195.141 18.8184C194.754 18.6191 194.461 18.3613 194.262 18.0449C194.062 17.7285 193.963 17.3945 193.963 17.043H195.053C195.068 17.3398 195.154 17.5762 195.311 17.752C195.467 17.9238 195.658 18.0469 195.885 18.1211C196.111 18.1914 196.336 18.2266 196.559 18.2266C196.855 18.2266 197.104 18.1875 197.303 18.1094C197.506 18.0312 197.66 17.9238 197.766 17.7871C197.871 17.6504 197.924 17.4941 197.924 17.3184ZM53.1211 24.4688V33H51.9902V24.4688H53.1211ZM56.6953 28.3066V29.2324H52.875V28.3066H56.6953ZM57.2754 24.4688V25.3945H52.875V24.4688H57.2754ZM58.043 29.9004V29.7656C58.043 29.3086 58.1094 28.8848 58.2422 28.4941C58.375 28.0996 58.5664 27.7578 58.8164 27.4688C59.0664 27.1758 59.3691 26.9492 59.7246 26.7891C60.0801 26.625 60.4785 26.543 60.9199 26.543C61.3652 26.543 61.7656 26.625 62.1211 26.7891C62.4805 26.9492 62.7852 27.1758 63.0352 27.4688C63.2891 27.7578 63.4824 28.0996 63.6152 28.4941C63.748 28.8848 63.8145 29.3086 63.8145 29.7656V29.9004C63.8145 30.3574 63.748 30.7812 63.6152 31.1719C63.4824 31.5625 63.2891 31.9043 63.0352 32.1973C62.7852 32.4863 62.4824 32.7129 62.127 32.877C61.7754 33.0371 61.377 33.1172 60.9316 33.1172C60.4863 33.1172 60.0859 33.0371 59.7305 32.877C59.375 32.7129 59.0703 32.4863 58.8164 32.1973C58.5664 31.9043 58.375 31.5625 58.2422 31.1719C58.1094 30.7812 58.043 30.3574 58.043 29.9004ZM59.127 29.7656V29.9004C59.127 30.2168 59.1641 30.5156 59.2383 30.7969C59.3125 31.0742 59.4238 31.3203 59.5723 31.5352C59.7246 31.75 59.9141 31.9199 60.1406 32.0449C60.3672 32.166 60.6309 32.2266 60.9316 32.2266C61.2285 32.2266 61.4883 32.166 61.7109 32.0449C61.9375 31.9199 62.125 31.75 62.2734 31.5352C62.4219 31.3203 62.5332 31.0742 62.6074 30.7969C62.6855 30.5156 62.7246 30.2168 62.7246 29.9004V29.7656C62.7246 29.4531 62.6855 29.1582 62.6074 28.8809C62.5332 28.5996 62.4199 28.3516 62.2676 28.1367C62.1191 27.918 61.9316 27.7461 61.7051 27.6211C61.4824 27.4961 61.2207 27.4336 60.9199 27.4336C60.623 27.4336 60.3613 27.4961 60.1348 27.6211C59.9121 27.7461 59.7246 27.918 59.5723 28.1367C59.4238 28.3516 59.3125 28.5996 59.2383 28.8809C59.1641 29.1582 59.127 29.4531 59.127 29.7656ZM67.8281 26.6602V27.4922H64.4004V26.6602H67.8281ZM65.5605 25.1191H66.6445V31.4297C66.6445 31.6445 66.6777 31.8066 66.7441 31.916C66.8105 32.0254 66.8965 32.0977 67.002 32.1328C67.1074 32.168 67.2207 32.1855 67.3418 32.1855C67.4316 32.1855 67.5254 32.1777 67.623 32.1621C67.7246 32.1426 67.8008 32.127 67.8516 32.1152L67.8574 33C67.7715 33.0273 67.6582 33.0527 67.5176 33.0762C67.3809 33.1035 67.2148 33.1172 67.0195 33.1172C66.7539 33.1172 66.5098 33.0645 66.2871 32.959C66.0645 32.8535 65.8867 32.6777 65.7539 32.4316C65.625 32.1816 65.5605 31.8457 65.5605 31.4238V25.1191ZM68.6953 29.9004V29.7656C68.6953 29.3086 68.7617 28.8848 68.8945 28.4941C69.0273 28.0996 69.2188 27.7578 69.4688 27.4688C69.7188 27.1758 70.0215 26.9492 70.377 26.7891C70.7324 26.625 71.1309 26.543 71.5723 26.543C72.0176 26.543 72.418 26.625 72.7734 26.7891C73.1328 26.9492 73.4375 27.1758 73.6875 27.4688C73.9414 27.7578 74.1348 28.0996 74.2676 28.4941C74.4004 28.8848 74.4668 29.3086 74.4668 29.7656V29.9004C74.4668 30.3574 74.4004 30.7812 74.2676 31.1719C74.1348 31.5625 73.9414 31.9043 73.6875 32.1973C73.4375 32.4863 73.1348 32.7129 72.7793 32.877C72.4277 33.0371 72.0293 33.1172 71.584 33.1172C71.1387 33.1172 70.7383 33.0371 70.3828 32.877C70.0273 32.7129 69.7227 32.4863 69.4688 32.1973C69.2188 31.9043 69.0273 31.5625 68.8945 31.1719C68.7617 30.7812 68.6953 30.3574 68.6953 29.9004ZM69.7793 29.7656V29.9004C69.7793 30.2168 69.8164 30.5156 69.8906 30.7969C69.9648 31.0742 70.0762 31.3203 70.2246 31.5352C70.377 31.75 70.5664 31.9199 70.793 32.0449C71.0195 32.166 71.2832 32.2266 71.584 32.2266C71.8809 32.2266 72.1406 32.166 72.3633 32.0449C72.5898 31.9199 72.7773 31.75 72.9258 31.5352C73.0742 31.3203 73.1855 31.0742 73.2598 30.7969C73.3379 30.5156 73.377 30.2168 73.377 29.9004V29.7656C73.377 29.4531 73.3379 29.1582 73.2598 28.8809C73.1855 28.5996 73.0723 28.3516 72.9199 28.1367C72.7715 27.918 72.584 27.7461 72.3574 27.6211C72.1348 27.4961 71.873 27.4336 71.5723 27.4336C71.2754 27.4336 71.0137 27.4961 70.7871 27.6211C70.5645 27.7461 70.377 27.918 70.2246 28.1367C70.0762 28.3516 69.9648 28.5996 69.8906 28.8809C69.8164 29.1582 69.7793 29.4531 69.7793 29.7656ZM77.6602 32.0215L79.3945 26.6602H80.502L78.2227 33H77.4961L77.6602 32.0215ZM76.2129 26.6602L78 32.0508L78.123 33H77.3965L75.0996 26.6602H76.2129ZM81.1641 29.9004V29.7656C81.1641 29.3086 81.2305 28.8848 81.3633 28.4941C81.4961 28.0996 81.6875 27.7578 81.9375 27.4688C82.1875 27.1758 82.4902 26.9492 82.8457 26.7891C83.2012 26.625 83.5996 26.543 84.041 26.543C84.4863 26.543 84.8867 26.625 85.2422 26.7891C85.6016 26.9492 85.9062 27.1758 86.1562 27.4688C86.4102 27.7578 86.6035 28.0996 86.7363 28.4941C86.8691 28.8848 86.9355 29.3086 86.9355 29.7656V29.9004C86.9355 30.3574 86.8691 30.7812 86.7363 31.1719C86.6035 31.5625 86.4102 31.9043 86.1562 32.1973C85.9062 32.4863 85.6035 32.7129 85.248 32.877C84.8965 33.0371 84.498 33.1172 84.0527 33.1172C83.6074 33.1172 83.207 33.0371 82.8516 32.877C82.4961 32.7129 82.1914 32.4863 81.9375 32.1973C81.6875 31.9043 81.4961 31.5625 81.3633 31.1719C81.2305 30.7812 81.1641 30.3574 81.1641 29.9004ZM82.248 29.7656V29.9004C82.248 30.2168 82.2852 30.5156 82.3594 30.7969C82.4336 31.0742 82.5449 31.3203 82.6934 31.5352C82.8457 31.75 83.0352 31.9199 83.2617 32.0449C83.4883 32.166 83.752 32.2266 84.0527 32.2266C84.3496 32.2266 84.6094 32.166 84.832 32.0449C85.0586 31.9199 85.2461 31.75 85.3945 31.5352C85.543 31.3203 85.6543 31.0742 85.7285 30.7969C85.8066 30.5156 85.8457 30.2168 85.8457 29.9004V29.7656C85.8457 29.4531 85.8066 29.1582 85.7285 28.8809C85.6543 28.5996 85.541 28.3516 85.3887 28.1367C85.2402 27.918 85.0527 27.7461 84.8262 27.6211C84.6035 27.4961 84.3418 27.4336 84.041 27.4336C83.7441 27.4336 83.4824 27.4961 83.2559 27.6211C83.0332 27.7461 82.8457 27.918 82.6934 28.1367C82.5449 28.3516 82.4336 28.5996 82.3594 28.8809C82.2852 29.1582 82.248 29.4531 82.248 29.7656ZM89.4727 24V33H88.3828V24H89.4727ZM93.8672 26.6602V27.4922H90.4395V26.6602H93.8672ZM91.5996 25.1191H92.6836V31.4297C92.6836 31.6445 92.7168 31.8066 92.7832 31.916C92.8496 32.0254 92.9355 32.0977 93.041 32.1328C93.1465 32.168 93.2598 32.1855 93.3809 32.1855C93.4707 32.1855 93.5645 32.1777 93.6621 32.1621C93.7637 32.1426 93.8398 32.127 93.8906 32.1152L93.8965 33C93.8105 33.0273 93.6973 33.0527 93.5566 33.0762C93.4199 33.1035 93.2539 33.1172 93.0586 33.1172C92.793 33.1172 92.5488 33.0645 92.3262 32.959C92.1035 32.8535 91.9258 32.6777 91.793 32.4316C91.6641 32.1816 91.5996 31.8457 91.5996 31.4238V25.1191ZM98.877 31.916V28.6523C98.877 28.4023 98.8262 28.1855 98.7246 28.002C98.627 27.8145 98.4785 27.6699 98.2793 27.5684C98.0801 27.4668 97.834 27.416 97.541 27.416C97.2676 27.416 97.0273 27.4629 96.8203 27.5566C96.6172 27.6504 96.457 27.7734 96.3398 27.9258C96.2266 28.0781 96.1699 28.2422 96.1699 28.418H95.0859C95.0859 28.1914 95.1445 27.9668 95.2617 27.7441C95.3789 27.5215 95.5469 27.3203 95.7656 27.1406C95.9883 26.957 96.2539 26.8125 96.5625 26.707C96.875 26.5977 97.2227 26.543 97.6055 26.543C98.0664 26.543 98.4727 26.6211 98.8242 26.7773C99.1797 26.9336 99.457 27.1699 99.6562 27.4863C99.8594 27.7988 99.9609 28.1914 99.9609 28.6641V31.6172C99.9609 31.8281 99.9785 32.0527 100.014 32.291C100.053 32.5293 100.109 32.7344 100.184 32.9062V33H99.0527C98.998 32.875 98.9551 32.709 98.9238 32.502C98.8926 32.291 98.877 32.0957 98.877 31.916ZM99.0645 29.1562L99.0762 29.918H97.9805C97.6719 29.918 97.3965 29.9434 97.1543 29.9941C96.9121 30.041 96.709 30.1133 96.5449 30.2109C96.3809 30.3086 96.2559 30.4316 96.1699 30.5801C96.084 30.7246 96.041 30.8945 96.041 31.0898C96.041 31.2891 96.0859 31.4707 96.1758 31.6348C96.2656 31.7988 96.4004 31.9297 96.5801 32.0273C96.7637 32.1211 96.9883 32.168 97.2539 32.168C97.5859 32.168 97.8789 32.0977 98.1328 31.957C98.3867 31.8164 98.5879 31.6445 98.7363 31.4414C98.8887 31.2383 98.9707 31.041 98.9824 30.8496L99.4453 31.3711C99.418 31.5352 99.3438 31.7168 99.2227 31.916C99.1016 32.1152 98.9395 32.3066 98.7363 32.4902C98.5371 32.6699 98.2988 32.8203 98.0215 32.9414C97.748 33.0586 97.4395 33.1172 97.0957 33.1172C96.666 33.1172 96.2891 33.0332 95.9648 32.8652C95.6445 32.6973 95.3945 32.4727 95.2148 32.1914C95.0391 31.9062 94.9512 31.5879 94.9512 31.2363C94.9512 30.8965 95.0176 30.5977 95.1504 30.3398C95.2832 30.0781 95.4746 29.8613 95.7246 29.6895C95.9746 29.5137 96.2754 29.3809 96.627 29.291C96.9785 29.2012 97.3711 29.1562 97.8047 29.1562H99.0645ZM102.844 26.6602V33H101.754V26.6602H102.844ZM101.672 24.9785C101.672 24.8027 101.725 24.6543 101.83 24.5332C101.939 24.4121 102.1 24.3516 102.311 24.3516C102.518 24.3516 102.676 24.4121 102.785 24.5332C102.898 24.6543 102.955 24.8027 102.955 24.9785C102.955 25.1465 102.898 25.291 102.785 25.4121C102.676 25.5293 102.518 25.5879 102.311 25.5879C102.1 25.5879 101.939 25.5293 101.83 25.4121C101.725 25.291 101.672 25.1465 101.672 24.9785ZM107.121 32.2266C107.379 32.2266 107.617 32.1738 107.836 32.0684C108.055 31.9629 108.234 31.8184 108.375 31.6348C108.516 31.4473 108.596 31.2344 108.615 30.9961H109.646C109.627 31.3711 109.5 31.7207 109.266 32.0449C109.035 32.3652 108.732 32.625 108.357 32.8242C107.982 33.0195 107.57 33.1172 107.121 33.1172C106.645 33.1172 106.229 33.0332 105.873 32.8652C105.521 32.6973 105.229 32.4668 104.994 32.1738C104.764 31.8809 104.59 31.5449 104.473 31.166C104.359 30.7832 104.303 30.3789 104.303 29.9531V29.707C104.303 29.2812 104.359 28.8789 104.473 28.5C104.59 28.1172 104.764 27.7793 104.994 27.4863C105.229 27.1934 105.521 26.9629 105.873 26.7949C106.229 26.627 106.645 26.543 107.121 26.543C107.617 26.543 108.051 26.6445 108.422 26.8477C108.793 27.0469 109.084 27.3203 109.295 27.668C109.51 28.0117 109.627 28.4023 109.646 28.8398H108.615C108.596 28.5781 108.521 28.3418 108.393 28.1309C108.268 27.9199 108.096 27.752 107.877 27.627C107.662 27.498 107.41 27.4336 107.121 27.4336C106.789 27.4336 106.51 27.5 106.283 27.6328C106.061 27.7617 105.883 27.9375 105.75 28.1602C105.621 28.3789 105.527 28.623 105.469 28.8926C105.414 29.1582 105.387 29.4297 105.387 29.707V29.9531C105.387 30.2305 105.414 30.5039 105.469 30.7734C105.523 31.043 105.615 31.2871 105.744 31.5059C105.877 31.7246 106.055 31.9004 106.277 32.0332C106.504 32.1621 106.785 32.2266 107.121 32.2266ZM110.578 29.9004V29.7656C110.578 29.3086 110.645 28.8848 110.777 28.4941C110.91 28.0996 111.102 27.7578 111.352 27.4688C111.602 27.1758 111.904 26.9492 112.26 26.7891C112.615 26.625 113.014 26.543 113.455 26.543C113.9 26.543 114.301 26.625 114.656 26.7891C115.016 26.9492 115.32 27.1758 115.57 27.4688C115.824 27.7578 116.018 28.0996 116.15 28.4941C116.283 28.8848 116.35 29.3086 116.35 29.7656V29.9004C116.35 30.3574 116.283 30.7812 116.15 31.1719C116.018 31.5625 115.824 31.9043 115.57 32.1973C115.32 32.4863 115.018 32.7129 114.662 32.877C114.311 33.0371 113.912 33.1172 113.467 33.1172C113.021 33.1172 112.621 33.0371 112.266 32.877C111.91 32.7129 111.605 32.4863 111.352 32.1973C111.102 31.9043 110.91 31.5625 110.777 31.1719C110.645 30.7812 110.578 30.3574 110.578 29.9004ZM111.662 29.7656V29.9004C111.662 30.2168 111.699 30.5156 111.773 30.7969C111.848 31.0742 111.959 31.3203 112.107 31.5352C112.26 31.75 112.449 31.9199 112.676 32.0449C112.902 32.166 113.166 32.2266 113.467 32.2266C113.764 32.2266 114.023 32.166 114.246 32.0449C114.473 31.9199 114.66 31.75 114.809 31.5352C114.957 31.3203 115.068 31.0742 115.143 30.7969C115.221 30.5156 115.26 30.2168 115.26 29.9004V29.7656C115.26 29.4531 115.221 29.1582 115.143 28.8809C115.068 28.5996 114.955 28.3516 114.803 28.1367C114.654 27.918 114.467 27.7461 114.24 27.6211C114.018 27.4961 113.756 27.4336 113.455 27.4336C113.158 27.4336 112.896 27.4961 112.67 27.6211C112.447 27.7461 112.26 27.918 112.107 28.1367C111.959 28.3516 111.848 28.5996 111.773 28.8809C111.699 29.1582 111.662 29.4531 111.662 29.7656Z" fill="white"/>
<path d="M0 0H36C40.4183 0 44 3.58172 44 8V36C44 40.4183 40.4183 44 36 44H8C3.58172 44 0 40.4183 0 36V0Z" fill="white"/>
<path d="M19 32.9375C13.5125 32.9375 11.0625 30.4875 11.0625 25V19C11.0625 13.5125 13.5125 11.0625 19 11.0625H25C30.4875 11.0625 32.9375 13.5125 32.9375 19C32.9375 19.5125 32.5125 19.9375 32 19.9375C31.4875 19.9375 31.0625 19.5125 31.0625 19C31.0625 14.525 29.475 12.9375 25 12.9375H19C14.525 12.9375 12.9375 14.525 12.9375 19V25C12.9375 29.475 14.525 31.0625 19 31.0625C19.5125 31.0625 19.9375 31.4875 19.9375 32C19.9375 32.5125 19.5125 32.9375 19 32.9375Z" fill="url(#paint0_linear_532_384)"/>
<path d="M16.9875 28.375C16.7875 28.375 16.575 28.3125 16.4 28.175C15.3125 27.3125 14.8 25.9375 14.8 23.875V20.125C14.8 16.5 16.4875 14.8125 20.1125 14.8125H23.8625C25.925 14.8125 27.2875 15.325 28.1625 16.4125C28.4875 16.8125 28.4125 17.4125 28.0125 17.725C27.6125 18.05 27.0125 17.9875 26.7 17.575C26.4 17.1875 25.775 16.6875 23.875 16.6875H20.125C17.525 16.6875 16.6875 17.525 16.6875 20.125V23.875C16.6875 25.775 17.2 26.4 17.575 26.7C17.975 27.025 18.05 27.6125 17.725 28.0125C17.5375 28.25 17.2625 28.375 16.9875 28.375ZM17.0125 12.9375C16.4875 12.9375 16.075 12.5125 16.075 12V9.5C16.075 8.9875 16.5 8.5625 17.0125 8.5625C17.525 8.5625 17.95 8.9875 17.95 9.5V12C17.95 12.5125 17.525 12.9375 17.0125 12.9375ZM22 12.9375C21.4875 12.9375 21.0625 12.5125 21.0625 12V9.5C21.0625 8.9875 21.4875 8.5625 22 8.5625C22.5125 8.5625 22.9375 8.9875 22.9375 9.5V12C22.9375 12.5125 22.5125 12.9375 22 12.9375ZM27 12.9375C26.4875 12.9375 26.0625 12.5125 26.0625 12V9.5C26.0625 8.9875 26.4875 8.5625 27 8.5625C27.5125 8.5625 27.9375 8.9875 27.9375 9.5V12C27.9375 12.5125 27.5125 12.9375 27 12.9375ZM34.5 17.9375H32C31.4875 17.9375 31.0625 17.5125 31.0625 17C31.0625 16.4875 31.4875 16.0625 32 16.0625H34.5C34.7486 16.0625 34.9871 16.1613 35.1629 16.3371C35.3387 16.5129 35.4375 16.7514 35.4375 17C35.4375 17.2486 35.3387 17.4871 35.1629 17.6629C34.9871 17.8387 34.7486 17.9375 34.5 17.9375ZM17.0125 35.4375C16.5 35.4375 16.075 35.0125 16.075 34.5V32C16.075 31.4875 16.5 31.0625 17.0125 31.0625C17.525 31.0625 17.95 31.4875 17.95 32V34.5C17.95 35.0125 17.525 35.4375 17.0125 35.4375ZM12 17.9375H9.5C9.25136 17.9375 9.0129 17.8387 8.83709 17.6629C8.66127 17.4871 8.5625 17.2486 8.5625 17C8.5625 16.7514 8.66127 16.5129 8.83709 16.3371C9.0129 16.1613 9.25136 16.0625 9.5 16.0625H12C12.2486 16.0625 12.4871 16.1613 12.6629 16.3371C12.8387 16.5129 12.9375 16.7514 12.9375 17C12.9375 17.2486 12.8387 17.4871 12.6629 17.6629C12.4871 17.8387 12.2486 17.9375 12 17.9375ZM12 22.9375H9.5C8.9875 22.9375 8.5625 22.5125 8.5625 22C8.5625 21.4875 8.9875 21.0625 9.5 21.0625H12C12.2486 21.0625 12.4871 21.1613 12.6629 21.3371C12.8387 21.5129 12.9375 21.7514 12.9375 22C12.9375 22.2486 12.8387 22.4871 12.6629 22.6629C12.4871 22.8387 12.2486 22.9375 12 22.9375ZM12 27.9375H9.5C8.9875 27.9375 8.5625 27.5125 8.5625 27C8.5625 26.4875 8.9875 26.0625 9.5 26.0625H12C12.2486 26.0625 12.4871 26.1613 12.6629 26.3371C12.8387 26.5129 12.9375 26.7514 12.9375 27C12.9375 27.2486 12.8387 27.4871 12.6629 27.6629C12.4871 27.8387 12.2486 27.9375 12 27.9375ZM27.8875 31.175C26.275 31.175 24.9625 29.8625 24.9625 28.25C24.9625 26.6375 26.275 25.325 27.8875 25.325C29.5 25.325 30.8125 26.6375 30.8125 28.25C30.8092 29.0247 30.5 29.7668 29.9522 30.3147C29.4043 30.8625 28.6622 31.1717 27.8875 31.175ZM27.8875 27.2C27.3125 27.2 26.8375 27.675 26.8375 28.25C26.8375 28.825 27.3125 29.3 27.8875 29.3C28.4625 29.3 28.9375 28.825 28.9375 28.25C28.9336 27.9727 28.8218 27.7079 28.6257 27.5118C28.4296 27.3157 28.1648 27.2039 27.8875 27.2Z" fill="url(#paint1_linear_532_384)"/>
<path d="M30 35.435C29.3 35.435 28.6125 35.0725 28.2375 34.4225L28.15 34.285C28.0125 34.0475 27.9 33.985 27.875 33.9725C27.8625 33.9725 27.7375 34.0475 27.6 34.285L27.525 34.41C27.3905 34.6433 27.2112 34.8475 26.9973 35.0111C26.7833 35.1746 26.5392 35.2941 26.2788 35.3627C26.0184 35.4312 25.7471 35.4475 25.4804 35.4106C25.2137 35.3737 24.9569 35.2842 24.725 35.1475L23.6 34.4975C23.0875 34.21 22.725 33.735 22.575 33.16C22.425 32.5975 22.5 31.9975 22.7875 31.4975C22.925 31.26 22.925 31.1225 22.9125 31.0975C22.9 31.085 22.7875 31.0225 22.5125 31.0225C21.3 31.0225 20.3125 30.035 20.3125 28.835V27.6725C20.3125 26.46 21.3 25.485 22.5 25.485C22.775 25.485 22.8875 25.41 22.9125 25.3975C22.9125 25.385 22.9125 25.2475 22.775 25.01C22.4875 24.4975 22.4 23.91 22.5625 23.3475C22.7125 22.785 23.075 22.31 23.5875 22.01L24.725 21.3475C25.675 20.785 26.9375 21.11 27.5 22.085L27.575 22.2225C27.7125 22.46 27.825 22.5225 27.85 22.535C27.8625 22.535 27.9875 22.46 28.125 22.2225L28.2 22.0975C28.7875 21.11 30.0375 20.785 31 21.36L32.1625 21.9975C32.675 22.285 33.0375 22.76 33.1875 23.335C33.3375 23.8975 33.2625 24.4975 32.975 24.9975C32.8375 25.235 32.8375 25.3725 32.85 25.3975C32.8625 25.41 32.975 25.4725 33.25 25.4725C34.4625 25.4725 35.45 26.46 35.45 27.66V28.8225C35.45 30.035 34.4625 31.01 33.2625 31.01C32.9875 31.01 32.875 31.085 32.85 31.0975C32.85 31.11 32.85 31.2475 32.9875 31.485C33.275 31.9975 33.3625 32.585 33.2 33.1475C33.05 33.71 32.6875 34.185 32.175 34.485L31.0375 35.1475C30.7 35.335 30.35 35.435 30 35.435ZM27.8875 32.0975C28.6375 32.0975 29.325 32.5475 29.7875 33.3475L29.8625 33.485C29.9 33.5475 30 33.585 30.075 33.535L31.225 32.8725C31.325 32.8225 31.3625 32.7225 31.375 32.6725C31.3875 32.6225 31.4 32.535 31.35 32.435C30.8875 31.6475 30.85 30.8225 31.225 30.1725C31.6 29.5225 32.3375 29.1475 33.25 29.1475C33.425 29.1475 33.575 28.9975 33.575 28.835V27.6725C33.575 27.4975 33.425 27.36 33.2625 27.36C32.35 27.36 31.6 26.985 31.2375 26.335C30.8625 25.685 30.9125 24.86 31.3625 24.0725C31.425 23.9725 31.4125 23.8725 31.3875 23.835C31.3653 23.7514 31.3115 23.6797 31.2375 23.635L30.1 22.9725C30.0125 22.9225 29.9125 22.96 29.8625 23.035L29.8 23.1475C29.3375 23.9475 28.65 24.3975 27.9 24.3975C27.15 24.3975 26.4625 23.9475 26 23.1475L25.925 23.0225C25.8875 22.9475 25.775 22.9225 25.7125 22.96L24.5625 23.6225C24.4625 23.6725 24.425 23.7725 24.4125 23.8225C24.4 23.8725 24.3875 23.96 24.4375 24.06C24.9 24.8475 24.9375 25.6725 24.5625 26.3225C24.1875 26.9725 23.45 27.3475 22.5375 27.3475C22.3625 27.3475 22.2125 27.4975 22.2125 27.66V28.8225C22.2125 28.9975 22.3625 29.135 22.525 29.135C23.4375 29.135 24.1875 29.51 24.55 30.16C24.925 30.81 24.875 31.635 24.425 32.4225C24.3869 32.4978 24.3787 32.5846 24.4018 32.6657C24.425 32.7468 24.4779 32.8162 24.55 32.86L25.6875 33.5225C25.775 33.5725 25.875 33.535 25.925 33.46L25.9875 33.335C26.4375 32.5475 27.1375 32.0975 27.8875 32.0975Z" fill="url(#paint2_linear_532_384)"/>
<defs>
<linearGradient id="paint0_linear_532_384" x1="11.0625" y1="22" x2="32.9375" y2="22" gradientUnits="userSpaceOnUse">
<stop stop-color="#1E2431"/>
<stop offset="1" stop-color="#1E3954"/>
</linearGradient>
<linearGradient id="paint1_linear_532_384" x1="8.5625" y1="22" x2="35.4375" y2="22" gradientUnits="userSpaceOnUse">
<stop stop-color="#1E2431"/>
<stop offset="1" stop-color="#1E3954"/>
</linearGradient>
<linearGradient id="paint2_linear_532_384" x1="20.3125" y1="28.2535" x2="35.45" y2="28.2535" gradientUnits="userSpaceOnUse">
<stop stop-color="#1E2431"/>
<stop offset="1" stop-color="#1E3954"/>
</linearGradient>
</defs>
</svg>
