<svg width="177" height="26" viewBox="0 0 177 26" fill="none" xmlns="http://www.w3.org/2000/svg">
<path d="M24.5 12.6805C24.5 19.2773 19.1294 24.6286 12.5 24.6286C5.87062 24.6286 0.5 19.2773 0.5 12.6805C0.5 6.08368 5.87062 0.732361 12.5 0.732361C19.1294 0.732361 24.5 6.08368 24.5 12.6805Z" stroke="#1E2431"/>
<path d="M12.2837 9.04033C13.239 9.04033 14.1369 9.47876 14.7963 10.1648V10.167C14.7963 9.83773 15.0098 9.58959 15.3062 9.58959H15.3817C15.8458 9.58959 15.9406 10.0448 15.9406 10.1891L15.9432 15.3114C15.9104 15.6471 16.2765 15.8201 16.4792 15.605C17.2714 14.7594 18.2198 11.2595 15.9864 9.23116C13.9051 7.34065 11.1129 7.65204 9.6274 8.71488C8.04871 9.8453 7.03827 12.3467 8.02007 14.6962C9.08989 17.2587 12.1509 18.022 13.9702 17.2608C14.8916 16.8743 15.3171 18.1669 14.3603 18.5891C12.9145 19.2292 8.8904 19.1643 7.01118 15.7844C5.74084 13.5025 5.80855 9.48687 9.17687 7.4066C11.7535 5.81559 15.151 6.25618 17.199 8.47647C19.3402 10.7979 19.2157 15.1444 17.1266 16.8348C16.1807 17.6025 14.7744 16.8548 14.7838 15.7369L14.7739 15.3703C14.115 16.0493 13.2384 16.4451 12.2832 16.4451C10.3951 16.4451 8.73467 14.7211 8.73467 12.7624C8.73467 10.7843 10.3957 9.04033 12.2837 9.04033ZM14.6593 12.6208C14.588 11.1866 13.5624 10.3237 12.3238 10.3237H12.277C10.8472 10.3237 10.054 11.4909 10.054 12.816C10.054 14.301 11.0134 15.2384 12.2707 15.2384C13.6733 15.2384 14.5958 14.1718 14.6624 12.9106L14.6593 12.6208Z" fill="#1E2431"/>
<path d="M37.3027 8.20746V17.2075H35.6152V8.20746H37.3027ZM37.0625 13.8149H36.5996C36.6035 13.3735 36.6621 12.9672 36.7754 12.5961C36.8887 12.2211 37.0508 11.8969 37.2617 11.6235C37.4727 11.3461 37.7246 11.1313 38.0176 10.9789C38.3145 10.8266 38.6426 10.7504 39.002 10.7504C39.3145 10.7504 39.5977 10.7953 39.8516 10.8852C40.1094 10.9711 40.3301 11.1118 40.5137 11.3071C40.7012 11.4985 40.8457 11.7504 40.9473 12.0629C41.0488 12.3754 41.0996 12.7543 41.0996 13.1996V17.2075H39.4004V13.1879C39.4004 12.9067 39.3594 12.686 39.2773 12.5258C39.1992 12.3618 39.084 12.2465 38.9316 12.1801C38.7832 12.1098 38.5996 12.0746 38.3809 12.0746C38.1387 12.0746 37.9316 12.1196 37.7598 12.2094C37.5918 12.2993 37.457 12.4243 37.3555 12.5844C37.2539 12.7407 37.1797 12.9243 37.1328 13.1352C37.0859 13.3461 37.0625 13.5727 37.0625 13.8149ZM45.3008 17.3246C44.8086 17.3246 44.3672 17.2465 43.9766 17.0903C43.5859 16.9301 43.2539 16.7094 42.9805 16.4282C42.7109 16.1469 42.5039 15.8207 42.3594 15.4496C42.2148 15.0746 42.1426 14.6762 42.1426 14.2543V14.02C42.1426 13.5395 42.2109 13.1 42.3477 12.7016C42.4844 12.3032 42.6797 11.9575 42.9336 11.6645C43.1914 11.3715 43.5039 11.1469 43.8711 10.9907C44.2383 10.8305 44.6523 10.7504 45.1133 10.7504C45.5625 10.7504 45.9609 10.8246 46.3086 10.9731C46.6562 11.1215 46.9473 11.3325 47.1816 11.6059C47.4199 11.8793 47.5996 12.2075 47.7207 12.5903C47.8418 12.9692 47.9023 13.3911 47.9023 13.8559V14.559H42.8633V13.434H46.2441V13.3051C46.2441 13.0707 46.2012 12.8618 46.1152 12.6782C46.0332 12.4907 45.9082 12.3422 45.7402 12.2328C45.5723 12.1235 45.3574 12.0688 45.0957 12.0688C44.873 12.0688 44.6816 12.1176 44.5215 12.2153C44.3613 12.3129 44.2305 12.4496 44.1289 12.6254C44.0312 12.8012 43.957 13.0082 43.9062 13.2465C43.8594 13.4809 43.8359 13.7387 43.8359 14.02V14.2543C43.8359 14.5082 43.8711 14.7426 43.9414 14.9575C44.0156 15.1723 44.1191 15.3578 44.252 15.5141C44.3887 15.6703 44.5527 15.7914 44.7441 15.8774C44.9395 15.9633 45.1602 16.0063 45.4062 16.0063C45.7109 16.0063 45.9941 15.9477 46.2559 15.8305C46.5215 15.7094 46.75 15.5278 46.9414 15.2856L47.7617 16.1762C47.6289 16.3676 47.4473 16.5512 47.2168 16.727C46.9902 16.9028 46.7168 17.0473 46.3965 17.1606C46.0762 17.27 45.7109 17.3246 45.3008 17.3246ZM50.6445 10.8676V17.2075H48.9512V10.8676H50.6445ZM48.8457 9.21527C48.8457 8.96918 48.9316 8.76605 49.1035 8.6059C49.2754 8.44574 49.5059 8.36566 49.7949 8.36566C50.0801 8.36566 50.3086 8.44574 50.4805 8.6059C50.6562 8.76605 50.7441 8.96918 50.7441 9.21527C50.7441 9.46136 50.6562 9.66449 50.4805 9.82465C50.3086 9.9848 50.0801 10.0649 49.7949 10.0649C49.5059 10.0649 49.2754 9.9848 49.1035 9.82465C48.9316 9.66449 48.8457 9.46136 48.8457 9.21527ZM53.7266 12.1801V17.2075H52.0332V10.8676H53.6211L53.7266 12.1801ZM53.4922 13.8149H53.0234C53.0234 13.3735 53.0762 12.9672 53.1816 12.5961C53.291 12.2211 53.4492 11.8969 53.6562 11.6235C53.8672 11.3461 54.127 11.1313 54.4355 10.9789C54.7441 10.8266 55.1016 10.7504 55.5078 10.7504C55.7891 10.7504 56.0469 10.7934 56.2812 10.8793C56.5156 10.9614 56.7168 11.0922 56.8848 11.2719C57.0566 11.4477 57.1895 11.6782 57.2832 11.9633C57.377 12.2446 57.4238 12.5825 57.4238 12.977V17.2075H55.7363V13.1645C55.7363 12.8754 55.6973 12.6528 55.6191 12.4965C55.541 12.3403 55.4297 12.2309 55.2852 12.1684C55.1445 12.1059 54.9746 12.0746 54.7754 12.0746C54.5566 12.0746 54.3652 12.1196 54.2012 12.2094C54.041 12.2993 53.9082 12.4243 53.8027 12.5844C53.6973 12.7407 53.6191 12.9243 53.5684 13.1352C53.5176 13.3461 53.4922 13.5727 53.4922 13.8149ZM57.2656 13.6215L56.6621 13.6977C56.6621 13.2836 56.7129 12.8989 56.8145 12.5434C56.9199 12.1879 57.0742 11.8754 57.2773 11.6059C57.4844 11.3364 57.7402 11.1274 58.0449 10.9789C58.3496 10.8266 58.7012 10.7504 59.0996 10.7504C59.4043 10.7504 59.6816 10.7953 59.9316 10.8852C60.1816 10.9711 60.3945 11.1098 60.5703 11.3012C60.75 11.4887 60.8867 11.7348 60.9805 12.0395C61.0781 12.3442 61.127 12.7172 61.127 13.1586V17.2075H59.4336V13.1586C59.4336 12.8657 59.3945 12.643 59.3164 12.4907C59.2422 12.3344 59.1328 12.227 58.9883 12.1684C58.8477 12.1059 58.6797 12.0746 58.4844 12.0746C58.2812 12.0746 58.1035 12.1157 57.9512 12.1977C57.7988 12.2758 57.6719 12.3852 57.5703 12.5258C57.4688 12.6664 57.3926 12.8305 57.3418 13.018C57.291 13.2016 57.2656 13.4028 57.2656 13.6215ZM66.1777 15.8246V8.20746H67.877V17.2075H66.3477L66.1777 15.8246ZM62.1699 14.1137V13.9907C62.1699 13.5063 62.2246 13.0668 62.334 12.6723C62.4434 12.2739 62.6035 11.9321 62.8145 11.6469C63.0254 11.3618 63.2852 11.1411 63.5938 10.9848C63.9023 10.8286 64.2539 10.7504 64.6484 10.7504C65.0195 10.7504 65.3438 10.8286 65.6211 10.9848C65.9023 11.1411 66.1406 11.3637 66.3359 11.6528C66.5352 11.9379 66.6953 12.2758 66.8164 12.6664C66.9375 13.0532 67.0254 13.477 67.0801 13.9379V14.2075C67.0254 14.6489 66.9375 15.059 66.8164 15.4379C66.6953 15.8168 66.5352 16.1489 66.3359 16.434C66.1406 16.7153 65.9023 16.934 65.6211 17.0903C65.3398 17.2465 65.0117 17.3246 64.6367 17.3246C64.2422 17.3246 63.8906 17.2446 63.582 17.0844C63.2773 16.9243 63.0195 16.6996 62.8086 16.4106C62.6016 16.1215 62.4434 15.7817 62.334 15.3911C62.2246 15.0004 62.1699 14.5746 62.1699 14.1137ZM63.8574 13.9907V14.1137C63.8574 14.3754 63.877 14.6196 63.916 14.8461C63.959 15.0727 64.0273 15.2739 64.1211 15.4496C64.2188 15.6215 64.3438 15.7563 64.4961 15.8539C64.6523 15.9477 64.8418 15.9946 65.0645 15.9946C65.3535 15.9946 65.5918 15.9301 65.7793 15.8012C65.9668 15.6684 66.1094 15.4868 66.207 15.2563C66.3086 15.0258 66.3672 14.7602 66.3828 14.4594V13.6918C66.3711 13.4457 66.3359 13.225 66.2773 13.0297C66.2227 12.8305 66.1406 12.6606 66.0312 12.52C65.9258 12.3793 65.793 12.27 65.6328 12.1918C65.4766 12.1137 65.291 12.0746 65.0762 12.0746C64.8574 12.0746 64.6699 12.1254 64.5137 12.227C64.3574 12.3246 64.2305 12.4594 64.1328 12.6313C64.0391 12.8032 63.9688 13.0063 63.9219 13.2407C63.8789 13.4711 63.8574 13.7211 63.8574 13.9907ZM72.6172 15.7778V12.9536C72.6172 12.7504 72.584 12.5766 72.5176 12.4321C72.4512 12.2836 72.3477 12.1684 72.207 12.0864C72.0703 12.0043 71.8926 11.9633 71.6738 11.9633C71.4863 11.9633 71.3242 11.9965 71.1875 12.0629C71.0508 12.1254 70.9453 12.2172 70.8711 12.3383C70.7969 12.4555 70.7598 12.5942 70.7598 12.7543H69.0723C69.0723 12.4848 69.1348 12.2289 69.2598 11.9868C69.3848 11.7446 69.5664 11.5317 69.8047 11.3481C70.043 11.1606 70.3262 11.0141 70.6543 10.9086C70.9863 10.8032 71.3574 10.7504 71.7676 10.7504C72.2598 10.7504 72.6973 10.8325 73.0801 10.9965C73.4629 11.1606 73.7637 11.4067 73.9824 11.7348C74.2051 12.0629 74.3164 12.4731 74.3164 12.9653V15.6782C74.3164 16.0258 74.3379 16.311 74.3809 16.5336C74.4238 16.7524 74.4863 16.9438 74.5684 17.1078V17.2075H72.8633C72.7812 17.0356 72.7188 16.8207 72.6758 16.5629C72.6367 16.3012 72.6172 16.0395 72.6172 15.7778ZM72.8398 13.3461L72.8516 14.3012H71.9082C71.6855 14.3012 71.4922 14.3266 71.3281 14.3774C71.1641 14.4282 71.0293 14.5004 70.9238 14.5942C70.8184 14.684 70.7402 14.7895 70.6895 14.9106C70.6426 15.0317 70.6191 15.1645 70.6191 15.309C70.6191 15.4536 70.6523 15.5844 70.7188 15.7016C70.7852 15.8149 70.8809 15.9047 71.0059 15.9711C71.1309 16.0336 71.2773 16.0649 71.4453 16.0649C71.6992 16.0649 71.9199 16.0141 72.1074 15.9125C72.2949 15.811 72.4395 15.686 72.541 15.5375C72.6465 15.3891 72.7012 15.2485 72.7051 15.1157L73.1504 15.8305C73.0879 15.9907 73.002 16.1567 72.8926 16.3286C72.7871 16.5004 72.6523 16.6625 72.4883 16.8149C72.3242 16.9633 72.127 17.0864 71.8965 17.184C71.666 17.2778 71.3926 17.3246 71.0762 17.3246C70.6738 17.3246 70.3086 17.2446 69.9805 17.0844C69.6562 16.9203 69.3984 16.6957 69.207 16.4106C69.0195 16.1215 68.9258 15.7934 68.9258 15.4262C68.9258 15.0942 68.9883 14.7993 69.1133 14.5414C69.2383 14.2836 69.4219 14.0668 69.6641 13.8911C69.9102 13.7114 70.2168 13.5766 70.584 13.4868C70.9512 13.393 71.377 13.3461 71.8613 13.3461H72.8398ZM77.3984 8.20746V17.2075H75.7051V8.20746H77.3984ZM82.8066 10.8676H84.3359V16.9965C84.3359 17.5746 84.207 18.0649 83.9492 18.4672C83.6953 18.8735 83.3398 19.1801 82.8828 19.3871C82.4258 19.5981 81.8945 19.7036 81.2891 19.7036C81.0234 19.7036 80.7422 19.6684 80.4453 19.5981C80.1523 19.5278 79.8711 19.4184 79.6016 19.27C79.3359 19.1215 79.1133 18.934 78.9336 18.7075L79.6777 17.7114C79.873 17.9379 80.0996 18.1137 80.3574 18.2387C80.6152 18.3676 80.9004 18.4321 81.2129 18.4321C81.5176 18.4321 81.7754 18.3754 81.9863 18.2621C82.1973 18.1528 82.3594 17.9907 82.4727 17.7758C82.5859 17.5649 82.6426 17.309 82.6426 17.0082V12.3325L82.8066 10.8676ZM78.541 14.1137V13.9907C78.541 13.5063 78.5996 13.0668 78.7168 12.6723C78.8379 12.2739 79.0078 11.9321 79.2266 11.6469C79.4492 11.3618 79.7188 11.1411 80.0352 10.9848C80.3516 10.8286 80.709 10.7504 81.1074 10.7504C81.5293 10.7504 81.8828 10.8286 82.168 10.9848C82.4531 11.1411 82.6875 11.3637 82.8711 11.6528C83.0547 11.9379 83.1973 12.2758 83.2988 12.6664C83.4043 13.0532 83.4863 13.477 83.5449 13.9379V14.2075C83.4863 14.6489 83.3984 15.059 83.2812 15.4379C83.1641 15.8168 83.0098 16.1489 82.8184 16.434C82.627 16.7153 82.3887 16.934 82.1035 17.0903C81.8223 17.2465 81.4863 17.3246 81.0957 17.3246C80.7051 17.3246 80.3516 17.2446 80.0352 17.0844C79.7227 16.9243 79.4551 16.6996 79.2324 16.4106C79.0098 16.1215 78.8379 15.7817 78.7168 15.3911C78.5996 15.0004 78.541 14.5746 78.541 14.1137ZM80.2285 13.9907V14.1137C80.2285 14.3754 80.2539 14.6196 80.3047 14.8461C80.3555 15.0727 80.4336 15.2739 80.5391 15.4496C80.6484 15.6215 80.7832 15.7563 80.9434 15.8539C81.1074 15.9477 81.3008 15.9946 81.5234 15.9946C81.832 15.9946 82.084 15.9301 82.2793 15.8012C82.4746 15.6684 82.6211 15.4868 82.7188 15.2563C82.8164 15.0258 82.873 14.7602 82.8887 14.4594V13.6918C82.8809 13.4457 82.8477 13.225 82.7891 13.0297C82.7305 12.8305 82.6484 12.6606 82.543 12.52C82.4375 12.3793 82.3008 12.27 82.1328 12.1918C81.9648 12.1137 81.7656 12.0746 81.5352 12.0746C81.3125 12.0746 81.1191 12.1254 80.9551 12.227C80.7949 12.3246 80.6602 12.4594 80.5508 12.6313C80.4453 12.8032 80.3652 13.0063 80.3105 13.2407C80.2559 13.4711 80.2285 13.7211 80.2285 13.9907ZM87.3359 12.2504V17.2075H85.6484V10.8676H87.2363L87.3359 12.2504ZM89.2461 10.8266L89.2168 12.3911C89.1348 12.3793 89.0352 12.3696 88.918 12.3618C88.8047 12.35 88.7012 12.3442 88.6074 12.3442C88.3691 12.3442 88.1621 12.3754 87.9863 12.4379C87.8145 12.4965 87.6699 12.5844 87.5527 12.7016C87.4395 12.8188 87.3535 12.9614 87.2949 13.1293C87.2402 13.2973 87.209 13.4887 87.2012 13.7036L86.8613 13.5981C86.8613 13.1879 86.9023 12.811 86.9844 12.4672C87.0664 12.1196 87.1855 11.8168 87.3418 11.559C87.502 11.3012 87.6973 11.102 87.9277 10.9614C88.1582 10.8207 88.4219 10.7504 88.7188 10.7504C88.8125 10.7504 88.9082 10.7582 89.0059 10.7739C89.1035 10.7856 89.1836 10.8032 89.2461 10.8266ZM92.8438 17.3246C92.3516 17.3246 91.9102 17.2465 91.5195 17.0903C91.1289 16.9301 90.7969 16.7094 90.5234 16.4282C90.2539 16.1469 90.0469 15.8207 89.9023 15.4496C89.7578 15.0746 89.6855 14.6762 89.6855 14.2543V14.02C89.6855 13.5395 89.7539 13.1 89.8906 12.7016C90.0273 12.3032 90.2227 11.9575 90.4766 11.6645C90.7344 11.3715 91.0469 11.1469 91.4141 10.9907C91.7812 10.8305 92.1953 10.7504 92.6562 10.7504C93.1055 10.7504 93.5039 10.8246 93.8516 10.9731C94.1992 11.1215 94.4902 11.3325 94.7246 11.6059C94.9629 11.8793 95.1426 12.2075 95.2637 12.5903C95.3848 12.9692 95.4453 13.3911 95.4453 13.8559V14.559H90.4062V13.434H93.7871V13.3051C93.7871 13.0707 93.7441 12.8618 93.6582 12.6782C93.5762 12.4907 93.4512 12.3422 93.2832 12.2328C93.1152 12.1235 92.9004 12.0688 92.6387 12.0688C92.416 12.0688 92.2246 12.1176 92.0645 12.2153C91.9043 12.3129 91.7734 12.4496 91.6719 12.6254C91.5742 12.8012 91.5 13.0082 91.4492 13.2465C91.4023 13.4809 91.3789 13.7387 91.3789 14.02V14.2543C91.3789 14.5082 91.4141 14.7426 91.4844 14.9575C91.5586 15.1723 91.6621 15.3578 91.7949 15.5141C91.9316 15.6703 92.0957 15.7914 92.2871 15.8774C92.4824 15.9633 92.7031 16.0063 92.9492 16.0063C93.2539 16.0063 93.5371 15.9477 93.7988 15.8305C94.0645 15.7094 94.293 15.5278 94.4844 15.2856L95.3047 16.1762C95.1719 16.3676 94.9902 16.5512 94.7598 16.727C94.5332 16.9028 94.2598 17.0473 93.9395 17.1606C93.6191 17.27 93.2539 17.3246 92.8438 17.3246ZM99.3242 17.3246C98.832 17.3246 98.3906 17.2465 98 17.0903C97.6094 16.9301 97.2773 16.7094 97.0039 16.4282C96.7344 16.1469 96.5273 15.8207 96.3828 15.4496C96.2383 15.0746 96.166 14.6762 96.166 14.2543V14.02C96.166 13.5395 96.2344 13.1 96.3711 12.7016C96.5078 12.3032 96.7031 11.9575 96.957 11.6645C97.2148 11.3715 97.5273 11.1469 97.8945 10.9907C98.2617 10.8305 98.6758 10.7504 99.1367 10.7504C99.5859 10.7504 99.9844 10.8246 100.332 10.9731C100.68 11.1215 100.971 11.3325 101.205 11.6059C101.443 11.8793 101.623 12.2075 101.744 12.5903C101.865 12.9692 101.926 13.3911 101.926 13.8559V14.559H96.8867V13.434H100.268V13.3051C100.268 13.0707 100.225 12.8618 100.139 12.6782C100.057 12.4907 99.9316 12.3422 99.7637 12.2328C99.5957 12.1235 99.3809 12.0688 99.1191 12.0688C98.8965 12.0688 98.7051 12.1176 98.5449 12.2153C98.3848 12.3129 98.2539 12.4496 98.1523 12.6254C98.0547 12.8012 97.9805 13.0082 97.9297 13.2465C97.8828 13.4809 97.8594 13.7387 97.8594 14.02V14.2543C97.8594 14.5082 97.8945 14.7426 97.9648 14.9575C98.0391 15.1723 98.1426 15.3578 98.2754 15.5141C98.4121 15.6703 98.5762 15.7914 98.7676 15.8774C98.9629 15.9633 99.1836 16.0063 99.4297 16.0063C99.7344 16.0063 100.018 15.9477 100.279 15.8305C100.545 15.7094 100.773 15.5278 100.965 15.2856L101.785 16.1762C101.652 16.3676 101.471 16.5512 101.24 16.727C101.014 16.9028 100.74 17.0473 100.42 17.1606C100.1 17.27 99.7344 17.3246 99.3242 17.3246ZM104.539 12.2211V17.2075H102.852V10.8676H104.434L104.539 12.2211ZM104.293 13.8149H103.836C103.836 13.3461 103.896 12.9243 104.018 12.5493C104.139 12.1703 104.309 11.8481 104.527 11.5825C104.746 11.3129 105.006 11.1078 105.307 10.9672C105.611 10.8227 105.951 10.7504 106.326 10.7504C106.623 10.7504 106.895 10.7934 107.141 10.8793C107.387 10.9653 107.598 11.102 107.773 11.2895C107.953 11.477 108.09 11.725 108.184 12.0336C108.281 12.3422 108.33 12.7192 108.33 13.1645V17.2075H106.631V13.1586C106.631 12.8774 106.592 12.6586 106.514 12.5024C106.436 12.3461 106.32 12.2368 106.168 12.1743C106.02 12.1078 105.836 12.0746 105.617 12.0746C105.391 12.0746 105.193 12.1196 105.025 12.2094C104.861 12.2993 104.725 12.4243 104.615 12.5844C104.51 12.7407 104.43 12.9243 104.375 13.1352C104.32 13.3461 104.293 13.5727 104.293 13.8149ZM119.205 14.0727C119.189 14.4711 119.131 14.8637 119.029 15.2504C118.928 15.6371 118.773 15.9868 118.566 16.2993C118.363 16.6118 118.104 16.8618 117.787 17.0493C117.471 17.2368 117.088 17.3305 116.639 17.3305C116.385 17.3305 116.156 17.2856 115.953 17.1957C115.75 17.1059 115.578 16.9789 115.438 16.8149C115.297 16.6469 115.193 16.4457 115.127 16.2114C115.061 15.977 115.037 15.7133 115.057 15.4203L115.355 12.0453H116.527L116.234 15.4203C116.211 15.6235 116.213 15.7895 116.24 15.9184C116.271 16.0473 116.318 16.1469 116.381 16.2172C116.447 16.2875 116.521 16.3383 116.604 16.3696C116.689 16.3969 116.773 16.4106 116.855 16.4106C117.043 16.4106 117.215 16.352 117.371 16.2348C117.527 16.1176 117.662 15.9555 117.775 15.7485C117.889 15.5414 117.979 15.2993 118.045 15.0219C118.111 14.7407 118.148 14.4379 118.156 14.1137C118.184 13.5942 118.158 13.1137 118.08 12.6723C118.006 12.2309 117.877 11.8364 117.693 11.4887C117.514 11.1371 117.279 10.8403 116.99 10.5981C116.701 10.352 116.357 10.1645 115.959 10.0356C115.561 9.90277 115.105 9.83636 114.594 9.83636C114.113 9.83636 113.67 9.91058 113.264 10.059C112.861 10.2075 112.5 10.4203 112.18 10.6977C111.863 10.975 111.59 11.3071 111.359 11.6938C111.133 12.0766 110.953 12.5043 110.82 12.977C110.691 13.4457 110.615 13.9496 110.592 14.4887C110.564 15.0551 110.594 15.5707 110.68 16.0356C110.77 16.5004 110.912 16.9086 111.107 17.2602C111.307 17.6157 111.555 17.9125 111.852 18.1508C112.148 18.3891 112.494 18.5688 112.889 18.6899C113.283 18.811 113.723 18.8715 114.207 18.8715C114.547 18.8715 114.893 18.8325 115.244 18.7543C115.6 18.6801 115.898 18.5844 116.141 18.4672L116.363 19.3403C116.09 19.5161 115.748 19.6469 115.338 19.7328C114.932 19.8188 114.547 19.8618 114.184 19.8618C113.562 19.8618 112.996 19.7856 112.484 19.6332C111.977 19.4848 111.527 19.2621 111.137 18.9653C110.746 18.6723 110.42 18.309 110.158 17.8754C109.9 17.4418 109.709 16.9418 109.584 16.3754C109.463 15.809 109.416 15.1801 109.443 14.4887C109.471 13.8481 109.57 13.2446 109.742 12.6782C109.914 12.1118 110.148 11.5981 110.445 11.1371C110.742 10.6762 111.098 10.2797 111.512 9.94769C111.93 9.61176 112.398 9.35394 112.918 9.17426C113.438 8.99457 114.004 8.90472 114.617 8.90472C115.227 8.90472 115.779 8.9848 116.275 9.14496C116.775 9.30511 117.213 9.53558 117.588 9.83636C117.963 10.1332 118.275 10.4946 118.525 10.9203C118.775 11.3422 118.957 11.8188 119.07 12.35C119.184 12.8813 119.229 13.4555 119.205 14.0727ZM113.287 14.6879C113.268 14.9457 113.27 15.1743 113.293 15.3735C113.316 15.5727 113.361 15.7407 113.428 15.8774C113.494 16.0141 113.58 16.1176 113.686 16.1879C113.795 16.2543 113.924 16.2875 114.072 16.2875C114.154 16.2875 114.244 16.268 114.342 16.2289C114.439 16.186 114.539 16.1157 114.641 16.018C114.742 15.9203 114.838 15.7856 114.928 15.6137C115.021 15.4379 115.1 15.2172 115.162 14.9516L115.66 15.5434C115.57 15.8364 115.459 16.0942 115.326 16.3168C115.193 16.5356 115.041 16.7192 114.869 16.8676C114.701 17.0161 114.518 17.1274 114.318 17.2016C114.119 17.2758 113.904 17.3129 113.674 17.3129C113.389 17.3129 113.135 17.2524 112.912 17.1313C112.689 17.0063 112.504 16.8286 112.355 16.5981C112.207 16.3676 112.1 16.0922 112.033 15.7719C111.971 15.4477 111.959 15.0864 111.998 14.6879C112.041 14.2895 112.119 13.9203 112.232 13.5805C112.346 13.2407 112.486 12.9379 112.654 12.6723C112.822 12.4028 113.014 12.1743 113.229 11.9868C113.447 11.7953 113.684 11.6508 113.938 11.5532C114.191 11.4555 114.457 11.4067 114.734 11.4067C115.184 11.4067 115.537 11.4711 115.795 11.6C116.053 11.7289 116.297 11.8774 116.527 12.0453L115.93 12.8481C115.816 12.7465 115.668 12.6489 115.484 12.5551C115.305 12.4575 115.09 12.4086 114.84 12.4086C114.609 12.4086 114.406 12.4575 114.23 12.5551C114.059 12.6528 113.908 12.7993 113.779 12.9946C113.654 13.186 113.551 13.4243 113.469 13.7094C113.387 13.9907 113.326 14.3168 113.287 14.6879ZM124.385 10.8676H125.914V16.9965C125.914 17.5746 125.785 18.0649 125.527 18.4672C125.273 18.8735 124.918 19.1801 124.461 19.3871C124.004 19.5981 123.473 19.7036 122.867 19.7036C122.602 19.7036 122.32 19.6684 122.023 19.5981C121.73 19.5278 121.449 19.4184 121.18 19.27C120.914 19.1215 120.691 18.934 120.512 18.7075L121.256 17.7114C121.451 17.9379 121.678 18.1137 121.936 18.2387C122.193 18.3676 122.479 18.4321 122.791 18.4321C123.096 18.4321 123.354 18.3754 123.564 18.2621C123.775 18.1528 123.938 17.9907 124.051 17.7758C124.164 17.5649 124.221 17.309 124.221 17.0082V12.3325L124.385 10.8676ZM120.119 14.1137V13.9907C120.119 13.5063 120.178 13.0668 120.295 12.6723C120.416 12.2739 120.586 11.9321 120.805 11.6469C121.027 11.3618 121.297 11.1411 121.613 10.9848C121.93 10.8286 122.287 10.7504 122.686 10.7504C123.107 10.7504 123.461 10.8286 123.746 10.9848C124.031 11.1411 124.266 11.3637 124.449 11.6528C124.633 11.9379 124.775 12.2758 124.877 12.6664C124.982 13.0532 125.064 13.477 125.123 13.9379V14.2075C125.064 14.6489 124.977 15.059 124.859 15.4379C124.742 15.8168 124.588 16.1489 124.396 16.434C124.205 16.7153 123.967 16.934 123.682 17.0903C123.4 17.2465 123.064 17.3246 122.674 17.3246C122.283 17.3246 121.93 17.2446 121.613 17.0844C121.301 16.9243 121.033 16.6996 120.811 16.4106C120.588 16.1215 120.416 15.7817 120.295 15.3911C120.178 15.0004 120.119 14.5746 120.119 14.1137ZM121.807 13.9907V14.1137C121.807 14.3754 121.832 14.6196 121.883 14.8461C121.934 15.0727 122.012 15.2739 122.117 15.4496C122.227 15.6215 122.361 15.7563 122.521 15.8539C122.686 15.9477 122.879 15.9946 123.102 15.9946C123.41 15.9946 123.662 15.9301 123.857 15.8012C124.053 15.6684 124.199 15.4868 124.297 15.2563C124.395 15.0258 124.451 14.7602 124.467 14.4594V13.6918C124.459 13.4457 124.426 13.225 124.367 13.0297C124.309 12.8305 124.227 12.6606 124.121 12.52C124.016 12.3793 123.879 12.27 123.711 12.1918C123.543 12.1137 123.344 12.0746 123.113 12.0746C122.891 12.0746 122.697 12.1254 122.533 12.227C122.373 12.3246 122.238 12.4594 122.129 12.6313C122.023 12.8032 121.943 13.0063 121.889 13.2407C121.834 13.4711 121.807 13.7211 121.807 13.9907ZM128.914 12.1801V17.2075H127.221V10.8676H128.809L128.914 12.1801ZM128.68 13.8149H128.211C128.211 13.3735 128.264 12.9672 128.369 12.5961C128.479 12.2211 128.637 11.8969 128.844 11.6235C129.055 11.3461 129.314 11.1313 129.623 10.9789C129.932 10.8266 130.289 10.7504 130.695 10.7504C130.977 10.7504 131.234 10.7934 131.469 10.8793C131.703 10.9614 131.904 11.0922 132.072 11.2719C132.244 11.4477 132.377 11.6782 132.471 11.9633C132.564 12.2446 132.611 12.5825 132.611 12.977V17.2075H130.924V13.1645C130.924 12.8754 130.885 12.6528 130.807 12.4965C130.729 12.3403 130.617 12.2309 130.473 12.1684C130.332 12.1059 130.162 12.0746 129.963 12.0746C129.744 12.0746 129.553 12.1196 129.389 12.2094C129.229 12.2993 129.096 12.4243 128.99 12.5844C128.885 12.7407 128.807 12.9243 128.756 13.1352C128.705 13.3461 128.68 13.5727 128.68 13.8149ZM132.453 13.6215L131.85 13.6977C131.85 13.2836 131.9 12.8989 132.002 12.5434C132.107 12.1879 132.262 11.8754 132.465 11.6059C132.672 11.3364 132.928 11.1274 133.232 10.9789C133.537 10.8266 133.889 10.7504 134.287 10.7504C134.592 10.7504 134.869 10.7953 135.119 10.8852C135.369 10.9711 135.582 11.1098 135.758 11.3012C135.938 11.4887 136.074 11.7348 136.168 12.0395C136.266 12.3442 136.314 12.7172 136.314 13.1586V17.2075H134.621V13.1586C134.621 12.8657 134.582 12.643 134.504 12.4907C134.43 12.3344 134.32 12.227 134.176 12.1684C134.035 12.1059 133.867 12.0746 133.672 12.0746C133.469 12.0746 133.291 12.1157 133.139 12.1977C132.986 12.2758 132.859 12.3852 132.758 12.5258C132.656 12.6664 132.58 12.8305 132.529 13.018C132.479 13.2016 132.453 13.4028 132.453 13.6215ZM141.043 15.7778V12.9536C141.043 12.7504 141.01 12.5766 140.943 12.4321C140.877 12.2836 140.773 12.1684 140.633 12.0864C140.496 12.0043 140.318 11.9633 140.1 11.9633C139.912 11.9633 139.75 11.9965 139.613 12.0629C139.477 12.1254 139.371 12.2172 139.297 12.3383C139.223 12.4555 139.186 12.5942 139.186 12.7543H137.498C137.498 12.4848 137.561 12.2289 137.686 11.9868C137.811 11.7446 137.992 11.5317 138.23 11.3481C138.469 11.1606 138.752 11.0141 139.08 10.9086C139.412 10.8032 139.783 10.7504 140.193 10.7504C140.686 10.7504 141.123 10.8325 141.506 10.9965C141.889 11.1606 142.189 11.4067 142.408 11.7348C142.631 12.0629 142.742 12.4731 142.742 12.9653V15.6782C142.742 16.0258 142.764 16.311 142.807 16.5336C142.85 16.7524 142.912 16.9438 142.994 17.1078V17.2075H141.289C141.207 17.0356 141.145 16.8207 141.102 16.5629C141.062 16.3012 141.043 16.0395 141.043 15.7778ZM141.266 13.3461L141.277 14.3012H140.334C140.111 14.3012 139.918 14.3266 139.754 14.3774C139.59 14.4282 139.455 14.5004 139.35 14.5942C139.244 14.684 139.166 14.7895 139.115 14.9106C139.068 15.0317 139.045 15.1645 139.045 15.309C139.045 15.4536 139.078 15.5844 139.145 15.7016C139.211 15.8149 139.307 15.9047 139.432 15.9711C139.557 16.0336 139.703 16.0649 139.871 16.0649C140.125 16.0649 140.346 16.0141 140.533 15.9125C140.721 15.811 140.865 15.686 140.967 15.5375C141.072 15.3891 141.127 15.2485 141.131 15.1157L141.576 15.8305C141.514 15.9907 141.428 16.1567 141.318 16.3286C141.213 16.5004 141.078 16.6625 140.914 16.8149C140.75 16.9633 140.553 17.0864 140.322 17.184C140.092 17.2778 139.818 17.3246 139.502 17.3246C139.1 17.3246 138.734 17.2446 138.406 17.0844C138.082 16.9203 137.824 16.6957 137.633 16.4106C137.445 16.1215 137.352 15.7934 137.352 15.4262C137.352 15.0942 137.414 14.7993 137.539 14.5414C137.664 14.2836 137.848 14.0668 138.09 13.8911C138.336 13.7114 138.643 13.5766 139.01 13.4868C139.377 13.393 139.803 13.3461 140.287 13.3461H141.266ZM145.824 10.8676V17.2075H144.131V10.8676H145.824ZM144.025 9.21527C144.025 8.96918 144.111 8.76605 144.283 8.6059C144.455 8.44574 144.686 8.36566 144.975 8.36566C145.26 8.36566 145.488 8.44574 145.66 8.6059C145.836 8.76605 145.924 8.96918 145.924 9.21527C145.924 9.46136 145.836 9.66449 145.66 9.82465C145.488 9.9848 145.26 10.0649 144.975 10.0649C144.686 10.0649 144.455 9.9848 144.283 9.82465C144.111 9.66449 144.025 9.46136 144.025 9.21527ZM149 8.20746V17.2075H147.307V8.20746H149ZM150.477 16.393C150.477 16.143 150.562 15.934 150.734 15.7661C150.91 15.5981 151.143 15.5141 151.432 15.5141C151.721 15.5141 151.951 15.5981 152.123 15.7661C152.299 15.934 152.387 16.143 152.387 16.393C152.387 16.643 152.299 16.852 152.123 17.02C151.951 17.1879 151.721 17.2719 151.432 17.2719C151.143 17.2719 150.91 17.1879 150.734 17.02C150.562 16.852 150.477 16.643 150.477 16.393ZM156.494 16.0063C156.701 16.0063 156.885 15.9672 157.045 15.8891C157.205 15.8071 157.33 15.6938 157.42 15.5493C157.514 15.4008 157.562 15.227 157.566 15.0278H159.154C159.15 15.4731 159.031 15.8696 158.797 16.2172C158.562 16.561 158.248 16.8325 157.854 17.0317C157.459 17.227 157.018 17.3246 156.529 17.3246C156.037 17.3246 155.607 17.2426 155.24 17.0786C154.877 16.9145 154.574 16.6879 154.332 16.3989C154.09 16.1059 153.908 15.7661 153.787 15.3793C153.666 14.9887 153.605 14.5707 153.605 14.1254V13.9555C153.605 13.5063 153.666 13.0883 153.787 12.7016C153.908 12.311 154.09 11.9711 154.332 11.6821C154.574 11.3891 154.877 11.1606 155.24 10.9965C155.604 10.8325 156.029 10.7504 156.518 10.7504C157.037 10.7504 157.492 10.85 157.883 11.0493C158.277 11.2485 158.586 11.5336 158.809 11.9047C159.035 12.2719 159.15 12.7075 159.154 13.2114H157.566C157.562 13.0004 157.518 12.809 157.432 12.6371C157.35 12.4653 157.229 12.3286 157.068 12.227C156.912 12.1215 156.719 12.0688 156.488 12.0688C156.242 12.0688 156.041 12.1215 155.885 12.227C155.729 12.3286 155.607 12.4692 155.521 12.6489C155.436 12.8246 155.375 13.0258 155.34 13.2524C155.309 13.475 155.293 13.7094 155.293 13.9555V14.1254C155.293 14.3715 155.309 14.6078 155.34 14.8344C155.371 15.061 155.43 15.2621 155.516 15.4379C155.605 15.6137 155.729 15.7524 155.885 15.8539C156.041 15.9555 156.244 16.0063 156.494 16.0063ZM159.863 14.102V13.9789C159.863 13.5141 159.93 13.0864 160.062 12.6957C160.195 12.3012 160.389 11.9594 160.643 11.6703C160.896 11.3813 161.209 11.1567 161.58 10.9965C161.951 10.8325 162.377 10.7504 162.857 10.7504C163.338 10.7504 163.766 10.8325 164.141 10.9965C164.516 11.1567 164.83 11.3813 165.084 11.6703C165.342 11.9594 165.537 12.3012 165.67 12.6957C165.803 13.0864 165.869 13.5141 165.869 13.9789V14.102C165.869 14.5629 165.803 14.9907 165.67 15.3852C165.537 15.7758 165.342 16.1176 165.084 16.4106C164.83 16.6996 164.518 16.9243 164.146 17.0844C163.775 17.2446 163.35 17.3246 162.869 17.3246C162.389 17.3246 161.961 17.2446 161.586 17.0844C161.215 16.9243 160.9 16.6996 160.643 16.4106C160.389 16.1176 160.195 15.7758 160.062 15.3852C159.93 14.9907 159.863 14.5629 159.863 14.102ZM161.551 13.9789V14.102C161.551 14.3676 161.574 14.6157 161.621 14.8461C161.668 15.0766 161.742 15.2797 161.844 15.4555C161.949 15.6274 162.086 15.7621 162.254 15.8598C162.422 15.9575 162.627 16.0063 162.869 16.0063C163.104 16.0063 163.305 15.9575 163.473 15.8598C163.641 15.7621 163.775 15.6274 163.877 15.4555C163.979 15.2797 164.053 15.0766 164.1 14.8461C164.15 14.6157 164.176 14.3676 164.176 14.102V13.9789C164.176 13.7211 164.15 13.4789 164.1 13.2524C164.053 13.0219 163.977 12.8188 163.871 12.643C163.77 12.4633 163.635 12.3227 163.467 12.2211C163.299 12.1196 163.096 12.0688 162.857 12.0688C162.619 12.0688 162.416 12.1196 162.248 12.2211C162.084 12.3227 161.949 12.4633 161.844 12.643C161.742 12.8188 161.668 13.0219 161.621 13.2524C161.574 13.4789 161.551 13.7211 161.551 13.9789ZM168.594 12.1801V17.2075H166.9V10.8676H168.488L168.594 12.1801ZM168.359 13.8149H167.891C167.891 13.3735 167.943 12.9672 168.049 12.5961C168.158 12.2211 168.316 11.8969 168.523 11.6235C168.734 11.3461 168.994 11.1313 169.303 10.9789C169.611 10.8266 169.969 10.7504 170.375 10.7504C170.656 10.7504 170.914 10.7934 171.148 10.8793C171.383 10.9614 171.584 11.0922 171.752 11.2719C171.924 11.4477 172.057 11.6782 172.15 11.9633C172.244 12.2446 172.291 12.5825 172.291 12.977V17.2075H170.604V13.1645C170.604 12.8754 170.564 12.6528 170.486 12.4965C170.408 12.3403 170.297 12.2309 170.152 12.1684C170.012 12.1059 169.842 12.0746 169.643 12.0746C169.424 12.0746 169.232 12.1196 169.068 12.2094C168.908 12.2993 168.775 12.4243 168.67 12.5844C168.564 12.7407 168.486 12.9243 168.436 13.1352C168.385 13.3461 168.359 13.5727 168.359 13.8149ZM172.133 13.6215L171.529 13.6977C171.529 13.2836 171.58 12.8989 171.682 12.5434C171.787 12.1879 171.941 11.8754 172.145 11.6059C172.352 11.3364 172.607 11.1274 172.912 10.9789C173.217 10.8266 173.568 10.7504 173.967 10.7504C174.271 10.7504 174.549 10.7953 174.799 10.8852C175.049 10.9711 175.262 11.1098 175.438 11.3012C175.617 11.4887 175.754 11.7348 175.848 12.0395C175.945 12.3442 175.994 12.7172 175.994 13.1586V17.2075H174.301V13.1586C174.301 12.8657 174.262 12.643 174.184 12.4907C174.109 12.3344 174 12.227 173.855 12.1684C173.715 12.1059 173.547 12.0746 173.352 12.0746C173.148 12.0746 172.971 12.1157 172.818 12.1977C172.666 12.2758 172.539 12.3852 172.438 12.5258C172.336 12.6664 172.26 12.8305 172.209 13.018C172.158 13.2016 172.133 13.4028 172.133 13.6215Z" fill="#1E2431"/>
</svg>
