<svg width="28" height="28" viewBox="0 0 28 28" fill="none" xmlns="http://www.w3.org/2000/svg">
<circle cx="14" cy="14" r="13.5" stroke="white"/>
<path d="M13.7578 9.90603C14.8276 9.90603 15.8333 10.3991 16.5719 11.1707V11.1731C16.5719 10.8028 16.811 10.5238 17.143 10.5238H17.2275C17.7473 10.5238 17.8535 11.0357 17.8535 11.198L17.8564 16.9589C17.8196 17.3365 18.2297 17.531 18.4567 17.2891C19.3439 16.3381 20.4062 12.4019 17.9048 10.1207C15.5737 7.99446 12.4464 8.34467 10.7827 9.54001C9.01456 10.8114 7.88286 13.6246 8.98247 16.267C10.1807 19.1489 13.609 20.0075 15.6467 19.1514C16.6786 18.7167 17.1552 20.1704 16.0836 20.6453C14.4642 21.3651 9.95725 21.2922 7.85253 17.4909C6.42974 14.9245 6.50557 10.4082 10.2781 8.06864C13.1639 6.27928 16.9691 6.7748 19.2628 9.27188C21.661 11.8827 21.5216 16.771 19.1818 18.6723C18.1224 19.5356 16.5474 18.6948 16.5579 17.4374L16.5468 17.0252C15.8088 17.7888 14.8271 18.2339 13.7572 18.2339C11.6425 18.2339 9.78283 16.295 9.78283 14.0922C9.78283 11.8675 11.6431 9.90603 13.7578 9.90603V9.90603ZM16.4184 13.9329C16.3385 12.3198 15.1899 11.3494 13.8027 11.3494H13.7502C12.1489 11.3494 11.2605 12.6621 11.2605 14.1524C11.2605 15.8225 12.335 16.8768 13.7432 16.8768C15.3142 16.8768 16.3473 15.6772 16.4219 14.2588L16.4184 13.9329Z" fill="white"/>
</svg>
