<svg width="28" height="28" viewBox="0 0 28 28" fill="none" xmlns="http://www.w3.org/2000/svg">
<path fill-rule="evenodd" clip-rule="evenodd" d="M14 28C21.732 28 28 21.732 28 14C28 6.26801 21.732 0 14 0C6.26801 0 0 6.26801 0 14C0 21.732 6.26801 28 14 28ZM16.5719 11.1707C15.8333 10.3991 14.8276 9.90603 13.7578 9.90603C11.6431 9.90603 9.78283 11.8675 9.78283 14.0922C9.78283 16.295 11.6425 18.2339 13.7572 18.2339C14.8271 18.2339 15.8088 17.7888 16.5468 17.0252L16.5579 17.4374C16.5474 18.6948 18.1224 19.5356 19.1818 18.6723C21.5216 16.771 21.661 11.8827 19.2628 9.27188C16.9691 6.7748 13.1639 6.27928 10.2781 8.06864C6.50557 10.4082 6.42974 14.9245 7.85253 17.4909C9.95725 21.2922 14.4642 21.3651 16.0836 20.6453C17.1552 20.1704 16.6786 18.7167 15.6467 19.1514C13.609 20.0075 10.1807 19.1489 8.98247 16.267C7.88286 13.6246 9.01456 10.8114 10.7827 9.54001C12.4464 8.34467 15.5737 7.99446 17.9048 10.1207C20.4062 12.4019 19.3439 16.3381 18.4567 17.2891C18.2297 17.531 17.8196 17.3365 17.8564 16.9589L17.8535 11.198C17.8535 11.0357 17.7473 10.5238 17.2275 10.5238H17.143C16.811 10.5238 16.5719 10.8028 16.5719 11.1731V11.1707ZM13.8027 11.3494C15.1899 11.3494 16.3385 12.3198 16.4184 13.9329L16.4219 14.2588C16.3473 15.6772 15.3142 16.8768 13.7432 16.8768C12.335 16.8768 11.2605 15.8225 11.2605 14.1524C11.2605 12.6621 12.1489 11.3494 13.7502 11.3494H13.8027Z" fill="#1E2431"/>
</svg>
