<svg width="28" height="28" viewBox="0 0 28 28" fill="none" xmlns="http://www.w3.org/2000/svg">
<circle cx="14" cy="14" r="13.5" stroke="white"/>
<path d="M12.054 9.71147C12.054 10.0641 12.0672 11.7895 12.0672 11.7895H10.5V14L12.054 13.9959L12.0672 21H15.2015V14L17.2089 13.9959C17.2089 13.9959 17.3605 13.0252 17.4543 11.7895C17.185 11.7895 15.2015 11.7895 15.2015 11.7895C15.2015 11.7895 15.1505 10.2587 15.1505 10.0185C15.1505 9.77775 15.4868 9.45372 15.8193 9.45372H17.5C17.5 9.13283 17.5 8.02403 17.5 7C16.6342 7 15.6493 7 15.2148 7C11.9777 7 12.054 9.35915 12.054 9.71147Z" fill="white"/>
</svg>
