<svg width="28" height="28" viewBox="0 0 28 28" fill="none" xmlns="http://www.w3.org/2000/svg">
<path fill-rule="evenodd" clip-rule="evenodd" d="M14 28C21.732 28 28 21.732 28 14C28 6.26801 21.732 0 14 0C6.26801 0 0 6.26801 0 14C0 21.732 6.26801 28 14 28ZM12.0672 11.7895C12.0672 11.7895 12.054 10.0641 12.054 9.71147C12.054 9.70432 12.0539 9.69635 12.0539 9.6876C12.0522 9.26445 12.0433 7 15.2148 7H17.5V9.45372H15.8193C15.4868 9.45372 15.1505 9.77775 15.1505 10.0185C15.1505 10.2587 15.2015 11.7895 15.2015 11.7895H17.4543C17.3605 13.0252 17.2089 13.9959 17.2089 13.9959L15.2015 14V21H12.0672L12.054 13.9959L10.5 14V11.7895H12.0672Z" fill="#1E2431"/>
</svg>
