<svg width="25" height="26" viewBox="0 0 25 26" fill="none" xmlns="http://www.w3.org/2000/svg">
<path d="M24.5 13.1494C24.5 19.7462 19.1294 25.0975 12.5 25.0975C5.87062 25.0975 0.5 19.7462 0.5 13.1494C0.5 6.55255 5.87062 1.20123 12.5 1.20123C19.1294 1.20123 24.5 6.55255 24.5 13.1494Z" stroke="#1E2431"/>
<path d="M10.7625 9.3362C10.7625 9.64976 10.7743 11.1839 10.7743 11.1839H9.375V13.1494L10.7625 13.1458L10.7743 19.3734H13.5728V13.1494L15.3651 13.1458C15.3651 13.1458 15.5004 12.2826 15.5842 11.1839C15.3437 11.1839 13.5728 11.1839 13.5728 11.1839C13.5728 11.1839 13.5272 9.82279 13.5272 9.60924C13.5272 9.39513 13.8275 9.10702 14.1244 9.10702H15.625C15.625 8.8217 15.625 7.83581 15.625 6.92529C14.8519 6.92529 13.9726 6.92529 13.5847 6.92529C10.6944 6.92529 10.7625 9.02293 10.7625 9.3362Z" fill="#1E2431"/>
</svg>
