<svg width="568" height="138" viewBox="0 0 568 138" fill="none" xmlns="http://www.w3.org/2000/svg">
<path opacity="0.3" d="M153 46C153 44.8954 153.895 44 155 44H499C500.105 44 501 44.8954 501 46V67C501 68.1046 500.105 69 499 69H155C153.895 69 153 68.1046 153 67V46Z" fill="#4EA539"/>
<path opacity="0.3" d="M221 115C221 113.895 221.895 113 223 113H426C427.105 113 428 113.895 428 115V136C428 137.105 427.105 138 426 138H223C221.895 138 221 137.105 221 136V115Z" fill="#4EA539"/>
<path d="M94.0679 57V15.42H120.348V21.84H101.628V32.46H118.248V38.88H101.628V57H94.0679ZM154.432 41.28C154.432 43.76 154.072 46.02 153.352 48.06C152.632 50.1 151.612 51.84 150.292 53.28C148.972 54.72 147.372 55.84 145.492 56.64C143.652 57.44 141.612 57.84 139.372 57.84C137.132 57.84 135.092 57.44 133.252 56.64C131.412 55.84 129.832 54.72 128.512 53.28C127.192 51.84 126.152 50.1 125.392 48.06C124.672 46.02 124.312 43.76 124.312 41.28C124.312 38.8 124.672 36.56 125.392 34.56C126.152 32.52 127.192 30.78 128.512 29.34C129.872 27.9 131.472 26.8 133.312 26.04C135.152 25.24 137.172 24.84 139.372 24.84C141.572 24.84 143.592 25.24 145.432 26.04C147.312 26.8 148.912 27.9 150.232 29.34C151.552 30.78 152.572 32.52 153.292 34.56C154.052 36.56 154.432 38.8 154.432 41.28ZM146.992 41.28C146.992 38.16 146.312 35.7 144.952 33.9C143.632 32.06 141.772 31.14 139.372 31.14C136.972 31.14 135.092 32.06 133.732 33.9C132.412 35.7 131.752 38.16 131.752 41.28C131.752 44.44 132.412 46.94 133.732 48.78C135.092 50.62 136.972 51.54 139.372 51.54C141.772 51.54 143.632 50.62 144.952 48.78C146.312 46.94 146.992 44.44 146.992 41.28ZM179.791 32.16C179.191 31.96 178.351 31.76 177.271 31.56C176.231 31.32 175.011 31.2 173.611 31.2C172.811 31.2 171.951 31.28 171.031 31.44C170.151 31.6 169.531 31.74 169.171 31.86V57H161.911V27.12C163.311 26.6 165.051 26.12 167.131 25.68C169.251 25.2 171.591 24.96 174.151 24.96C174.631 24.96 175.191 25 175.831 25.08C176.471 25.12 177.111 25.2 177.751 25.32C178.391 25.4 179.011 25.52 179.611 25.68C180.211 25.8 180.691 25.92 181.051 26.04L179.791 32.16ZM203.99 40.5C203.99 37.22 203.57 34.86 202.73 33.42C201.93 31.94 200.41 31.2 198.17 31.2C197.37 31.2 196.49 31.26 195.53 31.38C194.57 31.5 193.85 31.6 193.37 31.68V57H186.11V26.64C187.51 26.24 189.33 25.86 191.57 25.5C193.85 25.14 196.25 24.96 198.77 24.96C200.93 24.96 202.69 25.24 204.05 25.8C205.45 26.36 206.61 27.1 207.53 28.02C207.97 27.7 208.53 27.36 209.21 27C209.89 26.64 210.65 26.32 211.49 26.04C212.33 25.72 213.21 25.46 214.13 25.26C215.09 25.06 216.05 24.96 217.01 24.96C219.45 24.96 221.45 25.32 223.01 26.04C224.61 26.72 225.85 27.7 226.73 28.98C227.65 30.22 228.27 31.74 228.59 33.54C228.95 35.3 229.13 37.24 229.13 39.36V57H221.87V40.5C221.87 37.22 221.47 34.86 220.67 33.42C219.87 31.94 218.33 31.2 216.05 31.2C214.89 31.2 213.79 31.4 212.75 31.8C211.71 32.16 210.93 32.52 210.41 32.88C210.73 33.88 210.95 34.94 211.07 36.06C211.19 37.18 211.25 38.38 211.25 39.66V57H203.99V40.5ZM263.764 56.04C262.364 56.4 260.544 56.76 258.304 57.12C256.064 57.52 253.604 57.72 250.924 57.72C248.404 57.72 246.284 57.36 244.564 56.64C242.884 55.92 241.524 54.92 240.484 53.64C239.484 52.36 238.764 50.84 238.324 49.08C237.884 47.28 237.664 45.32 237.664 43.2V25.62H244.924V42.06C244.924 45.42 245.404 47.82 246.364 49.26C247.364 50.7 249.084 51.42 251.524 51.42C252.404 51.42 253.324 51.38 254.284 51.3C255.284 51.22 256.024 51.12 256.504 51V25.62H263.764V56.04ZM283.925 57.6C281.765 57.56 279.965 57.32 278.525 56.88C277.125 56.44 276.005 55.82 275.165 55.02C274.325 54.18 273.725 53.16 273.365 51.96C273.045 50.72 272.885 49.32 272.885 47.76V11.64L280.145 10.44V46.38C280.145 47.26 280.205 48 280.325 48.6C280.485 49.2 280.745 49.72 281.105 50.16C281.465 50.56 281.945 50.88 282.545 51.12C283.185 51.32 283.985 51.48 284.945 51.6L283.925 57.6ZM301.857 51.9C304.097 51.9 305.797 51.78 306.957 51.54V43.5C306.557 43.38 305.977 43.26 305.217 43.14C304.457 43.02 303.617 42.96 302.697 42.96C301.897 42.96 301.077 43.02 300.237 43.14C299.437 43.26 298.697 43.48 298.017 43.8C297.377 44.12 296.857 44.58 296.457 45.18C296.057 45.74 295.857 46.46 295.857 47.34C295.857 49.06 296.397 50.26 297.477 50.94C298.557 51.58 300.017 51.9 301.857 51.9ZM301.257 24.84C303.657 24.84 305.677 25.14 307.317 25.74C308.957 26.34 310.257 27.18 311.217 28.26C312.217 29.34 312.917 30.66 313.317 32.22C313.757 33.74 313.977 35.42 313.977 37.26V56.28C312.857 56.52 311.157 56.8 308.877 57.12C306.637 57.48 304.097 57.66 301.257 57.66C299.377 57.66 297.657 57.48 296.097 57.12C294.537 56.76 293.197 56.18 292.077 55.38C290.997 54.58 290.137 53.54 289.497 52.26C288.897 50.98 288.597 49.4 288.597 47.52C288.597 45.72 288.937 44.2 289.617 42.96C290.337 41.72 291.297 40.72 292.497 39.96C293.697 39.16 295.077 38.6 296.637 38.28C298.237 37.92 299.897 37.74 301.617 37.74C302.417 37.74 303.257 37.8 304.137 37.92C305.017 38 305.957 38.16 306.957 38.4V37.2C306.957 36.36 306.857 35.56 306.657 34.8C306.457 34.04 306.097 33.38 305.577 32.82C305.097 32.22 304.437 31.76 303.597 31.44C302.797 31.12 301.777 30.96 300.537 30.96C298.857 30.96 297.317 31.08 295.917 31.32C294.517 31.56 293.377 31.84 292.497 32.16L291.597 26.28C292.517 25.96 293.857 25.64 295.617 25.32C297.377 25 299.257 24.84 301.257 24.84ZM340.748 32.16C340.148 31.96 339.308 31.76 338.228 31.56C337.188 31.32 335.968 31.2 334.568 31.2C333.768 31.2 332.908 31.28 331.988 31.44C331.108 31.6 330.488 31.74 330.128 31.86V57H322.868V27.12C324.268 26.6 326.008 26.12 328.088 25.68C330.208 25.2 332.548 24.96 335.108 24.96C335.588 24.96 336.148 25 336.788 25.08C337.428 25.12 338.068 25.2 338.708 25.32C339.348 25.4 339.968 25.52 340.568 25.68C341.168 25.8 341.648 25.92 342.008 26.04L340.748 32.16ZM354.387 57H347.127V25.62H354.387V57ZM355.167 16.44C355.167 17.8 354.727 18.88 353.847 19.68C352.967 20.48 351.927 20.88 350.727 20.88C349.487 20.88 348.427 20.48 347.547 19.68C346.667 18.88 346.227 17.8 346.227 16.44C346.227 15.04 346.667 13.94 347.547 13.14C348.427 12.34 349.487 11.94 350.727 11.94C351.927 11.94 352.967 12.34 353.847 13.14C354.727 13.94 355.167 15.04 355.167 16.44ZM392.029 41.28C392.029 43.76 391.669 46.02 390.949 48.06C390.229 50.1 389.209 51.84 387.889 53.28C386.569 54.72 384.969 55.84 383.089 56.64C381.249 57.44 379.209 57.84 376.969 57.84C374.729 57.84 372.689 57.44 370.849 56.64C369.009 55.84 367.429 54.72 366.109 53.28C364.789 51.84 363.749 50.1 362.989 48.06C362.269 46.02 361.909 43.76 361.909 41.28C361.909 38.8 362.269 36.56 362.989 34.56C363.749 32.52 364.789 30.78 366.109 29.34C367.469 27.9 369.069 26.8 370.909 26.04C372.749 25.24 374.769 24.84 376.969 24.84C379.169 24.84 381.189 25.24 383.029 26.04C384.909 26.8 386.509 27.9 387.829 29.34C389.149 30.78 390.169 32.52 390.889 34.56C391.649 36.56 392.029 38.8 392.029 41.28ZM384.589 41.28C384.589 38.16 383.909 35.7 382.549 33.9C381.229 32.06 379.369 31.14 376.969 31.14C374.569 31.14 372.689 32.06 371.329 33.9C370.009 35.7 369.349 38.16 369.349 41.28C369.349 44.44 370.009 46.94 371.329 48.78C372.689 50.62 374.569 51.54 376.969 51.54C379.369 51.54 381.229 50.62 382.549 48.78C383.909 46.94 384.589 44.44 384.589 41.28ZM419.213 41.22C419.213 44.42 419.973 46.94 421.493 48.78C423.013 50.58 425.113 51.48 427.793 51.48C428.953 51.48 429.933 51.44 430.733 51.36C431.573 51.24 432.253 51.12 432.773 51V33C432.133 32.56 431.273 32.16 430.193 31.8C429.153 31.4 428.033 31.2 426.833 31.2C424.193 31.2 422.253 32.1 421.013 33.9C419.813 35.7 419.213 38.14 419.213 41.22ZM440.033 56.04C438.593 56.48 436.773 56.88 434.573 57.24C432.413 57.6 430.133 57.78 427.733 57.78C425.253 57.78 423.033 57.4 421.073 56.64C419.113 55.88 417.433 54.8 416.033 53.4C414.673 51.96 413.613 50.24 412.853 48.24C412.133 46.2 411.773 43.92 411.773 41.4C411.773 38.92 412.073 36.68 412.673 34.68C413.313 32.64 414.233 30.9 415.433 29.46C416.633 28.02 418.093 26.92 419.813 26.16C421.533 25.36 423.513 24.96 425.753 24.96C427.273 24.96 428.613 25.14 429.773 25.5C430.933 25.86 431.933 26.26 432.773 26.7V11.64L440.033 10.44V56.04ZM447.515 41.46C447.515 38.7 447.915 36.28 448.715 34.2C449.555 32.12 450.655 30.4 452.015 29.04C453.375 27.64 454.935 26.6 456.695 25.92C458.455 25.2 460.255 24.84 462.095 24.84C466.415 24.84 469.775 26.18 472.175 28.86C474.615 31.54 475.835 35.54 475.835 40.86C475.835 41.26 475.815 41.72 475.775 42.24C475.775 42.72 475.755 43.16 475.715 43.56H455.015C455.215 46.08 456.095 48.04 457.655 49.44C459.255 50.8 461.555 51.48 464.555 51.48C466.315 51.48 467.915 51.32 469.355 51C470.835 50.68 471.995 50.34 472.835 49.98L473.795 55.92C473.395 56.12 472.835 56.34 472.115 56.58C471.435 56.78 470.635 56.96 469.715 57.12C468.835 57.32 467.875 57.48 466.835 57.6C465.795 57.72 464.735 57.78 463.655 57.78C460.895 57.78 458.495 57.38 456.455 56.58C454.415 55.74 452.735 54.6 451.415 53.16C450.095 51.68 449.115 49.96 448.475 48C447.835 46 447.515 43.82 447.515 41.46ZM468.575 38.22C468.575 37.22 468.435 36.28 468.155 35.4C467.875 34.48 467.455 33.7 466.895 33.06C466.375 32.38 465.715 31.86 464.915 31.5C464.155 31.1 463.235 30.9 462.155 30.9C461.035 30.9 460.055 31.12 459.215 31.56C458.375 31.96 457.655 32.5 457.055 33.18C456.495 33.86 456.055 34.64 455.735 35.52C455.415 36.4 455.195 37.3 455.075 38.22H468.575ZM180.399 126.9C177.279 126.9 174.479 126.42 171.999 125.46C169.519 124.5 167.419 123.1 165.699 121.26C163.979 119.38 162.659 117.1 161.739 114.42C160.819 111.74 160.359 108.66 160.359 105.18C160.359 101.7 160.879 98.62 161.919 95.94C162.999 93.26 164.459 91 166.299 89.16C168.139 87.28 170.299 85.86 172.779 84.9C175.259 83.94 177.919 83.46 180.759 83.46C182.479 83.46 184.039 83.6 185.439 83.88C186.839 84.12 188.059 84.4 189.099 84.72C190.139 85.04 190.999 85.38 191.679 85.74C192.359 86.1 192.839 86.36 193.119 86.52L190.899 92.7C189.939 92.1 188.559 91.54 186.759 91.02C184.999 90.46 183.079 90.18 180.999 90.18C179.199 90.18 177.519 90.5 175.959 91.14C174.399 91.74 173.039 92.66 171.879 93.9C170.759 95.14 169.879 96.7 169.239 98.58C168.599 100.46 168.279 102.64 168.279 105.12C168.279 107.32 168.519 109.34 168.999 111.18C169.519 113.02 170.299 114.62 171.339 115.98C172.379 117.3 173.699 118.34 175.299 119.1C176.899 119.82 178.819 120.18 181.059 120.18C183.739 120.18 185.919 119.92 187.599 119.4C189.279 118.84 190.579 118.32 191.499 117.84L193.539 124.02C193.059 124.34 192.399 124.66 191.559 124.98C190.759 125.3 189.799 125.62 188.679 125.94C187.559 126.22 186.299 126.44 184.899 126.6C183.499 126.8 181.999 126.9 180.399 126.9ZM227.439 110.28C227.439 112.76 227.079 115.02 226.359 117.06C225.639 119.1 224.619 120.84 223.299 122.28C221.979 123.72 220.379 124.84 218.499 125.64C216.659 126.44 214.619 126.84 212.379 126.84C210.139 126.84 208.099 126.44 206.259 125.64C204.419 124.84 202.839 123.72 201.519 122.28C200.199 120.84 199.159 119.1 198.399 117.06C197.679 115.02 197.319 112.76 197.319 110.28C197.319 107.8 197.679 105.56 198.399 103.56C199.159 101.52 200.199 99.78 201.519 98.34C202.879 96.9 204.479 95.8 206.319 95.04C208.159 94.24 210.179 93.84 212.379 93.84C214.579 93.84 216.599 94.24 218.439 95.04C220.319 95.8 221.919 96.9 223.239 98.34C224.559 99.78 225.579 101.52 226.299 103.56C227.059 105.56 227.439 107.8 227.439 110.28ZM219.999 110.28C219.999 107.16 219.319 104.7 217.959 102.9C216.639 101.06 214.779 100.14 212.379 100.14C209.979 100.14 208.099 101.06 206.739 102.9C205.419 104.7 204.759 107.16 204.759 110.28C204.759 113.44 205.419 115.94 206.739 117.78C208.099 119.62 209.979 120.54 212.379 120.54C214.779 120.54 216.639 119.62 217.959 117.78C219.319 115.94 219.999 113.44 219.999 110.28ZM234.919 95.64C236.319 95.24 238.139 94.86 240.379 94.5C242.619 94.14 245.099 93.96 247.819 93.96C250.379 93.96 252.519 94.32 254.239 95.04C255.959 95.72 257.319 96.7 258.319 97.98C259.359 99.22 260.079 100.74 260.479 102.54C260.919 104.3 261.139 106.24 261.139 108.36V126H253.879V109.5C253.879 107.82 253.759 106.4 253.519 105.24C253.319 104.04 252.959 103.08 252.439 102.36C251.959 101.6 251.279 101.06 250.399 100.74C249.559 100.38 248.519 100.2 247.279 100.2C246.359 100.2 245.399 100.26 244.399 100.38C243.399 100.5 242.659 100.6 242.179 100.68V126H234.919V95.64ZM269.656 86.34L276.916 85.14V94.62H288.076V100.68H276.916V113.46C276.916 115.98 277.316 117.78 278.116 118.86C278.916 119.94 280.276 120.48 282.196 120.48C283.516 120.48 284.676 120.34 285.676 120.06C286.716 119.78 287.536 119.52 288.136 119.28L289.336 125.04C288.496 125.4 287.396 125.76 286.036 126.12C284.676 126.52 283.076 126.72 281.236 126.72C278.996 126.72 277.116 126.42 275.596 125.82C274.116 125.22 272.936 124.36 272.056 123.24C271.176 122.08 270.556 120.7 270.196 119.1C269.836 117.46 269.656 115.6 269.656 113.52V86.34ZM306.135 120.9C308.375 120.9 310.075 120.78 311.235 120.54V112.5C310.835 112.38 310.255 112.26 309.495 112.14C308.735 112.02 307.895 111.96 306.975 111.96C306.175 111.96 305.355 112.02 304.515 112.14C303.715 112.26 302.975 112.48 302.295 112.8C301.655 113.12 301.135 113.58 300.735 114.18C300.335 114.74 300.135 115.46 300.135 116.34C300.135 118.06 300.675 119.26 301.755 119.94C302.835 120.58 304.295 120.9 306.135 120.9ZM305.535 93.84C307.935 93.84 309.955 94.14 311.595 94.74C313.235 95.34 314.535 96.18 315.495 97.26C316.495 98.34 317.195 99.66 317.595 101.22C318.035 102.74 318.255 104.42 318.255 106.26V125.28C317.135 125.52 315.435 125.8 313.155 126.12C310.915 126.48 308.375 126.66 305.535 126.66C303.655 126.66 301.935 126.48 300.375 126.12C298.815 125.76 297.475 125.18 296.355 124.38C295.275 123.58 294.415 122.54 293.775 121.26C293.175 119.98 292.875 118.4 292.875 116.52C292.875 114.72 293.215 113.2 293.895 111.96C294.615 110.72 295.575 109.72 296.775 108.96C297.975 108.16 299.355 107.6 300.915 107.28C302.515 106.92 304.175 106.74 305.895 106.74C306.695 106.74 307.535 106.8 308.415 106.92C309.295 107 310.235 107.16 311.235 107.4V106.2C311.235 105.36 311.135 104.56 310.935 103.8C310.735 103.04 310.375 102.38 309.855 101.82C309.375 101.22 308.715 100.76 307.875 100.44C307.075 100.12 306.055 99.96 304.815 99.96C303.135 99.96 301.595 100.08 300.195 100.32C298.795 100.56 297.655 100.84 296.775 101.16L295.875 95.28C296.795 94.96 298.135 94.64 299.895 94.32C301.655 94 303.535 93.84 305.535 93.84ZM325.405 110.34C325.405 108.02 325.765 105.86 326.485 103.86C327.205 101.82 328.225 100.06 329.545 98.58C330.905 97.1 332.545 95.94 334.465 95.1C336.385 94.26 338.545 93.84 340.945 93.84C343.905 93.84 346.705 94.38 349.345 95.46L347.785 101.4C346.945 101.04 345.985 100.74 344.905 100.5C343.865 100.26 342.745 100.14 341.545 100.14C338.705 100.14 336.545 101.04 335.065 102.84C333.585 104.6 332.845 107.1 332.845 110.34C332.845 113.46 333.545 115.94 334.945 117.78C336.345 119.58 338.705 120.48 342.025 120.48C343.265 120.48 344.485 120.36 345.685 120.12C346.885 119.88 347.925 119.58 348.805 119.22L349.825 125.22C349.025 125.62 347.805 125.98 346.165 126.3C344.565 126.62 342.905 126.78 341.185 126.78C338.505 126.78 336.165 126.38 334.165 125.58C332.205 124.74 330.565 123.6 329.245 122.16C327.965 120.68 327.005 118.94 326.365 116.94C325.725 114.9 325.405 112.7 325.405 110.34ZM355.086 86.34L362.346 85.14V94.62H373.506V100.68H362.346V113.46C362.346 115.98 362.746 117.78 363.546 118.86C364.346 119.94 365.706 120.48 367.626 120.48C368.946 120.48 370.106 120.34 371.106 120.06C372.146 119.78 372.966 119.52 373.566 119.28L374.766 125.04C373.926 125.4 372.826 125.76 371.466 126.12C370.106 126.52 368.506 126.72 366.666 126.72C364.426 126.72 362.546 126.42 361.026 125.82C359.546 125.22 358.366 124.36 357.486 123.24C356.606 122.08 355.986 120.7 355.626 119.1C355.266 117.46 355.086 115.6 355.086 113.52V86.34ZM408.201 110.28C408.201 112.76 407.841 115.02 407.121 117.06C406.401 119.1 405.381 120.84 404.061 122.28C402.741 123.72 401.141 124.84 399.261 125.64C397.421 126.44 395.381 126.84 393.141 126.84C390.901 126.84 388.861 126.44 387.021 125.64C385.181 124.84 383.601 123.72 382.281 122.28C380.961 120.84 379.921 119.1 379.161 117.06C378.441 115.02 378.081 112.76 378.081 110.28C378.081 107.8 378.441 105.56 379.161 103.56C379.921 101.52 380.961 99.78 382.281 98.34C383.641 96.9 385.241 95.8 387.081 95.04C388.921 94.24 390.941 93.84 393.141 93.84C395.341 93.84 397.361 94.24 399.201 95.04C401.081 95.8 402.681 96.9 404.001 98.34C405.321 99.78 406.341 101.52 407.061 103.56C407.821 105.56 408.201 107.8 408.201 110.28ZM400.761 110.28C400.761 107.16 400.081 104.7 398.721 102.9C397.401 101.06 395.541 100.14 393.141 100.14C390.741 100.14 388.861 101.06 387.501 102.9C386.181 104.7 385.521 107.16 385.521 110.28C385.521 113.44 386.181 115.94 387.501 117.78C388.861 119.62 390.741 120.54 393.141 120.54C395.541 120.54 397.401 119.62 398.721 117.78C400.081 115.94 400.761 113.44 400.761 110.28Z" fill="white"/>
</svg>
