<svg width="25" height="26" viewBox="0 0 25 26" fill="none" xmlns="http://www.w3.org/2000/svg">
<g clip-path="url(#clip0_358_635)">
<path d="M24.5 13.1494C24.5 19.7462 19.1294 25.0975 12.5 25.0975C5.87062 25.0975 0.5 19.7462 0.5 13.1494C0.5 6.55255 5.87062 1.20123 12.5 1.20123C19.1294 1.20123 24.5 6.55255 24.5 13.1494Z" stroke="#1E2431"/>
<path fill-rule="evenodd" clip-rule="evenodd" d="M9.92326 6.96264C10.5899 6.93221 10.8024 6.92529 12.5 6.92529C14.1979 6.92529 14.4101 6.93255 15.0764 6.96264C15.742 6.99272 16.1965 7.09819 16.5941 7.25206C17.0111 7.4084 17.3888 7.65336 17.701 7.9699C18.0189 8.28078 18.2649 8.65698 18.4219 9.07225C18.5764 9.46817 18.6819 9.9208 18.7125 10.5833C18.7431 11.2472 18.75 11.4588 18.75 13.1494C18.75 14.8399 18.7427 15.0515 18.7125 15.7154C18.6823 16.3779 18.5764 16.8306 18.4219 17.2265C18.2622 17.6356 18.0482 17.983 17.701 18.3288C17.3889 18.6454 17.0111 18.8904 16.5941 19.0467C16.1965 19.2005 15.742 19.3056 15.0768 19.3361C14.4101 19.3665 14.1976 19.3734 12.5 19.3734C10.8024 19.3734 10.5899 19.3662 9.92326 19.3361C9.25799 19.306 8.80347 19.2005 8.4059 19.0467C7.99514 18.8876 7.64618 18.6746 7.29896 18.3288C6.98105 18.0179 6.73505 17.6417 6.57812 17.2265C6.42361 16.8306 6.31806 16.3779 6.2875 15.7154C6.25694 15.0515 6.25 14.8402 6.25 13.1494C6.25 11.4585 6.25729 11.2472 6.2875 10.5837C6.31771 9.9208 6.42361 9.46817 6.57812 9.07225C6.73512 8.657 6.9811 8.28083 7.29896 7.9699C7.61113 7.6533 7.98889 7.40833 8.4059 7.25206C8.80347 7.09819 9.25799 6.99307 9.92326 6.96264ZM15.0257 8.08297C14.3666 8.05323 14.1687 8.04666 12.5 8.04666C10.8313 8.04666 10.6333 8.05323 9.97431 8.08297C9.36493 8.11063 9.03403 8.21194 8.81389 8.29735C8.52222 8.41008 8.31389 8.54493 8.09514 8.76277C7.87674 8.98062 7.74097 9.18809 7.62778 9.47854C7.54201 9.69777 7.44028 10.0273 7.4125 10.6341C7.38264 11.2904 7.37604 11.4875 7.37604 13.1494C7.37604 14.8112 7.38264 15.0083 7.4125 15.6646C7.44028 16.2714 7.54201 16.6009 7.62778 16.8202C7.7279 17.0906 7.88761 17.3351 8.09514 17.536C8.29678 17.7426 8.54239 17.9017 8.81389 18.0014C9.03403 18.0868 9.36493 18.1881 9.97431 18.2157C10.6333 18.2455 10.8309 18.2521 12.5 18.2521C14.1691 18.2521 14.3666 18.2455 15.0257 18.2157C15.6351 18.1881 15.966 18.0868 16.1861 18.0014C16.4778 17.8886 16.6861 17.7538 16.9049 17.536C17.1124 17.3352 17.2721 17.0906 17.3722 16.8202C17.458 16.6009 17.5597 16.2714 17.5875 15.6646C17.6174 15.0083 17.624 14.8112 17.624 13.1494C17.624 11.4875 17.6174 11.2904 17.5875 10.6341C17.5597 10.0273 17.458 9.69777 17.3722 9.47854C17.259 9.18809 17.1236 8.98062 16.9049 8.76277C16.6861 8.54528 16.4778 8.41008 16.1861 8.29735C15.966 8.21194 15.6351 8.11063 15.0257 8.08297ZM11.702 15.068C11.955 15.1724 12.2261 15.2261 12.5 15.2261C13.0531 15.2261 13.5835 15.0073 13.9746 14.6178C14.3657 14.2284 14.5855 13.7001 14.5855 13.1494C14.5855 12.5986 14.3657 12.0703 13.9746 11.6809C13.5835 11.2914 13.0531 11.0726 12.5 11.0726C12.2261 11.0726 11.955 11.1263 11.702 11.2307C11.4489 11.335 11.2191 11.488 11.0254 11.6809C10.8318 11.8737 10.6781 12.1026 10.5733 12.3546C10.4685 12.6066 10.4146 12.8766 10.4146 13.1494C10.4146 13.4221 10.4685 13.6922 10.5733 13.9441C10.6781 14.1961 10.8318 14.425 11.0254 14.6178C11.2191 14.8107 11.4489 14.9637 11.702 15.068ZM10.2284 10.8872C10.8309 10.2872 11.648 9.95018 12.5 9.95018C13.352 9.95018 14.1691 10.2872 14.7716 10.8872C15.374 11.4872 15.7125 12.3009 15.7125 13.1494C15.7125 13.9978 15.374 14.8115 14.7716 15.4115C14.1691 16.0115 13.352 16.3485 12.5 16.3485C11.648 16.3485 10.8309 16.0115 10.2284 15.4115C9.62598 14.8115 9.28752 13.9978 9.28752 13.1494C9.28752 12.3009 9.62598 11.4872 10.2284 10.8872ZM16.4248 10.4268C16.5672 10.285 16.6472 10.0927 16.6472 9.8921C16.6472 9.69153 16.5672 9.49918 16.4248 9.35736C16.2824 9.21555 16.0893 9.13587 15.8878 9.13587C15.6865 9.13587 15.4933 9.21555 15.3509 9.35736C15.2085 9.49918 15.1285 9.69153 15.1285 9.8921C15.1285 10.0927 15.2085 10.285 15.3509 10.4268C15.4933 10.5686 15.6865 10.6483 15.8878 10.6483C16.0893 10.6483 16.2824 10.5686 16.4248 10.4268Z" fill="#1E2431"/>
</g>
<defs>
<clipPath id="clip0_358_635">
<rect width="25" height="24.8963" fill="white" transform="translate(0 0.701233)"/>
</clipPath>
</defs>
</svg>
