<svg width="28" height="28" viewBox="0 0 28 28" fill="none" xmlns="http://www.w3.org/2000/svg">
<circle cx="14" cy="14" r="13.5" stroke="white"/>
<path fill-rule="evenodd" clip-rule="evenodd" d="M11.1141 7.042C11.8607 7.00778 12.0987 7 14 7C15.9016 7 16.1393 7.00816 16.8855 7.042C17.631 7.07584 18.1401 7.19445 18.5854 7.3675C19.0524 7.54333 19.4755 7.81883 19.8251 8.17484C20.1812 8.52447 20.4567 8.94757 20.6325 9.41461C20.8055 9.85989 20.9238 10.3689 20.958 11.1141C20.9922 11.8607 21 12.0987 21 14C21 15.9013 20.9919 16.1393 20.958 16.886C20.9241 17.631 20.8055 18.1401 20.6325 18.5854C20.4536 19.0455 20.214 19.4363 19.8251 19.8251C19.4755 20.1812 19.0524 20.4567 18.5854 20.6325C18.1401 20.8055 17.631 20.9238 16.886 20.958C16.1393 20.9922 15.9013 21 14 21C12.0987 21 11.8607 20.9919 11.1141 20.958C10.3689 20.9241 9.85989 20.8055 9.41461 20.6325C8.95455 20.4536 8.56372 20.214 8.17484 19.8251C7.81877 19.4755 7.54325 19.0524 7.3675 18.5854C7.19445 18.1401 7.07622 17.631 7.042 16.886C7.00778 16.1393 7 15.9016 7 14C7 12.0983 7.00816 11.8607 7.042 11.1144C7.07584 10.3689 7.19445 9.85989 7.3675 9.41461C7.54333 8.9476 7.81883 8.52452 8.17484 8.17484C8.52447 7.81877 8.94756 7.54325 9.41461 7.3675C9.85989 7.19445 10.3689 7.07622 11.1141 7.042ZM16.8288 8.302C16.0906 8.26855 15.869 8.26116 14 8.26116C12.131 8.26116 11.9093 8.26855 11.1712 8.302C10.4887 8.33311 10.1181 8.44705 9.87155 8.54311C9.54489 8.66989 9.31155 8.82155 9.06655 9.06655C8.82195 9.31155 8.66989 9.54489 8.54311 9.87155C8.44705 10.1181 8.33311 10.4887 8.302 11.1712C8.26855 11.9093 8.26116 12.131 8.26116 14C8.26116 15.869 8.26855 16.0906 8.302 16.8288C8.33311 17.5113 8.44705 17.8819 8.54311 18.1285C8.65525 18.4325 8.83412 18.7076 9.06655 18.9335C9.2924 19.1659 9.56748 19.3448 9.87155 19.4569C10.1181 19.553 10.4887 19.6669 11.1712 19.698C11.9093 19.7315 12.1306 19.7389 14 19.7389C15.8694 19.7389 16.0906 19.7315 16.8288 19.698C17.5113 19.6669 17.8819 19.553 18.1285 19.4569C18.4551 19.3301 18.6885 19.1785 18.9335 18.9335C19.1659 18.7076 19.3448 18.4325 19.4569 18.1285C19.553 17.8819 19.6669 17.5113 19.698 16.8288C19.7315 16.0906 19.7389 15.869 19.7389 14C19.7389 12.131 19.7315 11.9093 19.698 11.1712C19.6669 10.4887 19.553 10.1181 19.4569 9.87155C19.3301 9.54489 19.1785 9.31155 18.9335 9.06655C18.6885 8.82195 18.4551 8.66989 18.1285 8.54311C17.8819 8.44705 17.5113 8.33311 16.8288 8.302ZM13.1062 16.1578C13.3896 16.2753 13.6933 16.3356 14 16.3356C14.6195 16.3356 15.2135 16.0896 15.6516 15.6516C16.0896 15.2135 16.3357 14.6194 16.3357 14C16.3357 13.3806 16.0896 12.7865 15.6516 12.3484C15.2135 11.9104 14.6195 11.6643 14 11.6643C13.6933 11.6643 13.3896 11.7247 13.1062 11.8421C12.8228 11.9595 12.5653 12.1315 12.3485 12.3484C12.1316 12.5653 11.9595 12.8228 11.8421 13.1062C11.7248 13.3895 11.6644 13.6933 11.6644 14C11.6644 14.3067 11.7248 14.6105 11.8421 14.8938C11.9595 15.1772 12.1316 15.4347 12.3485 15.6516C12.5653 15.8684 12.8228 16.0405 13.1062 16.1578ZM11.4559 11.4558C12.1306 10.7811 13.0458 10.402 14 10.402C14.9543 10.402 15.8694 10.7811 16.5442 11.4558C17.2189 12.1306 17.598 13.0458 17.598 14C17.598 14.9542 17.2189 15.8694 16.5442 16.5442C15.8694 17.2189 14.9543 17.598 14 17.598C13.0458 17.598 12.1306 17.2189 11.4559 16.5442C10.7811 15.8694 10.402 14.9542 10.402 14C10.402 13.0458 10.7811 12.1306 11.4559 11.4558ZM18.3958 10.9381C18.5553 10.7786 18.6449 10.5622 18.6449 10.3367C18.6449 10.1111 18.5553 9.89477 18.3958 9.73527C18.2363 9.57577 18.02 9.48616 17.7944 9.48616C17.5689 9.48616 17.3525 9.57577 17.193 9.73527C17.0335 9.89477 16.9439 10.1111 16.9439 10.3367C16.9439 10.5622 17.0335 10.7786 17.193 10.9381C17.3525 11.0976 17.5689 11.1872 17.7944 11.1872C18.02 11.1872 18.2363 11.0976 18.3958 10.9381Z" fill="white"/>
</svg>
