<svg width="213" height="44" viewBox="0 0 213 44" fill="none" xmlns="http://www.w3.org/2000/svg">
<path d="M0 0H36C40.4183 0 44 3.58172 44 8V36C44 40.4183 40.4183 44 36 44H8C3.58172 44 0 40.4183 0 36V0Z" fill="white"/>
<path d="M21.0476 34C20.5162 34 19.9828 33.9946 19.4623 33.9842C18.7137 33.9698 18.1614 33.4143 18.1201 32.634C18.1177 32.5378 18.1231 32.4416 18.136 32.3463C18.1544 32.175 18.1718 32.0131 18.0947 31.924C18.0177 31.8348 17.8636 31.7987 17.6971 31.7591C17.6055 31.739 17.5154 31.7132 17.4271 31.6818C16.9987 31.5274 16.5831 31.3395 16.1843 31.1199C16.1515 31.0976 16.1139 31.0834 16.0745 31.0783C16.064 31.0783 16.0352 31.0783 15.9825 31.1407C15.855 31.2844 15.7196 31.4209 15.5769 31.5496L15.548 31.5764C15.2873 31.8255 14.9409 31.966 14.5796 31.969C14.236 31.9682 13.9061 31.8345 13.6595 31.5962C12.9272 30.8941 12.1691 30.1415 11.4125 29.3617C10.8995 28.8339 10.9069 28.017 11.4294 27.4624C11.4948 27.3966 11.5645 27.3352 11.6382 27.2787C11.7764 27.1673 11.9076 27.0619 11.9196 26.9435C11.9315 26.8252 11.84 26.6836 11.7515 26.5415C11.703 26.4668 11.6587 26.3894 11.6188 26.3098C11.4198 25.9008 11.2587 25.4745 11.1376 25.0363C11.1043 24.9096 11.0635 24.8957 10.985 24.8957C10.9711 24.8957 10.9567 24.8957 10.9412 24.8957C10.8771 24.9012 10.8085 24.9036 10.7255 24.9036C10.6683 24.9036 10.6107 24.9036 10.5535 24.9012L10.4208 24.9031C9.74269 24.8932 9.25602 24.5343 9.04971 23.8901C9.04521 23.8807 9.03971 23.8717 9.03331 23.8634C9.02684 23.8535 9.01988 23.8436 9.01392 23.8337L9 23.8109V20.1629L9.04126 20.1331C9.05667 20.1223 9.06214 20.102 9.07109 20.0554C9.07631 20.0236 9.0848 19.9924 9.09644 19.9623C9.19728 19.7074 9.37273 19.4885 9.60001 19.3341C9.82729 19.1797 10.0959 19.0968 10.371 19.0964H10.3969C10.4735 19.0964 10.553 19.1028 10.6305 19.1092C10.7081 19.1157 10.7797 19.1216 10.8468 19.1216C10.9245 19.1276 11.0022 19.1104 11.07 19.0721C11.157 19.0107 11.1987 18.8409 11.2385 18.676C11.2579 18.5913 11.2816 18.5077 11.3096 18.4255C11.4715 17.9759 11.67 17.5402 11.9032 17.1228C11.9439 17.051 11.9414 17.0337 11.8833 16.9817C11.7207 16.8366 11.5706 16.6812 11.4309 16.5361C10.8955 15.9702 10.8945 15.1641 11.4309 14.6185C12.1368 13.8921 12.8775 13.1574 13.6232 12.432C13.8776 12.1786 14.2214 12.0344 14.5811 12.03C14.9582 12.0358 15.318 12.1884 15.5833 12.4553L15.6773 12.5454C15.7856 12.6489 15.8975 12.7558 15.9984 12.8727C16.0412 12.9222 16.0625 12.9222 16.071 12.9222C16.104 12.9176 16.1356 12.9058 16.1635 12.8875C16.7556 12.5642 17.3811 12.3058 18.0291 12.1166C18.0502 12.1109 18.0706 12.1028 18.0898 12.0924L18.0957 12.0884C18.1011 12.0855 18.1058 12.0815 18.1095 12.0768C18.1133 12.072 18.116 12.0665 18.1176 12.0607C18.122 12.0409 18.1236 12.0205 18.1221 12.0003C18.1112 11.7819 18.1151 11.5695 18.1221 11.3903C18.1469 10.5852 18.7176 10.0168 19.51 10.0084C20.0474 10.003 20.5699 10 21.064 10C21.586 10 22.0985 10.0035 22.5872 10.0094C23.3597 10.0198 23.9379 10.5966 23.9632 11.3809C23.9697 11.576 23.9746 11.7844 23.9632 11.9929C23.9582 12.0711 23.9662 12.0889 24.0696 12.1201C24.7171 12.3108 25.3424 12.5697 25.9348 12.8925C25.9589 12.9082 25.9863 12.9183 26.0148 12.9222C26.0218 12.9222 26.0402 12.9222 26.0804 12.8781C26.2107 12.736 26.3593 12.588 26.5487 12.4127C26.8072 12.1695 27.1486 12.0327 27.5042 12.03C27.8516 12.0299 28.1853 12.1653 28.4338 12.4073C29.1645 13.1128 29.9142 13.8595 30.6619 14.6259C31.1804 15.1567 31.1789 15.9731 30.6594 16.5247C30.4918 16.7029 30.3387 16.8554 30.1911 16.9896C30.1414 17.0352 30.1364 17.0461 30.1732 17.1124C30.5077 17.7154 30.7745 18.3534 30.9686 19.0147C30.9924 19.0949 31.0098 19.0983 31.0735 19.0983H31.0904C31.1898 19.0949 31.2927 19.0934 31.3991 19.0934C31.5055 19.0934 31.6258 19.0934 31.75 19.0988C32.1023 19.1063 32.4379 19.25 32.6857 19.4995C32.9336 19.749 33.0742 20.0847 33.0778 20.4357C33.0848 21.2378 33.0828 22.0537 33.0808 22.8424V23.5718C33.0871 23.8645 32.9826 24.1489 32.788 24.3684C32.7035 24.461 32.704 24.4793 32.7945 24.5858C33.556 25.4809 33.9819 26.6116 33.9994 27.7847C34.0169 28.9578 33.6249 30.1006 32.8904 31.0179L32.878 31.0327C32.8209 31.1079 32.7587 31.1792 32.6921 31.2461C32.6026 31.3364 32.4813 31.3883 32.354 31.3907C32.2426 31.3898 32.1358 31.3462 32.0558 31.2689C31.8753 31.0986 31.8515 30.8842 31.9877 30.6664C32.01 30.6311 32.0355 30.598 32.0637 30.5673C32.0762 30.5535 32.0886 30.5391 32.1 30.5247C33.2265 29.0805 33.403 27.56 32.624 26.0073C31.8669 24.4962 30.5629 23.6975 28.8533 23.6975C28.7912 23.6975 28.7281 23.6975 28.6649 23.7005C26.5597 23.7698 24.8615 25.4706 24.7153 27.657C24.5821 29.6509 26.1023 31.5729 28.1037 31.9418C28.367 31.9905 28.6342 32.0153 28.9021 32.0161C29.5407 32.013 30.1705 31.8664 30.7444 31.5873L30.7822 31.5685C30.8069 31.5551 30.8323 31.5431 30.8582 31.5323C30.93 31.5011 31.0071 31.4843 31.0854 31.4828C31.1682 31.4817 31.2497 31.5042 31.3201 31.5476C31.3906 31.591 31.4471 31.6536 31.4831 31.7279C31.6079 31.97 31.5159 32.223 31.2534 32.3616C30.7 32.6532 30.0958 32.8368 29.4733 32.9028C29.2728 32.9238 29.0713 32.9344 28.8698 32.9345C27.5335 32.9345 26.3424 32.4473 25.3288 31.4863C25.2821 31.4422 25.2612 31.4422 25.2522 31.4422C25.2301 31.4441 25.2086 31.4505 25.1891 31.461C24.8191 31.632 24.4357 31.7726 24.0428 31.8814C23.9677 31.9027 23.9577 31.9175 23.9612 32.0047C23.9687 32.1869 23.9692 32.3805 23.9612 32.6142C23.9389 33.3945 23.3716 33.9713 22.613 33.9851C22.0886 33.995 21.5621 34 21.0476 34ZM15.986 30.0316C16.0846 30.034 16.1807 30.0628 16.2644 30.1148C17.0154 30.551 17.8223 30.8841 18.663 31.105C18.9175 31.1729 19.0457 31.3392 19.0447 31.6001V31.7096C19.0447 31.9814 19.0418 32.2631 19.0447 32.5389C19.0507 32.8979 19.2197 33.0662 19.5762 33.0677C20.0887 33.0677 20.5943 33.0712 21.0784 33.0712C21.5626 33.0712 22.0429 33.0712 22.5052 33.0677C22.8621 33.0677 23.0306 32.8979 23.0361 32.5384V32.4656C23.0396 32.1983 23.0435 31.921 23.0331 31.6516C23.0217 31.3511 23.1668 31.1615 23.4646 31.0877C23.8497 30.9862 24.2284 30.8617 24.5985 30.7149C24.6178 30.708 24.6366 30.6997 24.6547 30.6901C24.6448 30.6701 24.6333 30.6509 24.6204 30.6327C24.2667 30.1167 24.0229 29.534 23.9041 28.9206C23.9001 28.886 23.8898 28.8524 23.8737 28.8215C23.8365 28.8255 23.8 28.8354 23.7659 28.8507C22.8967 29.2 21.969 29.3823 21.0317 29.3879C19.693 29.3841 18.3803 29.0194 17.2329 28.3326C16.0854 27.6458 15.146 26.6625 14.5142 25.487C13.8825 24.3115 13.5819 22.9875 13.6444 21.6557C13.707 20.3238 14.1303 19.0336 14.8695 17.9219C15.2345 17.3691 15.6747 16.8692 16.1774 16.4366C16.2687 16.352 16.3878 16.3032 16.5124 16.2994C16.5728 16.3001 16.6324 16.3131 16.6876 16.3376C16.7427 16.3621 16.7923 16.3977 16.8331 16.442C17.016 16.6307 17.0021 16.9069 16.7988 17.1149C16.7789 17.1347 16.7585 17.1535 16.7376 17.1718L16.7063 17.2C15.034 18.7656 14.3346 20.6491 14.6284 22.7984C14.9843 25.4007 16.4677 27.197 19.0403 28.1378C19.07 28.1496 19.101 28.1579 19.1327 28.1625C19.1377 28.1259 19.1396 28.089 19.1382 28.0521C19.1307 26.8103 19.1312 25.783 19.1382 24.819C19.1382 24.6942 19.1104 24.6506 18.9826 24.5863C18.3426 24.2608 17.7957 23.7794 17.3927 23.1868C16.9897 22.5943 16.7438 21.9098 16.6777 21.1971C16.6117 20.4845 16.7277 19.7667 17.015 19.1107C17.3023 18.4547 17.7516 17.8818 18.3209 17.4451C18.5601 17.2639 18.821 17.0807 19.1402 17.0094C19.2033 16.9952 19.2678 16.9879 19.3326 16.9876C19.4907 16.9866 19.6449 17.0364 19.7723 17.1297C19.8997 17.2231 19.9934 17.3549 20.0395 17.5055C20.1031 17.6917 20.1021 17.8779 20.1006 18.0586V18.0863C20.1006 18.2844 20.1006 18.4789 20.0981 18.6755C20.0946 19.3117 20.0912 19.9698 20.0981 20.6169C20.1036 21.0947 20.4904 21.5264 20.979 21.5997C21.0017 21.6029 21.0247 21.6045 21.0476 21.6046C21.3727 21.6046 21.7789 21.2942 21.9166 20.9407C21.9624 20.8248 21.9856 20.7013 21.9852 20.5768C21.9825 19.94 21.981 19.3028 21.9807 18.6651V18.165C21.9807 18.1299 21.9807 18.0947 21.9807 18.0596C21.9807 17.9734 21.9777 17.8848 21.9847 17.7962C22.0215 17.3011 22.3138 16.9916 22.7468 16.9916C22.879 16.9936 23.0099 17.0193 23.133 17.0674C23.2899 17.1302 23.4386 17.2117 23.576 17.31C24.1861 17.7268 24.6768 18.2948 24.9994 18.958C25.3221 19.6212 25.4657 20.3567 25.4161 21.092C25.3664 21.8273 25.1253 22.537 24.7164 23.1512C24.3075 23.7654 23.745 24.2629 23.0843 24.5947C22.969 24.6526 22.9411 24.6937 22.9436 24.8111C22.9531 25.2022 22.9516 25.5993 22.9496 25.984C22.9496 26.1325 22.9496 26.2811 22.9496 26.4296C22.9496 26.5781 22.9496 26.7316 22.9496 26.8826C22.9496 27.2787 22.9496 27.6907 22.9461 28.0952C22.9453 28.1215 22.9465 28.1478 22.9496 28.1739C22.9682 28.1693 22.9863 28.163 23.0038 28.1551C23.2136 28.067 23.4363 27.9818 23.6853 27.8947C23.7644 27.8664 23.7892 27.8422 23.7897 27.7461C23.7898 27.4248 23.8275 27.1046 23.9021 26.792C24.3599 24.917 25.5187 23.6465 27.3461 23.0167C27.4346 22.9865 27.455 22.9613 27.4659 22.8682C27.5501 22.1992 27.5333 21.5215 27.4162 20.8575C26.8728 17.8229 24.2426 15.5904 21.1615 15.5454H21.0576C20.0082 15.5453 18.9741 15.7959 18.0421 16.2762C17.9574 16.3218 17.8629 16.3466 17.7667 16.3484C17.6832 16.349 17.6013 16.3257 17.5308 16.2812C17.4602 16.2366 17.4041 16.1729 17.369 16.0974C17.2437 15.8499 17.3456 15.5959 17.629 15.4538C18.7311 14.8977 19.8685 14.616 21.0093 14.616C21.5367 14.6169 22.0624 14.6749 22.5773 14.7888C24.3838 15.1849 25.9621 16.2014 27.0215 17.6496C28.0808 19.0978 28.5705 20.9045 28.4035 22.7424C28.4014 22.7605 28.4006 22.7787 28.401 22.7969H28.4084C28.4223 22.7969 28.4383 22.7969 28.4581 22.7944C28.6113 22.7815 28.7649 22.7751 28.915 22.7751C29.9947 22.7751 31.0029 23.1073 31.9146 23.7619C32.0081 23.8292 32.0374 23.8367 32.0458 23.8367C32.078 23.7956 32.1032 23.7496 32.1204 23.7005C32.1457 23.6387 32.1572 23.5721 32.1542 23.5054C32.1542 23.2133 32.1542 22.9212 32.1542 22.6291C32.1542 21.9359 32.1542 21.2194 32.1542 20.5149C32.1542 20.1906 31.9822 20.0242 31.6466 20.0198C31.4975 20.0198 31.3449 20.0173 31.1938 20.0173C31.0307 20.0173 30.8672 20.0173 30.7041 20.0198H30.6967C30.4257 20.0198 30.2493 19.8851 30.1811 19.6291C29.9626 18.7912 29.628 17.9876 29.1869 17.2416C29.0507 17.0089 29.081 16.7936 29.2774 16.6019C29.5384 16.3465 29.7501 16.135 29.943 15.9375C30.1797 15.6949 30.1846 15.4557 29.9574 15.227C29.2118 14.4779 28.5198 13.7867 27.8348 13.1138C27.7913 13.0666 27.7388 13.0284 27.6805 13.0014C27.6221 12.9743 27.559 12.959 27.4947 12.9564C27.3592 12.9625 27.2314 13.0209 27.1383 13.1193C26.9136 13.3366 26.6909 13.5594 26.4737 13.7827C26.4264 13.8373 26.3683 13.8815 26.303 13.9126C26.2377 13.9437 26.1667 13.961 26.0944 13.9634C25.9926 13.9608 25.8935 13.9309 25.8075 13.8768C25.0725 13.4453 24.2808 13.1177 23.4552 12.9034C23.1643 12.8271 23.0271 12.6489 23.0356 12.3588C23.044 12.0993 23.0411 11.8339 23.0381 11.577V11.4705C23.0341 11.0972 22.8671 10.9298 22.4962 10.9284C21.9955 10.9264 21.4949 10.9254 20.9944 10.9254C20.5265 10.9254 20.0589 10.9254 19.5916 10.9254C19.2197 10.9254 19.0517 11.0937 19.0447 11.4651C19.0408 11.7478 19.0403 12.0463 19.0447 12.3791C19.0477 12.6494 18.9155 12.8222 18.652 12.8925C17.8191 13.1118 17.0201 13.443 16.2768 13.8768C16.1898 13.9309 16.09 13.961 15.9875 13.9639C15.9159 13.9615 15.8455 13.9443 15.7809 13.9136C15.7162 13.8828 15.6586 13.8391 15.6117 13.7852C15.4029 13.5703 15.1792 13.3475 14.9465 13.1227C14.8317 13.0118 14.7119 12.9559 14.5901 12.9559C14.4683 12.9559 14.347 13.0133 14.2327 13.1262C13.5367 13.8144 12.8338 14.5125 12.1448 15.2057C11.8962 15.4533 11.8987 15.6914 12.1532 15.9484C12.3585 16.1563 12.5708 16.3717 12.785 16.5762C12.9993 16.7807 13.0336 17.004 12.8845 17.256C12.4518 17.9881 12.1236 18.7767 11.9091 19.5989C11.8375 19.8762 11.6571 20.0168 11.3722 20.0168H11.3578C11.2017 20.0143 11.0431 20.0133 10.8871 20.0133C10.731 20.0133 10.5724 20.0133 10.4163 20.0168C10.1021 20.0222 9.92861 20.1965 9.92712 20.5075C9.92265 21.5744 9.92265 22.5523 9.92712 23.497C9.92712 23.7916 10.1071 23.9713 10.4039 23.9768C10.548 23.9797 10.6977 23.9807 10.8617 23.9807C11.0258 23.9807 11.1997 23.9807 11.3693 23.9773H11.3797C11.6556 23.9773 11.8375 24.1169 11.9061 24.3813C12.122 25.2114 12.4531 26.0075 12.8899 26.7465C13.0306 26.9871 12.9988 27.2094 12.794 27.407C12.6011 27.5926 12.3963 27.7981 12.1448 28.0506C11.8932 28.3031 11.8962 28.5383 12.1343 28.778C12.7701 29.4172 13.4532 30.098 14.2222 30.8575C14.3425 30.9768 14.4653 31.0372 14.5856 31.0372C14.7059 31.0372 14.8401 30.9728 14.9699 30.8461C15.1861 30.6337 15.4049 30.4163 15.6191 30.199C15.6657 30.1478 15.7222 30.1065 15.7853 30.0778C15.8484 30.049 15.9166 30.0333 15.986 30.0316ZM19.1675 17.9784C19.127 18 19.0887 18.0256 19.0532 18.0546L19.0164 18.0819C17.9546 18.8538 17.4753 19.8727 17.5947 21.1105C17.7174 22.3894 18.4015 23.3197 19.6284 23.8758C19.9987 24.0436 20.0584 24.101 20.0584 24.5194C20.0584 24.7997 20.0584 25.0802 20.0584 25.3611C20.0584 26.3019 20.0584 27.2777 20.0524 28.2358C20.0524 28.3739 20.0768 28.3898 20.1985 28.4041C20.7601 28.4681 21.3272 28.4681 21.8887 28.4041C22.0036 28.3908 22.024 28.3779 22.023 28.2516C22.0245 27.6758 22.0245 27.0891 22.0245 26.5227C22.0245 25.8721 22.0245 25.1992 22.0175 24.5382C22.014 24.1946 22.1428 24 22.4624 23.8669C23.2263 23.5509 23.8441 22.962 24.1946 22.2157C24.545 21.4694 24.6027 20.6196 24.3564 19.8331C24.1114 19.0434 23.6361 18.4369 22.9058 17.9828V18.0487L22.9083 19.0127C22.9083 19.5111 22.9098 20.0095 22.9128 20.508C22.916 20.693 22.8956 20.8776 22.8522 21.0575C22.6488 21.8557 21.8341 22.5295 21.0725 22.5295C21.0253 22.5296 20.9782 22.527 20.9313 22.5216C20.4506 22.4661 20.0067 22.2379 19.6829 21.8798C19.359 21.5217 19.1774 21.0582 19.172 20.5763C19.167 20.0247 19.1685 19.4642 19.172 18.9221C19.172 18.7013 19.172 18.4806 19.172 18.2601L19.1675 17.9784Z" fill="url(#paint0_linear_287_319)"/>
<path d="M28.4785 30.3935C28.1627 30.3911 27.8575 30.2796 27.615 30.0781C27.2462 29.7811 26.8594 29.4528 26.4324 29.079C25.8736 28.5903 25.8015 27.7709 26.2683 27.2129C26.3935 27.0607 26.5508 26.9379 26.729 26.853C26.9071 26.7681 27.1019 26.7233 27.2994 26.7217C27.6136 26.7225 27.9173 26.8349 28.1559 27.0386C28.225 27.097 28.2747 27.1262 28.305 27.1262C28.3353 27.1262 28.3751 27.0896 28.4343 27.0138C28.7937 26.5559 29.1695 26.1197 29.522 25.7166C29.7044 25.5049 29.9489 25.3554 30.2211 25.2894C30.4933 25.2234 30.7794 25.2442 31.0392 25.3488C31.2911 25.4494 31.5061 25.6243 31.6555 25.85C31.8048 26.0757 31.8814 26.3415 31.8748 26.6118C31.878 26.9174 31.7693 27.2136 31.5691 27.4451C31.4229 27.62 31.277 27.7947 31.1311 27.9689C30.5952 28.6101 30.041 29.2736 29.4867 29.9182C29.364 30.066 29.2103 30.1851 29.0364 30.2673C28.8624 30.3494 28.6725 30.3925 28.48 30.3935H28.4785ZM27.2854 27.6481C27.2285 27.6491 27.1724 27.6627 27.1214 27.6879C27.0703 27.713 27.0255 27.7492 26.9902 27.7937C26.8211 27.9892 26.8539 28.2224 27.0771 28.4165C27.4122 28.7067 27.7671 29.0072 28.1624 29.3345C28.2491 29.4158 28.3616 29.4643 28.4805 29.4716C28.5948 29.4716 28.7052 29.4107 28.8071 29.2899C29.2963 28.7151 29.7899 28.1269 30.2671 27.557C30.4537 27.3352 30.6403 27.1132 30.8269 26.8911C30.9174 26.7836 30.9547 26.693 30.9482 26.5979V26.5875C30.9517 26.5285 30.9411 26.4695 30.9174 26.4153C30.8936 26.3611 30.8573 26.3132 30.8115 26.2756C30.7393 26.21 30.6453 26.1731 30.5475 26.1721C30.4772 26.1749 30.4084 26.1929 30.3459 26.225C30.2834 26.2571 30.2287 26.3024 30.1856 26.3578C29.9435 26.6425 29.6989 26.9336 29.4623 27.2149C29.2323 27.4885 29.0018 27.7618 28.7708 28.0348C28.6356 28.1937 28.5083 28.268 28.3731 28.268C28.2558 28.268 28.1355 28.213 27.9943 28.0957C27.9403 28.0508 27.8865 28.0052 27.8328 27.959C27.7652 27.9011 27.6956 27.8417 27.6265 27.7857C27.5322 27.7023 27.4119 27.6537 27.2859 27.6481H27.2854Z" fill="url(#paint1_linear_287_319)"/>
<path d="M53.2031 10.4688V19H52.0723V10.4688H53.2031ZM56.1797 14.0137V19H55.0957V12.6602H56.1211L56.1797 14.0137ZM55.9219 15.5898L55.4707 15.5723C55.4746 15.1387 55.5391 14.7383 55.6641 14.3711C55.7891 14 55.9648 13.6777 56.1914 13.4043C56.418 13.1309 56.6875 12.9199 57 12.7715C57.3164 12.6191 57.666 12.543 58.0488 12.543C58.3613 12.543 58.6426 12.5859 58.8926 12.6719C59.1426 12.7539 59.3555 12.8867 59.5312 13.0703C59.7109 13.2539 59.8477 13.4922 59.9414 13.7852C60.0352 14.0742 60.082 14.4277 60.082 14.8457V19H58.9922V14.834C58.9922 14.502 58.9434 14.2363 58.8457 14.0371C58.748 13.834 58.6055 13.6875 58.418 13.5977C58.2305 13.5039 58 13.457 57.7266 13.457C57.457 13.457 57.2109 13.5137 56.9883 13.627C56.7695 13.7402 56.5801 13.8965 56.4199 14.0957C56.2637 14.2949 56.1406 14.5234 56.0508 14.7812C55.9648 15.0352 55.9219 15.3047 55.9219 15.5898ZM65.4199 17.3184C65.4199 17.1621 65.3848 17.0176 65.3145 16.8848C65.248 16.748 65.1094 16.625 64.8984 16.5156C64.6914 16.4023 64.3789 16.3047 63.9609 16.2227C63.6094 16.1484 63.291 16.0605 63.0059 15.959C62.7246 15.8574 62.4844 15.7344 62.2852 15.5898C62.0898 15.4453 61.9395 15.2754 61.834 15.0801C61.7285 14.8848 61.6758 14.6562 61.6758 14.3945C61.6758 14.1445 61.7305 13.9082 61.8398 13.6855C61.9531 13.4629 62.1113 13.2656 62.3145 13.0938C62.5215 12.9219 62.7695 12.7871 63.0586 12.6895C63.3477 12.5918 63.6699 12.543 64.0254 12.543C64.5332 12.543 64.9668 12.6328 65.3262 12.8125C65.6855 12.9922 65.9609 13.2324 66.1523 13.5332C66.3438 13.8301 66.4395 14.1602 66.4395 14.5234H65.3555C65.3555 14.3477 65.3027 14.1777 65.1973 14.0137C65.0957 13.8457 64.9453 13.707 64.7461 13.5977C64.5508 13.4883 64.3105 13.4336 64.0254 13.4336C63.7246 13.4336 63.4805 13.4805 63.293 13.5742C63.1094 13.6641 62.9746 13.7793 62.8887 13.9199C62.8066 14.0605 62.7656 14.209 62.7656 14.3652C62.7656 14.4824 62.7852 14.5879 62.8242 14.6816C62.8672 14.7715 62.9414 14.8555 63.0469 14.9336C63.1523 15.0078 63.3008 15.0781 63.4922 15.1445C63.6836 15.2109 63.9277 15.2773 64.2246 15.3438C64.7441 15.4609 65.1719 15.6016 65.5078 15.7656C65.8438 15.9297 66.0938 16.1309 66.2578 16.3691C66.4219 16.6074 66.5039 16.8965 66.5039 17.2363C66.5039 17.5137 66.4453 17.7676 66.3281 17.998C66.2148 18.2285 66.0488 18.4277 65.8301 18.5957C65.6152 18.7598 65.3574 18.8887 65.0566 18.9824C64.7598 19.0723 64.4258 19.1172 64.0547 19.1172C63.4961 19.1172 63.0234 19.0176 62.6367 18.8184C62.25 18.6191 61.957 18.3613 61.7578 18.0449C61.5586 17.7285 61.459 17.3945 61.459 17.043H62.5488C62.5645 17.3398 62.6504 17.5762 62.8066 17.752C62.9629 17.9238 63.1543 18.0469 63.3809 18.1211C63.6074 18.1914 63.832 18.2266 64.0547 18.2266C64.3516 18.2266 64.5996 18.1875 64.7988 18.1094C65.002 18.0312 65.1562 17.9238 65.2617 17.7871C65.3672 17.6504 65.4199 17.4941 65.4199 17.3184ZM70.582 12.6602V13.4922H67.1543V12.6602H70.582ZM68.3145 11.1191H69.3984V17.4297C69.3984 17.6445 69.4316 17.8066 69.498 17.916C69.5645 18.0254 69.6504 18.0977 69.7559 18.1328C69.8613 18.168 69.9746 18.1855 70.0957 18.1855C70.1855 18.1855 70.2793 18.1777 70.377 18.1621C70.4785 18.1426 70.5547 18.127 70.6055 18.1152L70.6113 19C70.5254 19.0273 70.4121 19.0527 70.2715 19.0762C70.1348 19.1035 69.9688 19.1172 69.7734 19.1172C69.5078 19.1172 69.2637 19.0645 69.041 18.959C68.8184 18.8535 68.6406 18.6777 68.5078 18.4316C68.3789 18.1816 68.3145 17.8457 68.3145 17.4238V11.1191ZM75.5918 17.916V14.6523C75.5918 14.4023 75.541 14.1855 75.4395 14.002C75.3418 13.8145 75.1934 13.6699 74.9941 13.5684C74.7949 13.4668 74.5488 13.416 74.2559 13.416C73.9824 13.416 73.7422 13.4629 73.5352 13.5566C73.332 13.6504 73.1719 13.7734 73.0547 13.9258C72.9414 14.0781 72.8848 14.2422 72.8848 14.418H71.8008C71.8008 14.1914 71.8594 13.9668 71.9766 13.7441C72.0938 13.5215 72.2617 13.3203 72.4805 13.1406C72.7031 12.957 72.9688 12.8125 73.2773 12.707C73.5898 12.5977 73.9375 12.543 74.3203 12.543C74.7812 12.543 75.1875 12.6211 75.5391 12.7773C75.8945 12.9336 76.1719 13.1699 76.3711 13.4863C76.5742 13.7988 76.6758 14.1914 76.6758 14.6641V17.6172C76.6758 17.8281 76.6934 18.0527 76.7285 18.291C76.7676 18.5293 76.8242 18.7344 76.8984 18.9062V19H75.7676C75.7129 18.875 75.6699 18.709 75.6387 18.502C75.6074 18.291 75.5918 18.0957 75.5918 17.916ZM75.7793 15.1562L75.791 15.918H74.6953C74.3867 15.918 74.1113 15.9434 73.8691 15.9941C73.627 16.041 73.4238 16.1133 73.2598 16.2109C73.0957 16.3086 72.9707 16.4316 72.8848 16.5801C72.7988 16.7246 72.7559 16.8945 72.7559 17.0898C72.7559 17.2891 72.8008 17.4707 72.8906 17.6348C72.9805 17.7988 73.1152 17.9297 73.2949 18.0273C73.4785 18.1211 73.7031 18.168 73.9688 18.168C74.3008 18.168 74.5938 18.0977 74.8477 17.957C75.1016 17.8164 75.3027 17.6445 75.4512 17.4414C75.6035 17.2383 75.6855 17.041 75.6973 16.8496L76.1602 17.3711C76.1328 17.5352 76.0586 17.7168 75.9375 17.916C75.8164 18.1152 75.6543 18.3066 75.4512 18.4902C75.252 18.6699 75.0137 18.8203 74.7363 18.9414C74.4629 19.0586 74.1543 19.1172 73.8105 19.1172C73.3809 19.1172 73.0039 19.0332 72.6797 18.8652C72.3594 18.6973 72.1094 18.4727 71.9297 18.1914C71.7539 17.9062 71.666 17.5879 71.666 17.2363C71.666 16.8965 71.7324 16.5977 71.8652 16.3398C71.998 16.0781 72.1895 15.8613 72.4395 15.6895C72.6895 15.5137 72.9902 15.3809 73.3418 15.291C73.6934 15.2012 74.0859 15.1562 74.5195 15.1562H75.7793ZM79.5586 10V19H78.4688V10H79.5586ZM85.0371 17.916V14.6523C85.0371 14.4023 84.9863 14.1855 84.8848 14.002C84.7871 13.8145 84.6387 13.6699 84.4395 13.5684C84.2402 13.4668 83.9941 13.416 83.7012 13.416C83.4277 13.416 83.1875 13.4629 82.9805 13.5566C82.7773 13.6504 82.6172 13.7734 82.5 13.9258C82.3867 14.0781 82.3301 14.2422 82.3301 14.418H81.2461C81.2461 14.1914 81.3047 13.9668 81.4219 13.7441C81.5391 13.5215 81.707 13.3203 81.9258 13.1406C82.1484 12.957 82.4141 12.8125 82.7227 12.707C83.0352 12.5977 83.3828 12.543 83.7656 12.543C84.2266 12.543 84.6328 12.6211 84.9844 12.7773C85.3398 12.9336 85.6172 13.1699 85.8164 13.4863C86.0195 13.7988 86.1211 14.1914 86.1211 14.6641V17.6172C86.1211 17.8281 86.1387 18.0527 86.1738 18.291C86.2129 18.5293 86.2695 18.7344 86.3438 18.9062V19H85.2129C85.1582 18.875 85.1152 18.709 85.084 18.502C85.0527 18.291 85.0371 18.0957 85.0371 17.916ZM85.2246 15.1562L85.2363 15.918H84.1406C83.832 15.918 83.5566 15.9434 83.3145 15.9941C83.0723 16.041 82.8691 16.1133 82.7051 16.2109C82.541 16.3086 82.416 16.4316 82.3301 16.5801C82.2441 16.7246 82.2012 16.8945 82.2012 17.0898C82.2012 17.2891 82.2461 17.4707 82.3359 17.6348C82.4258 17.7988 82.5605 17.9297 82.7402 18.0273C82.9238 18.1211 83.1484 18.168 83.4141 18.168C83.7461 18.168 84.0391 18.0977 84.293 17.957C84.5469 17.8164 84.748 17.6445 84.8965 17.4414C85.0488 17.2383 85.1309 17.041 85.1426 16.8496L85.6055 17.3711C85.5781 17.5352 85.5039 17.7168 85.3828 17.916C85.2617 18.1152 85.0996 18.3066 84.8965 18.4902C84.6973 18.6699 84.459 18.8203 84.1816 18.9414C83.9082 19.0586 83.5996 19.1172 83.2559 19.1172C82.8262 19.1172 82.4492 19.0332 82.125 18.8652C81.8047 18.6973 81.5547 18.4727 81.375 18.1914C81.1992 17.9062 81.1113 17.5879 81.1113 17.2363C81.1113 16.8965 81.1777 16.5977 81.3105 16.3398C81.4434 16.0781 81.6348 15.8613 81.8848 15.6895C82.1348 15.5137 82.4355 15.3809 82.7871 15.291C83.1387 15.2012 83.5312 15.1562 83.9648 15.1562H85.2246ZM90.3633 18.2266C90.6211 18.2266 90.8594 18.1738 91.0781 18.0684C91.2969 17.9629 91.4766 17.8184 91.6172 17.6348C91.7578 17.4473 91.8379 17.2344 91.8574 16.9961H92.8887C92.8691 17.3711 92.7422 17.7207 92.5078 18.0449C92.2773 18.3652 91.9746 18.625 91.5996 18.8242C91.2246 19.0195 90.8125 19.1172 90.3633 19.1172C89.8867 19.1172 89.4707 19.0332 89.1152 18.8652C88.7637 18.6973 88.4707 18.4668 88.2363 18.1738C88.0059 17.8809 87.832 17.5449 87.7148 17.166C87.6016 16.7832 87.5449 16.3789 87.5449 15.9531V15.707C87.5449 15.2812 87.6016 14.8789 87.7148 14.5C87.832 14.1172 88.0059 13.7793 88.2363 13.4863C88.4707 13.1934 88.7637 12.9629 89.1152 12.7949C89.4707 12.627 89.8867 12.543 90.3633 12.543C90.8594 12.543 91.293 12.6445 91.6641 12.8477C92.0352 13.0469 92.3262 13.3203 92.5371 13.668C92.752 14.0117 92.8691 14.4023 92.8887 14.8398H91.8574C91.8379 14.5781 91.7637 14.3418 91.6348 14.1309C91.5098 13.9199 91.3379 13.752 91.1191 13.627C90.9043 13.498 90.6523 13.4336 90.3633 13.4336C90.0312 13.4336 89.752 13.5 89.5254 13.6328C89.3027 13.7617 89.125 13.9375 88.9922 14.1602C88.8633 14.3789 88.7695 14.623 88.7109 14.8926C88.6562 15.1582 88.6289 15.4297 88.6289 15.707V15.9531C88.6289 16.2305 88.6562 16.5039 88.7109 16.7734C88.7656 17.043 88.8574 17.2871 88.9863 17.5059C89.1191 17.7246 89.2969 17.9004 89.5195 18.0332C89.7461 18.1621 90.0273 18.2266 90.3633 18.2266ZM95.2852 12.6602V19H94.1953V12.6602H95.2852ZM94.1133 10.9785C94.1133 10.8027 94.166 10.6543 94.2715 10.5332C94.3809 10.4121 94.541 10.3516 94.752 10.3516C94.959 10.3516 95.1172 10.4121 95.2266 10.5332C95.3398 10.6543 95.3965 10.8027 95.3965 10.9785C95.3965 11.1465 95.3398 11.291 95.2266 11.4121C95.1172 11.5293 94.959 11.5879 94.752 11.5879C94.541 11.5879 94.3809 11.5293 94.2715 11.4121C94.166 11.291 94.1133 11.1465 94.1133 10.9785ZM96.7383 15.9004V15.7656C96.7383 15.3086 96.8047 14.8848 96.9375 14.4941C97.0703 14.0996 97.2617 13.7578 97.5117 13.4688C97.7617 13.1758 98.0645 12.9492 98.4199 12.7891C98.7754 12.625 99.1738 12.543 99.6152 12.543C100.061 12.543 100.461 12.625 100.816 12.7891C101.176 12.9492 101.48 13.1758 101.73 13.4688C101.984 13.7578 102.178 14.0996 102.311 14.4941C102.443 14.8848 102.51 15.3086 102.51 15.7656V15.9004C102.51 16.3574 102.443 16.7812 102.311 17.1719C102.178 17.5625 101.984 17.9043 101.73 18.1973C101.48 18.4863 101.178 18.7129 100.822 18.877C100.471 19.0371 100.072 19.1172 99.627 19.1172C99.1816 19.1172 98.7812 19.0371 98.4258 18.877C98.0703 18.7129 97.7656 18.4863 97.5117 18.1973C97.2617 17.9043 97.0703 17.5625 96.9375 17.1719C96.8047 16.7812 96.7383 16.3574 96.7383 15.9004ZM97.8223 15.7656V15.9004C97.8223 16.2168 97.8594 16.5156 97.9336 16.7969C98.0078 17.0742 98.1191 17.3203 98.2676 17.5352C98.4199 17.75 98.6094 17.9199 98.8359 18.0449C99.0625 18.166 99.3262 18.2266 99.627 18.2266C99.9238 18.2266 100.184 18.166 100.406 18.0449C100.633 17.9199 100.82 17.75 100.969 17.5352C101.117 17.3203 101.229 17.0742 101.303 16.7969C101.381 16.5156 101.42 16.2168 101.42 15.9004V15.7656C101.42 15.4531 101.381 15.1582 101.303 14.8809C101.229 14.5996 101.115 14.3516 100.963 14.1367C100.814 13.918 100.627 13.7461 100.4 13.6211C100.178 13.4961 99.916 13.4336 99.6152 13.4336C99.3184 13.4336 99.0566 13.4961 98.8301 13.6211C98.6074 13.7461 98.4199 13.918 98.2676 14.1367C98.1191 14.3516 98.0078 14.5996 97.9336 14.8809C97.8594 15.1582 97.8223 15.4531 97.8223 15.7656ZM98.9707 11.7227L100.107 10H101.414L99.8438 11.7227H98.9707ZM104.953 14.0137V19H103.869V12.6602H104.895L104.953 14.0137ZM104.695 15.5898L104.244 15.5723C104.248 15.1387 104.312 14.7383 104.438 14.3711C104.562 14 104.738 13.6777 104.965 13.4043C105.191 13.1309 105.461 12.9199 105.773 12.7715C106.09 12.6191 106.439 12.543 106.822 12.543C107.135 12.543 107.416 12.5859 107.666 12.6719C107.916 12.7539 108.129 12.8867 108.305 13.0703C108.484 13.2539 108.621 13.4922 108.715 13.7852C108.809 14.0742 108.855 14.4277 108.855 14.8457V19H107.766V14.834C107.766 14.502 107.717 14.2363 107.619 14.0371C107.521 13.834 107.379 13.6875 107.191 13.5977C107.004 13.5039 106.773 13.457 106.5 13.457C106.23 13.457 105.984 13.5137 105.762 13.627C105.543 13.7402 105.354 13.8965 105.193 14.0957C105.037 14.2949 104.914 14.5234 104.824 14.7812C104.738 15.0352 104.695 15.3047 104.695 15.5898ZM117.475 17.7695V10H118.564V19H117.568L117.475 17.7695ZM113.209 15.9004V15.7773C113.209 15.293 113.268 14.8535 113.385 14.459C113.506 14.0605 113.676 13.7188 113.895 13.4336C114.117 13.1484 114.381 12.9297 114.686 12.7773C114.994 12.6211 115.338 12.543 115.717 12.543C116.115 12.543 116.463 12.6133 116.76 12.7539C117.061 12.8906 117.314 13.0918 117.521 13.3574C117.732 13.6191 117.898 13.9355 118.02 14.3066C118.141 14.6777 118.225 15.0977 118.271 15.5664V16.1055C118.229 16.5703 118.145 16.9883 118.02 17.3594C117.898 17.7305 117.732 18.0469 117.521 18.3086C117.314 18.5703 117.061 18.7715 116.76 18.9121C116.459 19.0488 116.107 19.1172 115.705 19.1172C115.334 19.1172 114.994 19.0371 114.686 18.877C114.381 18.7168 114.117 18.4922 113.895 18.2031C113.676 17.9141 113.506 17.5742 113.385 17.1836C113.268 16.7891 113.209 16.3613 113.209 15.9004ZM114.299 15.7773V15.9004C114.299 16.2168 114.33 16.5137 114.393 16.791C114.459 17.0684 114.561 17.3125 114.697 17.5234C114.834 17.7344 115.008 17.9004 115.219 18.0215C115.43 18.1387 115.682 18.1973 115.975 18.1973C116.334 18.1973 116.629 18.1211 116.859 17.9688C117.094 17.8164 117.281 17.6152 117.422 17.3652C117.562 17.1152 117.672 16.8438 117.75 16.5508V15.1387C117.703 14.9238 117.635 14.7168 117.545 14.5176C117.459 14.3145 117.346 14.1348 117.205 13.9785C117.068 13.8184 116.898 13.6914 116.695 13.5977C116.496 13.5039 116.26 13.457 115.986 13.457C115.689 13.457 115.434 13.5195 115.219 13.6445C115.008 13.7656 114.834 13.9336 114.697 14.1484C114.561 14.3594 114.459 14.6055 114.393 14.8867C114.33 15.1641 114.299 15.4609 114.299 15.7773ZM122.883 19.1172C122.441 19.1172 122.041 19.043 121.682 18.8945C121.326 18.7422 121.02 18.5293 120.762 18.2559C120.508 17.9824 120.312 17.6582 120.176 17.2832C120.039 16.9082 119.971 16.498 119.971 16.0527V15.8066C119.971 15.291 120.047 14.832 120.199 14.4297C120.352 14.0234 120.559 13.6797 120.82 13.3984C121.082 13.1172 121.379 12.9043 121.711 12.7598C122.043 12.6152 122.387 12.543 122.742 12.543C123.195 12.543 123.586 12.6211 123.914 12.7773C124.246 12.9336 124.518 13.1523 124.729 13.4336C124.939 13.7109 125.096 14.0391 125.197 14.418C125.299 14.793 125.35 15.2031 125.35 15.6484V16.1348H120.615V15.25H124.266V15.168C124.25 14.8867 124.191 14.6133 124.09 14.3477C123.992 14.082 123.836 13.8633 123.621 13.6914C123.406 13.5195 123.113 13.4336 122.742 13.4336C122.496 13.4336 122.27 13.4863 122.062 13.5918C121.855 13.6934 121.678 13.8457 121.529 14.0488C121.381 14.252 121.266 14.5 121.184 14.793C121.102 15.0859 121.061 15.4238 121.061 15.8066V16.0527C121.061 16.3535 121.102 16.6367 121.184 16.9023C121.27 17.1641 121.393 17.3945 121.553 17.5938C121.717 17.793 121.914 17.9492 122.145 18.0625C122.379 18.1758 122.645 18.2324 122.941 18.2324C123.324 18.2324 123.648 18.1543 123.914 17.998C124.18 17.8418 124.412 17.6328 124.611 17.3711L125.268 17.8926C125.131 18.0996 124.957 18.2969 124.746 18.4844C124.535 18.6719 124.275 18.8242 123.967 18.9414C123.662 19.0586 123.301 19.1172 122.883 19.1172ZM134.303 16.8438C134.303 16.6445 134.271 16.4688 134.209 16.3164C134.15 16.1602 134.045 16.0195 133.893 15.8945C133.744 15.7695 133.537 15.6504 133.271 15.5371C133.01 15.4238 132.678 15.3086 132.275 15.1914C131.854 15.0664 131.473 14.9277 131.133 14.7754C130.793 14.6191 130.502 14.4414 130.26 14.2422C130.018 14.043 129.832 13.8145 129.703 13.5566C129.574 13.2988 129.51 13.0039 129.51 12.6719C129.51 12.3398 129.578 12.0332 129.715 11.752C129.852 11.4707 130.047 11.2266 130.301 11.0195C130.559 10.8086 130.865 10.6445 131.221 10.5273C131.576 10.4102 131.973 10.3516 132.41 10.3516C133.051 10.3516 133.594 10.4746 134.039 10.7207C134.488 10.9629 134.83 11.2812 135.064 11.6758C135.299 12.0664 135.416 12.4844 135.416 12.9297H134.291C134.291 12.6094 134.223 12.3262 134.086 12.0801C133.949 11.8301 133.742 11.6348 133.465 11.4941C133.188 11.3496 132.836 11.2773 132.41 11.2773C132.008 11.2773 131.676 11.3379 131.414 11.459C131.152 11.5801 130.957 11.7441 130.828 11.9512C130.703 12.1582 130.641 12.3945 130.641 12.6602C130.641 12.8398 130.678 13.0039 130.752 13.1523C130.83 13.2969 130.949 13.4316 131.109 13.5566C131.273 13.6816 131.48 13.7969 131.73 13.9023C131.984 14.0078 132.287 14.1094 132.639 14.207C133.123 14.3438 133.541 14.4961 133.893 14.6641C134.244 14.832 134.533 15.0215 134.76 15.2324C134.99 15.4395 135.16 15.6758 135.27 15.9414C135.383 16.2031 135.439 16.5 135.439 16.832C135.439 17.1797 135.369 17.4941 135.229 17.7754C135.088 18.0566 134.887 18.2969 134.625 18.4961C134.363 18.6953 134.049 18.8496 133.682 18.959C133.318 19.0645 132.912 19.1172 132.463 19.1172C132.068 19.1172 131.68 19.0625 131.297 18.9531C130.918 18.8438 130.572 18.6797 130.26 18.4609C129.951 18.2422 129.703 17.9727 129.516 17.6523C129.332 17.3281 129.24 16.9531 129.24 16.5273H130.365C130.365 16.8203 130.422 17.0723 130.535 17.2832C130.648 17.4902 130.803 17.6621 130.998 17.7988C131.197 17.9355 131.422 18.0371 131.672 18.1035C131.926 18.166 132.189 18.1973 132.463 18.1973C132.857 18.1973 133.191 18.1426 133.465 18.0332C133.738 17.9238 133.945 17.7676 134.086 17.5645C134.23 17.3613 134.303 17.1211 134.303 16.8438ZM137.895 12.6602V19H136.805V12.6602H137.895ZM136.723 10.9785C136.723 10.8027 136.775 10.6543 136.881 10.5332C136.99 10.4121 137.15 10.3516 137.361 10.3516C137.568 10.3516 137.727 10.4121 137.836 10.5332C137.949 10.6543 138.006 10.8027 138.006 10.9785C138.006 11.1465 137.949 11.291 137.836 11.4121C137.727 11.5293 137.568 11.5879 137.361 11.5879C137.15 11.5879 136.99 11.5293 136.881 11.4121C136.775 11.291 136.723 11.1465 136.723 10.9785ZM143.326 17.3184C143.326 17.1621 143.291 17.0176 143.221 16.8848C143.154 16.748 143.016 16.625 142.805 16.5156C142.598 16.4023 142.285 16.3047 141.867 16.2227C141.516 16.1484 141.197 16.0605 140.912 15.959C140.631 15.8574 140.391 15.7344 140.191 15.5898C139.996 15.4453 139.846 15.2754 139.74 15.0801C139.635 14.8848 139.582 14.6562 139.582 14.3945C139.582 14.1445 139.637 13.9082 139.746 13.6855C139.859 13.4629 140.018 13.2656 140.221 13.0938C140.428 12.9219 140.676 12.7871 140.965 12.6895C141.254 12.5918 141.576 12.543 141.932 12.543C142.439 12.543 142.873 12.6328 143.232 12.8125C143.592 12.9922 143.867 13.2324 144.059 13.5332C144.25 13.8301 144.346 14.1602 144.346 14.5234H143.262C143.262 14.3477 143.209 14.1777 143.104 14.0137C143.002 13.8457 142.852 13.707 142.652 13.5977C142.457 13.4883 142.217 13.4336 141.932 13.4336C141.631 13.4336 141.387 13.4805 141.199 13.5742C141.016 13.6641 140.881 13.7793 140.795 13.9199C140.713 14.0605 140.672 14.209 140.672 14.3652C140.672 14.4824 140.691 14.5879 140.73 14.6816C140.773 14.7715 140.848 14.8555 140.953 14.9336C141.059 15.0078 141.207 15.0781 141.398 15.1445C141.59 15.2109 141.834 15.2773 142.131 15.3438C142.65 15.4609 143.078 15.6016 143.414 15.7656C143.75 15.9297 144 16.1309 144.164 16.3691C144.328 16.6074 144.41 16.8965 144.41 17.2363C144.41 17.5137 144.352 17.7676 144.234 17.998C144.121 18.2285 143.955 18.4277 143.736 18.5957C143.521 18.7598 143.264 18.8887 142.963 18.9824C142.666 19.0723 142.332 19.1172 141.961 19.1172C141.402 19.1172 140.93 19.0176 140.543 18.8184C140.156 18.6191 139.863 18.3613 139.664 18.0449C139.465 17.7285 139.365 17.3945 139.365 17.043H140.455C140.471 17.3398 140.557 17.5762 140.713 17.752C140.869 17.9238 141.061 18.0469 141.287 18.1211C141.514 18.1914 141.738 18.2266 141.961 18.2266C142.258 18.2266 142.506 18.1875 142.705 18.1094C142.908 18.0312 143.062 17.9238 143.168 17.7871C143.273 17.6504 143.326 17.4941 143.326 17.3184ZM148.488 12.6602V13.4922H145.061V12.6602H148.488ZM146.221 11.1191H147.305V17.4297C147.305 17.6445 147.338 17.8066 147.404 17.916C147.471 18.0254 147.557 18.0977 147.662 18.1328C147.768 18.168 147.881 18.1855 148.002 18.1855C148.092 18.1855 148.186 18.1777 148.283 18.1621C148.385 18.1426 148.461 18.127 148.512 18.1152L148.518 19C148.432 19.0273 148.318 19.0527 148.178 19.0762C148.041 19.1035 147.875 19.1172 147.68 19.1172C147.414 19.1172 147.17 19.0645 146.947 18.959C146.725 18.8535 146.547 18.6777 146.414 18.4316C146.285 18.1816 146.221 17.8457 146.221 17.4238V11.1191ZM152.391 19.1172C151.949 19.1172 151.549 19.043 151.189 18.8945C150.834 18.7422 150.527 18.5293 150.27 18.2559C150.016 17.9824 149.82 17.6582 149.684 17.2832C149.547 16.9082 149.479 16.498 149.479 16.0527V15.8066C149.479 15.291 149.555 14.832 149.707 14.4297C149.859 14.0234 150.066 13.6797 150.328 13.3984C150.59 13.1172 150.887 12.9043 151.219 12.7598C151.551 12.6152 151.895 12.543 152.25 12.543C152.703 12.543 153.094 12.6211 153.422 12.7773C153.754 12.9336 154.025 13.1523 154.236 13.4336C154.447 13.7109 154.604 14.0391 154.705 14.418C154.807 14.793 154.857 15.2031 154.857 15.6484V16.1348H150.123V15.25H153.773V15.168C153.758 14.8867 153.699 14.6133 153.598 14.3477C153.5 14.082 153.344 13.8633 153.129 13.6914C152.914 13.5195 152.621 13.4336 152.25 13.4336C152.004 13.4336 151.777 13.4863 151.57 13.5918C151.363 13.6934 151.186 13.8457 151.037 14.0488C150.889 14.252 150.773 14.5 150.691 14.793C150.609 15.0859 150.568 15.4238 150.568 15.8066V16.0527C150.568 16.3535 150.609 16.6367 150.691 16.9023C150.777 17.1641 150.9 17.3945 151.061 17.5938C151.225 17.793 151.422 17.9492 151.652 18.0625C151.887 18.1758 152.152 18.2324 152.449 18.2324C152.832 18.2324 153.156 18.1543 153.422 17.998C153.688 17.8418 153.92 17.6328 154.119 17.3711L154.775 17.8926C154.639 18.0996 154.465 18.2969 154.254 18.4844C154.043 18.6719 153.783 18.8242 153.475 18.9414C153.17 19.0586 152.809 19.1172 152.391 19.1172ZM157.201 13.9199V19H156.111V12.6602H157.143L157.201 13.9199ZM156.979 15.5898L156.475 15.5723C156.479 15.1387 156.535 14.7383 156.645 14.3711C156.754 14 156.916 13.6777 157.131 13.4043C157.346 13.1309 157.613 12.9199 157.934 12.7715C158.254 12.6191 158.625 12.543 159.047 12.543C159.344 12.543 159.617 12.5859 159.867 12.6719C160.117 12.7539 160.334 12.8848 160.518 13.0645C160.701 13.2441 160.844 13.4746 160.945 13.7559C161.047 14.0371 161.098 14.377 161.098 14.7754V19H160.014V14.8281C160.014 14.4961 159.957 14.2305 159.844 14.0312C159.734 13.832 159.578 13.6875 159.375 13.5977C159.172 13.5039 158.934 13.457 158.66 13.457C158.34 13.457 158.072 13.5137 157.857 13.627C157.643 13.7402 157.471 13.8965 157.342 14.0957C157.213 14.2949 157.119 14.5234 157.061 14.7812C157.006 15.0352 156.979 15.3047 156.979 15.5898ZM161.086 14.9922L160.359 15.2148C160.363 14.8672 160.42 14.5332 160.529 14.2129C160.643 13.8926 160.805 13.6074 161.016 13.3574C161.23 13.1074 161.494 12.9102 161.807 12.7656C162.119 12.6172 162.477 12.543 162.879 12.543C163.219 12.543 163.52 12.5879 163.781 12.6777C164.047 12.7676 164.27 12.9062 164.449 13.0938C164.633 13.2773 164.771 13.5137 164.865 13.8027C164.959 14.0918 165.006 14.4355 165.006 14.834V19H163.916V14.8223C163.916 14.4668 163.859 14.1914 163.746 13.9961C163.637 13.7969 163.48 13.6582 163.277 13.5801C163.078 13.498 162.84 13.457 162.562 13.457C162.324 13.457 162.113 13.498 161.93 13.5801C161.746 13.6621 161.592 13.7754 161.467 13.9199C161.342 14.0605 161.246 14.2227 161.18 14.4062C161.117 14.5898 161.086 14.7852 161.086 14.9922ZM170.385 17.916V14.6523C170.385 14.4023 170.334 14.1855 170.232 14.002C170.135 13.8145 169.986 13.6699 169.787 13.5684C169.588 13.4668 169.342 13.416 169.049 13.416C168.775 13.416 168.535 13.4629 168.328 13.5566C168.125 13.6504 167.965 13.7734 167.848 13.9258C167.734 14.0781 167.678 14.2422 167.678 14.418H166.594C166.594 14.1914 166.652 13.9668 166.77 13.7441C166.887 13.5215 167.055 13.3203 167.273 13.1406C167.496 12.957 167.762 12.8125 168.07 12.707C168.383 12.5977 168.73 12.543 169.113 12.543C169.574 12.543 169.98 12.6211 170.332 12.7773C170.688 12.9336 170.965 13.1699 171.164 13.4863C171.367 13.7988 171.469 14.1914 171.469 14.6641V17.6172C171.469 17.8281 171.486 18.0527 171.521 18.291C171.561 18.5293 171.617 18.7344 171.691 18.9062V19H170.561C170.506 18.875 170.463 18.709 170.432 18.502C170.4 18.291 170.385 18.0957 170.385 17.916ZM170.572 15.1562L170.584 15.918H169.488C169.18 15.918 168.904 15.9434 168.662 15.9941C168.42 16.041 168.217 16.1133 168.053 16.2109C167.889 16.3086 167.764 16.4316 167.678 16.5801C167.592 16.7246 167.549 16.8945 167.549 17.0898C167.549 17.2891 167.594 17.4707 167.684 17.6348C167.773 17.7988 167.908 17.9297 168.088 18.0273C168.271 18.1211 168.496 18.168 168.762 18.168C169.094 18.168 169.387 18.0977 169.641 17.957C169.895 17.8164 170.096 17.6445 170.244 17.4414C170.396 17.2383 170.479 17.041 170.49 16.8496L170.953 17.3711C170.926 17.5352 170.852 17.7168 170.73 17.916C170.609 18.1152 170.447 18.3066 170.244 18.4902C170.045 18.6699 169.807 18.8203 169.529 18.9414C169.256 19.0586 168.947 19.1172 168.604 19.1172C168.174 19.1172 167.797 19.0332 167.473 18.8652C167.152 18.6973 166.902 18.4727 166.723 18.1914C166.547 17.9062 166.459 17.5879 166.459 17.2363C166.459 16.8965 166.525 16.5977 166.658 16.3398C166.791 16.0781 166.982 15.8613 167.232 15.6895C167.482 15.5137 167.783 15.3809 168.135 15.291C168.486 15.2012 168.879 15.1562 169.312 15.1562H170.572ZM176.865 17.3184C176.865 17.1621 176.83 17.0176 176.76 16.8848C176.693 16.748 176.555 16.625 176.344 16.5156C176.137 16.4023 175.824 16.3047 175.406 16.2227C175.055 16.1484 174.736 16.0605 174.451 15.959C174.17 15.8574 173.93 15.7344 173.73 15.5898C173.535 15.4453 173.385 15.2754 173.279 15.0801C173.174 14.8848 173.121 14.6562 173.121 14.3945C173.121 14.1445 173.176 13.9082 173.285 13.6855C173.398 13.4629 173.557 13.2656 173.76 13.0938C173.967 12.9219 174.215 12.7871 174.504 12.6895C174.793 12.5918 175.115 12.543 175.471 12.543C175.979 12.543 176.412 12.6328 176.771 12.8125C177.131 12.9922 177.406 13.2324 177.598 13.5332C177.789 13.8301 177.885 14.1602 177.885 14.5234H176.801C176.801 14.3477 176.748 14.1777 176.643 14.0137C176.541 13.8457 176.391 13.707 176.191 13.5977C175.996 13.4883 175.756 13.4336 175.471 13.4336C175.17 13.4336 174.926 13.4805 174.738 13.5742C174.555 13.6641 174.42 13.7793 174.334 13.9199C174.252 14.0605 174.211 14.209 174.211 14.3652C174.211 14.4824 174.23 14.5879 174.27 14.6816C174.312 14.7715 174.387 14.8555 174.492 14.9336C174.598 15.0078 174.746 15.0781 174.938 15.1445C175.129 15.2109 175.373 15.2773 175.67 15.3438C176.189 15.4609 176.617 15.6016 176.953 15.7656C177.289 15.9297 177.539 16.1309 177.703 16.3691C177.867 16.6074 177.949 16.8965 177.949 17.2363C177.949 17.5137 177.891 17.7676 177.773 17.998C177.66 18.2285 177.494 18.4277 177.275 18.5957C177.061 18.7598 176.803 18.8887 176.502 18.9824C176.205 19.0723 175.871 19.1172 175.5 19.1172C174.941 19.1172 174.469 19.0176 174.082 18.8184C173.695 18.6191 173.402 18.3613 173.203 18.0449C173.004 17.7285 172.904 17.3945 172.904 17.043H173.994C174.01 17.3398 174.096 17.5762 174.252 17.752C174.408 17.9238 174.6 18.0469 174.826 18.1211C175.053 18.1914 175.277 18.2266 175.5 18.2266C175.797 18.2266 176.045 18.1875 176.244 18.1094C176.447 18.0312 176.602 17.9238 176.707 17.7871C176.812 17.6504 176.865 17.4941 176.865 17.3184ZM56.5371 30.8438C56.5371 30.6445 56.5059 30.4688 56.4434 30.3164C56.3848 30.1602 56.2793 30.0195 56.127 29.8945C55.9785 29.7695 55.7715 29.6504 55.5059 29.5371C55.2441 29.4238 54.9121 29.3086 54.5098 29.1914C54.0879 29.0664 53.707 28.9277 53.3672 28.7754C53.0273 28.6191 52.7363 28.4414 52.4941 28.2422C52.252 28.043 52.0664 27.8145 51.9375 27.5566C51.8086 27.2988 51.7441 27.0039 51.7441 26.6719C51.7441 26.3398 51.8125 26.0332 51.9492 25.752C52.0859 25.4707 52.2812 25.2266 52.5352 25.0195C52.793 24.8086 53.0996 24.6445 53.4551 24.5273C53.8105 24.4102 54.207 24.3516 54.6445 24.3516C55.2852 24.3516 55.8281 24.4746 56.2734 24.7207C56.7227 24.9629 57.0645 25.2812 57.2988 25.6758C57.5332 26.0664 57.6504 26.4844 57.6504 26.9297H56.5254C56.5254 26.6094 56.457 26.3262 56.3203 26.0801C56.1836 25.8301 55.9766 25.6348 55.6992 25.4941C55.4219 25.3496 55.0703 25.2773 54.6445 25.2773C54.2422 25.2773 53.9102 25.3379 53.6484 25.459C53.3867 25.5801 53.1914 25.7441 53.0625 25.9512C52.9375 26.1582 52.875 26.3945 52.875 26.6602C52.875 26.8398 52.9121 27.0039 52.9863 27.1523C53.0645 27.2969 53.1836 27.4316 53.3438 27.5566C53.5078 27.6816 53.7148 27.7969 53.9648 27.9023C54.2188 28.0078 54.5215 28.1094 54.873 28.207C55.3574 28.3438 55.7754 28.4961 56.127 28.6641C56.4785 28.832 56.7676 29.0215 56.9941 29.2324C57.2246 29.4395 57.3945 29.6758 57.5039 29.9414C57.6172 30.2031 57.6738 30.5 57.6738 30.832C57.6738 31.1797 57.6035 31.4941 57.4629 31.7754C57.3223 32.0566 57.1211 32.2969 56.8594 32.4961C56.5977 32.6953 56.2832 32.8496 55.916 32.959C55.5527 33.0645 55.1465 33.1172 54.6973 33.1172C54.3027 33.1172 53.9141 33.0625 53.5312 32.9531C53.1523 32.8438 52.8066 32.6797 52.4941 32.4609C52.1855 32.2422 51.9375 31.9727 51.75 31.6523C51.5664 31.3281 51.4746 30.9531 51.4746 30.5273H52.5996C52.5996 30.8203 52.6562 31.0723 52.7695 31.2832C52.8828 31.4902 53.0371 31.6621 53.2324 31.7988C53.4316 31.9355 53.6562 32.0371 53.9062 32.1035C54.1602 32.166 54.4238 32.1973 54.6973 32.1973C55.0918 32.1973 55.4258 32.1426 55.6992 32.0332C55.9727 31.9238 56.1797 31.7676 56.3203 31.5645C56.4648 31.3613 56.5371 31.1211 56.5371 30.8438ZM58.6641 29.9004V29.7656C58.6641 29.3086 58.7305 28.8848 58.8633 28.4941C58.9961 28.0996 59.1875 27.7578 59.4375 27.4688C59.6875 27.1758 59.9902 26.9492 60.3457 26.7891C60.7012 26.625 61.0996 26.543 61.541 26.543C61.9863 26.543 62.3867 26.625 62.7422 26.7891C63.1016 26.9492 63.4062 27.1758 63.6562 27.4688C63.9102 27.7578 64.1035 28.0996 64.2363 28.4941C64.3691 28.8848 64.4355 29.3086 64.4355 29.7656V29.9004C64.4355 30.3574 64.3691 30.7812 64.2363 31.1719C64.1035 31.5625 63.9102 31.9043 63.6562 32.1973C63.4062 32.4863 63.1035 32.7129 62.748 32.877C62.3965 33.0371 61.998 33.1172 61.5527 33.1172C61.1074 33.1172 60.707 33.0371 60.3516 32.877C59.9961 32.7129 59.6914 32.4863 59.4375 32.1973C59.1875 31.9043 58.9961 31.5625 58.8633 31.1719C58.7305 30.7812 58.6641 30.3574 58.6641 29.9004ZM59.748 29.7656V29.9004C59.748 30.2168 59.7852 30.5156 59.8594 30.7969C59.9336 31.0742 60.0449 31.3203 60.1934 31.5352C60.3457 31.75 60.5352 31.9199 60.7617 32.0449C60.9883 32.166 61.252 32.2266 61.5527 32.2266C61.8496 32.2266 62.1094 32.166 62.332 32.0449C62.5586 31.9199 62.7461 31.75 62.8945 31.5352C63.043 31.3203 63.1543 31.0742 63.2285 30.7969C63.3066 30.5156 63.3457 30.2168 63.3457 29.9004V29.7656C63.3457 29.4531 63.3066 29.1582 63.2285 28.8809C63.1543 28.5996 63.041 28.3516 62.8887 28.1367C62.7402 27.918 62.5527 27.7461 62.3262 27.6211C62.1035 27.4961 61.8418 27.4336 61.541 27.4336C61.2441 27.4336 60.9824 27.4961 60.7559 27.6211C60.5332 27.7461 60.3457 27.918 60.1934 28.1367C60.0449 28.3516 59.9336 28.5996 59.8594 28.8809C59.7852 29.1582 59.748 29.4531 59.748 29.7656ZM66.9727 24V33H65.8828V24H66.9727ZM72.4512 31.916V28.6523C72.4512 28.4023 72.4004 28.1855 72.2988 28.002C72.2012 27.8145 72.0527 27.6699 71.8535 27.5684C71.6543 27.4668 71.4082 27.416 71.1152 27.416C70.8418 27.416 70.6016 27.4629 70.3945 27.5566C70.1914 27.6504 70.0312 27.7734 69.9141 27.9258C69.8008 28.0781 69.7441 28.2422 69.7441 28.418H68.6602C68.6602 28.1914 68.7188 27.9668 68.8359 27.7441C68.9531 27.5215 69.1211 27.3203 69.3398 27.1406C69.5625 26.957 69.8281 26.8125 70.1367 26.707C70.4492 26.5977 70.7969 26.543 71.1797 26.543C71.6406 26.543 72.0469 26.6211 72.3984 26.7773C72.7539 26.9336 73.0312 27.1699 73.2305 27.4863C73.4336 27.7988 73.5352 28.1914 73.5352 28.6641V31.6172C73.5352 31.8281 73.5527 32.0527 73.5879 32.291C73.627 32.5293 73.6836 32.7344 73.7578 32.9062V33H72.627C72.5723 32.875 72.5293 32.709 72.498 32.502C72.4668 32.291 72.4512 32.0957 72.4512 31.916ZM72.6387 29.1562L72.6504 29.918H71.5547C71.2461 29.918 70.9707 29.9434 70.7285 29.9941C70.4863 30.041 70.2832 30.1133 70.1191 30.2109C69.9551 30.3086 69.8301 30.4316 69.7441 30.5801C69.6582 30.7246 69.6152 30.8945 69.6152 31.0898C69.6152 31.2891 69.6602 31.4707 69.75 31.6348C69.8398 31.7988 69.9746 31.9297 70.1543 32.0273C70.3379 32.1211 70.5625 32.168 70.8281 32.168C71.1602 32.168 71.4531 32.0977 71.707 31.957C71.9609 31.8164 72.1621 31.6445 72.3105 31.4414C72.4629 31.2383 72.5449 31.041 72.5566 30.8496L73.0195 31.3711C72.9922 31.5352 72.918 31.7168 72.7969 31.916C72.6758 32.1152 72.5137 32.3066 72.3105 32.4902C72.1113 32.6699 71.873 32.8203 71.5957 32.9414C71.3223 33.0586 71.0137 33.1172 70.6699 33.1172C70.2402 33.1172 69.8633 33.0332 69.5391 32.8652C69.2188 32.6973 68.9688 32.4727 68.7891 32.1914C68.6133 31.9062 68.5254 31.5879 68.5254 31.2363C68.5254 30.8965 68.5918 30.5977 68.7246 30.3398C68.8574 30.0781 69.0488 29.8613 69.2988 29.6895C69.5488 29.5137 69.8496 29.3809 70.2012 29.291C70.5527 29.2012 70.9453 29.1562 71.3789 29.1562H72.6387ZM76.3242 27.6562V33H75.2402V26.6602H76.2949L76.3242 27.6562ZM78.3047 26.625L78.2988 27.6328C78.209 27.6133 78.123 27.6016 78.041 27.5977C77.9629 27.5898 77.873 27.5859 77.7715 27.5859C77.5215 27.5859 77.3008 27.625 77.1094 27.7031C76.918 27.7812 76.7559 27.8906 76.623 28.0312C76.4902 28.1719 76.3848 28.3398 76.3066 28.5352C76.2324 28.7266 76.1836 28.9375 76.1602 29.168L75.8555 29.3438C75.8555 28.9609 75.8926 28.6016 75.9668 28.2656C76.0449 27.9297 76.1641 27.6328 76.3242 27.375C76.4844 27.1133 76.6875 26.9102 76.9336 26.7656C77.1836 26.6172 77.4805 26.543 77.8242 26.543C77.9023 26.543 77.9922 26.5527 78.0938 26.5723C78.1953 26.5879 78.2656 26.6055 78.3047 26.625ZM81.8203 33.1172C81.3789 33.1172 80.9785 33.043 80.6191 32.8945C80.2637 32.7422 79.957 32.5293 79.6992 32.2559C79.4453 31.9824 79.25 31.6582 79.1133 31.2832C78.9766 30.9082 78.9082 30.498 78.9082 30.0527V29.8066C78.9082 29.291 78.9844 28.832 79.1367 28.4297C79.2891 28.0234 79.4961 27.6797 79.7578 27.3984C80.0195 27.1172 80.3164 26.9043 80.6484 26.7598C80.9805 26.6152 81.3242 26.543 81.6797 26.543C82.1328 26.543 82.5234 26.6211 82.8516 26.7773C83.1836 26.9336 83.4551 27.1523 83.666 27.4336C83.877 27.7109 84.0332 28.0391 84.1348 28.418C84.2363 28.793 84.2871 29.2031 84.2871 29.6484V30.1348H79.5527V29.25H83.2031V29.168C83.1875 28.8867 83.1289 28.6133 83.0273 28.3477C82.9297 28.082 82.7734 27.8633 82.5586 27.6914C82.3438 27.5195 82.0508 27.4336 81.6797 27.4336C81.4336 27.4336 81.207 27.4863 81 27.5918C80.793 27.6934 80.6152 27.8457 80.4668 28.0488C80.3184 28.252 80.2031 28.5 80.1211 28.793C80.0391 29.0859 79.998 29.4238 79.998 29.8066V30.0527C79.998 30.3535 80.0391 30.6367 80.1211 30.9023C80.207 31.1641 80.3301 31.3945 80.4902 31.5938C80.6543 31.793 80.8516 31.9492 81.082 32.0625C81.3164 32.1758 81.582 32.2324 81.8789 32.2324C82.2617 32.2324 82.5859 32.1543 82.8516 31.998C83.1172 31.8418 83.3496 31.6328 83.5488 31.3711L84.2051 31.8926C84.0684 32.0996 83.8945 32.2969 83.6836 32.4844C83.4727 32.6719 83.2129 32.8242 82.9043 32.9414C82.5996 33.0586 82.2383 33.1172 81.8203 33.1172ZM89.2441 31.3184C89.2441 31.1621 89.209 31.0176 89.1387 30.8848C89.0723 30.748 88.9336 30.625 88.7227 30.5156C88.5156 30.4023 88.2031 30.3047 87.7852 30.2227C87.4336 30.1484 87.1152 30.0605 86.8301 29.959C86.5488 29.8574 86.3086 29.7344 86.1094 29.5898C85.9141 29.4453 85.7637 29.2754 85.6582 29.0801C85.5527 28.8848 85.5 28.6562 85.5 28.3945C85.5 28.1445 85.5547 27.9082 85.6641 27.6855C85.7773 27.4629 85.9355 27.2656 86.1387 27.0938C86.3457 26.9219 86.5938 26.7871 86.8828 26.6895C87.1719 26.5918 87.4941 26.543 87.8496 26.543C88.3574 26.543 88.791 26.6328 89.1504 26.8125C89.5098 26.9922 89.7852 27.2324 89.9766 27.5332C90.168 27.8301 90.2637 28.1602 90.2637 28.5234H89.1797C89.1797 28.3477 89.127 28.1777 89.0215 28.0137C88.9199 27.8457 88.7695 27.707 88.5703 27.5977C88.375 27.4883 88.1348 27.4336 87.8496 27.4336C87.5488 27.4336 87.3047 27.4805 87.1172 27.5742C86.9336 27.6641 86.7988 27.7793 86.7129 27.9199C86.6309 28.0605 86.5898 28.209 86.5898 28.3652C86.5898 28.4824 86.6094 28.5879 86.6484 28.6816C86.6914 28.7715 86.7656 28.8555 86.8711 28.9336C86.9766 29.0078 87.125 29.0781 87.3164 29.1445C87.5078 29.2109 87.752 29.2773 88.0488 29.3438C88.5684 29.4609 88.9961 29.6016 89.332 29.7656C89.668 29.9297 89.918 30.1309 90.082 30.3691C90.2461 30.6074 90.3281 30.8965 90.3281 31.2363C90.3281 31.5137 90.2695 31.7676 90.1523 31.998C90.0391 32.2285 89.873 32.4277 89.6543 32.5957C89.4395 32.7598 89.1816 32.8887 88.8809 32.9824C88.584 33.0723 88.25 33.1172 87.8789 33.1172C87.3203 33.1172 86.8477 33.0176 86.4609 32.8184C86.0742 32.6191 85.7812 32.3613 85.582 32.0449C85.3828 31.7285 85.2832 31.3945 85.2832 31.043H86.373C86.3887 31.3398 86.4746 31.5762 86.6309 31.752C86.7871 31.9238 86.9785 32.0469 87.2051 32.1211C87.4316 32.1914 87.6562 32.2266 87.8789 32.2266C88.1758 32.2266 88.4238 32.1875 88.623 32.1094C88.8262 32.0312 88.9805 31.9238 89.0859 31.7871C89.1914 31.6504 89.2441 31.4941 89.2441 31.3184ZM96.0234 24.4688V33H94.8926V24.4688H96.0234ZM99.5977 28.3066V29.2324H95.7773V28.3066H99.5977ZM100.178 24.4688V25.3945H95.7773V24.4688H100.178ZM100.945 29.9004V29.7656C100.945 29.3086 101.012 28.8848 101.145 28.4941C101.277 28.0996 101.469 27.7578 101.719 27.4688C101.969 27.1758 102.271 26.9492 102.627 26.7891C102.982 26.625 103.381 26.543 103.822 26.543C104.268 26.543 104.668 26.625 105.023 26.7891C105.383 26.9492 105.688 27.1758 105.938 27.4688C106.191 27.7578 106.385 28.0996 106.518 28.4941C106.65 28.8848 106.717 29.3086 106.717 29.7656V29.9004C106.717 30.3574 106.65 30.7812 106.518 31.1719C106.385 31.5625 106.191 31.9043 105.938 32.1973C105.688 32.4863 105.385 32.7129 105.029 32.877C104.678 33.0371 104.279 33.1172 103.834 33.1172C103.389 33.1172 102.988 33.0371 102.633 32.877C102.277 32.7129 101.973 32.4863 101.719 32.1973C101.469 31.9043 101.277 31.5625 101.145 31.1719C101.012 30.7812 100.945 30.3574 100.945 29.9004ZM102.029 29.7656V29.9004C102.029 30.2168 102.066 30.5156 102.141 30.7969C102.215 31.0742 102.326 31.3203 102.475 31.5352C102.627 31.75 102.816 31.9199 103.043 32.0449C103.27 32.166 103.533 32.2266 103.834 32.2266C104.131 32.2266 104.391 32.166 104.613 32.0449C104.84 31.9199 105.027 31.75 105.176 31.5352C105.324 31.3203 105.436 31.0742 105.51 30.7969C105.588 30.5156 105.627 30.2168 105.627 29.9004V29.7656C105.627 29.4531 105.588 29.1582 105.51 28.8809C105.436 28.5996 105.322 28.3516 105.17 28.1367C105.021 27.918 104.834 27.7461 104.607 27.6211C104.385 27.4961 104.123 27.4336 103.822 27.4336C103.525 27.4336 103.264 27.4961 103.037 27.6211C102.814 27.7461 102.627 27.918 102.475 28.1367C102.326 28.3516 102.215 28.5996 102.141 28.8809C102.066 29.1582 102.029 29.4531 102.029 29.7656ZM110.73 26.6602V27.4922H107.303V26.6602H110.73ZM108.463 25.1191H109.547V31.4297C109.547 31.6445 109.58 31.8066 109.646 31.916C109.713 32.0254 109.799 32.0977 109.904 32.1328C110.01 32.168 110.123 32.1855 110.244 32.1855C110.334 32.1855 110.428 32.1777 110.525 32.1621C110.627 32.1426 110.703 32.127 110.754 32.1152L110.76 33C110.674 33.0273 110.561 33.0527 110.42 33.0762C110.283 33.1035 110.117 33.1172 109.922 33.1172C109.656 33.1172 109.412 33.0645 109.189 32.959C108.967 32.8535 108.789 32.6777 108.656 32.4316C108.527 32.1816 108.463 31.8457 108.463 31.4238V25.1191ZM111.598 29.9004V29.7656C111.598 29.3086 111.664 28.8848 111.797 28.4941C111.93 28.0996 112.121 27.7578 112.371 27.4688C112.621 27.1758 112.924 26.9492 113.279 26.7891C113.635 26.625 114.033 26.543 114.475 26.543C114.92 26.543 115.32 26.625 115.676 26.7891C116.035 26.9492 116.34 27.1758 116.59 27.4688C116.844 27.7578 117.037 28.0996 117.17 28.4941C117.303 28.8848 117.369 29.3086 117.369 29.7656V29.9004C117.369 30.3574 117.303 30.7812 117.17 31.1719C117.037 31.5625 116.844 31.9043 116.59 32.1973C116.34 32.4863 116.037 32.7129 115.682 32.877C115.33 33.0371 114.932 33.1172 114.486 33.1172C114.041 33.1172 113.641 33.0371 113.285 32.877C112.93 32.7129 112.625 32.4863 112.371 32.1973C112.121 31.9043 111.93 31.5625 111.797 31.1719C111.664 30.7812 111.598 30.3574 111.598 29.9004ZM112.682 29.7656V29.9004C112.682 30.2168 112.719 30.5156 112.793 30.7969C112.867 31.0742 112.979 31.3203 113.127 31.5352C113.279 31.75 113.469 31.9199 113.695 32.0449C113.922 32.166 114.186 32.2266 114.486 32.2266C114.783 32.2266 115.043 32.166 115.266 32.0449C115.492 31.9199 115.68 31.75 115.828 31.5352C115.977 31.3203 116.088 31.0742 116.162 30.7969C116.24 30.5156 116.279 30.2168 116.279 29.9004V29.7656C116.279 29.4531 116.24 29.1582 116.162 28.8809C116.088 28.5996 115.975 28.3516 115.822 28.1367C115.674 27.918 115.486 27.7461 115.26 27.6211C115.037 27.4961 114.775 27.4336 114.475 27.4336C114.178 27.4336 113.916 27.4961 113.689 27.6211C113.467 27.7461 113.279 27.918 113.127 28.1367C112.979 28.3516 112.867 28.5996 112.793 28.8809C112.719 29.1582 112.682 29.4531 112.682 29.7656ZM120.562 32.0215L122.297 26.6602H123.404L121.125 33H120.398L120.562 32.0215ZM119.115 26.6602L120.902 32.0508L121.025 33H120.299L118.002 26.6602H119.115ZM124.066 29.9004V29.7656C124.066 29.3086 124.133 28.8848 124.266 28.4941C124.398 28.0996 124.59 27.7578 124.84 27.4688C125.09 27.1758 125.393 26.9492 125.748 26.7891C126.104 26.625 126.502 26.543 126.943 26.543C127.389 26.543 127.789 26.625 128.145 26.7891C128.504 26.9492 128.809 27.1758 129.059 27.4688C129.312 27.7578 129.506 28.0996 129.639 28.4941C129.771 28.8848 129.838 29.3086 129.838 29.7656V29.9004C129.838 30.3574 129.771 30.7812 129.639 31.1719C129.506 31.5625 129.312 31.9043 129.059 32.1973C128.809 32.4863 128.506 32.7129 128.15 32.877C127.799 33.0371 127.4 33.1172 126.955 33.1172C126.51 33.1172 126.109 33.0371 125.754 32.877C125.398 32.7129 125.094 32.4863 124.84 32.1973C124.59 31.9043 124.398 31.5625 124.266 31.1719C124.133 30.7812 124.066 30.3574 124.066 29.9004ZM125.15 29.7656V29.9004C125.15 30.2168 125.188 30.5156 125.262 30.7969C125.336 31.0742 125.447 31.3203 125.596 31.5352C125.748 31.75 125.938 31.9199 126.164 32.0449C126.391 32.166 126.654 32.2266 126.955 32.2266C127.252 32.2266 127.512 32.166 127.734 32.0449C127.961 31.9199 128.148 31.75 128.297 31.5352C128.445 31.3203 128.557 31.0742 128.631 30.7969C128.709 30.5156 128.748 30.2168 128.748 29.9004V29.7656C128.748 29.4531 128.709 29.1582 128.631 28.8809C128.557 28.5996 128.443 28.3516 128.291 28.1367C128.143 27.918 127.955 27.7461 127.729 27.6211C127.506 27.4961 127.244 27.4336 126.943 27.4336C126.646 27.4336 126.385 27.4961 126.158 27.6211C125.936 27.7461 125.748 27.918 125.596 28.1367C125.447 28.3516 125.336 28.5996 125.262 28.8809C125.188 29.1582 125.15 29.4531 125.15 29.7656ZM132.375 24V33H131.285V24H132.375ZM136.77 26.6602V27.4922H133.342V26.6602H136.77ZM134.502 25.1191H135.586V31.4297C135.586 31.6445 135.619 31.8066 135.686 31.916C135.752 32.0254 135.838 32.0977 135.943 32.1328C136.049 32.168 136.162 32.1855 136.283 32.1855C136.373 32.1855 136.467 32.1777 136.564 32.1621C136.666 32.1426 136.742 32.127 136.793 32.1152L136.799 33C136.713 33.0273 136.6 33.0527 136.459 33.0762C136.322 33.1035 136.156 33.1172 135.961 33.1172C135.695 33.1172 135.451 33.0645 135.229 32.959C135.006 32.8535 134.828 32.6777 134.695 32.4316C134.566 32.1816 134.502 31.8457 134.502 31.4238V25.1191ZM141.779 31.916V28.6523C141.779 28.4023 141.729 28.1855 141.627 28.002C141.529 27.8145 141.381 27.6699 141.182 27.5684C140.982 27.4668 140.736 27.416 140.443 27.416C140.17 27.416 139.93 27.4629 139.723 27.5566C139.52 27.6504 139.359 27.7734 139.242 27.9258C139.129 28.0781 139.072 28.2422 139.072 28.418H137.988C137.988 28.1914 138.047 27.9668 138.164 27.7441C138.281 27.5215 138.449 27.3203 138.668 27.1406C138.891 26.957 139.156 26.8125 139.465 26.707C139.777 26.5977 140.125 26.543 140.508 26.543C140.969 26.543 141.375 26.6211 141.727 26.7773C142.082 26.9336 142.359 27.1699 142.559 27.4863C142.762 27.7988 142.863 28.1914 142.863 28.6641V31.6172C142.863 31.8281 142.881 32.0527 142.916 32.291C142.955 32.5293 143.012 32.7344 143.086 32.9062V33H141.955C141.9 32.875 141.857 32.709 141.826 32.502C141.795 32.291 141.779 32.0957 141.779 31.916ZM141.967 29.1562L141.979 29.918H140.883C140.574 29.918 140.299 29.9434 140.057 29.9941C139.814 30.041 139.611 30.1133 139.447 30.2109C139.283 30.3086 139.158 30.4316 139.072 30.5801C138.986 30.7246 138.943 30.8945 138.943 31.0898C138.943 31.2891 138.988 31.4707 139.078 31.6348C139.168 31.7988 139.303 31.9297 139.482 32.0273C139.666 32.1211 139.891 32.168 140.156 32.168C140.488 32.168 140.781 32.0977 141.035 31.957C141.289 31.8164 141.49 31.6445 141.639 31.4414C141.791 31.2383 141.873 31.041 141.885 30.8496L142.348 31.3711C142.32 31.5352 142.246 31.7168 142.125 31.916C142.004 32.1152 141.842 32.3066 141.639 32.4902C141.439 32.6699 141.201 32.8203 140.924 32.9414C140.65 33.0586 140.342 33.1172 139.998 33.1172C139.568 33.1172 139.191 33.0332 138.867 32.8652C138.547 32.6973 138.297 32.4727 138.117 32.1914C137.941 31.9062 137.854 31.5879 137.854 31.2363C137.854 30.8965 137.92 30.5977 138.053 30.3398C138.186 30.0781 138.377 29.8613 138.627 29.6895C138.877 29.5137 139.178 29.3809 139.529 29.291C139.881 29.2012 140.273 29.1562 140.707 29.1562H141.967ZM145.746 26.6602V33H144.656V26.6602H145.746ZM144.574 24.9785C144.574 24.8027 144.627 24.6543 144.732 24.5332C144.842 24.4121 145.002 24.3516 145.213 24.3516C145.42 24.3516 145.578 24.4121 145.688 24.5332C145.801 24.6543 145.857 24.8027 145.857 24.9785C145.857 25.1465 145.801 25.291 145.688 25.4121C145.578 25.5293 145.42 25.5879 145.213 25.5879C145.002 25.5879 144.842 25.5293 144.732 25.4121C144.627 25.291 144.574 25.1465 144.574 24.9785ZM150.023 32.2266C150.281 32.2266 150.52 32.1738 150.738 32.0684C150.957 31.9629 151.137 31.8184 151.277 31.6348C151.418 31.4473 151.498 31.2344 151.518 30.9961H152.549C152.529 31.3711 152.402 31.7207 152.168 32.0449C151.938 32.3652 151.635 32.625 151.26 32.8242C150.885 33.0195 150.473 33.1172 150.023 33.1172C149.547 33.1172 149.131 33.0332 148.775 32.8652C148.424 32.6973 148.131 32.4668 147.896 32.1738C147.666 31.8809 147.492 31.5449 147.375 31.166C147.262 30.7832 147.205 30.3789 147.205 29.9531V29.707C147.205 29.2812 147.262 28.8789 147.375 28.5C147.492 28.1172 147.666 27.7793 147.896 27.4863C148.131 27.1934 148.424 26.9629 148.775 26.7949C149.131 26.627 149.547 26.543 150.023 26.543C150.52 26.543 150.953 26.6445 151.324 26.8477C151.695 27.0469 151.986 27.3203 152.197 27.668C152.412 28.0117 152.529 28.4023 152.549 28.8398H151.518C151.498 28.5781 151.424 28.3418 151.295 28.1309C151.17 27.9199 150.998 27.752 150.779 27.627C150.564 27.498 150.312 27.4336 150.023 27.4336C149.691 27.4336 149.412 27.5 149.186 27.6328C148.963 27.7617 148.785 27.9375 148.652 28.1602C148.523 28.3789 148.43 28.623 148.371 28.8926C148.316 29.1582 148.289 29.4297 148.289 29.707V29.9531C148.289 30.2305 148.316 30.5039 148.371 30.7734C148.426 31.043 148.518 31.2871 148.646 31.5059C148.779 31.7246 148.957 31.9004 149.18 32.0332C149.406 32.1621 149.688 32.2266 150.023 32.2266ZM153.48 29.9004V29.7656C153.48 29.3086 153.547 28.8848 153.68 28.4941C153.812 28.0996 154.004 27.7578 154.254 27.4688C154.504 27.1758 154.807 26.9492 155.162 26.7891C155.518 26.625 155.916 26.543 156.357 26.543C156.803 26.543 157.203 26.625 157.559 26.7891C157.918 26.9492 158.223 27.1758 158.473 27.4688C158.727 27.7578 158.92 28.0996 159.053 28.4941C159.186 28.8848 159.252 29.3086 159.252 29.7656V29.9004C159.252 30.3574 159.186 30.7812 159.053 31.1719C158.92 31.5625 158.727 31.9043 158.473 32.1973C158.223 32.4863 157.92 32.7129 157.564 32.877C157.213 33.0371 156.814 33.1172 156.369 33.1172C155.924 33.1172 155.523 33.0371 155.168 32.877C154.812 32.7129 154.508 32.4863 154.254 32.1973C154.004 31.9043 153.812 31.5625 153.68 31.1719C153.547 30.7812 153.48 30.3574 153.48 29.9004ZM154.564 29.7656V29.9004C154.564 30.2168 154.602 30.5156 154.676 30.7969C154.75 31.0742 154.861 31.3203 155.01 31.5352C155.162 31.75 155.352 31.9199 155.578 32.0449C155.805 32.166 156.068 32.2266 156.369 32.2266C156.666 32.2266 156.926 32.166 157.148 32.0449C157.375 31.9199 157.562 31.75 157.711 31.5352C157.859 31.3203 157.971 31.0742 158.045 30.7969C158.123 30.5156 158.162 30.2168 158.162 29.9004V29.7656C158.162 29.4531 158.123 29.1582 158.045 28.8809C157.971 28.5996 157.857 28.3516 157.705 28.1367C157.557 27.918 157.369 27.7461 157.143 27.6211C156.92 27.4961 156.658 27.4336 156.357 27.4336C156.061 27.4336 155.799 27.4961 155.572 27.6211C155.35 27.7461 155.162 27.918 155.01 28.1367C154.861 28.3516 154.75 28.5996 154.676 28.8809C154.602 29.1582 154.564 29.4531 154.564 29.7656Z" fill="white"/>
<defs>
<linearGradient id="paint0_linear_287_319" x1="9" y1="22" x2="34" y2="22" gradientUnits="userSpaceOnUse">
<stop stop-color="#1E2431"/>
<stop offset="1" stop-color="#1E3954"/>
</linearGradient>
<linearGradient id="paint1_linear_287_319" x1="25.9607" y1="27.8226" x2="31.8752" y2="27.8226" gradientUnits="userSpaceOnUse">
<stop stop-color="#1E2431"/>
<stop offset="1" stop-color="#1E3954"/>
</linearGradient>
</defs>
</svg>
