<svg width="213" height="44" viewBox="0 0 213 44" fill="none" xmlns="http://www.w3.org/2000/svg">
<path d="M52.3477 10.4688H53.4434L56.2383 17.4238L59.0273 10.4688H60.1289L56.6602 19H55.8047L52.3477 10.4688ZM51.9902 10.4688H52.957L53.1152 15.6719V19H51.9902V10.4688ZM59.5137 10.4688H60.4805V19H59.3555V15.6719L59.5137 10.4688ZM66.041 17.916V14.6523C66.041 14.4023 65.9902 14.1855 65.8887 14.002C65.791 13.8145 65.6426 13.6699 65.4434 13.5684C65.2441 13.4668 64.998 13.416 64.7051 13.416C64.4316 13.416 64.1914 13.4629 63.9844 13.5566C63.7812 13.6504 63.6211 13.7734 63.5039 13.9258C63.3906 14.0781 63.334 14.2422 63.334 14.418H62.25C62.25 14.1914 62.3086 13.9668 62.4258 13.7441C62.543 13.5215 62.7109 13.3203 62.9297 13.1406C63.1523 12.957 63.418 12.8125 63.7266 12.707C64.0391 12.5977 64.3867 12.543 64.7695 12.543C65.2305 12.543 65.6367 12.6211 65.9883 12.7773C66.3438 12.9336 66.6211 13.1699 66.8203 13.4863C67.0234 13.7988 67.125 14.1914 67.125 14.6641V17.6172C67.125 17.8281 67.1426 18.0527 67.1777 18.291C67.2168 18.5293 67.2734 18.7344 67.3477 18.9062V19H66.2168C66.1621 18.875 66.1191 18.709 66.0879 18.502C66.0566 18.291 66.041 18.0957 66.041 17.916ZM66.2285 15.1562L66.2402 15.918H65.1445C64.8359 15.918 64.5605 15.9434 64.3184 15.9941C64.0762 16.041 63.873 16.1133 63.709 16.2109C63.5449 16.3086 63.4199 16.4316 63.334 16.5801C63.248 16.7246 63.2051 16.8945 63.2051 17.0898C63.2051 17.2891 63.25 17.4707 63.3398 17.6348C63.4297 17.7988 63.5645 17.9297 63.7441 18.0273C63.9277 18.1211 64.1523 18.168 64.418 18.168C64.75 18.168 65.043 18.0977 65.2969 17.957C65.5508 17.8164 65.752 17.6445 65.9004 17.4414C66.0527 17.2383 66.1348 17.041 66.1465 16.8496L66.6094 17.3711C66.582 17.5352 66.5078 17.7168 66.3867 17.916C66.2656 18.1152 66.1035 18.3066 65.9004 18.4902C65.7012 18.6699 65.4629 18.8203 65.1855 18.9414C64.9121 19.0586 64.6035 19.1172 64.2598 19.1172C63.8301 19.1172 63.4531 19.0332 63.1289 18.8652C62.8086 18.6973 62.5586 18.4727 62.3789 18.1914C62.2031 17.9062 62.1152 17.5879 62.1152 17.2363C62.1152 16.8965 62.1816 16.5977 62.3145 16.3398C62.4473 16.0781 62.6387 15.8613 62.8887 15.6895C63.1387 15.5137 63.4395 15.3809 63.791 15.291C64.1426 15.2012 64.5352 15.1562 64.9688 15.1562H66.2285ZM69.9141 14.0137V19H68.8301V12.6602H69.8555L69.9141 14.0137ZM69.6562 15.5898L69.2051 15.5723C69.209 15.1387 69.2734 14.7383 69.3984 14.3711C69.5234 14 69.6992 13.6777 69.9258 13.4043C70.1523 13.1309 70.4219 12.9199 70.7344 12.7715C71.0508 12.6191 71.4004 12.543 71.7832 12.543C72.0957 12.543 72.377 12.5859 72.627 12.6719C72.877 12.7539 73.0898 12.8867 73.2656 13.0703C73.4453 13.2539 73.582 13.4922 73.6758 13.7852C73.7695 14.0742 73.8164 14.4277 73.8164 14.8457V19H72.7266V14.834C72.7266 14.502 72.6777 14.2363 72.5801 14.0371C72.4824 13.834 72.3398 13.6875 72.1523 13.5977C71.9648 13.5039 71.7344 13.457 71.4609 13.457C71.1914 13.457 70.9453 13.5137 70.7227 13.627C70.5039 13.7402 70.3145 13.8965 70.1543 14.0957C69.998 14.2949 69.875 14.5234 69.7852 14.7812C69.6992 15.0352 69.6562 15.3047 69.6562 15.5898ZM78.1172 12.6602V13.4922H74.6895V12.6602H78.1172ZM75.8496 11.1191H76.9336V17.4297C76.9336 17.6445 76.9668 17.8066 77.0332 17.916C77.0996 18.0254 77.1855 18.0977 77.291 18.1328C77.3965 18.168 77.5098 18.1855 77.6309 18.1855C77.7207 18.1855 77.8145 18.1777 77.9121 18.1621C78.0137 18.1426 78.0898 18.127 78.1406 18.1152L78.1465 19C78.0605 19.0273 77.9473 19.0527 77.8066 19.0762C77.6699 19.1035 77.5039 19.1172 77.3086 19.1172C77.043 19.1172 76.7988 19.0645 76.5762 18.959C76.3535 18.8535 76.1758 18.6777 76.043 18.4316C75.9141 18.1816 75.8496 17.8457 75.8496 17.4238V11.1191ZM82.0195 19.1172C81.5781 19.1172 81.1777 19.043 80.8184 18.8945C80.4629 18.7422 80.1562 18.5293 79.8984 18.2559C79.6445 17.9824 79.4492 17.6582 79.3125 17.2832C79.1758 16.9082 79.1074 16.498 79.1074 16.0527V15.8066C79.1074 15.291 79.1836 14.832 79.3359 14.4297C79.4883 14.0234 79.6953 13.6797 79.957 13.3984C80.2188 13.1172 80.5156 12.9043 80.8477 12.7598C81.1797 12.6152 81.5234 12.543 81.8789 12.543C82.332 12.543 82.7227 12.6211 83.0508 12.7773C83.3828 12.9336 83.6543 13.1523 83.8652 13.4336C84.0762 13.7109 84.2324 14.0391 84.334 14.418C84.4355 14.793 84.4863 15.2031 84.4863 15.6484V16.1348H79.752V15.25H83.4023V15.168C83.3867 14.8867 83.3281 14.6133 83.2266 14.3477C83.1289 14.082 82.9727 13.8633 82.7578 13.6914C82.543 13.5195 82.25 13.4336 81.8789 13.4336C81.6328 13.4336 81.4062 13.4863 81.1992 13.5918C80.9922 13.6934 80.8145 13.8457 80.666 14.0488C80.5176 14.252 80.4023 14.5 80.3203 14.793C80.2383 15.0859 80.1973 15.4238 80.1973 15.8066V16.0527C80.1973 16.3535 80.2383 16.6367 80.3203 16.9023C80.4062 17.1641 80.5293 17.3945 80.6895 17.5938C80.8535 17.793 81.0508 17.9492 81.2812 18.0625C81.5156 18.1758 81.7812 18.2324 82.0781 18.2324C82.4609 18.2324 82.7852 18.1543 83.0508 17.998C83.3164 17.8418 83.5488 17.6328 83.748 17.3711L84.4043 17.8926C84.2676 18.0996 84.0938 18.2969 83.8828 18.4844C83.6719 18.6719 83.4121 18.8242 83.1035 18.9414C82.7988 19.0586 82.4375 19.1172 82.0195 19.1172ZM86.8359 14.0137V19H85.752V12.6602H86.7773L86.8359 14.0137ZM86.5781 15.5898L86.127 15.5723C86.1309 15.1387 86.1953 14.7383 86.3203 14.3711C86.4453 14 86.6211 13.6777 86.8477 13.4043C87.0742 13.1309 87.3438 12.9199 87.6562 12.7715C87.9727 12.6191 88.3223 12.543 88.7051 12.543C89.0176 12.543 89.2988 12.5859 89.5488 12.6719C89.7988 12.7539 90.0117 12.8867 90.1875 13.0703C90.3672 13.2539 90.5039 13.4922 90.5977 13.7852C90.6914 14.0742 90.7383 14.4277 90.7383 14.8457V19H89.6484V14.834C89.6484 14.502 89.5996 14.2363 89.502 14.0371C89.4043 13.834 89.2617 13.6875 89.0742 13.5977C88.8867 13.5039 88.6562 13.457 88.3828 13.457C88.1133 13.457 87.8672 13.5137 87.6445 13.627C87.4258 13.7402 87.2363 13.8965 87.0762 14.0957C86.9199 14.2949 86.7969 14.5234 86.707 14.7812C86.6211 15.0352 86.5781 15.3047 86.5781 15.5898ZM93.5625 12.6602V19H92.4727V12.6602H93.5625ZM92.3906 10.9785C92.3906 10.8027 92.4434 10.6543 92.5488 10.5332C92.6582 10.4121 92.8184 10.3516 93.0293 10.3516C93.2363 10.3516 93.3945 10.4121 93.5039 10.5332C93.6172 10.6543 93.6738 10.8027 93.6738 10.9785C93.6738 11.1465 93.6172 11.291 93.5039 11.4121C93.3945 11.5293 93.2363 11.5879 93.0293 11.5879C92.8184 11.5879 92.6582 11.5293 92.5488 11.4121C92.4434 11.291 92.3906 11.1465 92.3906 10.9785ZM96.3809 13.9199V19H95.291V12.6602H96.3223L96.3809 13.9199ZM96.1582 15.5898L95.6543 15.5723C95.6582 15.1387 95.7148 14.7383 95.8242 14.3711C95.9336 14 96.0957 13.6777 96.3105 13.4043C96.5254 13.1309 96.793 12.9199 97.1133 12.7715C97.4336 12.6191 97.8047 12.543 98.2266 12.543C98.5234 12.543 98.7969 12.5859 99.0469 12.6719C99.2969 12.7539 99.5137 12.8848 99.6973 13.0645C99.8809 13.2441 100.023 13.4746 100.125 13.7559C100.227 14.0371 100.277 14.377 100.277 14.7754V19H99.1934V14.8281C99.1934 14.4961 99.1367 14.2305 99.0234 14.0312C98.9141 13.832 98.7578 13.6875 98.5547 13.5977C98.3516 13.5039 98.1133 13.457 97.8398 13.457C97.5195 13.457 97.252 13.5137 97.0371 13.627C96.8223 13.7402 96.6504 13.8965 96.5215 14.0957C96.3926 14.2949 96.2988 14.5234 96.2402 14.7812C96.1855 15.0352 96.1582 15.3047 96.1582 15.5898ZM100.266 14.9922L99.5391 15.2148C99.543 14.8672 99.5996 14.5332 99.709 14.2129C99.8223 13.8926 99.9844 13.6074 100.195 13.3574C100.41 13.1074 100.674 12.9102 100.986 12.7656C101.299 12.6172 101.656 12.543 102.059 12.543C102.398 12.543 102.699 12.5879 102.961 12.6777C103.227 12.7676 103.449 12.9062 103.629 13.0938C103.812 13.2773 103.951 13.5137 104.045 13.8027C104.139 14.0918 104.186 14.4355 104.186 14.834V19H103.096V14.8223C103.096 14.4668 103.039 14.1914 102.926 13.9961C102.816 13.7969 102.66 13.6582 102.457 13.5801C102.258 13.498 102.02 13.457 101.742 13.457C101.504 13.457 101.293 13.498 101.109 13.5801C100.926 13.6621 100.771 13.7754 100.646 13.9199C100.521 14.0605 100.426 14.2227 100.359 14.4062C100.297 14.5898 100.266 14.7852 100.266 14.9922ZM107.004 12.6602V19H105.914V12.6602H107.004ZM105.832 10.9785C105.832 10.8027 105.885 10.6543 105.99 10.5332C106.1 10.4121 106.26 10.3516 106.471 10.3516C106.678 10.3516 106.836 10.4121 106.945 10.5332C107.059 10.6543 107.115 10.8027 107.115 10.9785C107.115 11.1465 107.059 11.291 106.945 11.4121C106.836 11.5293 106.678 11.5879 106.471 11.5879C106.26 11.5879 106.1 11.5293 105.99 11.4121C105.885 11.291 105.832 11.1465 105.832 10.9785ZM111.375 19.1172C110.934 19.1172 110.533 19.043 110.174 18.8945C109.818 18.7422 109.512 18.5293 109.254 18.2559C109 17.9824 108.805 17.6582 108.668 17.2832C108.531 16.9082 108.463 16.498 108.463 16.0527V15.8066C108.463 15.291 108.539 14.832 108.691 14.4297C108.844 14.0234 109.051 13.6797 109.312 13.3984C109.574 13.1172 109.871 12.9043 110.203 12.7598C110.535 12.6152 110.879 12.543 111.234 12.543C111.688 12.543 112.078 12.6211 112.406 12.7773C112.738 12.9336 113.01 13.1523 113.221 13.4336C113.432 13.7109 113.588 14.0391 113.689 14.418C113.791 14.793 113.842 15.2031 113.842 15.6484V16.1348H109.107V15.25H112.758V15.168C112.742 14.8867 112.684 14.6133 112.582 14.3477C112.484 14.082 112.328 13.8633 112.113 13.6914C111.898 13.5195 111.605 13.4336 111.234 13.4336C110.988 13.4336 110.762 13.4863 110.555 13.5918C110.348 13.6934 110.17 13.8457 110.021 14.0488C109.873 14.252 109.758 14.5 109.676 14.793C109.594 15.0859 109.553 15.4238 109.553 15.8066V16.0527C109.553 16.3535 109.594 16.6367 109.676 16.9023C109.762 17.1641 109.885 17.3945 110.045 17.5938C110.209 17.793 110.406 17.9492 110.637 18.0625C110.871 18.1758 111.137 18.2324 111.434 18.2324C111.816 18.2324 112.141 18.1543 112.406 17.998C112.672 17.8418 112.904 17.6328 113.104 17.3711L113.76 17.8926C113.623 18.0996 113.449 18.2969 113.238 18.4844C113.027 18.6719 112.768 18.8242 112.459 18.9414C112.154 19.0586 111.793 19.1172 111.375 19.1172ZM116.191 14.0137V19H115.107V12.6602H116.133L116.191 14.0137ZM115.934 15.5898L115.482 15.5723C115.486 15.1387 115.551 14.7383 115.676 14.3711C115.801 14 115.977 13.6777 116.203 13.4043C116.43 13.1309 116.699 12.9199 117.012 12.7715C117.328 12.6191 117.678 12.543 118.061 12.543C118.373 12.543 118.654 12.5859 118.904 12.6719C119.154 12.7539 119.367 12.8867 119.543 13.0703C119.723 13.2539 119.859 13.4922 119.953 13.7852C120.047 14.0742 120.094 14.4277 120.094 14.8457V19H119.004V14.834C119.004 14.502 118.955 14.2363 118.857 14.0371C118.76 13.834 118.617 13.6875 118.43 13.5977C118.242 13.5039 118.012 13.457 117.738 13.457C117.469 13.457 117.223 13.5137 117 13.627C116.781 13.7402 116.592 13.8965 116.432 14.0957C116.275 14.2949 116.152 14.5234 116.062 14.7812C115.977 15.0352 115.934 15.3047 115.934 15.5898ZM124.395 12.6602V13.4922H120.967V12.6602H124.395ZM122.127 11.1191H123.211V17.4297C123.211 17.6445 123.244 17.8066 123.311 17.916C123.377 18.0254 123.463 18.0977 123.568 18.1328C123.674 18.168 123.787 18.1855 123.908 18.1855C123.998 18.1855 124.092 18.1777 124.189 18.1621C124.291 18.1426 124.367 18.127 124.418 18.1152L124.424 19C124.338 19.0273 124.225 19.0527 124.084 19.0762C123.947 19.1035 123.781 19.1172 123.586 19.1172C123.32 19.1172 123.076 19.0645 122.854 18.959C122.631 18.8535 122.453 18.6777 122.32 18.4316C122.191 18.1816 122.127 17.8457 122.127 17.4238V11.1191ZM125.262 15.9004V15.7656C125.262 15.3086 125.328 14.8848 125.461 14.4941C125.594 14.0996 125.785 13.7578 126.035 13.4688C126.285 13.1758 126.588 12.9492 126.943 12.7891C127.299 12.625 127.697 12.543 128.139 12.543C128.584 12.543 128.984 12.625 129.34 12.7891C129.699 12.9492 130.004 13.1758 130.254 13.4688C130.508 13.7578 130.701 14.0996 130.834 14.4941C130.967 14.8848 131.033 15.3086 131.033 15.7656V15.9004C131.033 16.3574 130.967 16.7812 130.834 17.1719C130.701 17.5625 130.508 17.9043 130.254 18.1973C130.004 18.4863 129.701 18.7129 129.346 18.877C128.994 19.0371 128.596 19.1172 128.15 19.1172C127.705 19.1172 127.305 19.0371 126.949 18.877C126.594 18.7129 126.289 18.4863 126.035 18.1973C125.785 17.9043 125.594 17.5625 125.461 17.1719C125.328 16.7812 125.262 16.3574 125.262 15.9004ZM126.346 15.7656V15.9004C126.346 16.2168 126.383 16.5156 126.457 16.7969C126.531 17.0742 126.643 17.3203 126.791 17.5352C126.943 17.75 127.133 17.9199 127.359 18.0449C127.586 18.166 127.85 18.2266 128.15 18.2266C128.447 18.2266 128.707 18.166 128.93 18.0449C129.156 17.9199 129.344 17.75 129.492 17.5352C129.641 17.3203 129.752 17.0742 129.826 16.7969C129.904 16.5156 129.943 16.2168 129.943 15.9004V15.7656C129.943 15.4531 129.904 15.1582 129.826 14.8809C129.752 14.5996 129.639 14.3516 129.486 14.1367C129.338 13.918 129.15 13.7461 128.924 13.6211C128.701 13.4961 128.439 13.4336 128.139 13.4336C127.842 13.4336 127.58 13.4961 127.354 13.6211C127.131 13.7461 126.943 13.918 126.791 14.1367C126.643 14.3516 126.531 14.5996 126.457 14.8809C126.383 15.1582 126.346 15.4531 126.346 15.7656ZM139.365 17.7695V10H140.455V19H139.459L139.365 17.7695ZM135.1 15.9004V15.7773C135.1 15.293 135.158 14.8535 135.275 14.459C135.396 14.0605 135.566 13.7188 135.785 13.4336C136.008 13.1484 136.271 12.9297 136.576 12.7773C136.885 12.6211 137.229 12.543 137.607 12.543C138.006 12.543 138.354 12.6133 138.65 12.7539C138.951 12.8906 139.205 13.0918 139.412 13.3574C139.623 13.6191 139.789 13.9355 139.91 14.3066C140.031 14.6777 140.115 15.0977 140.162 15.5664V16.1055C140.119 16.5703 140.035 16.9883 139.91 17.3594C139.789 17.7305 139.623 18.0469 139.412 18.3086C139.205 18.5703 138.951 18.7715 138.65 18.9121C138.35 19.0488 137.998 19.1172 137.596 19.1172C137.225 19.1172 136.885 19.0371 136.576 18.877C136.271 18.7168 136.008 18.4922 135.785 18.2031C135.566 17.9141 135.396 17.5742 135.275 17.1836C135.158 16.7891 135.1 16.3613 135.1 15.9004ZM136.189 15.7773V15.9004C136.189 16.2168 136.221 16.5137 136.283 16.791C136.35 17.0684 136.451 17.3125 136.588 17.5234C136.725 17.7344 136.898 17.9004 137.109 18.0215C137.32 18.1387 137.572 18.1973 137.865 18.1973C138.225 18.1973 138.52 18.1211 138.75 17.9688C138.984 17.8164 139.172 17.6152 139.312 17.3652C139.453 17.1152 139.562 16.8438 139.641 16.5508V15.1387C139.594 14.9238 139.525 14.7168 139.436 14.5176C139.35 14.3145 139.236 14.1348 139.096 13.9785C138.959 13.8184 138.789 13.6914 138.586 13.5977C138.387 13.5039 138.15 13.457 137.877 13.457C137.58 13.457 137.324 13.5195 137.109 13.6445C136.898 13.7656 136.725 13.9336 136.588 14.1484C136.451 14.3594 136.35 14.6055 136.283 14.8867C136.221 15.1641 136.189 15.4609 136.189 15.7773ZM144.773 19.1172C144.332 19.1172 143.932 19.043 143.572 18.8945C143.217 18.7422 142.91 18.5293 142.652 18.2559C142.398 17.9824 142.203 17.6582 142.066 17.2832C141.93 16.9082 141.861 16.498 141.861 16.0527V15.8066C141.861 15.291 141.938 14.832 142.09 14.4297C142.242 14.0234 142.449 13.6797 142.711 13.3984C142.973 13.1172 143.27 12.9043 143.602 12.7598C143.934 12.6152 144.277 12.543 144.633 12.543C145.086 12.543 145.477 12.6211 145.805 12.7773C146.137 12.9336 146.408 13.1523 146.619 13.4336C146.83 13.7109 146.986 14.0391 147.088 14.418C147.189 14.793 147.24 15.2031 147.24 15.6484V16.1348H142.506V15.25H146.156V15.168C146.141 14.8867 146.082 14.6133 145.98 14.3477C145.883 14.082 145.727 13.8633 145.512 13.6914C145.297 13.5195 145.004 13.4336 144.633 13.4336C144.387 13.4336 144.16 13.4863 143.953 13.5918C143.746 13.6934 143.568 13.8457 143.42 14.0488C143.271 14.252 143.156 14.5 143.074 14.793C142.992 15.0859 142.951 15.4238 142.951 15.8066V16.0527C142.951 16.3535 142.992 16.6367 143.074 16.9023C143.16 17.1641 143.283 17.3945 143.443 17.5938C143.607 17.793 143.805 17.9492 144.035 18.0625C144.27 18.1758 144.535 18.2324 144.832 18.2324C145.215 18.2324 145.539 18.1543 145.805 17.998C146.07 17.8418 146.303 17.6328 146.502 17.3711L147.158 17.8926C147.021 18.0996 146.848 18.2969 146.637 18.4844C146.426 18.6719 146.166 18.8242 145.857 18.9414C145.553 19.0586 145.191 19.1172 144.773 19.1172ZM156.193 16.8438C156.193 16.6445 156.162 16.4688 156.1 16.3164C156.041 16.1602 155.936 16.0195 155.783 15.8945C155.635 15.7695 155.428 15.6504 155.162 15.5371C154.9 15.4238 154.568 15.3086 154.166 15.1914C153.744 15.0664 153.363 14.9277 153.023 14.7754C152.684 14.6191 152.393 14.4414 152.15 14.2422C151.908 14.043 151.723 13.8145 151.594 13.5566C151.465 13.2988 151.4 13.0039 151.4 12.6719C151.4 12.3398 151.469 12.0332 151.605 11.752C151.742 11.4707 151.938 11.2266 152.191 11.0195C152.449 10.8086 152.756 10.6445 153.111 10.5273C153.467 10.4102 153.863 10.3516 154.301 10.3516C154.941 10.3516 155.484 10.4746 155.93 10.7207C156.379 10.9629 156.721 11.2812 156.955 11.6758C157.189 12.0664 157.307 12.4844 157.307 12.9297H156.182C156.182 12.6094 156.113 12.3262 155.977 12.0801C155.84 11.8301 155.633 11.6348 155.355 11.4941C155.078 11.3496 154.727 11.2773 154.301 11.2773C153.898 11.2773 153.566 11.3379 153.305 11.459C153.043 11.5801 152.848 11.7441 152.719 11.9512C152.594 12.1582 152.531 12.3945 152.531 12.6602C152.531 12.8398 152.568 13.0039 152.643 13.1523C152.721 13.2969 152.84 13.4316 153 13.5566C153.164 13.6816 153.371 13.7969 153.621 13.9023C153.875 14.0078 154.178 14.1094 154.529 14.207C155.014 14.3438 155.432 14.4961 155.783 14.6641C156.135 14.832 156.424 15.0215 156.65 15.2324C156.881 15.4395 157.051 15.6758 157.16 15.9414C157.273 16.2031 157.33 16.5 157.33 16.832C157.33 17.1797 157.26 17.4941 157.119 17.7754C156.979 18.0566 156.777 18.2969 156.516 18.4961C156.254 18.6953 155.939 18.8496 155.572 18.959C155.209 19.0645 154.803 19.1172 154.354 19.1172C153.959 19.1172 153.57 19.0625 153.188 18.9531C152.809 18.8438 152.463 18.6797 152.15 18.4609C151.842 18.2422 151.594 17.9727 151.406 17.6523C151.223 17.3281 151.131 16.9531 151.131 16.5273H152.256C152.256 16.8203 152.312 17.0723 152.426 17.2832C152.539 17.4902 152.693 17.6621 152.889 17.7988C153.088 17.9355 153.312 18.0371 153.562 18.1035C153.816 18.166 154.08 18.1973 154.354 18.1973C154.748 18.1973 155.082 18.1426 155.355 18.0332C155.629 17.9238 155.836 17.7676 155.977 17.5645C156.121 17.3613 156.193 17.1211 156.193 16.8438ZM159.785 12.6602V19H158.695V12.6602H159.785ZM158.613 10.9785C158.613 10.8027 158.666 10.6543 158.771 10.5332C158.881 10.4121 159.041 10.3516 159.252 10.3516C159.459 10.3516 159.617 10.4121 159.727 10.5332C159.84 10.6543 159.896 10.8027 159.896 10.9785C159.896 11.1465 159.84 11.291 159.727 11.4121C159.617 11.5293 159.459 11.5879 159.252 11.5879C159.041 11.5879 158.881 11.5293 158.771 11.4121C158.666 11.291 158.613 11.1465 158.613 10.9785ZM165.217 17.3184C165.217 17.1621 165.182 17.0176 165.111 16.8848C165.045 16.748 164.906 16.625 164.695 16.5156C164.488 16.4023 164.176 16.3047 163.758 16.2227C163.406 16.1484 163.088 16.0605 162.803 15.959C162.521 15.8574 162.281 15.7344 162.082 15.5898C161.887 15.4453 161.736 15.2754 161.631 15.0801C161.525 14.8848 161.473 14.6562 161.473 14.3945C161.473 14.1445 161.527 13.9082 161.637 13.6855C161.75 13.4629 161.908 13.2656 162.111 13.0938C162.318 12.9219 162.566 12.7871 162.855 12.6895C163.145 12.5918 163.467 12.543 163.822 12.543C164.33 12.543 164.764 12.6328 165.123 12.8125C165.482 12.9922 165.758 13.2324 165.949 13.5332C166.141 13.8301 166.236 14.1602 166.236 14.5234H165.152C165.152 14.3477 165.1 14.1777 164.994 14.0137C164.893 13.8457 164.742 13.707 164.543 13.5977C164.348 13.4883 164.107 13.4336 163.822 13.4336C163.521 13.4336 163.277 13.4805 163.09 13.5742C162.906 13.6641 162.771 13.7793 162.686 13.9199C162.604 14.0605 162.562 14.209 162.562 14.3652C162.562 14.4824 162.582 14.5879 162.621 14.6816C162.664 14.7715 162.738 14.8555 162.844 14.9336C162.949 15.0078 163.098 15.0781 163.289 15.1445C163.48 15.2109 163.725 15.2773 164.021 15.3438C164.541 15.4609 164.969 15.6016 165.305 15.7656C165.641 15.9297 165.891 16.1309 166.055 16.3691C166.219 16.6074 166.301 16.8965 166.301 17.2363C166.301 17.5137 166.242 17.7676 166.125 17.998C166.012 18.2285 165.846 18.4277 165.627 18.5957C165.412 18.7598 165.154 18.8887 164.854 18.9824C164.557 19.0723 164.223 19.1172 163.852 19.1172C163.293 19.1172 162.82 19.0176 162.434 18.8184C162.047 18.6191 161.754 18.3613 161.555 18.0449C161.355 17.7285 161.256 17.3945 161.256 17.043H162.346C162.361 17.3398 162.447 17.5762 162.604 17.752C162.76 17.9238 162.951 18.0469 163.178 18.1211C163.404 18.1914 163.629 18.2266 163.852 18.2266C164.148 18.2266 164.396 18.1875 164.596 18.1094C164.799 18.0312 164.953 17.9238 165.059 17.7871C165.164 17.6504 165.217 17.4941 165.217 17.3184ZM170.379 12.6602V13.4922H166.951V12.6602H170.379ZM168.111 11.1191H169.195V17.4297C169.195 17.6445 169.229 17.8066 169.295 17.916C169.361 18.0254 169.447 18.0977 169.553 18.1328C169.658 18.168 169.771 18.1855 169.893 18.1855C169.982 18.1855 170.076 18.1777 170.174 18.1621C170.275 18.1426 170.352 18.127 170.402 18.1152L170.408 19C170.322 19.0273 170.209 19.0527 170.068 19.0762C169.932 19.1035 169.766 19.1172 169.57 19.1172C169.305 19.1172 169.061 19.0645 168.838 18.959C168.615 18.8535 168.438 18.6777 168.305 18.4316C168.176 18.1816 168.111 17.8457 168.111 17.4238V11.1191ZM174.281 19.1172C173.84 19.1172 173.439 19.043 173.08 18.8945C172.725 18.7422 172.418 18.5293 172.16 18.2559C171.906 17.9824 171.711 17.6582 171.574 17.2832C171.438 16.9082 171.369 16.498 171.369 16.0527V15.8066C171.369 15.291 171.445 14.832 171.598 14.4297C171.75 14.0234 171.957 13.6797 172.219 13.3984C172.48 13.1172 172.777 12.9043 173.109 12.7598C173.441 12.6152 173.785 12.543 174.141 12.543C174.594 12.543 174.984 12.6211 175.312 12.7773C175.645 12.9336 175.916 13.1523 176.127 13.4336C176.338 13.7109 176.494 14.0391 176.596 14.418C176.697 14.793 176.748 15.2031 176.748 15.6484V16.1348H172.014V15.25H175.664V15.168C175.648 14.8867 175.59 14.6133 175.488 14.3477C175.391 14.082 175.234 13.8633 175.02 13.6914C174.805 13.5195 174.512 13.4336 174.141 13.4336C173.895 13.4336 173.668 13.4863 173.461 13.5918C173.254 13.6934 173.076 13.8457 172.928 14.0488C172.779 14.252 172.664 14.5 172.582 14.793C172.5 15.0859 172.459 15.4238 172.459 15.8066V16.0527C172.459 16.3535 172.5 16.6367 172.582 16.9023C172.668 17.1641 172.791 17.3945 172.951 17.5938C173.115 17.793 173.312 17.9492 173.543 18.0625C173.777 18.1758 174.043 18.2324 174.34 18.2324C174.723 18.2324 175.047 18.1543 175.312 17.998C175.578 17.8418 175.811 17.6328 176.01 17.3711L176.666 17.8926C176.529 18.0996 176.355 18.2969 176.145 18.4844C175.934 18.6719 175.674 18.8242 175.365 18.9414C175.061 19.0586 174.699 19.1172 174.281 19.1172ZM179.092 13.9199V19H178.002V12.6602H179.033L179.092 13.9199ZM178.869 15.5898L178.365 15.5723C178.369 15.1387 178.426 14.7383 178.535 14.3711C178.645 14 178.807 13.6777 179.021 13.4043C179.236 13.1309 179.504 12.9199 179.824 12.7715C180.145 12.6191 180.516 12.543 180.938 12.543C181.234 12.543 181.508 12.5859 181.758 12.6719C182.008 12.7539 182.225 12.8848 182.408 13.0645C182.592 13.2441 182.734 13.4746 182.836 13.7559C182.938 14.0371 182.988 14.377 182.988 14.7754V19H181.904V14.8281C181.904 14.4961 181.848 14.2305 181.734 14.0312C181.625 13.832 181.469 13.6875 181.266 13.5977C181.062 13.5039 180.824 13.457 180.551 13.457C180.23 13.457 179.963 13.5137 179.748 13.627C179.533 13.7402 179.361 13.8965 179.232 14.0957C179.104 14.2949 179.01 14.5234 178.951 14.7812C178.896 15.0352 178.869 15.3047 178.869 15.5898ZM182.977 14.9922L182.25 15.2148C182.254 14.8672 182.311 14.5332 182.42 14.2129C182.533 13.8926 182.695 13.6074 182.906 13.3574C183.121 13.1074 183.385 12.9102 183.697 12.7656C184.01 12.6172 184.367 12.543 184.77 12.543C185.109 12.543 185.41 12.5879 185.672 12.6777C185.938 12.7676 186.16 12.9062 186.34 13.0938C186.523 13.2773 186.662 13.5137 186.756 13.8027C186.85 14.0918 186.896 14.4355 186.896 14.834V19H185.807V14.8223C185.807 14.4668 185.75 14.1914 185.637 13.9961C185.527 13.7969 185.371 13.6582 185.168 13.5801C184.969 13.498 184.73 13.457 184.453 13.457C184.215 13.457 184.004 13.498 183.82 13.5801C183.637 13.6621 183.482 13.7754 183.357 13.9199C183.232 14.0605 183.137 14.2227 183.07 14.4062C183.008 14.5898 182.977 14.7852 182.977 14.9922ZM192.275 17.916V14.6523C192.275 14.4023 192.225 14.1855 192.123 14.002C192.025 13.8145 191.877 13.6699 191.678 13.5684C191.479 13.4668 191.232 13.416 190.939 13.416C190.666 13.416 190.426 13.4629 190.219 13.5566C190.016 13.6504 189.855 13.7734 189.738 13.9258C189.625 14.0781 189.568 14.2422 189.568 14.418H188.484C188.484 14.1914 188.543 13.9668 188.66 13.7441C188.777 13.5215 188.945 13.3203 189.164 13.1406C189.387 12.957 189.652 12.8125 189.961 12.707C190.273 12.5977 190.621 12.543 191.004 12.543C191.465 12.543 191.871 12.6211 192.223 12.7773C192.578 12.9336 192.855 13.1699 193.055 13.4863C193.258 13.7988 193.359 14.1914 193.359 14.6641V17.6172C193.359 17.8281 193.377 18.0527 193.412 18.291C193.451 18.5293 193.508 18.7344 193.582 18.9062V19H192.451C192.396 18.875 192.354 18.709 192.322 18.502C192.291 18.291 192.275 18.0957 192.275 17.916ZM192.463 15.1562L192.475 15.918H191.379C191.07 15.918 190.795 15.9434 190.553 15.9941C190.311 16.041 190.107 16.1133 189.943 16.2109C189.779 16.3086 189.654 16.4316 189.568 16.5801C189.482 16.7246 189.439 16.8945 189.439 17.0898C189.439 17.2891 189.484 17.4707 189.574 17.6348C189.664 17.7988 189.799 17.9297 189.979 18.0273C190.162 18.1211 190.387 18.168 190.652 18.168C190.984 18.168 191.277 18.0977 191.531 17.957C191.785 17.8164 191.986 17.6445 192.135 17.4414C192.287 17.2383 192.369 17.041 192.381 16.8496L192.844 17.3711C192.816 17.5352 192.742 17.7168 192.621 17.916C192.5 18.1152 192.338 18.3066 192.135 18.4902C191.936 18.6699 191.697 18.8203 191.42 18.9414C191.146 19.0586 190.838 19.1172 190.494 19.1172C190.064 19.1172 189.688 19.0332 189.363 18.8652C189.043 18.6973 188.793 18.4727 188.613 18.1914C188.438 17.9062 188.35 17.5879 188.35 17.2363C188.35 16.8965 188.416 16.5977 188.549 16.3398C188.682 16.0781 188.873 15.8613 189.123 15.6895C189.373 15.5137 189.674 15.3809 190.025 15.291C190.377 15.2012 190.77 15.1562 191.203 15.1562H192.463ZM198.756 17.3184C198.756 17.1621 198.721 17.0176 198.65 16.8848C198.584 16.748 198.445 16.625 198.234 16.5156C198.027 16.4023 197.715 16.3047 197.297 16.2227C196.945 16.1484 196.627 16.0605 196.342 15.959C196.061 15.8574 195.82 15.7344 195.621 15.5898C195.426 15.4453 195.275 15.2754 195.17 15.0801C195.064 14.8848 195.012 14.6562 195.012 14.3945C195.012 14.1445 195.066 13.9082 195.176 13.6855C195.289 13.4629 195.447 13.2656 195.65 13.0938C195.857 12.9219 196.105 12.7871 196.395 12.6895C196.684 12.5918 197.006 12.543 197.361 12.543C197.869 12.543 198.303 12.6328 198.662 12.8125C199.021 12.9922 199.297 13.2324 199.488 13.5332C199.68 13.8301 199.775 14.1602 199.775 14.5234H198.691C198.691 14.3477 198.639 14.1777 198.533 14.0137C198.432 13.8457 198.281 13.707 198.082 13.5977C197.887 13.4883 197.646 13.4336 197.361 13.4336C197.061 13.4336 196.816 13.4805 196.629 13.5742C196.445 13.6641 196.311 13.7793 196.225 13.9199C196.143 14.0605 196.102 14.209 196.102 14.3652C196.102 14.4824 196.121 14.5879 196.16 14.6816C196.203 14.7715 196.277 14.8555 196.383 14.9336C196.488 15.0078 196.637 15.0781 196.828 15.1445C197.02 15.2109 197.264 15.2773 197.561 15.3438C198.08 15.4609 198.508 15.6016 198.844 15.7656C199.18 15.9297 199.43 16.1309 199.594 16.3691C199.758 16.6074 199.84 16.8965 199.84 17.2363C199.84 17.5137 199.781 17.7676 199.664 17.998C199.551 18.2285 199.385 18.4277 199.166 18.5957C198.951 18.7598 198.693 18.8887 198.393 18.9824C198.096 19.0723 197.762 19.1172 197.391 19.1172C196.832 19.1172 196.359 19.0176 195.973 18.8184C195.586 18.6191 195.293 18.3613 195.094 18.0449C194.895 17.7285 194.795 17.3945 194.795 17.043H195.885C195.9 17.3398 195.986 17.5762 196.143 17.752C196.299 17.9238 196.49 18.0469 196.717 18.1211C196.943 18.1914 197.168 18.2266 197.391 18.2266C197.688 18.2266 197.936 18.1875 198.135 18.1094C198.338 18.0312 198.492 17.9238 198.598 17.7871C198.703 17.6504 198.756 17.4941 198.756 17.3184ZM56.5371 30.8438C56.5371 30.6445 56.5059 30.4688 56.4434 30.3164C56.3848 30.1602 56.2793 30.0195 56.127 29.8945C55.9785 29.7695 55.7715 29.6504 55.5059 29.5371C55.2441 29.4238 54.9121 29.3086 54.5098 29.1914C54.0879 29.0664 53.707 28.9277 53.3672 28.7754C53.0273 28.6191 52.7363 28.4414 52.4941 28.2422C52.252 28.043 52.0664 27.8145 51.9375 27.5566C51.8086 27.2988 51.7441 27.0039 51.7441 26.6719C51.7441 26.3398 51.8125 26.0332 51.9492 25.752C52.0859 25.4707 52.2812 25.2266 52.5352 25.0195C52.793 24.8086 53.0996 24.6445 53.4551 24.5273C53.8105 24.4102 54.207 24.3516 54.6445 24.3516C55.2852 24.3516 55.8281 24.4746 56.2734 24.7207C56.7227 24.9629 57.0645 25.2812 57.2988 25.6758C57.5332 26.0664 57.6504 26.4844 57.6504 26.9297H56.5254C56.5254 26.6094 56.457 26.3262 56.3203 26.0801C56.1836 25.8301 55.9766 25.6348 55.6992 25.4941C55.4219 25.3496 55.0703 25.2773 54.6445 25.2773C54.2422 25.2773 53.9102 25.3379 53.6484 25.459C53.3867 25.5801 53.1914 25.7441 53.0625 25.9512C52.9375 26.1582 52.875 26.3945 52.875 26.6602C52.875 26.8398 52.9121 27.0039 52.9863 27.1523C53.0645 27.2969 53.1836 27.4316 53.3438 27.5566C53.5078 27.6816 53.7148 27.7969 53.9648 27.9023C54.2188 28.0078 54.5215 28.1094 54.873 28.207C55.3574 28.3438 55.7754 28.4961 56.127 28.6641C56.4785 28.832 56.7676 29.0215 56.9941 29.2324C57.2246 29.4395 57.3945 29.6758 57.5039 29.9414C57.6172 30.2031 57.6738 30.5 57.6738 30.832C57.6738 31.1797 57.6035 31.4941 57.4629 31.7754C57.3223 32.0566 57.1211 32.2969 56.8594 32.4961C56.5977 32.6953 56.2832 32.8496 55.916 32.959C55.5527 33.0645 55.1465 33.1172 54.6973 33.1172C54.3027 33.1172 53.9141 33.0625 53.5312 32.9531C53.1523 32.8438 52.8066 32.6797 52.4941 32.4609C52.1855 32.2422 51.9375 31.9727 51.75 31.6523C51.5664 31.3281 51.4746 30.9531 51.4746 30.5273H52.5996C52.5996 30.8203 52.6562 31.0723 52.7695 31.2832C52.8828 31.4902 53.0371 31.6621 53.2324 31.7988C53.4316 31.9355 53.6562 32.0371 53.9062 32.1035C54.1602 32.166 54.4238 32.1973 54.6973 32.1973C55.0918 32.1973 55.4258 32.1426 55.6992 32.0332C55.9727 31.9238 56.1797 31.7676 56.3203 31.5645C56.4648 31.3613 56.5371 31.1211 56.5371 30.8438ZM58.6641 29.9004V29.7656C58.6641 29.3086 58.7305 28.8848 58.8633 28.4941C58.9961 28.0996 59.1875 27.7578 59.4375 27.4688C59.6875 27.1758 59.9902 26.9492 60.3457 26.7891C60.7012 26.625 61.0996 26.543 61.541 26.543C61.9863 26.543 62.3867 26.625 62.7422 26.7891C63.1016 26.9492 63.4062 27.1758 63.6562 27.4688C63.9102 27.7578 64.1035 28.0996 64.2363 28.4941C64.3691 28.8848 64.4355 29.3086 64.4355 29.7656V29.9004C64.4355 30.3574 64.3691 30.7812 64.2363 31.1719C64.1035 31.5625 63.9102 31.9043 63.6562 32.1973C63.4062 32.4863 63.1035 32.7129 62.748 32.877C62.3965 33.0371 61.998 33.1172 61.5527 33.1172C61.1074 33.1172 60.707 33.0371 60.3516 32.877C59.9961 32.7129 59.6914 32.4863 59.4375 32.1973C59.1875 31.9043 58.9961 31.5625 58.8633 31.1719C58.7305 30.7812 58.6641 30.3574 58.6641 29.9004ZM59.748 29.7656V29.9004C59.748 30.2168 59.7852 30.5156 59.8594 30.7969C59.9336 31.0742 60.0449 31.3203 60.1934 31.5352C60.3457 31.75 60.5352 31.9199 60.7617 32.0449C60.9883 32.166 61.252 32.2266 61.5527 32.2266C61.8496 32.2266 62.1094 32.166 62.332 32.0449C62.5586 31.9199 62.7461 31.75 62.8945 31.5352C63.043 31.3203 63.1543 31.0742 63.2285 30.7969C63.3066 30.5156 63.3457 30.2168 63.3457 29.9004V29.7656C63.3457 29.4531 63.3066 29.1582 63.2285 28.8809C63.1543 28.5996 63.041 28.3516 62.8887 28.1367C62.7402 27.918 62.5527 27.7461 62.3262 27.6211C62.1035 27.4961 61.8418 27.4336 61.541 27.4336C61.2441 27.4336 60.9824 27.4961 60.7559 27.6211C60.5332 27.7461 60.3457 27.918 60.1934 28.1367C60.0449 28.3516 59.9336 28.5996 59.8594 28.8809C59.7852 29.1582 59.748 29.4531 59.748 29.7656ZM66.9727 24V33H65.8828V24H66.9727ZM72.4512 31.916V28.6523C72.4512 28.4023 72.4004 28.1855 72.2988 28.002C72.2012 27.8145 72.0527 27.6699 71.8535 27.5684C71.6543 27.4668 71.4082 27.416 71.1152 27.416C70.8418 27.416 70.6016 27.4629 70.3945 27.5566C70.1914 27.6504 70.0312 27.7734 69.9141 27.9258C69.8008 28.0781 69.7441 28.2422 69.7441 28.418H68.6602C68.6602 28.1914 68.7188 27.9668 68.8359 27.7441C68.9531 27.5215 69.1211 27.3203 69.3398 27.1406C69.5625 26.957 69.8281 26.8125 70.1367 26.707C70.4492 26.5977 70.7969 26.543 71.1797 26.543C71.6406 26.543 72.0469 26.6211 72.3984 26.7773C72.7539 26.9336 73.0312 27.1699 73.2305 27.4863C73.4336 27.7988 73.5352 28.1914 73.5352 28.6641V31.6172C73.5352 31.8281 73.5527 32.0527 73.5879 32.291C73.627 32.5293 73.6836 32.7344 73.7578 32.9062V33H72.627C72.5723 32.875 72.5293 32.709 72.498 32.502C72.4668 32.291 72.4512 32.0957 72.4512 31.916ZM72.6387 29.1562L72.6504 29.918H71.5547C71.2461 29.918 70.9707 29.9434 70.7285 29.9941C70.4863 30.041 70.2832 30.1133 70.1191 30.2109C69.9551 30.3086 69.8301 30.4316 69.7441 30.5801C69.6582 30.7246 69.6152 30.8945 69.6152 31.0898C69.6152 31.2891 69.6602 31.4707 69.75 31.6348C69.8398 31.7988 69.9746 31.9297 70.1543 32.0273C70.3379 32.1211 70.5625 32.168 70.8281 32.168C71.1602 32.168 71.4531 32.0977 71.707 31.957C71.9609 31.8164 72.1621 31.6445 72.3105 31.4414C72.4629 31.2383 72.5449 31.041 72.5566 30.8496L73.0195 31.3711C72.9922 31.5352 72.918 31.7168 72.7969 31.916C72.6758 32.1152 72.5137 32.3066 72.3105 32.4902C72.1113 32.6699 71.873 32.8203 71.5957 32.9414C71.3223 33.0586 71.0137 33.1172 70.6699 33.1172C70.2402 33.1172 69.8633 33.0332 69.5391 32.8652C69.2188 32.6973 68.9688 32.4727 68.7891 32.1914C68.6133 31.9062 68.5254 31.5879 68.5254 31.2363C68.5254 30.8965 68.5918 30.5977 68.7246 30.3398C68.8574 30.0781 69.0488 29.8613 69.2988 29.6895C69.5488 29.5137 69.8496 29.3809 70.2012 29.291C70.5527 29.2012 70.9453 29.1562 71.3789 29.1562H72.6387ZM76.3242 27.6562V33H75.2402V26.6602H76.2949L76.3242 27.6562ZM78.3047 26.625L78.2988 27.6328C78.209 27.6133 78.123 27.6016 78.041 27.5977C77.9629 27.5898 77.873 27.5859 77.7715 27.5859C77.5215 27.5859 77.3008 27.625 77.1094 27.7031C76.918 27.7812 76.7559 27.8906 76.623 28.0312C76.4902 28.1719 76.3848 28.3398 76.3066 28.5352C76.2324 28.7266 76.1836 28.9375 76.1602 29.168L75.8555 29.3438C75.8555 28.9609 75.8926 28.6016 75.9668 28.2656C76.0449 27.9297 76.1641 27.6328 76.3242 27.375C76.4844 27.1133 76.6875 26.9102 76.9336 26.7656C77.1836 26.6172 77.4805 26.543 77.8242 26.543C77.9023 26.543 77.9922 26.5527 78.0938 26.5723C78.1953 26.5879 78.2656 26.6055 78.3047 26.625ZM81.8203 33.1172C81.3789 33.1172 80.9785 33.043 80.6191 32.8945C80.2637 32.7422 79.957 32.5293 79.6992 32.2559C79.4453 31.9824 79.25 31.6582 79.1133 31.2832C78.9766 30.9082 78.9082 30.498 78.9082 30.0527V29.8066C78.9082 29.291 78.9844 28.832 79.1367 28.4297C79.2891 28.0234 79.4961 27.6797 79.7578 27.3984C80.0195 27.1172 80.3164 26.9043 80.6484 26.7598C80.9805 26.6152 81.3242 26.543 81.6797 26.543C82.1328 26.543 82.5234 26.6211 82.8516 26.7773C83.1836 26.9336 83.4551 27.1523 83.666 27.4336C83.877 27.7109 84.0332 28.0391 84.1348 28.418C84.2363 28.793 84.2871 29.2031 84.2871 29.6484V30.1348H79.5527V29.25H83.2031V29.168C83.1875 28.8867 83.1289 28.6133 83.0273 28.3477C82.9297 28.082 82.7734 27.8633 82.5586 27.6914C82.3438 27.5195 82.0508 27.4336 81.6797 27.4336C81.4336 27.4336 81.207 27.4863 81 27.5918C80.793 27.6934 80.6152 27.8457 80.4668 28.0488C80.3184 28.252 80.2031 28.5 80.1211 28.793C80.0391 29.0859 79.998 29.4238 79.998 29.8066V30.0527C79.998 30.3535 80.0391 30.6367 80.1211 30.9023C80.207 31.1641 80.3301 31.3945 80.4902 31.5938C80.6543 31.793 80.8516 31.9492 81.082 32.0625C81.3164 32.1758 81.582 32.2324 81.8789 32.2324C82.2617 32.2324 82.5859 32.1543 82.8516 31.998C83.1172 31.8418 83.3496 31.6328 83.5488 31.3711L84.2051 31.8926C84.0684 32.0996 83.8945 32.2969 83.6836 32.4844C83.4727 32.6719 83.2129 32.8242 82.9043 32.9414C82.5996 33.0586 82.2383 33.1172 81.8203 33.1172ZM89.2441 31.3184C89.2441 31.1621 89.209 31.0176 89.1387 30.8848C89.0723 30.748 88.9336 30.625 88.7227 30.5156C88.5156 30.4023 88.2031 30.3047 87.7852 30.2227C87.4336 30.1484 87.1152 30.0605 86.8301 29.959C86.5488 29.8574 86.3086 29.7344 86.1094 29.5898C85.9141 29.4453 85.7637 29.2754 85.6582 29.0801C85.5527 28.8848 85.5 28.6562 85.5 28.3945C85.5 28.1445 85.5547 27.9082 85.6641 27.6855C85.7773 27.4629 85.9355 27.2656 86.1387 27.0938C86.3457 26.9219 86.5938 26.7871 86.8828 26.6895C87.1719 26.5918 87.4941 26.543 87.8496 26.543C88.3574 26.543 88.791 26.6328 89.1504 26.8125C89.5098 26.9922 89.7852 27.2324 89.9766 27.5332C90.168 27.8301 90.2637 28.1602 90.2637 28.5234H89.1797C89.1797 28.3477 89.127 28.1777 89.0215 28.0137C88.9199 27.8457 88.7695 27.707 88.5703 27.5977C88.375 27.4883 88.1348 27.4336 87.8496 27.4336C87.5488 27.4336 87.3047 27.4805 87.1172 27.5742C86.9336 27.6641 86.7988 27.7793 86.7129 27.9199C86.6309 28.0605 86.5898 28.209 86.5898 28.3652C86.5898 28.4824 86.6094 28.5879 86.6484 28.6816C86.6914 28.7715 86.7656 28.8555 86.8711 28.9336C86.9766 29.0078 87.125 29.0781 87.3164 29.1445C87.5078 29.2109 87.752 29.2773 88.0488 29.3438C88.5684 29.4609 88.9961 29.6016 89.332 29.7656C89.668 29.9297 89.918 30.1309 90.082 30.3691C90.2461 30.6074 90.3281 30.8965 90.3281 31.2363C90.3281 31.5137 90.2695 31.7676 90.1523 31.998C90.0391 32.2285 89.873 32.4277 89.6543 32.5957C89.4395 32.7598 89.1816 32.8887 88.8809 32.9824C88.584 33.0723 88.25 33.1172 87.8789 33.1172C87.3203 33.1172 86.8477 33.0176 86.4609 32.8184C86.0742 32.6191 85.7812 32.3613 85.582 32.0449C85.3828 31.7285 85.2832 31.3945 85.2832 31.043H86.373C86.3887 31.3398 86.4746 31.5762 86.6309 31.752C86.7871 31.9238 86.9785 32.0469 87.2051 32.1211C87.4316 32.1914 87.6562 32.2266 87.8789 32.2266C88.1758 32.2266 88.4238 32.1875 88.623 32.1094C88.8262 32.0312 88.9805 31.9238 89.0859 31.7871C89.1914 31.6504 89.2441 31.4941 89.2441 31.3184ZM96.0234 24.4688V33H94.8926V24.4688H96.0234ZM99.5977 28.3066V29.2324H95.7773V28.3066H99.5977ZM100.178 24.4688V25.3945H95.7773V24.4688H100.178ZM100.945 29.9004V29.7656C100.945 29.3086 101.012 28.8848 101.145 28.4941C101.277 28.0996 101.469 27.7578 101.719 27.4688C101.969 27.1758 102.271 26.9492 102.627 26.7891C102.982 26.625 103.381 26.543 103.822 26.543C104.268 26.543 104.668 26.625 105.023 26.7891C105.383 26.9492 105.688 27.1758 105.938 27.4688C106.191 27.7578 106.385 28.0996 106.518 28.4941C106.65 28.8848 106.717 29.3086 106.717 29.7656V29.9004C106.717 30.3574 106.65 30.7812 106.518 31.1719C106.385 31.5625 106.191 31.9043 105.938 32.1973C105.688 32.4863 105.385 32.7129 105.029 32.877C104.678 33.0371 104.279 33.1172 103.834 33.1172C103.389 33.1172 102.988 33.0371 102.633 32.877C102.277 32.7129 101.973 32.4863 101.719 32.1973C101.469 31.9043 101.277 31.5625 101.145 31.1719C101.012 30.7812 100.945 30.3574 100.945 29.9004ZM102.029 29.7656V29.9004C102.029 30.2168 102.066 30.5156 102.141 30.7969C102.215 31.0742 102.326 31.3203 102.475 31.5352C102.627 31.75 102.816 31.9199 103.043 32.0449C103.27 32.166 103.533 32.2266 103.834 32.2266C104.131 32.2266 104.391 32.166 104.613 32.0449C104.84 31.9199 105.027 31.75 105.176 31.5352C105.324 31.3203 105.436 31.0742 105.51 30.7969C105.588 30.5156 105.627 30.2168 105.627 29.9004V29.7656C105.627 29.4531 105.588 29.1582 105.51 28.8809C105.436 28.5996 105.322 28.3516 105.17 28.1367C105.021 27.918 104.834 27.7461 104.607 27.6211C104.385 27.4961 104.123 27.4336 103.822 27.4336C103.525 27.4336 103.264 27.4961 103.037 27.6211C102.814 27.7461 102.627 27.918 102.475 28.1367C102.326 28.3516 102.215 28.5996 102.141 28.8809C102.066 29.1582 102.029 29.4531 102.029 29.7656ZM110.73 26.6602V27.4922H107.303V26.6602H110.73ZM108.463 25.1191H109.547V31.4297C109.547 31.6445 109.58 31.8066 109.646 31.916C109.713 32.0254 109.799 32.0977 109.904 32.1328C110.01 32.168 110.123 32.1855 110.244 32.1855C110.334 32.1855 110.428 32.1777 110.525 32.1621C110.627 32.1426 110.703 32.127 110.754 32.1152L110.76 33C110.674 33.0273 110.561 33.0527 110.42 33.0762C110.283 33.1035 110.117 33.1172 109.922 33.1172C109.656 33.1172 109.412 33.0645 109.189 32.959C108.967 32.8535 108.789 32.6777 108.656 32.4316C108.527 32.1816 108.463 31.8457 108.463 31.4238V25.1191ZM111.598 29.9004V29.7656C111.598 29.3086 111.664 28.8848 111.797 28.4941C111.93 28.0996 112.121 27.7578 112.371 27.4688C112.621 27.1758 112.924 26.9492 113.279 26.7891C113.635 26.625 114.033 26.543 114.475 26.543C114.92 26.543 115.32 26.625 115.676 26.7891C116.035 26.9492 116.34 27.1758 116.59 27.4688C116.844 27.7578 117.037 28.0996 117.17 28.4941C117.303 28.8848 117.369 29.3086 117.369 29.7656V29.9004C117.369 30.3574 117.303 30.7812 117.17 31.1719C117.037 31.5625 116.844 31.9043 116.59 32.1973C116.34 32.4863 116.037 32.7129 115.682 32.877C115.33 33.0371 114.932 33.1172 114.486 33.1172C114.041 33.1172 113.641 33.0371 113.285 32.877C112.93 32.7129 112.625 32.4863 112.371 32.1973C112.121 31.9043 111.93 31.5625 111.797 31.1719C111.664 30.7812 111.598 30.3574 111.598 29.9004ZM112.682 29.7656V29.9004C112.682 30.2168 112.719 30.5156 112.793 30.7969C112.867 31.0742 112.979 31.3203 113.127 31.5352C113.279 31.75 113.469 31.9199 113.695 32.0449C113.922 32.166 114.186 32.2266 114.486 32.2266C114.783 32.2266 115.043 32.166 115.266 32.0449C115.492 31.9199 115.68 31.75 115.828 31.5352C115.977 31.3203 116.088 31.0742 116.162 30.7969C116.24 30.5156 116.279 30.2168 116.279 29.9004V29.7656C116.279 29.4531 116.24 29.1582 116.162 28.8809C116.088 28.5996 115.975 28.3516 115.822 28.1367C115.674 27.918 115.486 27.7461 115.26 27.6211C115.037 27.4961 114.775 27.4336 114.475 27.4336C114.178 27.4336 113.916 27.4961 113.689 27.6211C113.467 27.7461 113.279 27.918 113.127 28.1367C112.979 28.3516 112.867 28.5996 112.793 28.8809C112.719 29.1582 112.682 29.4531 112.682 29.7656ZM120.562 32.0215L122.297 26.6602H123.404L121.125 33H120.398L120.562 32.0215ZM119.115 26.6602L120.902 32.0508L121.025 33H120.299L118.002 26.6602H119.115ZM124.066 29.9004V29.7656C124.066 29.3086 124.133 28.8848 124.266 28.4941C124.398 28.0996 124.59 27.7578 124.84 27.4688C125.09 27.1758 125.393 26.9492 125.748 26.7891C126.104 26.625 126.502 26.543 126.943 26.543C127.389 26.543 127.789 26.625 128.145 26.7891C128.504 26.9492 128.809 27.1758 129.059 27.4688C129.312 27.7578 129.506 28.0996 129.639 28.4941C129.771 28.8848 129.838 29.3086 129.838 29.7656V29.9004C129.838 30.3574 129.771 30.7812 129.639 31.1719C129.506 31.5625 129.312 31.9043 129.059 32.1973C128.809 32.4863 128.506 32.7129 128.15 32.877C127.799 33.0371 127.4 33.1172 126.955 33.1172C126.51 33.1172 126.109 33.0371 125.754 32.877C125.398 32.7129 125.094 32.4863 124.84 32.1973C124.59 31.9043 124.398 31.5625 124.266 31.1719C124.133 30.7812 124.066 30.3574 124.066 29.9004ZM125.15 29.7656V29.9004C125.15 30.2168 125.188 30.5156 125.262 30.7969C125.336 31.0742 125.447 31.3203 125.596 31.5352C125.748 31.75 125.938 31.9199 126.164 32.0449C126.391 32.166 126.654 32.2266 126.955 32.2266C127.252 32.2266 127.512 32.166 127.734 32.0449C127.961 31.9199 128.148 31.75 128.297 31.5352C128.445 31.3203 128.557 31.0742 128.631 30.7969C128.709 30.5156 128.748 30.2168 128.748 29.9004V29.7656C128.748 29.4531 128.709 29.1582 128.631 28.8809C128.557 28.5996 128.443 28.3516 128.291 28.1367C128.143 27.918 127.955 27.7461 127.729 27.6211C127.506 27.4961 127.244 27.4336 126.943 27.4336C126.646 27.4336 126.385 27.4961 126.158 27.6211C125.936 27.7461 125.748 27.918 125.596 28.1367C125.447 28.3516 125.336 28.5996 125.262 28.8809C125.188 29.1582 125.15 29.4531 125.15 29.7656ZM132.375 24V33H131.285V24H132.375ZM136.77 26.6602V27.4922H133.342V26.6602H136.77ZM134.502 25.1191H135.586V31.4297C135.586 31.6445 135.619 31.8066 135.686 31.916C135.752 32.0254 135.838 32.0977 135.943 32.1328C136.049 32.168 136.162 32.1855 136.283 32.1855C136.373 32.1855 136.467 32.1777 136.564 32.1621C136.666 32.1426 136.742 32.127 136.793 32.1152L136.799 33C136.713 33.0273 136.6 33.0527 136.459 33.0762C136.322 33.1035 136.156 33.1172 135.961 33.1172C135.695 33.1172 135.451 33.0645 135.229 32.959C135.006 32.8535 134.828 32.6777 134.695 32.4316C134.566 32.1816 134.502 31.8457 134.502 31.4238V25.1191ZM141.779 31.916V28.6523C141.779 28.4023 141.729 28.1855 141.627 28.002C141.529 27.8145 141.381 27.6699 141.182 27.5684C140.982 27.4668 140.736 27.416 140.443 27.416C140.17 27.416 139.93 27.4629 139.723 27.5566C139.52 27.6504 139.359 27.7734 139.242 27.9258C139.129 28.0781 139.072 28.2422 139.072 28.418H137.988C137.988 28.1914 138.047 27.9668 138.164 27.7441C138.281 27.5215 138.449 27.3203 138.668 27.1406C138.891 26.957 139.156 26.8125 139.465 26.707C139.777 26.5977 140.125 26.543 140.508 26.543C140.969 26.543 141.375 26.6211 141.727 26.7773C142.082 26.9336 142.359 27.1699 142.559 27.4863C142.762 27.7988 142.863 28.1914 142.863 28.6641V31.6172C142.863 31.8281 142.881 32.0527 142.916 32.291C142.955 32.5293 143.012 32.7344 143.086 32.9062V33H141.955C141.9 32.875 141.857 32.709 141.826 32.502C141.795 32.291 141.779 32.0957 141.779 31.916ZM141.967 29.1562L141.979 29.918H140.883C140.574 29.918 140.299 29.9434 140.057 29.9941C139.814 30.041 139.611 30.1133 139.447 30.2109C139.283 30.3086 139.158 30.4316 139.072 30.5801C138.986 30.7246 138.943 30.8945 138.943 31.0898C138.943 31.2891 138.988 31.4707 139.078 31.6348C139.168 31.7988 139.303 31.9297 139.482 32.0273C139.666 32.1211 139.891 32.168 140.156 32.168C140.488 32.168 140.781 32.0977 141.035 31.957C141.289 31.8164 141.49 31.6445 141.639 31.4414C141.791 31.2383 141.873 31.041 141.885 30.8496L142.348 31.3711C142.32 31.5352 142.246 31.7168 142.125 31.916C142.004 32.1152 141.842 32.3066 141.639 32.4902C141.439 32.6699 141.201 32.8203 140.924 32.9414C140.65 33.0586 140.342 33.1172 139.998 33.1172C139.568 33.1172 139.191 33.0332 138.867 32.8652C138.547 32.6973 138.297 32.4727 138.117 32.1914C137.941 31.9062 137.854 31.5879 137.854 31.2363C137.854 30.8965 137.92 30.5977 138.053 30.3398C138.186 30.0781 138.377 29.8613 138.627 29.6895C138.877 29.5137 139.178 29.3809 139.529 29.291C139.881 29.2012 140.273 29.1562 140.707 29.1562H141.967ZM145.746 26.6602V33H144.656V26.6602H145.746ZM144.574 24.9785C144.574 24.8027 144.627 24.6543 144.732 24.5332C144.842 24.4121 145.002 24.3516 145.213 24.3516C145.42 24.3516 145.578 24.4121 145.688 24.5332C145.801 24.6543 145.857 24.8027 145.857 24.9785C145.857 25.1465 145.801 25.291 145.688 25.4121C145.578 25.5293 145.42 25.5879 145.213 25.5879C145.002 25.5879 144.842 25.5293 144.732 25.4121C144.627 25.291 144.574 25.1465 144.574 24.9785ZM150.023 32.2266C150.281 32.2266 150.52 32.1738 150.738 32.0684C150.957 31.9629 151.137 31.8184 151.277 31.6348C151.418 31.4473 151.498 31.2344 151.518 30.9961H152.549C152.529 31.3711 152.402 31.7207 152.168 32.0449C151.938 32.3652 151.635 32.625 151.26 32.8242C150.885 33.0195 150.473 33.1172 150.023 33.1172C149.547 33.1172 149.131 33.0332 148.775 32.8652C148.424 32.6973 148.131 32.4668 147.896 32.1738C147.666 31.8809 147.492 31.5449 147.375 31.166C147.262 30.7832 147.205 30.3789 147.205 29.9531V29.707C147.205 29.2812 147.262 28.8789 147.375 28.5C147.492 28.1172 147.666 27.7793 147.896 27.4863C148.131 27.1934 148.424 26.9629 148.775 26.7949C149.131 26.627 149.547 26.543 150.023 26.543C150.52 26.543 150.953 26.6445 151.324 26.8477C151.695 27.0469 151.986 27.3203 152.197 27.668C152.412 28.0117 152.529 28.4023 152.549 28.8398H151.518C151.498 28.5781 151.424 28.3418 151.295 28.1309C151.17 27.9199 150.998 27.752 150.779 27.627C150.564 27.498 150.312 27.4336 150.023 27.4336C149.691 27.4336 149.412 27.5 149.186 27.6328C148.963 27.7617 148.785 27.9375 148.652 28.1602C148.523 28.3789 148.43 28.623 148.371 28.8926C148.316 29.1582 148.289 29.4297 148.289 29.707V29.9531C148.289 30.2305 148.316 30.5039 148.371 30.7734C148.426 31.043 148.518 31.2871 148.646 31.5059C148.779 31.7246 148.957 31.9004 149.18 32.0332C149.406 32.1621 149.688 32.2266 150.023 32.2266ZM153.48 29.9004V29.7656C153.48 29.3086 153.547 28.8848 153.68 28.4941C153.812 28.0996 154.004 27.7578 154.254 27.4688C154.504 27.1758 154.807 26.9492 155.162 26.7891C155.518 26.625 155.916 26.543 156.357 26.543C156.803 26.543 157.203 26.625 157.559 26.7891C157.918 26.9492 158.223 27.1758 158.473 27.4688C158.727 27.7578 158.92 28.0996 159.053 28.4941C159.186 28.8848 159.252 29.3086 159.252 29.7656V29.9004C159.252 30.3574 159.186 30.7812 159.053 31.1719C158.92 31.5625 158.727 31.9043 158.473 32.1973C158.223 32.4863 157.92 32.7129 157.564 32.877C157.213 33.0371 156.814 33.1172 156.369 33.1172C155.924 33.1172 155.523 33.0371 155.168 32.877C154.812 32.7129 154.508 32.4863 154.254 32.1973C154.004 31.9043 153.812 31.5625 153.68 31.1719C153.547 30.7812 153.48 30.3574 153.48 29.9004ZM154.564 29.7656V29.9004C154.564 30.2168 154.602 30.5156 154.676 30.7969C154.75 31.0742 154.861 31.3203 155.01 31.5352C155.162 31.75 155.352 31.9199 155.578 32.0449C155.805 32.166 156.068 32.2266 156.369 32.2266C156.666 32.2266 156.926 32.166 157.148 32.0449C157.375 31.9199 157.562 31.75 157.711 31.5352C157.859 31.3203 157.971 31.0742 158.045 30.7969C158.123 30.5156 158.162 30.2168 158.162 29.9004V29.7656C158.162 29.4531 158.123 29.1582 158.045 28.8809C157.971 28.5996 157.857 28.3516 157.705 28.1367C157.557 27.918 157.369 27.7461 157.143 27.6211C156.92 27.4961 156.658 27.4336 156.357 27.4336C156.061 27.4336 155.799 27.4961 155.572 27.6211C155.35 27.7461 155.162 27.918 155.01 28.1367C154.861 28.3516 154.75 28.5996 154.676 28.8809C154.602 29.1582 154.564 29.4531 154.564 29.7656Z" fill="white"/>
<path d="M0 0H36C40.4183 0 44 3.58172 44 8V36C44 40.4183 40.4183 44 36 44H8C3.58172 44 0 40.4183 0 36V0Z" fill="white"/>
<path d="M20.4875 25.9638C20.2389 25.9635 20.0006 25.8646 19.825 25.6888L16.8 22.6638C16.6256 22.4873 16.5279 22.2493 16.5279 22.0013C16.5279 21.7532 16.6256 21.5152 16.8 21.3388C17.1625 20.9763 17.7625 20.9763 18.125 21.3388L20.4875 23.7013L25.8625 18.3263C26.225 17.9638 26.825 17.9638 27.1875 18.3263C27.55 18.6888 27.55 19.2888 27.1875 19.6513L21.15 25.6888C20.9743 25.8646 20.736 25.9635 20.4875 25.9638Z" fill="url(#paint0_linear_532_371)"/>
<path d="M22 35.4375C21.2125 35.4375 20.425 35.175 19.8125 34.65L17.8375 32.95C17.6375 32.775 17.1375 32.6 16.875 32.6H14.725C13.8365 32.6 12.9844 32.2471 12.3562 31.6188C11.728 30.9906 11.375 30.1385 11.375 29.25V27.1125C11.375 26.85 11.2 26.3625 11.025 26.1625L9.33751 24.175C8.31251 22.9625 8.31251 21.05 9.33751 19.8375L11.025 17.85C11.2 17.65 11.375 17.1625 11.375 16.9V14.75C11.375 12.9 12.875 11.4 14.725 11.4H16.8875C17.15 11.4 17.65 11.2125 17.85 11.05L19.825 9.35C21.05 8.3 22.9625 8.3 24.1875 9.35L26.1625 11.05C26.3625 11.225 26.8625 11.4 27.125 11.4H29.25C31.1 11.4 32.6 12.9 32.6 14.75V16.875C32.6 17.1375 32.7875 17.6375 32.9625 17.8375L34.6625 19.8125C35.7125 21.0375 35.7125 22.95 34.6625 24.175L32.9625 26.15C32.7875 26.35 32.6 26.85 32.6 27.1125V29.2375C32.6 31.0875 31.1 32.5875 29.25 32.5875H27.125C26.8625 32.5875 26.3625 32.775 26.1625 32.9375L24.1875 34.6375C23.575 35.175 22.7875 35.4375 22 35.4375ZM14.725 13.275C13.9125 13.275 13.25 13.9375 13.25 14.75V16.8875C13.25 17.6 12.9125 18.5125 12.45 19.05L10.7625 21.0375C10.325 21.55 10.325 22.4375 10.7625 22.95L12.45 24.9375C12.9125 25.4875 13.25 26.3875 13.25 27.1V29.2375C13.25 30.05 13.9125 30.7125 14.725 30.7125H16.8875C17.6125 30.7125 18.525 31.05 19.075 31.525L21.05 33.225C21.5625 33.6625 22.4625 33.6625 22.975 33.225L24.95 31.525C25.5 31.0625 26.4125 30.7125 27.1375 30.7125H29.2625C30.075 30.7125 30.7375 30.05 30.7375 29.2375V27.1125C30.7375 26.3875 31.075 25.475 31.55 24.925L33.25 22.95C33.6875 22.4375 33.6875 21.5375 33.25 21.025L31.55 19.05C31.075 18.5 30.7375 17.5875 30.7375 16.8625V14.75C30.7375 13.9375 30.075 13.275 29.2625 13.275H27.1375C26.4125 13.275 25.5 12.9375 24.95 12.4625L22.975 10.7625C22.4625 10.325 21.5625 10.325 21.05 10.7625L19.075 12.475C18.525 12.9375 17.6 13.275 16.8875 13.275H14.725Z" fill="url(#paint1_linear_532_371)"/>
<defs>
<linearGradient id="paint0_linear_532_371" x1="16.5279" y1="22.0091" x2="27.4594" y2="22.0091" gradientUnits="userSpaceOnUse">
<stop stop-color="#1E2431"/>
<stop offset="1" stop-color="#1E3954"/>
</linearGradient>
<linearGradient id="paint1_linear_532_371" x1="8.56876" y1="22" x2="35.45" y2="22" gradientUnits="userSpaceOnUse">
<stop stop-color="#1E2431"/>
<stop offset="1" stop-color="#1E3954"/>
</linearGradient>
</defs>
</svg>
