<svg width="85" height="28" viewBox="0 0 85 28" fill="none" xmlns="http://www.w3.org/2000/svg">
<rect opacity="0.3" x="11" y="18" width="74" height="10" rx="2" fill="#4EA539"/>
<path d="M5.616 6.368C5.968 6.976 6.36 7.72 6.792 8.6C7.224 9.48 7.664 10.408 8.112 11.384C8.56 12.344 9 13.328 9.432 14.336C9.88 15.328 10.288 16.248 10.656 17.096C11.024 16.248 11.424 15.328 11.856 14.336C12.288 13.328 12.728 12.344 13.176 11.384C13.624 10.408 14.064 9.48 14.496 8.6C14.928 7.72 15.32 6.976 15.672 6.368H18.408C18.552 7.584 18.688 8.88 18.816 10.256C18.944 11.616 19.056 13.016 19.152 14.456C19.264 15.88 19.36 17.32 19.44 18.776C19.536 20.216 19.616 21.624 19.68 23H16.704C16.64 21.064 16.56 19.072 16.464 17.024C16.384 14.976 16.256 12.992 16.08 11.072C15.904 11.44 15.696 11.88 15.456 12.392C15.216 12.904 14.96 13.464 14.688 14.072C14.416 14.664 14.136 15.28 13.848 15.92C13.576 16.56 13.304 17.184 13.032 17.792C12.776 18.384 12.536 18.944 12.312 19.472C12.088 19.984 11.896 20.424 11.736 20.792H9.48C9.32 20.424 9.128 19.976 8.904 19.448C8.68 18.92 8.432 18.36 8.16 17.768C7.904 17.16 7.632 16.536 7.344 15.896C7.072 15.256 6.8 14.64 6.528 14.048C6.256 13.456 6 12.904 5.76 12.392C5.52 11.864 5.312 11.424 5.136 11.072C4.96 12.992 4.824 14.976 4.728 17.024C4.648 19.072 4.576 21.064 4.512 23H1.536C1.6 21.624 1.672 20.2 1.752 18.728C1.848 17.256 1.944 15.8 2.04 14.36C2.152 12.904 2.272 11.496 2.4 10.136C2.528 8.776 2.664 7.52 2.808 6.368H5.616ZM25.9869 23H23.0829V10.448H25.9869V23ZM26.2989 6.776C26.2989 7.32 26.1229 7.752 25.7709 8.072C25.4189 8.392 25.0029 8.552 24.5229 8.552C24.0269 8.552 23.6029 8.392 23.2509 8.072C22.8989 7.752 22.7229 7.32 22.7229 6.776C22.7229 6.216 22.8989 5.776 23.2509 5.456C23.6029 5.136 24.0269 4.976 24.5229 4.976C25.0029 4.976 25.4189 5.136 25.7709 5.456C26.1229 5.776 26.2989 6.216 26.2989 6.776ZM32.8358 20.912C33.6038 20.912 34.1638 20.824 34.5158 20.648C34.8678 20.456 35.0438 20.136 35.0438 19.688C35.0438 19.272 34.8518 18.928 34.4678 18.656C34.0998 18.384 33.4838 18.088 32.6198 17.768C32.0918 17.576 31.6038 17.376 31.1558 17.168C30.7238 16.944 30.3478 16.688 30.0278 16.4C29.7078 16.112 29.4518 15.768 29.2598 15.368C29.0838 14.952 28.9958 14.448 28.9958 13.856C28.9958 12.704 29.4198 11.8 30.2678 11.144C31.1158 10.472 32.2678 10.136 33.7238 10.136C34.4598 10.136 35.1638 10.208 35.8358 10.352C36.5078 10.48 37.0118 10.608 37.3478 10.736L36.8198 13.088C36.4998 12.944 36.0918 12.816 35.5958 12.704C35.0998 12.576 34.5238 12.512 33.8678 12.512C33.2758 12.512 32.7958 12.616 32.4278 12.824C32.0598 13.016 31.8758 13.32 31.8758 13.736C31.8758 13.944 31.9078 14.128 31.9718 14.288C32.0518 14.448 32.1798 14.6 32.3558 14.744C32.5318 14.872 32.7638 15.008 33.0518 15.152C33.3398 15.28 33.6918 15.416 34.1078 15.56C34.7958 15.816 35.3798 16.072 35.8598 16.328C36.3398 16.568 36.7318 16.848 37.0358 17.168C37.3558 17.472 37.5878 17.824 37.7318 18.224C37.8758 18.624 37.9478 19.104 37.9478 19.664C37.9478 20.864 37.4998 21.776 36.6038 22.4C35.7238 23.008 34.4598 23.312 32.8118 23.312C31.7078 23.312 30.8198 23.216 30.1478 23.024C29.4758 22.848 29.0038 22.704 28.7318 22.592L29.2358 20.168C29.6678 20.344 30.1798 20.512 30.7718 20.672C31.3798 20.832 32.0678 20.912 32.8358 20.912ZM43.5885 23H40.6845V10.448H43.5885V23ZM43.9005 6.776C43.9005 7.32 43.7245 7.752 43.3725 8.072C43.0205 8.392 42.6045 8.552 42.1245 8.552C41.6285 8.552 41.2045 8.392 40.8525 8.072C40.5005 7.752 40.3245 7.32 40.3245 6.776C40.3245 6.216 40.5005 5.776 40.8525 5.456C41.2045 5.136 41.6285 4.976 42.1245 4.976C42.6045 4.976 43.0205 5.136 43.3725 5.456C43.7245 5.776 43.9005 6.216 43.9005 6.776ZM58.6453 16.712C58.6453 17.704 58.5013 18.608 58.2133 19.424C57.9253 20.24 57.5173 20.936 56.9893 21.512C56.4613 22.088 55.8213 22.536 55.0693 22.856C54.3333 23.176 53.5173 23.336 52.6213 23.336C51.7253 23.336 50.9093 23.176 50.1733 22.856C49.4373 22.536 48.8053 22.088 48.2773 21.512C47.7493 20.936 47.3333 20.24 47.0293 19.424C46.7413 18.608 46.5973 17.704 46.5973 16.712C46.5973 15.72 46.7413 14.824 47.0293 14.024C47.3333 13.208 47.7493 12.512 48.2773 11.936C48.8213 11.36 49.4613 10.92 50.1973 10.616C50.9333 10.296 51.7413 10.136 52.6213 10.136C53.5013 10.136 54.3093 10.296 55.0453 10.616C55.7973 10.92 56.4373 11.36 56.9653 11.936C57.4933 12.512 57.9013 13.208 58.1893 14.024C58.4933 14.824 58.6453 15.72 58.6453 16.712ZM55.6693 16.712C55.6693 15.464 55.3973 14.48 54.8533 13.76C54.3253 13.024 53.5813 12.656 52.6213 12.656C51.6613 12.656 50.9093 13.024 50.3653 13.76C49.8373 14.48 49.5733 15.464 49.5733 16.712C49.5733 17.976 49.8373 18.976 50.3653 19.712C50.9093 20.448 51.6613 20.816 52.6213 20.816C53.5813 20.816 54.3253 20.448 54.8533 19.712C55.3973 18.976 55.6693 17.976 55.6693 16.712ZM61.6371 10.856C62.1971 10.696 62.9251 10.544 63.8211 10.4C64.7171 10.256 65.7091 10.184 66.7971 10.184C67.8211 10.184 68.6771 10.328 69.3651 10.616C70.0531 10.888 70.5971 11.28 70.9971 11.792C71.4131 12.288 71.7011 12.896 71.8611 13.616C72.0371 14.32 72.1251 15.096 72.1251 15.944V23H69.2211V16.4C69.2211 15.728 69.1731 15.16 69.0771 14.696C68.9971 14.216 68.8531 13.832 68.6451 13.544C68.4531 13.24 68.1811 13.024 67.8291 12.896C67.4931 12.752 67.0771 12.68 66.5811 12.68C66.2131 12.68 65.8291 12.704 65.4291 12.752C65.0291 12.8 64.7331 12.84 64.5411 12.872V23H61.6371V10.856Z" fill="#1E2431"/>
</svg>
