<svg width="119" height="28" viewBox="0 0 119 28" fill="none" xmlns="http://www.w3.org/2000/svg">
<rect opacity="0.3" x="11" y="18" width="108" height="10" rx="2" fill="#4EA539"/>
<path d="M4.464 14.672C4.464 15.584 4.576 16.416 4.8 17.168C5.024 17.904 5.344 18.536 5.76 19.064C6.192 19.576 6.712 19.976 7.32 20.264C7.928 20.552 8.616 20.696 9.384 20.696C10.136 20.696 10.816 20.552 11.424 20.264C12.032 19.976 12.544 19.576 12.96 19.064C13.392 18.536 13.72 17.904 13.944 17.168C14.168 16.416 14.28 15.584 14.28 14.672C14.28 13.76 14.168 12.936 13.944 12.2C13.72 11.448 13.392 10.816 12.96 10.304C12.544 9.776 12.032 9.368 11.424 9.08C10.816 8.792 10.136 8.648 9.384 8.648C8.616 8.648 7.928 8.792 7.32 9.08C6.712 9.368 6.192 9.776 5.76 10.304C5.344 10.832 5.024 11.464 4.8 12.2C4.576 12.936 4.464 13.76 4.464 14.672ZM17.448 14.672C17.448 16.096 17.232 17.352 16.8 18.44C16.384 19.528 15.808 20.44 15.072 21.176C14.352 21.896 13.504 22.44 12.528 22.808C11.552 23.176 10.512 23.36 9.408 23.36C8.304 23.36 7.256 23.176 6.264 22.808C5.288 22.44 4.432 21.896 3.696 21.176C2.976 20.44 2.4 19.528 1.968 18.44C1.536 17.352 1.32 16.096 1.32 14.672C1.32 13.248 1.536 12 1.968 10.928C2.4 9.84 2.984 8.928 3.72 8.192C4.472 7.456 5.336 6.904 6.312 6.536C7.288 6.168 8.32 5.984 9.408 5.984C10.496 5.984 11.528 6.168 12.504 6.536C13.48 6.904 14.328 7.456 15.048 8.192C15.784 8.928 16.368 9.84 16.8 10.928C17.232 12 17.448 13.248 17.448 14.672ZM28.9494 16.688C28.9494 15.456 28.7014 14.48 28.2054 13.76C27.7254 13.04 26.9574 12.68 25.9014 12.68C25.4214 12.68 24.9654 12.752 24.5334 12.896C24.1174 13.04 23.7814 13.2 23.5254 13.376V20.6C23.7334 20.648 23.9974 20.696 24.3174 20.744C24.6534 20.776 25.0534 20.792 25.5174 20.792C26.5894 20.792 27.4294 20.432 28.0374 19.712C28.6454 18.976 28.9494 17.968 28.9494 16.688ZM31.9254 16.736C31.9254 17.744 31.7734 18.656 31.4694 19.472C31.1814 20.272 30.7574 20.96 30.1974 21.536C29.6534 22.112 28.9894 22.552 28.2054 22.856C27.4214 23.16 26.5334 23.312 25.5414 23.312C24.5814 23.312 23.6614 23.24 22.7814 23.096C21.9174 22.952 21.1974 22.792 20.6214 22.616V4.856L23.5254 4.376V10.88C23.8614 10.704 24.2694 10.544 24.7494 10.4C25.2454 10.256 25.7894 10.184 26.3814 10.184C27.2614 10.184 28.0454 10.344 28.7334 10.664C29.4374 10.968 30.0214 11.408 30.4854 11.984C30.9494 12.56 31.3014 13.256 31.5414 14.072C31.7974 14.872 31.9254 15.76 31.9254 16.736ZM33.3103 27.464C33.1023 27.464 32.8143 27.44 32.4463 27.392C32.0623 27.36 31.7263 27.288 31.4383 27.176L31.8223 24.8C32.1743 24.912 32.5983 24.968 33.0943 24.968C33.7663 24.968 34.2383 24.768 34.5103 24.368C34.7823 23.984 34.9183 23.4 34.9183 22.616V10.448H37.8223V22.664C37.8223 24.296 37.4303 25.504 36.6463 26.288C35.8783 27.072 34.7663 27.464 33.3103 27.464ZM38.1343 6.776C38.1343 7.32 37.9583 7.752 37.6063 8.072C37.2543 8.392 36.8383 8.552 36.3583 8.552C35.8623 8.552 35.4383 8.392 35.0863 8.072C34.7343 7.752 34.5583 7.32 34.5583 6.776C34.5583 6.216 34.7343 5.776 35.0863 5.456C35.4383 5.136 35.8623 4.976 36.3583 4.976C36.8383 4.976 37.2543 5.136 37.6063 5.456C37.9583 5.776 38.1343 6.216 38.1343 6.776ZM40.8317 16.784C40.8317 15.68 40.9917 14.712 41.3117 13.88C41.6477 13.048 42.0877 12.36 42.6317 11.816C43.1757 11.256 43.7997 10.84 44.5037 10.568C45.2077 10.28 45.9277 10.136 46.6637 10.136C48.3917 10.136 49.7357 10.672 50.6957 11.744C51.6717 12.816 52.1597 14.416 52.1597 16.544C52.1597 16.704 52.1517 16.888 52.1357 17.096C52.1357 17.288 52.1277 17.464 52.1117 17.624H43.8317C43.9117 18.632 44.2637 19.416 44.8877 19.976C45.5277 20.52 46.4477 20.792 47.6477 20.792C48.3517 20.792 48.9917 20.728 49.5677 20.6C50.1597 20.472 50.6237 20.336 50.9597 20.192L51.3437 22.568C51.1837 22.648 50.9597 22.736 50.6717 22.832C50.3997 22.912 50.0797 22.984 49.7117 23.048C49.3597 23.128 48.9757 23.192 48.5597 23.24C48.1437 23.288 47.7197 23.312 47.2877 23.312C46.1837 23.312 45.2237 23.152 44.4077 22.832C43.5917 22.496 42.9197 22.04 42.3917 21.464C41.8637 20.872 41.4717 20.184 41.2157 19.4C40.9597 18.6 40.8317 17.728 40.8317 16.784ZM49.2557 15.488C49.2557 15.088 49.1997 14.712 49.0877 14.36C48.9757 13.992 48.8077 13.68 48.5837 13.424C48.3757 13.152 48.1117 12.944 47.7917 12.8C47.4877 12.64 47.1197 12.56 46.6877 12.56C46.2397 12.56 45.8477 12.648 45.5117 12.824C45.1757 12.984 44.8877 13.2 44.6477 13.472C44.4237 13.744 44.2477 14.056 44.1197 14.408C43.9917 14.76 43.9037 15.12 43.8557 15.488H49.2557ZM55.0946 7.136L57.9986 6.656V10.448H62.4626V12.872H57.9986V17.984C57.9986 18.992 58.1586 19.712 58.4786 20.144C58.7986 20.576 59.3426 20.792 60.1106 20.792C60.6386 20.792 61.1026 20.736 61.5026 20.624C61.9186 20.512 62.2466 20.408 62.4866 20.312L62.9666 22.616C62.6306 22.76 62.1906 22.904 61.6466 23.048C61.1026 23.208 60.4626 23.288 59.7266 23.288C58.8306 23.288 58.0786 23.168 57.4706 22.928C56.8786 22.688 56.4066 22.344 56.0546 21.896C55.7026 21.432 55.4546 20.88 55.3106 20.24C55.1666 19.584 55.0946 18.84 55.0946 18.008V7.136ZM68.1979 23H65.2939V10.448H68.1979V23ZM68.5099 6.776C68.5099 7.32 68.3339 7.752 67.9819 8.072C67.6299 8.392 67.2139 8.552 66.7339 8.552C66.2379 8.552 65.8139 8.392 65.4619 8.072C65.1099 7.752 64.9339 7.32 64.9339 6.776C64.9339 6.216 65.1099 5.776 65.4619 5.456C65.8139 5.136 66.2379 4.976 66.7339 4.976C67.2139 4.976 67.6299 5.136 67.9819 5.456C68.3339 5.776 68.5099 6.216 68.5099 6.776ZM75.1187 23C74.3187 21.352 73.4947 19.464 72.6467 17.336C71.8147 15.192 71.0547 12.896 70.3667 10.448H73.4627C73.6387 11.152 73.8387 11.912 74.0627 12.728C74.3027 13.528 74.5507 14.336 74.8067 15.152C75.0787 15.952 75.3507 16.736 75.6227 17.504C75.9107 18.256 76.1747 18.936 76.4147 19.544C76.6547 18.936 76.9107 18.256 77.1827 17.504C77.4547 16.736 77.7187 15.952 77.9747 15.152C78.2467 14.336 78.5027 13.528 78.7427 12.728C78.9827 11.912 79.1907 11.152 79.3667 10.448H82.3667C81.6787 12.896 80.9107 15.192 80.0627 17.336C79.2307 19.464 78.4147 21.352 77.6147 23H75.1187ZM95.6063 16.712C95.6063 17.704 95.4623 18.608 95.1743 19.424C94.8863 20.24 94.4783 20.936 93.9503 21.512C93.4223 22.088 92.7823 22.536 92.0303 22.856C91.2943 23.176 90.4783 23.336 89.5823 23.336C88.6863 23.336 87.8703 23.176 87.1343 22.856C86.3983 22.536 85.7663 22.088 85.2383 21.512C84.7103 20.936 84.2943 20.24 83.9902 19.424C83.7023 18.608 83.5583 17.704 83.5583 16.712C83.5583 15.72 83.7023 14.824 83.9902 14.024C84.2943 13.208 84.7103 12.512 85.2383 11.936C85.7823 11.36 86.4223 10.92 87.1583 10.616C87.8943 10.296 88.7023 10.136 89.5823 10.136C90.4623 10.136 91.2703 10.296 92.0063 10.616C92.7583 10.92 93.3983 11.36 93.9263 11.936C94.4543 12.512 94.8623 13.208 95.1503 14.024C95.4543 14.824 95.6063 15.72 95.6063 16.712ZM92.6303 16.712C92.6303 15.464 92.3583 14.48 91.8143 13.76C91.2863 13.024 90.5423 12.656 89.5823 12.656C88.6223 12.656 87.8703 13.024 87.3263 13.76C86.7983 14.48 86.5343 15.464 86.5343 16.712C86.5343 17.976 86.7983 18.976 87.3263 19.712C87.8703 20.448 88.6223 20.816 89.5823 20.816C90.5423 20.816 91.2863 20.448 91.8143 19.712C92.3583 18.976 92.6303 17.976 92.6303 16.712ZM101.742 20.912C102.51 20.912 103.07 20.824 103.422 20.648C103.774 20.456 103.95 20.136 103.95 19.688C103.95 19.272 103.758 18.928 103.374 18.656C103.006 18.384 102.39 18.088 101.526 17.768C100.998 17.576 100.51 17.376 100.062 17.168C99.63 16.944 99.254 16.688 98.934 16.4C98.614 16.112 98.358 15.768 98.166 15.368C97.99 14.952 97.902 14.448 97.902 13.856C97.902 12.704 98.326 11.8 99.174 11.144C100.022 10.472 101.174 10.136 102.63 10.136C103.366 10.136 104.07 10.208 104.742 10.352C105.414 10.48 105.918 10.608 106.254 10.736L105.726 13.088C105.406 12.944 104.998 12.816 104.502 12.704C104.006 12.576 103.43 12.512 102.774 12.512C102.182 12.512 101.702 12.616 101.334 12.824C100.966 13.016 100.782 13.32 100.782 13.736C100.782 13.944 100.814 14.128 100.878 14.288C100.958 14.448 101.086 14.6 101.262 14.744C101.438 14.872 101.67 15.008 101.958 15.152C102.246 15.28 102.598 15.416 103.014 15.56C103.702 15.816 104.286 16.072 104.766 16.328C105.246 16.568 105.638 16.848 105.942 17.168C106.262 17.472 106.494 17.824 106.638 18.224C106.782 18.624 106.854 19.104 106.854 19.664C106.854 20.864 106.406 21.776 105.51 22.4C104.63 23.008 103.366 23.312 101.718 23.312C100.614 23.312 99.726 23.216 99.054 23.024C98.382 22.848 97.91 22.704 97.638 22.592L98.142 20.168C98.574 20.344 99.086 20.512 99.678 20.672C100.286 20.832 100.974 20.912 101.742 20.912Z" fill="#1E2431"/>
</svg>
