<svg width="182" height="32" viewBox="0 0 182 32" fill="none" xmlns="http://www.w3.org/2000/svg">
  <path opacity="0.3"
    d="M56 18C56 16.8954 56.8954 16 58 16H152C153.105 16 154 16.8954 154 18V24C154 25.1046 153.105 26 152 26H58C56.8954 26 56 25.1046 56 24V18Z"
    fill="#4EA539" />
  <g filter="url(#filter0_d_287_346)">
    <path
      d="M47.3717 18.744C48.4597 18.744 49.2517 18.56 49.7477 18.192C50.2437 17.824 50.4917 17.304 50.4917 16.632C50.4917 16.232 50.4037 15.888 50.2277 15.6C50.0677 15.312 49.8277 15.056 49.5077 14.832C49.2037 14.592 48.8277 14.376 48.3797 14.184C47.9317 13.976 47.4197 13.776 46.8437 13.584C46.2677 13.376 45.7077 13.152 45.1637 12.912C44.6357 12.656 44.1637 12.344 43.7477 11.976C43.3477 11.608 43.0197 11.168 42.7637 10.656C42.5237 10.144 42.4037 9.528 42.4037 8.808C42.4037 7.304 42.9237 6.128 43.9637 5.28C45.0037 4.416 46.4197 3.984 48.2117 3.984C49.2517 3.984 50.1717 4.104 50.9717 4.344C51.7877 4.568 52.4277 4.816 52.8917 5.088L51.9557 7.536C51.4117 7.232 50.8117 7 50.1557 6.84C49.5157 6.68 48.8517 6.6 48.1637 6.6C47.3477 6.6 46.7077 6.768 46.2437 7.104C45.7957 7.44 45.5717 7.912 45.5717 8.52C45.5717 8.888 45.6437 9.208 45.7877 9.48C45.9477 9.736 46.1637 9.968 46.4357 10.176C46.7237 10.384 47.0517 10.576 47.4197 10.752C47.8037 10.928 48.2197 11.096 48.6677 11.256C49.4517 11.544 50.1477 11.84 50.7557 12.144C51.3797 12.432 51.8997 12.784 52.3157 13.2C52.7477 13.6 53.0757 14.08 53.2997 14.64C53.5237 15.184 53.6357 15.848 53.6357 16.632C53.6357 18.136 53.0997 19.304 52.0277 20.136C50.9717 20.952 49.4197 21.36 47.3717 21.36C46.6837 21.36 46.0517 21.312 45.4757 21.216C44.9157 21.136 44.4117 21.032 43.9637 20.904C43.5317 20.776 43.1557 20.648 42.8357 20.52C42.5157 20.376 42.2597 20.248 42.0677 20.136L42.9557 17.664C43.3877 17.904 43.9717 18.144 44.7077 18.384C45.4437 18.624 46.3317 18.744 47.3717 18.744ZM55.4606 14.784C55.4606 13.68 55.6206 12.712 55.9406 11.88C56.2766 11.048 56.7166 10.36 57.2606 9.816C57.8046 9.256 58.4286 8.84 59.1326 8.568C59.8366 8.28 60.5566 8.136 61.2926 8.136C63.0206 8.136 64.3646 8.672 65.3246 9.744C66.3006 10.816 66.7886 12.416 66.7886 14.544C66.7886 14.704 66.7806 14.888 66.7646 15.096C66.7646 15.288 66.7566 15.464 66.7406 15.624H58.4606C58.5406 16.632 58.8926 17.416 59.5166 17.976C60.1566 18.52 61.0766 18.792 62.2766 18.792C62.9806 18.792 63.6206 18.728 64.1966 18.6C64.7886 18.472 65.2526 18.336 65.5886 18.192L65.9726 20.568C65.8126 20.648 65.5886 20.736 65.3006 20.832C65.0286 20.912 64.7086 20.984 64.3406 21.048C63.9886 21.128 63.6046 21.192 63.1886 21.24C62.7726 21.288 62.3486 21.312 61.9166 21.312C60.8126 21.312 59.8526 21.152 59.0366 20.832C58.2206 20.496 57.5486 20.04 57.0206 19.464C56.4926 18.872 56.1006 18.184 55.8446 17.4C55.5886 16.6 55.4606 15.728 55.4606 14.784ZM63.8846 13.488C63.8846 13.088 63.8286 12.712 63.7166 12.36C63.6046 11.992 63.4366 11.68 63.2126 11.424C63.0046 11.152 62.7406 10.944 62.4206 10.8C62.1166 10.64 61.7486 10.56 61.3166 10.56C60.8686 10.56 60.4766 10.648 60.1406 10.824C59.8046 10.984 59.5166 11.2 59.2766 11.472C59.0526 11.744 58.8766 12.056 58.7486 12.408C58.6206 12.76 58.5326 13.12 58.4846 13.488H63.8846ZM77.0195 11.064C76.7795 10.984 76.4435 10.904 76.0115 10.824C75.5955 10.728 75.1075 10.68 74.5475 10.68C74.2275 10.68 73.8835 10.712 73.5155 10.776C73.1635 10.84 72.9155 10.896 72.7715 10.944V21H69.8675V9.048C70.4275 8.84 71.1235 8.648 71.9555 8.472C72.8035 8.28 73.7395 8.184 74.7635 8.184C74.9555 8.184 75.1795 8.2 75.4355 8.232C75.6915 8.248 75.9475 8.28 76.2035 8.328C76.4595 8.36 76.7075 8.408 76.9475 8.472C77.1875 8.52 77.3795 8.568 77.5235 8.616L77.0195 11.064ZM83.1851 21C82.3851 19.352 81.5611 17.464 80.7131 15.336C79.8811 13.192 79.1211 10.896 78.4331 8.448H81.5291C81.7051 9.152 81.9051 9.912 82.1291 10.728C82.3691 11.528 82.6171 12.336 82.8731 13.152C83.1451 13.952 83.4171 14.736 83.6891 15.504C83.9771 16.256 84.2411 16.936 84.4811 17.544C84.7211 16.936 84.9771 16.256 85.2491 15.504C85.5211 14.736 85.7851 13.952 86.0411 13.152C86.3131 12.336 86.5691 11.528 86.8091 10.728C87.0491 9.912 87.2571 9.152 87.4331 8.448H90.4331C89.7451 10.896 88.9771 13.192 88.1291 15.336C87.2971 17.464 86.4811 19.352 85.6811 21H83.1851ZM95.5299 21H92.6259V8.448H95.5299V21ZM95.8419 4.776C95.8419 5.32 95.6659 5.752 95.3139 6.072C94.9619 6.392 94.5459 6.552 94.0659 6.552C93.5699 6.552 93.1459 6.392 92.7939 6.072C92.4419 5.752 92.2659 5.32 92.2659 4.776C92.2659 4.216 92.4419 3.776 92.7939 3.456C93.1459 3.136 93.5699 2.976 94.0659 2.976C94.5459 2.976 94.9619 3.136 95.3139 3.456C95.6659 3.776 95.8419 4.216 95.8419 4.776ZM98.5387 14.736C98.5387 13.808 98.6827 12.944 98.9707 12.144C99.2587 11.328 99.6667 10.624 100.195 10.032C100.739 9.44 101.395 8.976 102.163 8.64C102.931 8.304 103.795 8.136 104.755 8.136C105.939 8.136 107.059 8.352 108.115 8.784L107.491 11.16C107.155 11.016 106.771 10.896 106.339 10.8C105.923 10.704 105.475 10.656 104.995 10.656C103.859 10.656 102.995 11.016 102.403 11.736C101.811 12.44 101.515 13.44 101.515 14.736C101.515 15.984 101.795 16.976 102.355 17.712C102.915 18.432 103.859 18.792 105.187 18.792C105.683 18.792 106.171 18.744 106.651 18.648C107.131 18.552 107.547 18.432 107.899 18.288L108.307 20.688C107.987 20.848 107.499 20.992 106.843 21.12C106.203 21.248 105.539 21.312 104.851 21.312C103.779 21.312 102.843 21.152 102.043 20.832C101.259 20.496 100.603 20.04 100.075 19.464C99.5627 18.872 99.1787 18.176 98.9227 17.376C98.6667 16.56 98.5387 15.68 98.5387 14.736ZM113.483 21H110.579V8.448H113.483V21ZM113.795 4.776C113.795 5.32 113.619 5.752 113.267 6.072C112.915 6.392 112.499 6.552 112.019 6.552C111.523 6.552 111.099 6.392 110.747 6.072C110.395 5.752 110.219 5.32 110.219 4.776C110.219 4.216 110.395 3.776 110.747 3.456C111.099 3.136 111.523 2.976 112.019 2.976C112.499 2.976 112.915 3.136 113.267 3.456C113.619 3.776 113.795 4.216 113.795 4.776ZM128.54 14.712C128.54 15.704 128.396 16.608 128.108 17.424C127.82 18.24 127.412 18.936 126.884 19.512C126.356 20.088 125.716 20.536 124.964 20.856C124.228 21.176 123.412 21.336 122.516 21.336C121.62 21.336 120.804 21.176 120.068 20.856C119.332 20.536 118.7 20.088 118.172 19.512C117.644 18.936 117.228 18.24 116.924 17.424C116.636 16.608 116.492 15.704 116.492 14.712C116.492 13.72 116.636 12.824 116.924 12.024C117.228 11.208 117.644 10.512 118.172 9.936C118.716 9.36 119.356 8.92 120.092 8.616C120.828 8.296 121.636 8.136 122.516 8.136C123.396 8.136 124.204 8.296 124.94 8.616C125.692 8.92 126.332 9.36 126.86 9.936C127.388 10.512 127.796 11.208 128.084 12.024C128.388 12.824 128.54 13.72 128.54 14.712ZM125.564 14.712C125.564 13.464 125.292 12.48 124.748 11.76C124.22 11.024 123.476 10.656 122.516 10.656C121.556 10.656 120.804 11.024 120.26 11.76C119.732 12.48 119.468 13.464 119.468 14.712C119.468 15.976 119.732 16.976 120.26 17.712C120.804 18.448 121.556 18.816 122.516 18.816C123.476 18.816 124.22 18.448 124.748 17.712C125.292 16.976 125.564 15.976 125.564 14.712ZM134.676 18.912C135.444 18.912 136.004 18.824 136.356 18.648C136.708 18.456 136.884 18.136 136.884 17.688C136.884 17.272 136.692 16.928 136.308 16.656C135.94 16.384 135.324 16.088 134.46 15.768C133.932 15.576 133.444 15.376 132.996 15.168C132.564 14.944 132.188 14.688 131.868 14.4C131.548 14.112 131.292 13.768 131.1 13.368C130.924 12.952 130.836 12.448 130.836 11.856C130.836 10.704 131.26 9.8 132.108 9.144C132.956 8.472 134.108 8.136 135.564 8.136C136.3 8.136 137.004 8.208 137.676 8.352C138.348 8.48 138.852 8.608 139.188 8.736L138.66 11.088C138.34 10.944 137.932 10.816 137.436 10.704C136.94 10.576 136.364 10.512 135.708 10.512C135.116 10.512 134.636 10.616 134.268 10.824C133.9 11.016 133.716 11.32 133.716 11.736C133.716 11.944 133.748 12.128 133.812 12.288C133.892 12.448 134.02 12.6 134.196 12.744C134.372 12.872 134.604 13.008 134.892 13.152C135.18 13.28 135.532 13.416 135.948 13.56C136.636 13.816 137.22 14.072 137.7 14.328C138.18 14.568 138.572 14.848 138.876 15.168C139.196 15.472 139.428 15.824 139.572 16.224C139.716 16.624 139.788 17.104 139.788 17.664C139.788 18.864 139.34 19.776 138.444 20.4C137.564 21.008 136.3 21.312 134.652 21.312C133.548 21.312 132.66 21.216 131.988 21.024C131.316 20.848 130.844 20.704 130.572 20.592L131.076 18.168C131.508 18.344 132.02 18.512 132.612 18.672C133.22 18.832 133.908 18.912 134.676 18.912Z"
      fill="white" />
  </g>
  <defs>
    <filter id="filter0_d_287_346" x="38.0677" y="0.975998" width="109.72" height="30.384" filterUnits="userSpaceOnUse"
      color-interpolation-filters="sRGB">
      <feFlood flood-opacity="0" result="BackgroundImageFix" />
      <feColorMatrix in="SourceAlpha" type="matrix" values="0 0 0 0 0 0 0 0 0 0 0 0 0 0 0 0 0 0 127 0"
        result="hardAlpha" />
      <feOffset dx="2" dy="4" />
      <feGaussianBlur stdDeviation="3" />
      <feComposite in2="hardAlpha" operator="out" />
      <feColorMatrix type="matrix" values="0 0 0 0 0 0 0 0 0 0 0 0 0 0 0 0 0 0 0.18 0" />
      <feBlend mode="normal" in2="BackgroundImageFix" result="effect1_dropShadow_287_346" />
      <feBlend mode="normal" in="SourceGraphic" in2="effect1_dropShadow_287_346" result="shape" />
    </filter>
  </defs>
</svg>