<svg width="28" height="28" viewBox="0 0 28 28" fill="none" xmlns="http://www.w3.org/2000/svg">
<rect width="28" height="28" rx="5" fill="#00803E"/>
<path d="M12.0467 13.9182C11.5819 13.2455 11.3054 12.4338 11.2483 12.3649C11.9291 11.8903 13.2605 11.2939 13.335 10.4381C13.4299 9.33243 11.5567 7.021 11.1976 7C10.2147 7.0105 8.41606 8.67372 8.20291 9.17633C7.80671 10.2155 8.00306 11.1826 8.68417 12.5826C9.55148 14.6651 12.7729 18.6156 14.6157 19.8557C15.8351 20.7916 16.7259 21.1591 17.7896 20.9372C18.2841 20.8434 20.0702 19.3779 20.249 18.3871C20.2928 18.0196 18.2166 15.5832 17.1427 15.4866C16.309 15.4096 15.5096 16.6577 14.9367 17.2677C14.8796 17.1949 14.391 16.8138 13.8667 16.2104C13.1842 15.4932 12.55 14.6508 12.0467 13.9182Z" fill="white"/>
</svg>
