<svg width="28" height="28" viewBox="0 0 28 28" fill="none" xmlns="http://www.w3.org/2000/svg">
<circle cx="14" cy="14" r="13.5" stroke="white"/>
<path d="M10.9457 20.9946C12.095 21.0379 13.2404 20.8214 14.3141 20.358C15.3879 19.8945 16.3682 19.1936 17.1971 18.2964C18.0261 17.3993 18.6868 16.3243 19.1404 15.1349C19.5939 13.9454 19.831 12.6657 19.8376 11.3714C20.3643 10.6378 20.7554 9.79308 20.9879 8.8869C21.0053 8.81531 21.0039 8.73959 20.9839 8.66887C20.9639 8.59815 20.9262 8.53544 20.8753 8.4883C20.8243 8.44115 20.7624 8.41158 20.6969 8.40314C20.6314 8.3947 20.5651 8.40776 20.506 8.44074C20.2305 8.59003 19.9203 8.63825 19.6191 8.57861C19.3179 8.51898 19.0409 8.35448 18.8271 8.1083C18.5543 7.77199 18.2242 7.50075 17.8565 7.31065C17.4888 7.12055 17.091 7.01545 16.6865 7.00158C16.2821 6.98771 15.8793 7.06535 15.502 7.22991C15.1247 7.39447 14.7806 7.64259 14.49 7.95958C14.0922 8.3932 13.8008 8.93527 13.6442 9.53312C13.4876 10.131 13.471 10.7642 13.5962 11.3714C10.9923 11.5464 9.20462 10.1554 7.77445 8.24827C7.73148 8.19351 7.67528 8.15401 7.6127 8.13461C7.55013 8.1152 7.48388 8.11672 7.42206 8.13899C7.36024 8.16125 7.30551 8.2033 7.26457 8.25999C7.22363 8.31668 7.19824 8.38557 7.1915 8.45823C6.91905 10.1593 7.11559 11.9134 7.75472 13.4851C8.39386 15.0567 9.44498 16.3706 10.7669 17.2503C9.88055 18.3944 8.63582 19.109 7.29255 19.2449C7.22058 19.2584 7.15415 19.2968 7.10254 19.3548C7.05094 19.4128 7.01675 19.4876 7.00476 19.5686C6.99277 19.6496 7.00357 19.7327 7.03566 19.8065C7.06775 19.8802 7.11952 19.9408 7.18373 19.9798C8.35236 20.6371 9.63929 20.9843 10.9457 20.9946" fill="white"/>
</svg>
