<svg width="28" height="28" viewBox="0 0 28 28" fill="none" xmlns="http://www.w3.org/2000/svg">
<path fill-rule="evenodd" clip-rule="evenodd" d="M14 28C21.732 28 28 21.732 28 14C28 6.26801 21.732 0 14 0C6.26801 0 0 6.26801 0 14C0 21.732 6.26801 28 14 28ZM14.3141 20.358C13.2404 20.8214 12.095 21.0379 10.9457 20.9946C9.63929 20.9843 8.35236 20.6371 7.18373 19.9798C7.11952 19.9408 7.06775 19.8802 7.03566 19.8065C7.00357 19.7327 6.99277 19.6496 7.00476 19.5686C7.01675 19.4876 7.05094 19.4128 7.10254 19.3548C7.15415 19.2968 7.22058 19.2584 7.29255 19.2449C8.63582 19.109 9.88055 18.3944 10.7669 17.2503C9.44498 16.3706 8.39386 15.0567 7.75472 13.4851C7.11559 11.9134 6.91905 10.1593 7.1915 8.45823C7.19824 8.38557 7.22363 8.31668 7.26457 8.25999C7.30551 8.2033 7.36024 8.16125 7.42206 8.13899C7.48388 8.11672 7.55013 8.1152 7.6127 8.13461C7.67528 8.15401 7.73148 8.19351 7.77445 8.24827C9.20462 10.1554 10.9923 11.5464 13.5962 11.3714C13.471 10.7642 13.4876 10.131 13.6442 9.53312C13.8008 8.93527 14.0922 8.3932 14.49 7.95958C14.7806 7.64259 15.1247 7.39447 15.502 7.22991C15.8793 7.06535 16.2821 6.98771 16.6865 7.00158C17.091 7.01545 17.4888 7.12055 17.8565 7.31065C18.2242 7.50075 18.5543 7.772 18.8271 8.1083C19.0409 8.35448 19.3179 8.51898 19.6191 8.57861C19.9203 8.63825 20.2305 8.59003 20.506 8.44074C20.5651 8.40776 20.6314 8.3947 20.6969 8.40314C20.7624 8.41158 20.8243 8.44115 20.8753 8.4883C20.9262 8.53544 20.9639 8.59815 20.9839 8.66887C21.0039 8.73959 21.0053 8.8153 20.9879 8.8869C20.7554 9.79308 20.3643 10.6378 19.8376 11.3714C19.831 12.6657 19.5939 13.9454 19.1404 15.1349C18.6868 16.3243 18.0261 17.3993 17.1971 18.2964C16.3682 19.1936 15.3879 19.8945 14.3141 20.358Z" fill="#1E2431"/>
</svg>
