<svg width="25" height="26" viewBox="0 0 25 26" fill="none" xmlns="http://www.w3.org/2000/svg">
<g clip-path="url(#clip0_358_632)">
<path d="M24.5 13.1494C24.5 19.7462 19.1294 25.0975 12.5 25.0975C5.87062 25.0975 0.5 19.7462 0.5 13.1494C0.5 6.55255 5.87062 1.20123 12.5 1.20123C19.1294 1.20123 24.5 6.55255 24.5 13.1494Z" stroke="#1E2431"/>
<path d="M9.77293 19.3686C10.7991 19.4071 11.8218 19.2146 12.7805 18.8026C13.7392 18.3905 14.6145 17.7672 15.3546 16.9695C16.0947 16.1719 16.6847 15.216 17.0896 14.1584C17.4945 13.1008 17.7062 11.963 17.7121 10.8122C18.1824 10.1599 18.5316 9.40876 18.7392 8.60303C18.7547 8.53938 18.7535 8.47205 18.7356 8.40917C18.7178 8.34629 18.6841 8.29053 18.6386 8.24862C18.5932 8.2067 18.5379 8.1804 18.4794 8.1729C18.4209 8.1654 18.3617 8.177 18.309 8.20633C18.0629 8.33907 17.7859 8.38195 17.517 8.32892C17.2481 8.27589 17.0008 8.12963 16.8099 7.91074C16.5663 7.61171 16.2716 7.37054 15.9433 7.20151C15.615 7.03248 15.2598 6.93903 14.8987 6.9267C14.5376 6.91436 14.1779 6.9834 13.841 7.12972C13.5042 7.27604 13.1969 7.49666 12.9375 7.7785C12.5823 8.16406 12.3222 8.64604 12.1823 9.17762C12.0425 9.7092 12.0277 10.2723 12.1394 10.8122C9.81457 10.9677 8.21841 9.73093 6.94147 8.0352C6.90311 7.9865 6.85293 7.95139 6.79706 7.93413C6.74118 7.91687 6.68204 7.91823 6.62684 7.93803C6.57164 7.95782 6.52278 7.99521 6.48622 8.04562C6.44967 8.09603 6.427 8.15727 6.42098 8.22188C6.17772 9.73437 6.3532 11.2941 6.92386 12.6915C7.49451 14.089 8.43302 15.2572 9.61332 16.0394C8.82192 17.0567 7.71055 17.6921 6.5112 17.8129C6.44695 17.8248 6.38763 17.859 6.34156 17.9106C6.29548 17.9622 6.26496 18.0287 6.25425 18.1007C6.24354 18.1727 6.25319 18.2466 6.28184 18.3122C6.31049 18.3778 6.35672 18.4316 6.41404 18.4663C7.45747 19.0507 8.6065 19.3594 9.77293 19.3686Z" fill="#1E2431"/>
</g>
<defs>
<clipPath id="clip0_358_632">
<rect width="25" height="24.8963" fill="white" transform="translate(0 0.701233)"/>
</clipPath>
</defs>
</svg>
