<svg width="80" height="28" viewBox="0 0 80 28" fill="none" xmlns="http://www.w3.org/2000/svg">
<rect opacity="0.3" x="11" y="18" width="69" height="10" rx="2" fill="#4EA539"/>
<path d="M6.744 23C5.544 20.408 4.384 17.696 3.264 14.864C2.16 12.032 1.128 9.2 0.168 6.368H3.504C3.888 7.488 4.28 8.632 4.68 9.8C5.08 10.968 5.48 12.12 5.88 13.256C6.28 14.376 6.68 15.464 7.08 16.52C7.48 17.576 7.872 18.544 8.256 19.424C8.624 18.544 9.008 17.584 9.408 16.544C9.808 15.488 10.208 14.392 10.608 13.256C11.024 12.12 11.432 10.968 11.832 9.8C12.232 8.632 12.616 7.488 12.984 6.368H16.224C15.248 9.2 14.208 12.032 13.104 14.864C12 17.696 10.848 20.408 9.648 23H6.744ZM21.1588 23H18.2548V10.448H21.1588V23ZM21.4708 6.776C21.4708 7.32 21.2948 7.752 20.9428 8.072C20.5908 8.392 20.1748 8.552 19.6948 8.552C19.1988 8.552 18.7748 8.392 18.4228 8.072C18.0708 7.752 17.8948 7.32 17.8948 6.776C17.8948 6.216 18.0708 5.776 18.4228 5.456C18.7748 5.136 19.1988 4.976 19.6948 4.976C20.1748 4.976 20.5908 5.136 20.9428 5.456C21.2948 5.776 21.4708 6.216 21.4708 6.776ZM28.0076 20.912C28.7756 20.912 29.3356 20.824 29.6876 20.648C30.0396 20.456 30.2156 20.136 30.2156 19.688C30.2156 19.272 30.0236 18.928 29.6396 18.656C29.2716 18.384 28.6556 18.088 27.7916 17.768C27.2636 17.576 26.7756 17.376 26.3276 17.168C25.8956 16.944 25.5196 16.688 25.1996 16.4C24.8796 16.112 24.6236 15.768 24.4316 15.368C24.2556 14.952 24.1676 14.448 24.1676 13.856C24.1676 12.704 24.5916 11.8 25.4396 11.144C26.2876 10.472 27.4396 10.136 28.8956 10.136C29.6316 10.136 30.3356 10.208 31.0076 10.352C31.6796 10.48 32.1836 10.608 32.5196 10.736L31.9916 13.088C31.6716 12.944 31.2636 12.816 30.7676 12.704C30.2716 12.576 29.6956 12.512 29.0396 12.512C28.4476 12.512 27.9676 12.616 27.5996 12.824C27.2316 13.016 27.0476 13.32 27.0476 13.736C27.0476 13.944 27.0796 14.128 27.1436 14.288C27.2236 14.448 27.3516 14.6 27.5276 14.744C27.7036 14.872 27.9356 15.008 28.2236 15.152C28.5116 15.28 28.8636 15.416 29.2796 15.56C29.9676 15.816 30.5516 16.072 31.0316 16.328C31.5116 16.568 31.9036 16.848 32.2076 17.168C32.5276 17.472 32.7596 17.824 32.9036 18.224C33.0476 18.624 33.1196 19.104 33.1196 19.664C33.1196 20.864 32.6716 21.776 31.7756 22.4C30.8956 23.008 29.6316 23.312 27.9836 23.312C26.8796 23.312 25.9916 23.216 25.3196 23.024C24.6476 22.848 24.1756 22.704 23.9036 22.592L24.4076 20.168C24.8396 20.344 25.3516 20.512 25.9436 20.672C26.5516 20.832 27.2396 20.912 28.0076 20.912ZM38.7604 23H35.8564V10.448H38.7604V23ZM39.0724 6.776C39.0724 7.32 38.8964 7.752 38.5444 8.072C38.1924 8.392 37.7764 8.552 37.2964 8.552C36.8004 8.552 36.3764 8.392 36.0244 8.072C35.6724 7.752 35.4964 7.32 35.4964 6.776C35.4964 6.216 35.6724 5.776 36.0244 5.456C36.3764 5.136 36.8004 4.976 37.2964 4.976C37.7764 4.976 38.1924 5.136 38.5444 5.456C38.8964 5.776 39.0724 6.216 39.0724 6.776ZM53.8172 16.712C53.8172 17.704 53.6732 18.608 53.3852 19.424C53.0972 20.24 52.6892 20.936 52.1612 21.512C51.6332 22.088 50.9932 22.536 50.2412 22.856C49.5052 23.176 48.6892 23.336 47.7932 23.336C46.8972 23.336 46.0812 23.176 45.3452 22.856C44.6092 22.536 43.9772 22.088 43.4492 21.512C42.9212 20.936 42.5052 20.24 42.2012 19.424C41.9132 18.608 41.7692 17.704 41.7692 16.712C41.7692 15.72 41.9132 14.824 42.2012 14.024C42.5052 13.208 42.9212 12.512 43.4492 11.936C43.9932 11.36 44.6332 10.92 45.3692 10.616C46.1052 10.296 46.9132 10.136 47.7932 10.136C48.6732 10.136 49.4812 10.296 50.2172 10.616C50.9692 10.92 51.6092 11.36 52.1372 11.936C52.6652 12.512 53.0732 13.208 53.3612 14.024C53.6652 14.824 53.8172 15.72 53.8172 16.712ZM50.8412 16.712C50.8412 15.464 50.5692 14.48 50.0252 13.76C49.4972 13.024 48.7532 12.656 47.7932 12.656C46.8332 12.656 46.0812 13.024 45.5372 13.76C45.0092 14.48 44.7452 15.464 44.7452 16.712C44.7452 17.976 45.0092 18.976 45.5372 19.712C46.0812 20.448 46.8332 20.816 47.7932 20.816C48.7532 20.816 49.4972 20.448 50.0252 19.712C50.5692 18.976 50.8412 17.976 50.8412 16.712ZM56.8089 10.856C57.3689 10.696 58.0969 10.544 58.9929 10.4C59.8889 10.256 60.8809 10.184 61.9689 10.184C62.9929 10.184 63.8489 10.328 64.5369 10.616C65.2249 10.888 65.7689 11.28 66.1689 11.792C66.5849 12.288 66.8729 12.896 67.0329 13.616C67.2089 14.32 67.2969 15.096 67.2969 15.944V23H64.3929V16.4C64.3929 15.728 64.3449 15.16 64.2489 14.696C64.1689 14.216 64.0249 13.832 63.8169 13.544C63.6249 13.24 63.3529 13.024 63.0009 12.896C62.6649 12.752 62.2489 12.68 61.7529 12.68C61.3849 12.68 61.0009 12.704 60.6009 12.752C60.2009 12.8 59.9049 12.84 59.7129 12.872V23H56.8089V10.856Z" fill="#1E2431"/>
</svg>
