<svg width="28" height="28" viewBox="0 0 28 28" fill="none" xmlns="http://www.w3.org/2000/svg">
<rect width="28" height="28" rx="5" fill="#00803E"/>
<path d="M17.206 15.3899C17.0306 15.3011 16.1761 14.8842 16.0164 14.8247C15.8567 14.7678 15.7408 14.7381 15.6244 14.9135C15.5107 15.0846 15.1756 15.4761 15.0732 15.5903C14.9708 15.7045 14.8702 15.7133 14.6974 15.6358C14.5219 15.547 13.9615 15.3646 13.2961 14.7678C12.7763 14.3054 12.4303 13.7357 12.3274 13.5603C12.2251 13.3871 12.3161 13.2891 12.4027 13.2024C12.4823 13.1228 12.5781 13.0021 12.6669 12.8971C12.7514 12.7921 12.7785 12.7216 12.8402 12.6079C12.8971 12.4849 12.8677 12.3891 12.8244 12.3025C12.7811 12.2159 12.4324 11.3571 12.2867 11.0149C12.1476 10.6754 12.0019 10.7188 11.8947 10.7188C11.7946 10.7096 11.6782 10.7096 11.5623 10.7096C11.4463 10.7096 11.2569 10.7529 11.0972 10.9191C10.9375 11.0946 10.4864 11.5137 10.4864 12.3616C10.4864 13.2116 11.1107 14.0341 11.1974 14.1571C11.2862 14.2708 12.4254 16.0208 14.1733 16.7729C14.5902 16.9483 14.9139 17.0533 15.1668 17.1399C15.5837 17.2721 15.9644 17.2537 16.2649 17.2104C16.5974 17.1557 17.2948 16.7886 17.4409 16.3787C17.5892 15.9661 17.5892 15.6244 17.5459 15.547C17.5026 15.4674 17.3889 15.4241 17.2134 15.3466L17.206 15.3899ZM14.0363 19.6875H14.0271C12.9924 19.6875 11.9696 19.4071 11.0762 18.8829L10.8666 18.7578L8.67913 19.3274L9.26713 17.199L9.12581 16.9803C8.54919 16.0619 8.24163 15.0023 8.24163 13.9134C8.24163 10.7371 10.8417 8.14625 14.0407 8.14625C15.5903 8.14625 17.0441 8.75 18.1379 9.84375C19.2316 10.9283 19.8354 12.3821 19.8354 13.9226C19.831 17.0966 17.2331 19.6875 14.0385 19.6875H14.0363ZM18.9696 9.01206C17.6387 7.72669 15.8887 7 14.0271 7C10.1876 7 7.06125 10.1128 7.05906 13.9383C7.05906 15.1598 7.378 16.3516 7.98875 17.4064L7 21L10.696 20.0362C11.7145 20.5853 12.8607 20.8792 14.0276 20.8814H14.0298C17.8714 20.8814 20.9978 17.7686 21 13.9405C21 12.0881 20.2777 10.3447 18.9608 9.03437L18.9696 9.01206Z" fill="white"/>
</svg>
