<svg width="28" height="28" viewBox="0 0 28 28" fill="none" xmlns="http://www.w3.org/2000/svg">
<path fill-rule="evenodd" clip-rule="evenodd" d="M14 28C21.732 28 28 21.732 28 14C28 6.26801 21.732 0 14 0C6.26801 0 0 6.26801 0 14C0 21.732 6.26801 28 14 28ZM16.0164 14.8247C16.1761 14.8842 17.0306 15.3011 17.206 15.3899L17.2134 15.3466C17.2303 15.3541 17.2466 15.3612 17.2623 15.3681C17.4101 15.4327 17.5068 15.475 17.5459 15.547C17.5893 15.6244 17.5893 15.9661 17.4409 16.3787C17.2948 16.7886 16.5974 17.1557 16.2649 17.2104C15.9644 17.2537 15.5837 17.2721 15.1668 17.1399C15.1344 17.1288 15.1008 17.1174 15.0661 17.1056C14.8294 17.0252 14.5368 16.9258 14.1733 16.7729C12.5585 16.0781 11.4632 14.5315 11.2357 14.2103C11.217 14.1839 11.2041 14.1657 11.1974 14.1571C11.193 14.1508 11.1871 14.1427 11.18 14.1328C11.0486 13.95 10.4864 13.1682 10.4864 12.3616C10.4864 11.5725 10.8771 11.1547 11.06 10.9592C11.0737 10.9446 11.0861 10.9313 11.0972 10.9191C11.2569 10.7529 11.4463 10.7096 11.5623 10.7096C11.6782 10.7096 11.7946 10.7096 11.8947 10.7188C11.9053 10.7188 11.9163 10.7183 11.9275 10.7179C12.0306 10.7139 12.1613 10.7089 12.2867 11.0149C12.3501 11.1636 12.4518 11.41 12.55 11.6481C12.6779 11.9578 12.8 12.2535 12.8244 12.3025C12.8678 12.3891 12.8971 12.4849 12.8402 12.6079C12.8256 12.6347 12.813 12.6591 12.8011 12.6821C12.7625 12.7568 12.7315 12.8168 12.6669 12.8971C12.6445 12.9236 12.6216 12.9512 12.5986 12.9788C12.5307 13.0605 12.4622 13.1429 12.4027 13.2024C12.3161 13.2891 12.2251 13.3871 12.3274 13.5603C12.4303 13.7358 12.7763 14.3054 13.2961 14.7678C13.8501 15.2647 14.3314 15.4743 14.5783 15.5819C14.6279 15.6035 14.668 15.621 14.6974 15.6358C14.8702 15.7133 14.9708 15.7045 15.0732 15.5903C15.1756 15.4761 15.5107 15.0846 15.6244 14.9135C15.7408 14.7381 15.8567 14.7678 16.0164 14.8247ZM14.0271 19.6875H14.0363H14.0385C17.2331 19.6875 19.831 17.0966 19.8354 13.9226C19.8354 12.3821 19.2316 10.9283 18.1379 9.84375C17.0441 8.75 15.5903 8.14625 14.0407 8.14625C10.8417 8.14625 8.24162 10.7371 8.24162 13.9134C8.24162 15.0023 8.54919 16.0619 9.12581 16.9802L9.26713 17.199L8.67912 19.3274L10.8666 18.7578L11.0762 18.8829C11.9696 19.4071 12.9924 19.6875 14.0271 19.6875ZM14.0271 7C15.8887 7 17.6387 7.72669 18.9696 9.01206L18.9608 9.03438C20.2777 10.3447 21 12.0881 21 13.9405C20.9978 17.7686 17.8714 20.8814 14.0298 20.8814H14.0276C12.8608 20.8792 11.7145 20.5853 10.696 20.0362L7 21L7.98875 17.4064C7.378 16.3516 7.05906 15.1598 7.05906 13.9383C7.06125 10.1128 10.1876 7 14.0271 7Z" fill="#1E2431"/>
</svg>
