<svg width="28" height="28" viewBox="0 0 28 28" fill="none" xmlns="http://www.w3.org/2000/svg">
<circle cx="14" cy="14" r="13.5" stroke="white"/>
<mask id="path-2-inside-1_157_275" fill="white">
<path d="M17.206 15.3899C17.0306 15.3011 16.1761 14.8842 16.0164 14.8247C15.8567 14.7678 15.7408 14.7381 15.6244 14.9135C15.5107 15.0846 15.1756 15.4761 15.0732 15.5903C14.9708 15.7045 14.8702 15.7133 14.6974 15.6358C14.5219 15.547 13.9615 15.3646 13.2961 14.7678C12.7763 14.3054 12.4303 13.7357 12.3274 13.5603C12.2251 13.3871 12.3161 13.2891 12.4027 13.2024C12.4823 13.1228 12.5781 13.0021 12.6669 12.8971C12.7514 12.7921 12.7785 12.7216 12.8402 12.6079C12.8971 12.4849 12.8677 12.3891 12.8244 12.3025C12.7811 12.2159 12.4324 11.3571 12.2867 11.0149C12.1476 10.6754 12.0019 10.7188 11.8947 10.7188C11.7946 10.7096 11.6782 10.7096 11.5623 10.7096C11.4463 10.7096 11.2569 10.7529 11.0972 10.9191C10.9375 11.0946 10.4864 11.5137 10.4864 12.3616C10.4864 13.2116 11.1107 14.0341 11.1974 14.1571C11.2862 14.2708 12.4254 16.0208 14.1732 16.7729C14.5902 16.9483 14.9139 17.0533 15.1668 17.1399C15.5837 17.2721 15.9644 17.2537 16.2649 17.2104C16.5974 17.1557 17.2948 16.7886 17.4409 16.3787C17.5892 15.9661 17.5892 15.6244 17.5459 15.547C17.5026 15.4674 17.3889 15.4241 17.2134 15.3466L17.206 15.3899ZM14.0363 19.6875H14.0271C12.9924 19.6875 11.9696 19.4071 11.0762 18.8829L10.8666 18.7578L8.67913 19.3274L9.26713 17.199L9.12581 16.9803C8.54919 16.0619 8.24163 15.0023 8.24163 13.9134C8.24163 10.7371 10.8417 8.14625 14.0407 8.14625C15.5903 8.14625 17.0441 8.75 18.1379 9.84375C19.2316 10.9283 19.8354 12.3821 19.8354 13.9226C19.831 17.0966 17.2331 19.6875 14.0385 19.6875H14.0363ZM18.9696 9.01206C17.6387 7.72669 15.8887 7 14.0271 7C10.1876 7 7.06125 10.1128 7.05906 13.9383C7.05906 15.1598 7.378 16.3516 7.98875 17.4064L7 21L10.696 20.0362C11.7145 20.5853 12.8607 20.8793 14.0276 20.8814H14.0298C17.8714 20.8814 20.9978 17.7686 21 13.9405C21 12.0881 20.2777 10.3447 18.9608 9.03438L18.9696 9.01206Z"/>
</mask>
<path d="M17.206 15.3899C17.0306 15.3011 16.1761 14.8842 16.0164 14.8247C15.8567 14.7678 15.7408 14.7381 15.6244 14.9135C15.5107 15.0846 15.1756 15.4761 15.0732 15.5903C14.9708 15.7045 14.8702 15.7133 14.6974 15.6358C14.5219 15.547 13.9615 15.3646 13.2961 14.7678C12.7763 14.3054 12.4303 13.7357 12.3274 13.5603C12.2251 13.3871 12.3161 13.2891 12.4027 13.2024C12.4823 13.1228 12.5781 13.0021 12.6669 12.8971C12.7514 12.7921 12.7785 12.7216 12.8402 12.6079C12.8971 12.4849 12.8677 12.3891 12.8244 12.3025C12.7811 12.2159 12.4324 11.3571 12.2867 11.0149C12.1476 10.6754 12.0019 10.7188 11.8947 10.7188C11.7946 10.7096 11.6782 10.7096 11.5623 10.7096C11.4463 10.7096 11.2569 10.7529 11.0972 10.9191C10.9375 11.0946 10.4864 11.5137 10.4864 12.3616C10.4864 13.2116 11.1107 14.0341 11.1974 14.1571C11.2862 14.2708 12.4254 16.0208 14.1732 16.7729C14.5902 16.9483 14.9139 17.0533 15.1668 17.1399C15.5837 17.2721 15.9644 17.2537 16.2649 17.2104C16.5974 17.1557 17.2948 16.7886 17.4409 16.3787C17.5892 15.9661 17.5892 15.6244 17.5459 15.547C17.5026 15.4674 17.3889 15.4241 17.2134 15.3466L17.206 15.3899ZM14.0363 19.6875H14.0271C12.9924 19.6875 11.9696 19.4071 11.0762 18.8829L10.8666 18.7578L8.67913 19.3274L9.26713 17.199L9.12581 16.9803C8.54919 16.0619 8.24163 15.0023 8.24163 13.9134C8.24163 10.7371 10.8417 8.14625 14.0407 8.14625C15.5903 8.14625 17.0441 8.75 18.1379 9.84375C19.2316 10.9283 19.8354 12.3821 19.8354 13.9226C19.831 17.0966 17.2331 19.6875 14.0385 19.6875H14.0363ZM18.9696 9.01206C17.6387 7.72669 15.8887 7 14.0271 7C10.1876 7 7.06125 10.1128 7.05906 13.9383C7.05906 15.1598 7.378 16.3516 7.98875 17.4064L7 21L10.696 20.0362C11.7145 20.5853 12.8607 20.8793 14.0276 20.8814H14.0298C17.8714 20.8814 20.9978 17.7686 21 13.9405C21 12.0881 20.2777 10.3447 18.9608 9.03438L18.9696 9.01206Z" fill="white"/>
<path d="M17.206 15.3899L17.1037 15.592L17.3773 15.7305L17.4292 15.4283L17.206 15.3899ZM16.0164 14.8247L16.0955 14.6125L16.0924 14.6113L16.0164 14.8247ZM15.6244 14.9135L15.813 15.0389L15.8132 15.0387L15.6244 14.9135ZM14.6974 15.6358L14.595 15.8381L14.6048 15.8425L14.6974 15.6358ZM13.2961 14.7678L13.4473 14.5992L13.4466 14.5986L13.2961 14.7678ZM12.3274 13.5603L12.5228 13.4458L12.5224 13.4451L12.3274 13.5603ZM12.6669 12.8971L12.8399 13.0434L12.8434 13.039L12.6669 12.8971ZM12.8402 12.6079L13.0393 12.7158L13.0427 12.7095L13.0457 12.703L12.8402 12.6079ZM12.2867 11.0149L12.0772 11.1008L12.0784 11.1037L12.2867 11.0149ZM11.8947 10.7188L11.8741 10.9443L11.8844 10.9452H11.8947V10.7188ZM11.0972 10.9191L10.9338 10.7622L10.9297 10.7667L11.0972 10.9191ZM11.1974 14.1571L11.012 14.2877L11.0189 14.2964L11.1974 14.1571ZM14.1733 16.7729L14.0837 16.9809L14.0854 16.9816L14.1733 16.7729ZM15.1668 17.1399L15.0934 17.3542L15.0984 17.3558L15.1668 17.1399ZM16.2649 17.2104L16.2972 17.4346L16.3017 17.4338L16.2649 17.2104ZM17.4409 16.3787L17.2278 16.3021L17.2276 16.3026L17.4409 16.3787ZM17.5459 15.547L17.347 15.6552L17.3483 15.6576L17.5459 15.547ZM17.2134 15.3466L17.3049 15.1394L17.0394 15.0222L16.9902 15.3083L17.2134 15.3466ZM11.0762 18.8829L10.9601 19.0774L10.9616 19.0783L11.0762 18.8829ZM10.8666 18.7578L10.9827 18.5634L10.9013 18.5148L10.8096 18.5387L10.8666 18.7578ZM8.67913 19.3274L8.46083 19.2671L8.3563 19.6455L8.73619 19.5466L8.67913 19.3274ZM9.26713 17.199L9.48542 17.2593L9.51246 17.1614L9.45735 17.0761L9.26713 17.199ZM9.12581 16.9803L8.934 17.1007L8.93559 17.1031L9.12581 16.9803ZM18.1379 9.84375L17.9777 10.0039L17.9784 10.0046L18.1379 9.84375ZM19.8354 13.9226L20.0618 13.9229V13.9226H19.8354ZM18.9696 9.01206L19.1804 9.09474L19.2355 8.95411L19.1269 8.84917L18.9696 9.01206ZM7.05906 13.9383L6.83259 13.9382V13.9383H7.05906ZM7.98875 17.4064L8.2071 17.4665L8.23227 17.375L8.18474 17.2929L7.98875 17.4064ZM7 21L6.78165 20.9399L6.67759 21.3181L7.05715 21.2191L7 21ZM10.696 20.0362L10.8035 19.8368L10.7251 19.7946L10.6389 19.817L10.696 20.0362ZM14.0276 20.8814L14.0271 21.1079H14.0276V20.8814ZM21 13.9405L21.2265 13.9406V13.9405H21ZM18.9608 9.03437L18.75 8.9517L18.6957 9.09007L18.8011 9.19491L18.9608 9.03437ZM17.3083 15.1879C17.2185 15.1424 16.9593 15.0152 16.7034 14.8922C16.4535 14.7721 16.1877 14.6468 16.0955 14.6125L15.9374 15.0369C16.0049 15.0621 16.2462 15.175 16.5072 15.3004C16.7623 15.423 17.0181 15.5486 17.1037 15.592L17.3083 15.1879ZM16.0924 14.6113C16.0203 14.5857 15.9021 14.5426 15.778 14.557C15.6285 14.5744 15.5181 14.6641 15.4357 14.7883L15.8132 15.0387C15.8315 15.011 15.8423 15.0031 15.843 15.0026C15.8431 15.0025 15.8414 15.0037 15.8381 15.0049C15.8349 15.0062 15.832 15.0067 15.8304 15.0069C15.8278 15.0072 15.8334 15.006 15.8536 15.0107C15.8747 15.0155 15.901 15.024 15.9405 15.038L16.0924 14.6113ZM15.4359 14.7881C15.3325 14.9436 15.0081 15.3237 14.9046 15.4391L15.2418 15.7415C15.343 15.6286 15.6889 15.2255 15.813 15.0389L15.4359 14.7881ZM14.9046 15.4391C14.89 15.4554 14.8819 15.4606 14.8804 15.4615C14.8803 15.4615 14.8831 15.4602 14.8861 15.4599C14.8873 15.4598 14.8642 15.4624 14.79 15.4291L14.6048 15.8425C14.7034 15.8867 14.817 15.9236 14.9373 15.9099C15.0688 15.895 15.1668 15.8252 15.2418 15.7415L14.9046 15.4391ZM14.7997 15.4338C14.6005 15.333 14.0835 15.1698 13.4473 14.5992L13.1449 14.9364C13.8395 15.5594 14.4433 15.761 14.5951 15.8379L14.7997 15.4338ZM13.4466 14.5986C12.9542 14.1605 12.6226 13.616 12.5228 13.4458L12.132 13.6748C12.2379 13.8555 12.5985 14.4503 13.1455 14.937L13.4466 14.5986ZM12.5224 13.4451C12.509 13.4223 12.5082 13.4128 12.5084 13.4145C12.5088 13.4176 12.5082 13.4229 12.5069 13.4265C12.5064 13.428 12.5077 13.4235 12.5174 13.4113C12.5275 13.3985 12.5411 13.3843 12.5628 13.3626L12.2426 13.0423C12.2038 13.0811 12.1219 13.1603 12.0814 13.2713C12.0334 13.403 12.0532 13.5414 12.1325 13.6755L12.5224 13.4451ZM12.5628 13.3626C12.6514 13.274 12.7594 13.1385 12.8398 13.0433L12.494 12.7508C12.3969 12.8657 12.3133 12.9716 12.2426 13.0423L12.5628 13.3626ZM12.8434 13.039C12.9448 12.9129 12.9874 12.8115 13.0393 12.7158L12.6411 12.4999C12.5696 12.6318 12.5579 12.6712 12.4905 12.7551L12.8434 13.039ZM13.0457 12.703C13.1437 12.4911 13.0852 12.3176 13.027 12.2012L12.6219 12.4038C12.6384 12.4368 12.6435 12.4549 12.6448 12.4668C12.6457 12.4748 12.6461 12.4879 12.6346 12.5128L13.0457 12.703ZM13.027 12.2012C13.027 12.2013 13.0264 12.2001 13.025 12.197C13.0236 12.194 13.0219 12.1901 13.0197 12.1852C13.0153 12.1754 13.0097 12.1625 13.0029 12.1468C12.9894 12.1154 12.972 12.0742 12.9515 12.0254C12.9107 11.928 12.8587 11.8023 12.8033 11.6681C12.6929 11.4007 12.5686 11.0988 12.4951 10.9262L12.0784 11.1037C12.1506 11.2732 12.2735 11.5718 12.3847 11.841C12.4924 12.1019 12.5954 12.3508 12.6219 12.4038L13.027 12.2012ZM12.4963 10.9291C12.417 10.7355 12.3161 10.6009 12.1752 10.5346C12.0479 10.4748 11.9041 10.4923 11.8947 10.4923V10.9452C11.9135 10.9452 11.9343 10.9443 11.9448 10.9439C11.958 10.9434 11.966 10.9433 11.9725 10.9436C11.9837 10.944 11.9843 10.9453 11.9824 10.9445C11.9759 10.9414 12.0174 10.9549 12.0772 11.1008L12.4963 10.9291ZM11.9154 10.4932C11.8029 10.4829 11.6754 10.4831 11.5623 10.4831V10.936C11.681 10.936 11.7863 10.9362 11.8741 10.9443L11.9154 10.4932ZM11.5623 10.4831C11.3963 10.4831 11.1437 10.5438 10.9339 10.7622L11.2605 11.076C11.3701 10.962 11.4963 10.936 11.5623 10.936V10.4831ZM10.9297 10.7667C10.7707 10.9414 10.26 11.4185 10.26 12.3616H10.7129C10.7129 11.6089 11.1043 11.2478 11.2647 11.0716L10.9297 10.7667ZM10.26 12.3616C10.26 12.838 10.4335 13.2934 10.6077 13.6349C10.7833 13.9792 10.9712 14.2293 11.0122 14.2875L11.3825 14.0266C11.3369 13.9619 11.1693 13.7392 11.0112 13.4291C10.8515 13.116 10.7129 12.7352 10.7129 12.3616H10.26ZM11.0189 14.2964C11.0188 14.2964 11.0205 14.2986 11.0251 14.305C11.0293 14.3108 11.0347 14.3183 11.0415 14.3279C11.0548 14.3467 11.073 14.3724 11.0949 14.403C11.1389 14.4646 11.199 14.5472 11.2741 14.6455C11.4243 14.842 11.6347 15.1012 11.8984 15.3809C12.4238 15.9383 13.1703 16.5879 14.0837 16.9809L14.2628 16.5648C12.581 15.8412 11.4807 14.152 11.3759 14.0177L11.0189 14.2964ZM14.0854 16.9816C14.511 17.1607 14.8431 17.2684 15.0934 17.3542L15.2402 16.9257C14.9848 16.8382 14.6693 16.7359 14.2611 16.5641L14.0854 16.9816ZM15.0984 17.3558C15.5602 17.5022 15.9787 17.4804 16.2972 17.4345L16.2326 16.9862C15.9501 17.0269 15.6073 17.0419 15.2352 16.9241L15.0984 17.3558ZM16.3017 17.4338C16.508 17.3999 16.7946 17.2787 17.0449 17.1185C17.2893 16.9621 17.5549 16.7334 17.6543 16.4547L17.2276 16.3026C17.1808 16.4339 17.0247 16.5937 16.8008 16.737C16.5827 16.8765 16.3544 16.9662 16.2282 16.9869L16.3017 17.4338ZM17.6541 16.4553C17.7347 16.2309 17.776 16.0234 17.7909 15.8574C17.7983 15.7746 17.7994 15.6988 17.7945 15.6343C17.7903 15.5801 17.78 15.5016 17.7436 15.4364L17.3483 15.6576C17.3335 15.6311 17.3395 15.6244 17.3429 15.6689C17.3455 15.7031 17.3454 15.7531 17.3397 15.817C17.3283 15.9443 17.2955 16.1139 17.2278 16.3021L17.6541 16.4553ZM17.7449 15.4388C17.6915 15.3407 17.605 15.2839 17.5378 15.2472C17.471 15.2108 17.3846 15.1746 17.3049 15.1394L17.122 15.5538C17.2177 15.596 17.2759 15.6203 17.3207 15.6448C17.365 15.669 17.3571 15.6737 17.347 15.6552L17.7449 15.4388ZM16.9902 15.3083L16.9828 15.3516L17.4292 15.4283L17.4366 15.385L16.9902 15.3083ZM14.0363 19.461H14.0271V19.914H14.0363V19.461ZM14.0271 19.461C13.0331 19.461 12.0498 19.1915 11.1908 18.6876L10.9616 19.0783C11.8894 19.6226 12.9518 19.914 14.0271 19.914V19.461ZM11.1923 18.6885L10.9827 18.5634L10.7505 18.9523L10.9601 19.0774L11.1923 18.6885ZM10.8096 18.5387L8.62206 19.1083L8.73619 19.5466L10.9237 18.977L10.8096 18.5387ZM8.89742 19.3877L9.48542 17.2593L9.04883 17.1387L8.46083 19.2671L8.89742 19.3877ZM9.45735 17.0761L9.31604 16.8574L8.93559 17.1031L9.0769 17.3219L9.45735 17.0761ZM9.31761 16.8598C8.7635 15.9774 8.46809 14.9595 8.46809 13.9134H8.01516C8.01516 15.0452 8.33487 16.1465 8.93402 17.1007L9.31761 16.8598ZM8.46809 13.9134C8.46809 10.8632 10.9657 8.37272 14.0407 8.37272V7.91978C10.7177 7.91978 8.01516 10.611 8.01516 13.9134H8.46809ZM14.0407 8.37272C15.5302 8.37272 16.9264 8.95254 17.9777 10.0039L18.298 9.68361C17.1619 8.54746 15.6505 7.91978 14.0407 7.91978V8.37272ZM17.9784 10.0046C19.0291 11.0465 19.6089 12.4423 19.6089 13.9226H20.0618C20.0618 12.3219 19.4341 10.8102 18.2973 9.68294L17.9784 10.0046ZM19.6089 13.9223C19.6047 16.9707 17.1089 19.461 14.0385 19.461V19.914C17.3574 19.914 20.0573 17.2226 20.0618 13.9229L19.6089 13.9223ZM14.0385 19.461H14.0363V19.914H14.0385V19.461ZM19.1269 8.84917C17.7548 7.52402 15.9488 6.77353 14.0271 6.77353V7.22647C15.8286 7.22647 17.5225 7.92935 18.8122 9.17496L19.1269 8.84917ZM14.0271 6.77353C10.0634 6.77353 6.83485 9.98686 6.83259 13.9382L7.28553 13.9384C7.28765 10.2388 10.3119 7.22647 14.0271 7.22647V6.77353ZM6.83259 13.9383C6.83259 15.1995 7.16195 16.4304 7.79276 17.5199L8.18474 17.2929C7.59405 16.2727 7.28553 15.1202 7.28553 13.9383H6.83259ZM7.7704 17.3463L6.78165 20.9399L7.21835 21.0601L8.2071 17.4665L7.7704 17.3463ZM7.05715 21.2191L10.7531 20.2553L10.6389 19.817L6.94285 20.7809L7.05715 21.2191ZM10.5885 20.2355C11.6397 20.8022 12.8226 21.1056 14.0271 21.1079L14.028 20.655C12.8989 20.6529 11.7893 20.3683 10.8035 19.8368L10.5885 20.2355ZM14.0276 21.1079H14.0298V20.655H14.0276V21.1079ZM14.0298 21.1079C17.9957 21.1079 21.2242 17.8946 21.2265 13.9406L20.7735 13.9404C20.7714 17.6427 17.7472 20.655 14.0298 20.655V21.1079ZM21.2265 13.9405C21.2265 12.028 20.4802 10.2267 19.1205 8.87384L18.8011 9.19491C20.0752 10.4626 20.7735 12.1483 20.7735 13.9405H21.2265ZM19.1716 9.11705L19.1804 9.09474L18.7587 8.92939L18.75 8.9517L19.1716 9.11705Z" fill="white" mask="url(#path-2-inside-1_157_275)"/>
</svg>
