<svg width="95" height="26" viewBox="0 0 95 26" fill="none" xmlns="http://www.w3.org/2000/svg">
<path d="M24.5 12.8174C24.5 19.4142 19.1294 24.7655 12.5 24.7655C5.87062 24.7655 0.5 19.4142 0.5 12.8174C0.5 6.22058 5.87062 0.869263 12.5 0.869263C19.1294 0.869263 24.5 6.22058 24.5 12.8174Z" stroke="#00803E"/>
<path d="M15.3625 14.0533C15.2059 13.9743 14.443 13.6036 14.3004 13.5507C14.1578 13.5001 14.0543 13.4736 13.9504 13.6296C13.8488 13.7817 13.5496 14.1299 13.4582 14.2314C13.3668 14.3329 13.277 14.3407 13.1227 14.2719C12.966 14.1929 12.4656 14.0307 11.8715 13.5001C11.4074 13.0889 11.0984 12.5824 11.0066 12.4264C10.9152 12.2724 10.9965 12.1853 11.0738 12.1082C11.1449 12.0374 11.2305 11.9301 11.3098 11.8367C11.3852 11.7433 11.4094 11.6807 11.4645 11.5796C11.5152 11.4703 11.4891 11.3851 11.4504 11.3081C11.4117 11.231 11.1004 10.4674 10.9703 10.1632C10.8461 9.86135 10.716 9.89986 10.6203 9.89986C10.5309 9.89169 10.427 9.89169 10.3234 9.89169C10.2199 9.89169 10.0508 9.9302 9.9082 10.078C9.76562 10.234 9.36289 10.6067 9.36289 11.3606C9.36289 12.1164 9.92031 12.8477 9.99766 12.957C10.077 13.0582 11.0941 14.6142 12.6547 15.2829C13.027 15.4389 13.316 15.5322 13.5418 15.6093C13.9141 15.7268 14.2539 15.7104 14.5223 15.6719C14.8191 15.6233 15.4418 15.2969 15.5723 14.9324C15.7047 14.5656 15.7047 14.2618 15.666 14.1929C15.6273 14.1221 15.5258 14.0836 15.3691 14.0147L15.3625 14.0533ZM12.5324 17.8744H12.5242C11.6004 17.8744 10.6871 17.6251 9.88945 17.1591L9.70234 17.0478L7.74922 17.5543L8.27422 15.6618L8.14805 15.4673C7.6332 14.6508 7.35859 13.7086 7.35859 12.7404C7.35859 9.9162 9.68008 7.61251 12.5363 7.61251C13.9199 7.61251 15.218 8.14934 16.1945 9.12185C17.1711 10.0862 17.7102 11.3789 17.7102 12.7485C17.7063 15.5708 15.3867 17.8744 12.5344 17.8744H12.5324ZM16.9371 8.38235C15.7488 7.23946 14.1863 6.59332 12.5242 6.59332C9.09609 6.59332 6.30469 9.36109 6.30273 12.7625C6.30273 13.8486 6.5875 14.9083 7.13281 15.8462L6.25 19.0415L9.55 18.1845C10.4594 18.6727 11.4828 18.9341 12.5246 18.936H12.5266C15.9566 18.936 18.748 16.1683 18.75 12.7645C18.75 11.1174 18.1051 9.56726 16.9293 8.40219L16.9371 8.38235Z" fill="#00803E"/>
<path d="M41.3281 12.3287V13.8053C41.3281 14.4459 41.2598 14.9987 41.123 15.4635C40.9863 15.9244 40.7891 16.3033 40.5312 16.6002C40.2773 16.8932 39.9746 17.11 39.623 17.2506C39.2715 17.3912 38.8809 17.4615 38.4512 17.4615C38.1074 17.4615 37.7871 17.4186 37.4902 17.3326C37.1934 17.2428 36.9258 17.1041 36.6875 16.9166C36.4531 16.7291 36.25 16.4928 36.0781 16.2076C35.9102 15.9186 35.7812 15.5748 35.6914 15.1764C35.6016 14.778 35.5566 14.3209 35.5566 13.8053V12.3287C35.5566 11.6881 35.625 11.1393 35.7617 10.6823C35.9023 10.2213 36.0996 9.84436 36.3535 9.55139C36.6113 9.25842 36.916 9.04358 37.2676 8.90686C37.6191 8.76624 38.0098 8.69592 38.4395 8.69592C38.7832 8.69592 39.1016 8.74084 39.3945 8.83069C39.6914 8.91663 39.959 9.05139 40.1973 9.23499C40.4355 9.41858 40.6387 9.65491 40.8066 9.94397C40.9746 10.2291 41.1035 10.5709 41.1934 10.9694C41.2832 11.3639 41.3281 11.817 41.3281 12.3287ZM39.6348 14.028V12.1002C39.6348 11.7916 39.6172 11.5221 39.582 11.2916C39.5508 11.0612 39.502 10.8658 39.4355 10.7057C39.3691 10.5416 39.2871 10.4088 39.1895 10.3073C39.0918 10.2057 38.9805 10.1315 38.8555 10.0846C38.7305 10.0377 38.5918 10.0143 38.4395 10.0143C38.248 10.0143 38.0781 10.0514 37.9297 10.1256C37.7852 10.1998 37.6621 10.319 37.5605 10.483C37.459 10.6432 37.3809 10.858 37.3262 11.1276C37.2754 11.3932 37.25 11.7174 37.25 12.1002V14.028C37.25 14.3365 37.2656 14.608 37.2969 14.8424C37.332 15.0768 37.3828 15.278 37.4492 15.4459C37.5195 15.61 37.6016 15.7448 37.6953 15.8502C37.793 15.9518 37.9043 16.026 38.0293 16.0729C38.1582 16.1198 38.2988 16.1432 38.4512 16.1432C38.6387 16.1432 38.8047 16.1061 38.9492 16.0319C39.0977 15.9537 39.2227 15.8326 39.3242 15.6686C39.4297 15.5006 39.5078 15.2819 39.5586 15.0123C39.6094 14.7428 39.6348 14.4147 39.6348 14.028ZM48.2188 12.3287V13.8053C48.2188 14.4459 48.1504 14.9987 48.0137 15.4635C47.877 15.9244 47.6797 16.3033 47.4219 16.6002C47.168 16.8932 46.8652 17.11 46.5137 17.2506C46.1621 17.3912 45.7715 17.4615 45.3418 17.4615C44.998 17.4615 44.6777 17.4186 44.3809 17.3326C44.084 17.2428 43.8164 17.1041 43.5781 16.9166C43.3438 16.7291 43.1406 16.4928 42.9688 16.2076C42.8008 15.9186 42.6719 15.5748 42.582 15.1764C42.4922 14.778 42.4473 14.3209 42.4473 13.8053V12.3287C42.4473 11.6881 42.5156 11.1393 42.6523 10.6823C42.793 10.2213 42.9902 9.84436 43.2441 9.55139C43.502 9.25842 43.8066 9.04358 44.1582 8.90686C44.5098 8.76624 44.9004 8.69592 45.3301 8.69592C45.6738 8.69592 45.9922 8.74084 46.2852 8.83069C46.582 8.91663 46.8496 9.05139 47.0879 9.23499C47.3262 9.41858 47.5293 9.65491 47.6973 9.94397C47.8652 10.2291 47.9941 10.5709 48.084 10.9694C48.1738 11.3639 48.2188 11.817 48.2188 12.3287ZM46.5254 14.028V12.1002C46.5254 11.7916 46.5078 11.5221 46.4727 11.2916C46.4414 11.0612 46.3926 10.8658 46.3262 10.7057C46.2598 10.5416 46.1777 10.4088 46.0801 10.3073C45.9824 10.2057 45.8711 10.1315 45.7461 10.0846C45.6211 10.0377 45.4824 10.0143 45.3301 10.0143C45.1387 10.0143 44.9688 10.0514 44.8203 10.1256C44.6758 10.1998 44.5527 10.319 44.4512 10.483C44.3496 10.6432 44.2715 10.858 44.2168 11.1276C44.166 11.3932 44.1406 11.7174 44.1406 12.1002V14.028C44.1406 14.3365 44.1562 14.608 44.1875 14.8424C44.2227 15.0768 44.2734 15.278 44.3398 15.4459C44.4102 15.61 44.4922 15.7448 44.5859 15.8502C44.6836 15.9518 44.7949 16.026 44.9199 16.0729C45.0488 16.1198 45.1895 16.1432 45.3418 16.1432C45.5293 16.1432 45.6953 16.1061 45.8398 16.0319C45.9883 15.9537 46.1133 15.8326 46.2148 15.6686C46.3203 15.5006 46.3984 15.2819 46.4492 15.0123C46.5 14.7428 46.5254 14.4147 46.5254 14.028ZM55.1094 12.3287V13.8053C55.1094 14.4459 55.041 14.9987 54.9043 15.4635C54.7676 15.9244 54.5703 16.3033 54.3125 16.6002C54.0586 16.8932 53.7559 17.11 53.4043 17.2506C53.0527 17.3912 52.6621 17.4615 52.2324 17.4615C51.8887 17.4615 51.5684 17.4186 51.2715 17.3326C50.9746 17.2428 50.707 17.1041 50.4688 16.9166C50.2344 16.7291 50.0312 16.4928 49.8594 16.2076C49.6914 15.9186 49.5625 15.5748 49.4727 15.1764C49.3828 14.778 49.3379 14.3209 49.3379 13.8053V12.3287C49.3379 11.6881 49.4062 11.1393 49.543 10.6823C49.6836 10.2213 49.8809 9.84436 50.1348 9.55139C50.3926 9.25842 50.6973 9.04358 51.0488 8.90686C51.4004 8.76624 51.791 8.69592 52.2207 8.69592C52.5645 8.69592 52.8828 8.74084 53.1758 8.83069C53.4727 8.91663 53.7402 9.05139 53.9785 9.23499C54.2168 9.41858 54.4199 9.65491 54.5879 9.94397C54.7559 10.2291 54.8848 10.5709 54.9746 10.9694C55.0645 11.3639 55.1094 11.817 55.1094 12.3287ZM53.416 14.028V12.1002C53.416 11.7916 53.3984 11.5221 53.3633 11.2916C53.332 11.0612 53.2832 10.8658 53.2168 10.7057C53.1504 10.5416 53.0684 10.4088 52.9707 10.3073C52.873 10.2057 52.7617 10.1315 52.6367 10.0846C52.5117 10.0377 52.373 10.0143 52.2207 10.0143C52.0293 10.0143 51.8594 10.0514 51.7109 10.1256C51.5664 10.1998 51.4434 10.319 51.3418 10.483C51.2402 10.6432 51.1621 10.858 51.1074 11.1276C51.0566 11.3932 51.0312 11.7174 51.0312 12.1002V14.028C51.0312 14.3365 51.0469 14.608 51.0781 14.8424C51.1133 15.0768 51.1641 15.278 51.2305 15.4459C51.3008 15.61 51.3828 15.7448 51.4766 15.8502C51.5742 15.9518 51.6855 16.026 51.8105 16.0729C51.9395 16.1198 52.0801 16.1432 52.2324 16.1432C52.4199 16.1432 52.5859 16.1061 52.7305 16.0319C52.8789 15.9537 53.0039 15.8326 53.1055 15.6686C53.2109 15.5006 53.2891 15.2819 53.3398 15.0123C53.3906 14.7428 53.416 14.4147 53.416 14.028ZM62 12.3287V13.8053C62 14.4459 61.9316 14.9987 61.7949 15.4635C61.6582 15.9244 61.4609 16.3033 61.2031 16.6002C60.9492 16.8932 60.6465 17.11 60.2949 17.2506C59.9434 17.3912 59.5527 17.4615 59.123 17.4615C58.7793 17.4615 58.459 17.4186 58.1621 17.3326C57.8652 17.2428 57.5977 17.1041 57.3594 16.9166C57.125 16.7291 56.9219 16.4928 56.75 16.2076C56.582 15.9186 56.4531 15.5748 56.3633 15.1764C56.2734 14.778 56.2285 14.3209 56.2285 13.8053V12.3287C56.2285 11.6881 56.2969 11.1393 56.4336 10.6823C56.5742 10.2213 56.7715 9.84436 57.0254 9.55139C57.2832 9.25842 57.5879 9.04358 57.9395 8.90686C58.291 8.76624 58.6816 8.69592 59.1113 8.69592C59.4551 8.69592 59.7734 8.74084 60.0664 8.83069C60.3633 8.91663 60.6309 9.05139 60.8691 9.23499C61.1074 9.41858 61.3105 9.65491 61.4785 9.94397C61.6465 10.2291 61.7754 10.5709 61.8652 10.9694C61.9551 11.3639 62 11.817 62 12.3287ZM60.3066 14.028V12.1002C60.3066 11.7916 60.2891 11.5221 60.2539 11.2916C60.2227 11.0612 60.1738 10.8658 60.1074 10.7057C60.041 10.5416 59.959 10.4088 59.8613 10.3073C59.7637 10.2057 59.6523 10.1315 59.5273 10.0846C59.4023 10.0377 59.2637 10.0143 59.1113 10.0143C58.9199 10.0143 58.75 10.0514 58.6016 10.1256C58.457 10.1998 58.334 10.319 58.2324 10.483C58.1309 10.6432 58.0527 10.858 57.998 11.1276C57.9473 11.3932 57.9219 11.7174 57.9219 12.1002V14.028C57.9219 14.3365 57.9375 14.608 57.9688 14.8424C58.0039 15.0768 58.0547 15.278 58.1211 15.4459C58.1914 15.61 58.2734 15.7448 58.3672 15.8502C58.4648 15.9518 58.5762 16.026 58.7012 16.0729C58.8301 16.1198 58.9707 16.1432 59.123 16.1432C59.3105 16.1432 59.4766 16.1061 59.6211 16.0319C59.7695 15.9537 59.8945 15.8326 59.9961 15.6686C60.1016 15.5006 60.1797 15.2819 60.2305 15.0123C60.2812 14.7428 60.3066 14.4147 60.3066 14.028ZM66.5469 13.0201V14.3444H63.2363V13.0201H66.5469ZM73.625 12.3287V13.8053C73.625 14.4459 73.5566 14.9987 73.4199 15.4635C73.2832 15.9244 73.0859 16.3033 72.8281 16.6002C72.5742 16.8932 72.2715 17.11 71.9199 17.2506C71.5684 17.3912 71.1777 17.4615 70.748 17.4615C70.4043 17.4615 70.084 17.4186 69.7871 17.3326C69.4902 17.2428 69.2227 17.1041 68.9844 16.9166C68.75 16.7291 68.5469 16.4928 68.375 16.2076C68.207 15.9186 68.0781 15.5748 67.9883 15.1764C67.8984 14.778 67.8535 14.3209 67.8535 13.8053V12.3287C67.8535 11.6881 67.9219 11.1393 68.0586 10.6823C68.1992 10.2213 68.3965 9.84436 68.6504 9.55139C68.9082 9.25842 69.2129 9.04358 69.5645 8.90686C69.916 8.76624 70.3066 8.69592 70.7363 8.69592C71.0801 8.69592 71.3984 8.74084 71.6914 8.83069C71.9883 8.91663 72.2559 9.05139 72.4941 9.23499C72.7324 9.41858 72.9355 9.65491 73.1035 9.94397C73.2715 10.2291 73.4004 10.5709 73.4902 10.9694C73.5801 11.3639 73.625 11.817 73.625 12.3287ZM71.9316 14.028V12.1002C71.9316 11.7916 71.9141 11.5221 71.8789 11.2916C71.8477 11.0612 71.7988 10.8658 71.7324 10.7057C71.666 10.5416 71.584 10.4088 71.4863 10.3073C71.3887 10.2057 71.2773 10.1315 71.1523 10.0846C71.0273 10.0377 70.8887 10.0143 70.7363 10.0143C70.5449 10.0143 70.375 10.0514 70.2266 10.1256C70.082 10.1998 69.959 10.319 69.8574 10.483C69.7559 10.6432 69.6777 10.858 69.623 11.1276C69.5723 11.3932 69.5469 11.7174 69.5469 12.1002V14.028C69.5469 14.3365 69.5625 14.608 69.5938 14.8424C69.6289 15.0768 69.6797 15.278 69.7461 15.4459C69.8164 15.61 69.8984 15.7448 69.9922 15.8502C70.0898 15.9518 70.2012 16.026 70.3262 16.0729C70.4551 16.1198 70.5957 16.1432 70.748 16.1432C70.9355 16.1432 71.1016 16.1061 71.2461 16.0319C71.3945 15.9537 71.5195 15.8326 71.6211 15.6686C71.7266 15.5006 71.8047 15.2819 71.8555 15.0123C71.9062 14.7428 71.9316 14.4147 71.9316 14.028ZM80.5156 12.3287V13.8053C80.5156 14.4459 80.4473 14.9987 80.3105 15.4635C80.1738 15.9244 79.9766 16.3033 79.7188 16.6002C79.4648 16.8932 79.1621 17.11 78.8105 17.2506C78.459 17.3912 78.0684 17.4615 77.6387 17.4615C77.2949 17.4615 76.9746 17.4186 76.6777 17.3326C76.3809 17.2428 76.1133 17.1041 75.875 16.9166C75.6406 16.7291 75.4375 16.4928 75.2656 16.2076C75.0977 15.9186 74.9688 15.5748 74.8789 15.1764C74.7891 14.778 74.7441 14.3209 74.7441 13.8053V12.3287C74.7441 11.6881 74.8125 11.1393 74.9492 10.6823C75.0898 10.2213 75.2871 9.84436 75.541 9.55139C75.7988 9.25842 76.1035 9.04358 76.4551 8.90686C76.8066 8.76624 77.1973 8.69592 77.627 8.69592C77.9707 8.69592 78.2891 8.74084 78.582 8.83069C78.8789 8.91663 79.1465 9.05139 79.3848 9.23499C79.623 9.41858 79.8262 9.65491 79.9941 9.94397C80.1621 10.2291 80.291 10.5709 80.3809 10.9694C80.4707 11.3639 80.5156 11.817 80.5156 12.3287ZM78.8223 14.028V12.1002C78.8223 11.7916 78.8047 11.5221 78.7695 11.2916C78.7383 11.0612 78.6895 10.8658 78.623 10.7057C78.5566 10.5416 78.4746 10.4088 78.377 10.3073C78.2793 10.2057 78.168 10.1315 78.043 10.0846C77.918 10.0377 77.7793 10.0143 77.627 10.0143C77.4355 10.0143 77.2656 10.0514 77.1172 10.1256C76.9727 10.1998 76.8496 10.319 76.748 10.483C76.6465 10.6432 76.5684 10.858 76.5137 11.1276C76.4629 11.3932 76.4375 11.7174 76.4375 12.1002V14.028C76.4375 14.3365 76.4531 14.608 76.4844 14.8424C76.5195 15.0768 76.5703 15.278 76.6367 15.4459C76.707 15.61 76.7891 15.7448 76.8828 15.8502C76.9805 15.9518 77.0918 16.026 77.2168 16.0729C77.3457 16.1198 77.4863 16.1432 77.6387 16.1432C77.8262 16.1432 77.9922 16.1061 78.1367 16.0319C78.2852 15.9537 78.4102 15.8326 78.5117 15.6686C78.6172 15.5006 78.6953 15.2819 78.7461 15.0123C78.7969 14.7428 78.8223 14.4147 78.8223 14.028ZM87.4062 12.3287V13.8053C87.4062 14.4459 87.3379 14.9987 87.2012 15.4635C87.0645 15.9244 86.8672 16.3033 86.6094 16.6002C86.3555 16.8932 86.0527 17.11 85.7012 17.2506C85.3496 17.3912 84.959 17.4615 84.5293 17.4615C84.1855 17.4615 83.8652 17.4186 83.5684 17.3326C83.2715 17.2428 83.0039 17.1041 82.7656 16.9166C82.5312 16.7291 82.3281 16.4928 82.1562 16.2076C81.9883 15.9186 81.8594 15.5748 81.7695 15.1764C81.6797 14.778 81.6348 14.3209 81.6348 13.8053V12.3287C81.6348 11.6881 81.7031 11.1393 81.8398 10.6823C81.9805 10.2213 82.1777 9.84436 82.4316 9.55139C82.6895 9.25842 82.9941 9.04358 83.3457 8.90686C83.6973 8.76624 84.0879 8.69592 84.5176 8.69592C84.8613 8.69592 85.1797 8.74084 85.4727 8.83069C85.7695 8.91663 86.0371 9.05139 86.2754 9.23499C86.5137 9.41858 86.7168 9.65491 86.8848 9.94397C87.0527 10.2291 87.1816 10.5709 87.2715 10.9694C87.3613 11.3639 87.4062 11.817 87.4062 12.3287ZM85.7129 14.028V12.1002C85.7129 11.7916 85.6953 11.5221 85.6602 11.2916C85.6289 11.0612 85.5801 10.8658 85.5137 10.7057C85.4473 10.5416 85.3652 10.4088 85.2676 10.3073C85.1699 10.2057 85.0586 10.1315 84.9336 10.0846C84.8086 10.0377 84.6699 10.0143 84.5176 10.0143C84.3262 10.0143 84.1562 10.0514 84.0078 10.1256C83.8633 10.1998 83.7402 10.319 83.6387 10.483C83.5371 10.6432 83.459 10.858 83.4043 11.1276C83.3535 11.3932 83.3281 11.7174 83.3281 12.1002V14.028C83.3281 14.3365 83.3438 14.608 83.375 14.8424C83.4102 15.0768 83.4609 15.278 83.5273 15.4459C83.5977 15.61 83.6797 15.7448 83.7734 15.8502C83.8711 15.9518 83.9824 16.026 84.1074 16.0729C84.2363 16.1198 84.377 16.1432 84.5293 16.1432C84.7168 16.1432 84.8828 16.1061 85.0273 16.0319C85.1758 15.9537 85.3008 15.8326 85.4023 15.6686C85.5078 15.5006 85.5859 15.2819 85.6367 15.0123C85.6875 14.7428 85.7129 14.4147 85.7129 14.028ZM94.2969 12.3287V13.8053C94.2969 14.4459 94.2285 14.9987 94.0918 15.4635C93.9551 15.9244 93.7578 16.3033 93.5 16.6002C93.2461 16.8932 92.9434 17.11 92.5918 17.2506C92.2402 17.3912 91.8496 17.4615 91.4199 17.4615C91.0762 17.4615 90.7559 17.4186 90.459 17.3326C90.1621 17.2428 89.8945 17.1041 89.6562 16.9166C89.4219 16.7291 89.2188 16.4928 89.0469 16.2076C88.8789 15.9186 88.75 15.5748 88.6602 15.1764C88.5703 14.778 88.5254 14.3209 88.5254 13.8053V12.3287C88.5254 11.6881 88.5938 11.1393 88.7305 10.6823C88.8711 10.2213 89.0684 9.84436 89.3223 9.55139C89.5801 9.25842 89.8848 9.04358 90.2363 8.90686C90.5879 8.76624 90.9785 8.69592 91.4082 8.69592C91.752 8.69592 92.0703 8.74084 92.3633 8.83069C92.6602 8.91663 92.9277 9.05139 93.166 9.23499C93.4043 9.41858 93.6074 9.65491 93.7754 9.94397C93.9434 10.2291 94.0723 10.5709 94.1621 10.9694C94.252 11.3639 94.2969 11.817 94.2969 12.3287ZM92.6035 14.028V12.1002C92.6035 11.7916 92.5859 11.5221 92.5508 11.2916C92.5195 11.0612 92.4707 10.8658 92.4043 10.7057C92.3379 10.5416 92.2559 10.4088 92.1582 10.3073C92.0605 10.2057 91.9492 10.1315 91.8242 10.0846C91.6992 10.0377 91.5605 10.0143 91.4082 10.0143C91.2168 10.0143 91.0469 10.0514 90.8984 10.1256C90.7539 10.1998 90.6309 10.319 90.5293 10.483C90.4277 10.6432 90.3496 10.858 90.2949 11.1276C90.2441 11.3932 90.2188 11.7174 90.2188 12.1002V14.028C90.2188 14.3365 90.2344 14.608 90.2656 14.8424C90.3008 15.0768 90.3516 15.278 90.418 15.4459C90.4883 15.61 90.5703 15.7448 90.6641 15.8502C90.7617 15.9518 90.873 16.026 90.998 16.0729C91.127 16.1198 91.2676 16.1432 91.4199 16.1432C91.6074 16.1432 91.7734 16.1061 91.918 16.0319C92.0664 15.9537 92.1914 15.8326 92.293 15.6686C92.3984 15.5006 92.4766 15.2819 92.5273 15.0123C92.5781 14.7428 92.6035 14.4147 92.6035 14.028Z" fill="#1E2431"/>
</svg>
